<svg width="24" height="25" viewBox="0 0 24 25" fill="none" xmlns="http://www.w3.org/2000/svg">
<g clip-path="url(#clip0_1_38437)">
<path fill-rule="evenodd" clip-rule="evenodd" d="M2.28323 16.5193C2.51077 18.0039 3.77934 19.2445 5.44914 19.25C7.20453 19.2441 8.62574 17.8193 8.62574 16.0625C8.62574 14.3021 7.19865 12.875 5.43824 12.875C3.67783 12.875 2.25074 14.3021 2.25074 16.0625C2.25074 16.2176 2.26182 16.3701 2.28323 16.5193ZM5.46025 21.5L5.45043 21.5L5.43824 21.5C2.79335 21.5 0.589523 19.6116 0.10146 17.1096C-0.114023 16.0457 -0.01428 14.8961 0.485041 13.7914L4.4723 4.96999C5.08317 3.61852 6.42886 2.75 7.91198 2.75C10.1154 2.75 11.8504 4.62936 11.6747 6.82574L11.5089 8.89832C11.6653 8.86273 11.8293 8.84375 12.0007 8.84375C12.1722 8.84375 12.3362 8.86273 12.4926 8.89832L12.3268 6.82574C12.1511 4.62936 13.8861 2.75 16.0895 2.75C17.5726 2.75 18.9183 3.61852 19.5292 4.96999L23.5164 13.7914C24.0158 14.8961 24.1155 16.0459 23.9 17.1098C23.4118 19.6117 21.208 21.5 18.5632 21.5L18.551 21.5L18.5412 21.5C15.6947 21.5 13.3258 19.313 13.0988 16.4756L12.8376 13.2113C12.6216 13.0596 12.3352 12.9687 12.0008 12.9687C11.6663 12.9687 11.3799 13.0597 11.1638 13.2114L10.9027 16.4756C10.6757 19.313 8.30679 21.5 5.46025 21.5ZM5.43824 10.625C6.8038 10.625 8.05179 11.1284 9.00677 11.9597L9.43185 6.64631C9.50282 5.75913 8.802 5 7.91198 5C7.3129 5 6.76934 5.35082 6.52259 5.89672L4.33477 10.737C4.6911 10.6636 5.06016 10.625 5.43824 10.625ZM21.7182 16.5194C21.7397 16.3702 21.7507 16.2176 21.7507 16.0625C21.7507 14.3021 20.3236 12.875 18.5632 12.875C16.8028 12.875 15.3757 14.3021 15.3757 16.0625C15.3757 17.8193 16.7969 19.2441 18.5523 19.25C20.2221 19.2445 21.4907 18.0039 21.7182 16.5194ZM17.4789 5.89672L19.6667 10.737C19.3104 10.6636 18.9413 10.625 18.5632 10.625C17.1977 10.625 15.9497 11.1284 14.9947 11.9597L14.5696 6.64631C14.4987 5.75913 15.1995 5 16.0895 5C16.6886 5 17.2321 5.35082 17.4789 5.89672Z" fill="#BABABA"/>
</g>
<defs>
<clipPath id="clip0_1_38437">
<rect width="24" height="24" fill="white" transform="translate(0 0.5)"/>
</clipPath>
</defs>
</svg>
