<svg width="48" height="48" viewBox="0 0 48 48" fill="none" xmlns="http://www.w3.org/2000/svg">
<rect width="48" height="48" rx="21" transform="matrix(-1 -8.74228e-08 -8.74228e-08 1 48 0)" fill="#C25800"/>
<path d="M19.3077 32.5002C18.8026 32.5002 18.375 32.3252 18.025 31.9752C17.675 31.6252 17.5 31.1976 17.5 30.6925V18.0002H16.5V16.5002H21V15.6157H27V16.5002H31.5V18.0002H30.5V30.6925C30.5 31.1976 30.325 31.6252 29.975 31.9752C29.625 32.3252 29.1974 32.5002 28.6923 32.5002H19.3077ZM21.404 29.0002H22.9037V20.0002H21.404V29.0002ZM25.0962 29.0002H26.596V20.0002H25.0962V29.0002Z" fill="white"/>
</svg>
