<svg width="56" height="56" viewBox="0 0 56 56" fill="none" xmlns="http://www.w3.org/2000/svg">
<rect width="56" height="56" rx="12" fill="#ABD29B"/>
<path d="M21.3077 36.5C20.8026 36.5 20.375 36.325 20.025 35.975C19.675 35.625 19.5 35.1974 19.5 34.6923V21.3077C19.5 20.8026 19.675 20.375 20.025 20.025C20.375 19.675 20.8026 19.5 21.3077 19.5H28.0095V21H21.3077C21.2307 21 21.1603 21.0321 21.0963 21.0962C21.0321 21.1602 21 21.2307 21 21.3077V34.6923C21 34.7692 21.0321 34.8398 21.0963 34.9038C21.1603 34.9679 21.2307 35 21.3077 35H28.0095V36.5H21.3077ZM32.2308 32.2692L31.1923 31.1845L33.627 28.75H25.0963V27.25H33.627L31.1923 24.8155L32.2308 23.7307L36.5 28L32.2308 32.2692Z" fill="white"/>
</svg>
