<svg width="24" height="25" viewBox="0 0 24 25" fill="none" xmlns="http://www.w3.org/2000/svg">
<path fill-rule="evenodd" clip-rule="evenodd" d="M10.2543 5.30321L2.60972 8.57948C2.39149 8.673 2.25 8.88758 2.25 9.125C2.25 9.36242 2.39149 9.577 2.60972 9.67052L10.2543 12.9468C10.7211 13.1468 11.2237 13.25 11.7315 13.25H12.2685C12.7763 13.25 13.2789 13.1468 13.7457 12.9468L21.3903 9.67052C21.6085 9.577 21.75 9.36242 21.75 9.125C21.75 8.88758 21.6085 8.673 21.3903 8.57948L13.7457 5.30321C13.2789 5.10315 12.7763 5 12.2685 5H11.7315C11.2237 5 10.7211 5.10315 10.2543 5.30321ZM2.25 11.9643L4.49991 12.9285V17.7708C4.49991 18.9071 5.14193 19.9459 6.15829 20.4541L7.36782 21.0588C10.288 22.5189 13.7213 22.5375 16.6571 21.1092L18.0204 20.4459C19.0527 19.9437 19.7079 18.8963 19.7079 17.7483V12.8395L22.2766 11.7386C23.3221 11.2905 24 10.2625 24 9.125C24 7.98752 23.3221 6.95948 22.2766 6.5114L14.632 3.23513C13.8851 2.91505 13.081 2.75 12.2685 2.75H11.7315C10.919 2.75 10.1149 2.91505 9.36803 3.23513L1.7234 6.5114C0.677884 6.95948 0 7.98752 0 9.125V15.875C0 16.4963 0.50368 17 1.125 17C1.74632 17 2.25 16.4963 2.25 15.875V11.9643ZM6.74991 17.7708V13.8928L9.36803 15.0149C10.1149 15.335 10.919 15.5 11.7315 15.5H12.2685C13.081 15.5 13.8851 15.335 14.632 15.0149L17.4579 13.8038V17.7483C17.4579 18.0353 17.2941 18.2971 17.036 18.4227L15.6728 19.0859C13.366 20.2082 10.6685 20.1936 8.37404 19.0464L7.16451 18.4416C6.91041 18.3146 6.74991 18.0549 6.74991 17.7708Z" fill="#BABABA"/>
</svg>
