<svg width="48" height="48" viewBox="0 0 48 48" fill="none" xmlns="http://www.w3.org/2000/svg">
<path fill-rule="evenodd" clip-rule="evenodd" d="M3.14722e-06 24C1.40906e-06 37.2548 10.7452 48 24 48C37.2548 48 48 37.2548 48 24C48 10.7452 37.2548 1.63295e-05 24 1.45913e-05C10.7452 1.28532e-05 4.88538e-06 10.7452 3.14722e-06 24ZM19.6104 30.7532C18.6062 31.7574 18.6062 33.3855 19.6104 34.3897C20.6146 35.3939 22.2427 35.3939 23.2469 34.3897L31.8184 25.8183C32.3006 25.336 32.5715 24.682 32.5715 24C32.5715 23.318 32.3006 22.664 31.8184 22.1817L23.247 13.6103C22.2427 12.6061 20.6146 12.6061 19.6104 13.6103C18.6062 14.6145 18.6062 16.2426 19.6104 17.2469L26.3636 24L19.6104 30.7532Z" fill="white"/>
</svg>
