<svg width="115" height="24" viewBox="0 0 115 24" fill="none" xmlns="http://www.w3.org/2000/svg">
<path d="M9.88269 21.6174C10.0155 20.0667 10.1335 18.5816 10.2417 17.0834C9.7827 16.6556 7.97631 15.1491 7.25343 13.6181C5.81913 10.5824 2.86858 10.4184 3.12758 9.77915C3.1997 9.60212 3.36526 9.35296 4.01602 9.43492C5.32738 9.59884 7.27473 10.8118 7.9173 11.715C8.55986 12.6199 9.49092 13.9312 10.4236 14.4131C10.4548 13.9345 10.4826 13.4936 10.5089 13.0887C10.6036 11.5576 10.6666 3.40831 10.7536 0.837438C10.7636 0.5428 10.5168 0.30246 10.2232 0.329103C3.14548 0.971372 0 5.97545 0 12.0576C0 17.4876 2.71517 22.0586 8.18479 23.4342C8.84751 23.6009 9.5451 23.2723 9.71662 22.6109C9.7939 22.3128 9.85086 21.9828 9.88269 21.6174ZM6.90756 6.71714C7.04689 6.65157 8.01237 6.54011 8.7287 8.07111C9.31553 9.32509 8.74018 10.2725 8.60084 10.3381C8.46151 10.4037 7.49603 10.5151 6.7797 8.98414C6.06337 7.4515 6.76823 6.78271 6.90756 6.71714ZM5.93388 14.5017C5.86503 14.6394 5.17493 15.3245 3.66523 14.564C2.1539 13.8034 2.29487 12.8412 2.36372 12.7051C2.43256 12.5674 3.12266 11.8822 4.63236 12.6428C5.86831 13.2641 6.00273 14.3656 5.93388 14.5017Z" fill="#FB812C"/>
<path fill-rule="evenodd" clip-rule="evenodd" d="M12.9482 0.291297C12.6711 0.275184 12.4381 0.498315 12.4392 0.775937C12.4605 5.9782 12.799 11.8424 12.9037 13.7853C13.3676 13.4591 13.8922 12.1953 14.2725 11.4167C15.1609 9.59884 17.3623 8.99234 17.6393 9.33821C18.1114 9.92668 16.6362 9.76276 15.6608 11.9167C15.5395 12.1855 15.4887 12.5215 15.3904 12.8805C15.1724 13.6788 14.7052 14.5181 14.238 15.2213C14.3757 15.1623 14.5085 15.0967 14.6331 15.0377C14.9724 14.8721 16.3886 13.7591 16.6231 13.7591C16.7099 13.7591 16.7886 13.7771 16.8591 13.8116C17.0197 13.8919 17.1164 14.0378 17.1279 14.2115C17.164 14.7918 14.9724 16.4785 14.9281 16.508C14.5232 16.7785 13.5446 17.1801 13.1021 17.3571C13.1873 18.798 13.2807 20.1962 13.3824 21.6223C13.413 22.042 13.478 22.4156 13.5703 22.748C13.7443 23.3744 14.4029 23.6896 15.041 23.5647C21.1489 22.3688 23.6027 17.6712 23.6027 12.0576C23.6027 5.83665 20.7252 0.743435 12.9482 0.291297ZM14.379 7.22529C14.3741 8.9153 15.2953 9.22674 15.4494 9.22674C15.6035 9.22838 16.5263 8.61532 16.5313 7.23184C16.5362 5.54184 15.6149 5.23203 15.4609 5.23039C15.3068 5.22875 14.3839 5.53364 14.379 7.22529ZM16.8689 12.5379C16.9247 12.6822 17.5426 13.4313 19.1212 12.8231C20.6981 12.215 20.6538 11.2446 20.5981 11.1003C20.5424 10.9561 19.6375 10.3168 18.3458 10.8151C16.7689 11.4233 16.8132 12.3937 16.8689 12.5379Z" fill="#FB812C"/>
<path d="M39.7075 12.7327C39.7251 14.279 39.7602 15.9659 39.5669 17.5122C39.4088 18.8828 37.2299 18.8828 37.4056 17.5122C37.5989 16.0361 37.4935 14.4898 37.511 13.0138C37.511 12.2406 37.4759 11.4499 37.4583 10.6768C37.4583 10.1496 37.5989 9.13046 37.4759 8.44516C36.2107 8.41002 34.8753 8.44516 33.6277 8.58573C33.4871 11.5554 33.3641 14.5425 33.3641 17.5122C33.3641 18.9003 31.2028 18.9003 31.2028 17.5122C31.2028 14.2263 31.3609 10.9228 31.5015 7.63686C31.5367 7.19757 31.8178 6.67042 32.3098 6.60013C33.8737 6.35412 35.543 6.28384 37.1245 6.28384C38.3896 6.26627 39.2682 6.42441 39.5142 7.81258C39.7954 9.37646 39.6899 11.1336 39.7075 12.7327ZM51.4607 11.3445C51.6364 14.3844 50.2833 17.6176 47.0326 18.3732C43.448 19.199 41.2691 15.8253 41.1812 12.6448C41.0933 9.83332 43.0262 6.30141 46.1716 6.30141C46.4351 6.30141 46.646 6.3717 46.8041 6.4947C49.2993 6.88128 51.3025 8.6033 51.4607 11.3445ZM47.384 15.8956C49.0709 14.9291 49.5278 13.0138 49.2466 11.2215C48.9655 9.39403 47.5422 8.58573 45.8026 8.58573C45.7147 8.58573 45.6268 8.58573 45.5566 8.56816C43.9575 9.06017 43.2195 11.4675 43.3601 12.9084C43.5534 15.017 45.0645 17.2134 47.384 15.8956ZM59.3237 11.3445C61.2742 12.5218 61.8716 15.263 60.0617 17.4067C58.8844 18.7949 57.1273 19.1288 55.4404 18.4786C53.6832 17.7933 53.0155 16.7917 52.4708 15.0873C52.0315 13.7518 54.1225 13.1895 54.5618 14.5074C54.8254 15.3508 55.0714 15.8956 55.8972 16.3173C56.7583 16.7566 57.6544 16.7741 58.3397 16.0889C59.9563 14.4547 58.4627 12.6975 56.4947 12.9611C55.1592 13.1368 55.1944 11.2391 56.196 10.8349C57.0394 10.4835 58.1991 9.71032 57.9004 8.69116C57.4611 7.14485 55.5107 8.18158 55.4404 9.39403C55.3701 10.7822 53.2088 10.7822 53.2791 9.39403C53.4196 6.65284 56.8285 4.35095 59.1129 6.58256C60.0617 7.51386 60.378 9.07774 59.9739 10.3078C59.8333 10.6943 59.6049 11.0282 59.3237 11.3445ZM71.7443 17.0026C72.412 18.215 70.5494 19.3045 69.8641 18.092C69.6357 17.6703 69.4951 17.1959 69.4248 16.7214C68.1773 17.8636 66.5255 18.5489 64.9968 18.2677C63.0112 17.8812 62.6949 16.0713 62.5719 14.3493C62.3962 12.0825 62.5719 9.78061 62.5719 7.51386C62.5719 6.10812 64.7332 6.10812 64.7332 7.51386C64.7332 8.95474 64.7332 10.378 64.6629 11.8014C64.6278 12.7502 64.5223 14.0681 64.7859 14.9818C65.5942 17.6703 69.1613 14.6831 69.337 13.0314C69.3546 12.9259 69.3721 12.8381 69.4073 12.7678V7.56657C69.4073 6.17841 71.5686 6.17841 71.5686 7.56657V12.8381C71.5686 13.9802 71.1644 15.9659 71.7443 17.0026ZM81.5138 6.47713C82.9019 6.47713 82.9019 8.65602 81.5138 8.65602C80.477 8.65602 79.4579 8.65602 78.4387 8.65602C78.2454 10.2199 78.4739 11.9068 78.4914 13.4707C78.509 14.894 78.4914 16.3349 78.4914 17.7582C78.4914 19.1463 76.3301 19.1463 76.3301 17.7582C76.3301 14.8061 75.9611 11.6432 76.2774 8.69116C75.434 8.70873 74.5905 8.74388 73.7471 8.77902C72.3413 8.83174 72.3589 6.67042 73.7471 6.6177C76.3301 6.4947 78.9132 6.47713 81.5138 6.47713ZM93.4165 11.3445C93.5923 14.3844 92.2392 17.6176 88.9885 18.3732C85.4038 19.199 83.225 15.8253 83.1371 12.6448C83.0492 9.83332 84.9821 6.30141 88.1275 6.30141C88.391 6.30141 88.6019 6.3717 88.76 6.4947C91.2552 6.88128 93.2584 8.6033 93.4165 11.3445ZM89.3399 15.8956C91.0268 14.9291 91.4837 13.0138 91.2025 11.2215C90.9214 9.39403 89.4981 8.58573 87.7585 8.58573C87.6706 8.58573 87.5827 8.58573 87.5124 8.56816C85.9134 9.06017 85.1754 11.4675 85.316 12.9084C85.5093 15.017 87.0204 17.2134 89.3399 15.8956ZM104.003 16.8796C104.566 18.1447 102.703 19.2342 102.141 17.969C101.526 16.616 101.262 15.017 100.77 13.6112C100.296 12.1704 99.9442 10.6768 99.4522 9.23589C98.6614 10.3956 98.2046 12.1001 97.8004 13.1544C97.203 14.648 96.711 16.2119 96.3244 17.7757C95.9905 19.1288 93.9171 18.5489 94.2509 17.1959C94.7781 15.0346 95.5337 12.9259 96.3947 10.8876C97.0975 9.21831 97.6774 7.35571 99.3116 6.40684C99.7684 6.12569 100.559 6.24869 100.805 6.79342C101.508 8.42759 101.947 10.2023 102.492 11.9068C102.808 12.9084 103.195 13.8924 103.511 14.9115C103.687 15.5266 103.74 16.2821 104.003 16.8796ZM113.647 16.3173C114.947 16.8093 114.385 18.9003 113.067 18.4083C111.819 17.9163 110.642 17.0202 109.517 16.2997C108.955 15.9307 108.199 15.5793 107.532 15.14C107.549 15.9483 107.549 16.739 107.549 17.5473C107.549 18.9355 105.37 18.9355 105.37 17.5473C105.37 14.156 105.318 10.7646 105.441 7.39086C105.493 5.98512 107.655 5.98512 107.602 7.39086C107.549 8.72631 107.532 10.0793 107.532 11.4323C108.006 10.9228 108.516 10.4308 108.937 9.90361C109.816 8.81416 110.835 7.795 111.837 6.81099C112.838 5.82697 114.367 7.35571 113.383 8.33973C112.381 9.32374 111.397 10.3078 110.501 11.3796C109.956 12.0474 109.254 12.6799 108.691 13.3652C109.324 13.8045 110.361 14.2614 110.835 14.5777C111.696 15.1224 112.698 15.9483 113.647 16.3173Z" fill="#FB812C"/>
</svg>
