<svg width="24" height="24" viewBox="0 0 24 24" fill="none" xmlns="http://www.w3.org/2000/svg">
<path d="M7.5 8.60575L9.31725 6.798L7.5 4.99025L5.69225 6.798L7.5 8.60575ZM4.80775 13.9998C4.30258 13.9998 3.875 13.8247 3.525 13.4747C3.175 13.1248 3 12.6972 3 12.1922V3.8075C3 3.3025 3.175 2.875 3.525 2.525C3.875 2.175 4.30258 2 4.80775 2H20.1923C20.6974 2 21.125 2.175 21.475 2.525C21.825 2.875 22 3.3025 22 3.8075V12.1922C22 12.6972 21.825 13.1248 21.475 13.4747C21.125 13.8247 20.6974 13.9998 20.1923 13.9998H17.0443C17.1096 13.7498 17.1532 13.4998 17.175 13.25C17.1968 13 17.1975 12.75 17.177 12.5H20.1923C20.2693 12.5 20.3398 12.4679 20.4038 12.4038C20.4679 12.3396 20.5 12.2691 20.5 12.1922V3.8075C20.5 3.73067 20.4679 3.66017 20.4038 3.596C20.3398 3.532 20.2693 3.5 20.1923 3.5H4.80775C4.73075 3.5 4.66025 3.532 4.59625 3.596C4.53208 3.66017 4.5 3.73067 4.5 3.8075V12.1922C4.5 12.2691 4.53208 12.3396 4.59625 12.4038C4.66025 12.4679 4.73075 12.5 4.80775 12.5H7.823C7.8025 12.75 7.80317 13 7.825 13.25C7.84683 13.4998 7.89042 13.7498 7.95575 13.9998H4.80775ZM16.9988 7.25C17.3458 7.25 17.641 7.12858 17.8845 6.88575C18.1282 6.64292 18.25 6.348 18.25 6.001C18.25 5.65417 18.1286 5.35892 17.8857 5.11525C17.6429 4.87175 17.3481 4.75 17.0013 4.75C16.6543 4.75 16.359 4.87142 16.1155 5.11425C15.8718 5.35708 15.75 5.65192 15.75 5.99875C15.75 6.34558 15.8714 6.64083 16.1143 6.8845C16.3571 7.12817 16.6519 7.25 16.9988 7.25ZM6 22.2305V20.4768C6 19.9896 6.13525 19.5361 6.40575 19.1162C6.67625 18.6964 7.0365 18.3839 7.4865 18.1787C8.2775 17.8146 9.09383 17.5399 9.9355 17.3547C10.7772 17.1694 11.632 17.0767 12.5 17.0767C13.368 17.0767 14.2228 17.1694 15.0645 17.3547C15.9062 17.5399 16.7225 17.8146 17.5135 18.1787C17.9635 18.3839 18.3238 18.6957 18.5943 19.114C18.8648 19.5323 19 19.9855 19 20.4735V22.2305H6ZM7.5 20.7305H17.5V20.4768C17.5 20.2768 17.4417 20.0934 17.325 19.9268C17.2083 19.7601 17.0583 19.6351 16.875 19.5518C16.175 19.2351 15.4583 18.9934 14.725 18.8267C13.9917 18.6601 13.25 18.5767 12.5 18.5767C11.75 18.5767 11.0083 18.6601 10.275 18.8267C9.54167 18.9934 8.825 19.2351 8.125 19.5518C7.94167 19.6351 7.79167 19.7601 7.675 19.9268C7.55833 20.0934 7.5 20.2768 7.5 20.4768V20.7305ZM12.5 15.8845C11.668 15.8845 10.96 15.5925 10.376 15.0085C9.792 14.4245 9.5 13.7165 9.5 12.8845C9.5 12.0525 9.792 11.3445 10.376 10.7605C10.96 10.1765 11.668 9.8845 12.5 9.8845C13.332 9.8845 14.04 10.1765 14.624 10.7605C15.208 11.3445 15.5 12.0525 15.5 12.8845C15.5 13.7165 15.208 14.4245 14.624 15.0085C14.04 15.5925 13.332 15.8845 12.5 15.8845ZM12.5 14.3845C12.9167 14.3845 13.2708 14.2387 13.5625 13.947C13.8542 13.6553 14 13.3012 14 12.8845C14 12.4678 13.8542 12.1137 13.5625 11.822C13.2708 11.5303 12.9167 11.3845 12.5 11.3845C12.0833 11.3845 11.7292 11.5303 11.4375 11.822C11.1458 12.1137 11 12.4678 11 12.8845C11 13.3012 11.1458 13.6553 11.4375 13.947C11.7292 14.2387 12.0833 14.3845 12.5 14.3845Z" fill="#313333"/>
</svg>
