<svg width="48" height="48" viewBox="0 0 48 48" fill="none" xmlns="http://www.w3.org/2000/svg">
<rect width="48" height="48" rx="21" transform="matrix(-1 -8.74228e-08 -8.74228e-08 1 48 0)" fill="#C25800"/>
<path d="M23.25 28.75H24.75V24.75H28.75V23.25H24.75V19.25H23.25V23.25H19.25V24.75H23.25V28.75ZM24.0017 33.5C22.6877 33.5 21.4527 33.2507 20.2965 32.752C19.1403 32.2533 18.1347 31.5766 17.2795 30.7218C16.4243 29.8669 15.7472 28.8617 15.2482 27.706C14.7494 26.5503 14.5 25.3156 14.5 24.0017C14.5 22.6877 14.7493 21.4527 15.248 20.2965C15.7467 19.1403 16.4234 18.1347 17.2783 17.2795C18.1331 16.4243 19.1383 15.7472 20.294 15.2482C21.4497 14.7494 22.6844 14.5 23.9983 14.5C25.3123 14.5 26.5473 14.7493 27.7035 15.248C28.8597 15.7467 29.8653 16.4234 30.7205 17.2783C31.5757 18.1331 32.2528 19.1383 32.7518 20.294C33.2506 21.4497 33.5 22.6844 33.5 23.9983C33.5 25.3123 33.2507 26.5473 32.752 27.7035C32.2533 28.8597 31.5766 29.8653 30.7218 30.7205C29.8669 31.5757 28.8617 32.2528 27.706 32.7518C26.5503 33.2506 25.3156 33.5 24.0017 33.5Z" fill="white"/>
</svg>
