<svg width="88" height="88" viewBox="0 0 88 88" fill="none" xmlns="http://www.w3.org/2000/svg">
<path fill-rule="evenodd" clip-rule="evenodd" d="M50.6016 17.6001H19.8016C16.3007 17.6001 12.9432 18.9908 10.4678 21.4663C7.99227 23.9418 6.60156 27.2992 6.60156 30.8001V57.2001C6.60156 60.701 7.99227 64.0584 10.4678 66.5339C12.9432 69.0094 16.3007 70.4001 19.8016 70.4001H50.6016C54.1024 70.4001 57.4599 69.0094 59.9354 66.5339C62.4109 64.0584 63.8016 60.701 63.8016 57.2001V30.8001C63.8016 27.2992 62.4109 23.9418 59.9354 21.4663C57.4599 18.9908 54.1024 17.6001 50.6016 17.6001ZM15.4016 30.8001C15.4016 29.6331 15.8651 28.514 16.6903 27.6888C17.5155 26.8637 18.6346 26.4001 19.8016 26.4001H50.6016C51.7685 26.4001 52.8877 26.8637 53.7128 27.6888C54.538 28.514 55.0016 29.6331 55.0016 30.8001V57.2001C55.0016 58.3671 54.538 59.4862 53.7128 60.3114C52.8877 61.1365 51.7685 61.6001 50.6016 61.6001H19.8016C18.6346 61.6001 17.5155 61.1365 16.6903 60.3114C15.8651 59.4862 15.4016 58.3671 15.4016 57.2001V30.8001Z" fill="#EA6B00"/>
<path fill-rule="evenodd" clip-rule="evenodd" d="M74.5129 22.7746L59.2537 33.251C58.6707 33.6512 58.1927 34.1861 57.8603 34.8104C57.5278 35.4346 57.3508 36.1298 57.3441 36.837L57.2033 50.983C57.1964 51.7043 57.367 52.4163 57.7 53.0562C58.033 53.6961 58.5182 54.2443 59.1129 54.6526L74.5129 65.2258C75.1736 65.6793 75.9455 65.9439 76.7455 65.9908C77.5454 66.0378 78.343 65.8654 79.0522 65.4922C79.7614 65.1191 80.3552 64.5594 80.7695 63.8735C81.1838 63.1875 81.403 62.4015 81.4033 61.6002V26.4002C81.403 25.5988 81.1838 24.8128 80.7695 24.1269C80.3552 23.441 79.7614 22.8812 79.0522 22.5081C78.343 22.135 77.5454 21.9626 76.7455 22.0095C75.9455 22.0565 75.1736 22.321 74.5129 22.7746ZM72.6033 53.2402L66.0253 48.7258L66.1221 39.2086L72.6033 34.7602V53.2402Z" fill="#EA6B00"/>
</svg>
