<svg width="24" height="24" viewBox="0 0 24 24" fill="none" xmlns="http://www.w3.org/2000/svg">
<path d="M11.7586 8.88771C11.22 8.83452 10.6781 8.9491 10.2072 9.21577C9.73623 9.48243 9.35922 9.88814 9.12776 10.3774C8.8963 10.8666 8.8217 11.4154 8.91419 11.9486C9.00668 12.4818 9.26173 12.9735 9.64442 13.3562C10.0271 13.7389 10.5187 13.9939 11.052 14.0864C11.5852 14.1789 12.134 14.1043 12.6232 13.8728C13.1124 13.6414 13.5181 13.2644 13.7848 12.7934C14.0515 12.3225 14.1661 11.7806 14.1129 11.242C14.0522 10.6383 13.7847 10.074 13.3556 9.64495C12.9266 9.21588 12.3623 8.94836 11.7586 8.88771ZM18.0791 11.5C18.0774 11.7853 18.0565 12.0702 18.0163 12.3527L19.8706 13.8071C19.9514 13.8741 20.0058 13.9674 20.0242 14.0707C20.0426 14.174 20.0238 14.2804 19.9711 14.3711L18.2169 17.4062C18.1636 17.4961 18.0803 17.5642 17.9817 17.5987C17.8832 17.6331 17.7756 17.6316 17.6779 17.5945L15.8363 16.8529C15.7348 16.8125 15.6248 16.7979 15.5162 16.8104C15.4076 16.823 15.3038 16.8622 15.2141 16.9247C14.9331 17.1183 14.6377 17.2902 14.3307 17.4391C14.2341 17.486 14.1506 17.556 14.0875 17.6428C14.0244 17.7296 13.9837 17.8307 13.9689 17.937L13.6929 19.9012C13.6747 20.005 13.6211 20.0992 13.5412 20.1678C13.4613 20.2364 13.3601 20.2751 13.2548 20.2773H9.74634C9.6428 20.2756 9.54295 20.2385 9.46325 20.1724C9.38355 20.1063 9.32875 20.015 9.30789 19.9135L9.03226 17.9522C9.01678 17.8447 8.97499 17.7427 8.91059 17.6552C8.84619 17.5678 8.76118 17.4976 8.66312 17.451C8.35639 17.303 8.06204 17.1305 7.78293 16.9354C7.69355 16.8732 7.59011 16.8342 7.48192 16.822C7.37373 16.8097 7.26419 16.8246 7.16318 16.8653L5.32199 17.6064C5.22442 17.6436 5.11686 17.6451 5.01827 17.6107C4.91968 17.5764 4.83638 17.5083 4.78304 17.4186L3.02881 14.3834C2.97607 14.2927 2.95722 14.1863 2.97562 14.083C2.99402 13.9797 3.04848 13.8863 3.12929 13.8194L4.6965 12.589C4.78236 12.5208 4.84984 12.4323 4.89282 12.3314C4.93579 12.2306 4.9529 12.1206 4.94259 12.0115C4.92783 11.8404 4.91881 11.6698 4.91881 11.4988C4.91881 11.3277 4.92742 11.1596 4.94259 10.9922C4.95178 10.8838 4.93383 10.7747 4.89037 10.6749C4.8469 10.5751 4.7793 10.4876 4.69363 10.4205L3.12724 9.19C3.04774 9.12277 2.99443 9.02971 2.97666 8.92712C2.95888 8.82453 2.97778 8.71896 3.03004 8.62891L4.78427 5.59375C4.83755 5.50392 4.92082 5.43578 5.01942 5.40134C5.11801 5.3669 5.2256 5.36837 5.32322 5.40549L7.16482 6.14705C7.26638 6.18749 7.37638 6.2021 7.48497 6.18957C7.59356 6.17704 7.69735 6.13777 7.78703 6.07527C8.06809 5.88173 8.36343 5.70979 8.6705 5.56094C8.76705 5.51402 8.85055 5.44404 8.91364 5.3572C8.97673 5.27036 9.01747 5.16932 9.03226 5.06301L9.3083 3.09877C9.32643 2.99503 9.38002 2.90081 9.45992 2.83221C9.53982 2.76361 9.64106 2.72489 9.74634 2.72266H13.2548C13.3584 2.72445 13.4582 2.76146 13.5379 2.82759C13.6176 2.89372 13.6724 2.98503 13.6933 3.08646L13.9689 5.04783C13.9844 5.15532 14.0262 5.25732 14.0906 5.34476C14.155 5.4322 14.24 5.50237 14.338 5.54904C14.6448 5.69704 14.9391 5.86945 15.2182 6.06461C15.3076 6.12679 15.4111 6.16576 15.5192 6.17801C15.6274 6.19025 15.737 6.17539 15.838 6.13475L17.6792 5.39359C17.7767 5.35644 17.8843 5.35491 17.9829 5.38927C18.0815 5.42364 18.1648 5.49169 18.2181 5.58145L19.9724 8.6166C20.0251 8.70728 20.0439 8.81374 20.0255 8.91701C20.0071 9.02029 19.9527 9.11368 19.8719 9.18057L18.3047 10.411C18.2184 10.479 18.1506 10.5674 18.1072 10.6683C18.0639 10.7691 18.0464 10.8792 18.0565 10.9885C18.0701 11.1583 18.0791 11.329 18.0791 11.5Z" stroke="white" stroke-linecap="round" stroke-linejoin="round"/>
</svg>
