<svg width="24" height="24" viewBox="0 0 24 24" fill="none" xmlns="http://www.w3.org/2000/svg">
<path d="M16.6345 14.6155C16.0115 14.6155 15.4808 14.3962 15.0423 13.9578C14.6038 13.5192 14.3845 12.9885 14.3845 12.3655C14.3845 11.7423 14.6038 11.2115 15.0423 10.773C15.4808 10.3347 16.0115 10.1155 16.6345 10.1155C17.2577 10.1155 17.7884 10.3347 18.2268 10.773C18.6653 11.2115 18.8845 11.7423 18.8845 12.3655C18.8845 12.9885 18.6653 13.5192 18.2268 13.9578C17.7884 14.3962 17.2577 14.6155 16.6345 14.6155ZM11.8845 19.6155V18.4655C11.8845 18.1103 11.9753 17.7843 12.157 17.4873C12.3387 17.1903 12.5966 16.9766 12.9307 16.8463C13.5124 16.6026 14.1143 16.4198 14.7363 16.298C15.3583 16.1763 15.991 16.1155 16.6345 16.1155C17.2652 16.1155 17.8918 16.1763 18.5142 16.298C19.1368 16.4198 19.7448 16.6026 20.3385 16.8463C20.6727 16.9766 20.9305 17.1903 21.112 17.4873C21.2937 17.7843 21.3845 18.1103 21.3845 18.4655V19.6155H11.8845ZM9.5 12C8.5375 12 7.7135 11.6573 7.028 10.972C6.34267 10.2865 6 9.4625 6 8.5C6 7.5375 6.34267 6.71358 7.028 6.02825C7.7135 5.34275 8.5375 5 9.5 5C10.4625 5 11.2864 5.34275 11.9718 6.02825C12.6573 6.71358 13 7.5375 13 8.5C13 9.4625 12.6573 10.2865 11.9718 10.972C11.2864 11.6573 10.4625 12 9.5 12ZM2 19.6155V17.3923C2 16.8927 2.13042 16.4336 2.39125 16.0148C2.65225 15.5959 3.01025 15.2808 3.46525 15.0693C4.40758 14.5949 5.38567 14.234 6.3995 13.9865C7.41333 13.7392 8.44683 13.6155 9.5 13.6155C9.9935 13.6155 10.4871 13.6511 10.9808 13.7222C11.4743 13.7934 11.9678 13.8796 12.4615 13.9808C12.2487 14.1968 12.0358 14.4128 11.823 14.629L11.1845 15.277C10.9038 15.2097 10.6231 15.1659 10.3422 15.1458C10.0614 15.1256 9.78067 15.1155 9.5 15.1155C8.56533 15.1155 7.64675 15.2225 6.74425 15.4365C5.84158 15.6507 4.97808 15.9744 4.15375 16.4078C3.96142 16.5103 3.80433 16.6445 3.6825 16.8105C3.56083 16.9767 3.5 17.1706 3.5 17.3923V18.1155H9.5V19.6155H2ZM9.5 10.5C10.05 10.5 10.5208 10.3042 10.9125 9.9125C11.3042 9.52083 11.5 9.05 11.5 8.5C11.5 7.95 11.3042 7.47917 10.9125 7.0875C10.5208 6.69583 10.05 6.5 9.5 6.5C8.95 6.5 8.47917 6.69583 8.0875 7.0875C7.69583 7.47917 7.5 7.95 7.5 8.5C7.5 9.05 7.69583 9.52083 8.0875 9.9125C8.47917 10.3042 8.95 10.5 9.5 10.5Z" fill="#313333"/>
</svg>
