<svg width="24" height="25" viewBox="0 0 24 25" fill="none" xmlns="http://www.w3.org/2000/svg">
<path fill-rule="evenodd" clip-rule="evenodd" d="M13.5 4.25H10.5C10.0858 4.25 9.75 4.58579 9.75 5V6.5H14.25V5C14.25 4.58579 13.9142 4.25 13.5 4.25ZM7.5 5V6.5H6C3.51472 6.5 1.5 8.51472 1.5 11V17C1.5 19.4853 3.51472 21.5 6 21.5H18C20.4853 21.5 22.5 19.4853 22.5 17V11C22.5 8.51472 20.4853 6.5 18 6.5H16.5V5C16.5 3.34315 15.1569 2 13.5 2H10.5C8.84315 2 7.5 3.34315 7.5 5ZM14.25 8.75H16.5H18C19.2426 8.75 20.25 9.75736 20.25 11V17C20.25 18.2426 19.2426 19.25 18 19.25H6C4.75736 19.25 3.75 18.2426 3.75 17V11C3.75 9.75736 4.75736 8.75 6 8.75H7.5H9.75H14.25ZM7.125 11C6.50368 11 6 11.5037 6 12.125C6 12.7463 6.50368 13.25 7.125 13.25H16.875C17.4963 13.25 18 12.7463 18 12.125C18 11.5037 17.4963 11 16.875 11H7.125Z" fill="#BABABA"/>
</svg>
