<svg width="25" height="24" viewBox="0 0 25 24" fill="none" xmlns="http://www.w3.org/2000/svg">
<path d="M12.5 14.077C12.2552 14.077 12.0465 13.9908 11.874 13.8183C11.7017 13.6459 11.6155 13.4373 11.6155 13.1923C11.6155 12.9474 11.7017 12.7388 11.874 12.5663C12.0465 12.3939 12.2552 12.3078 12.5 12.3078C12.7448 12.3078 12.9535 12.3939 13.126 12.5663C13.2983 12.7388 13.3845 12.9474 13.3845 13.1923C13.3845 13.4373 13.2983 13.6459 13.126 13.8183C12.9535 13.9908 12.7448 14.077 12.5 14.077ZM8.5 14.077C8.25517 14.077 8.0465 13.9908 7.874 13.8183C7.70167 13.6459 7.6155 13.4373 7.6155 13.1923C7.6155 12.9474 7.70167 12.7388 7.874 12.5663C8.0465 12.3939 8.25517 12.3078 8.5 12.3078C8.74483 12.3078 8.9535 12.3939 9.126 12.5663C9.29833 12.7388 9.3845 12.9474 9.3845 13.1923C9.3845 13.4373 9.29833 13.6459 9.126 13.8183C8.9535 13.9908 8.74483 14.077 8.5 14.077ZM16.5 14.077C16.2552 14.077 16.0465 13.9908 15.874 13.8183C15.7017 13.6459 15.6155 13.4373 15.6155 13.1923C15.6155 12.9474 15.7017 12.7388 15.874 12.5663C16.0465 12.3939 16.2552 12.3078 16.5 12.3078C16.7448 12.3078 16.9535 12.3939 17.126 12.5663C17.2983 12.7388 17.3845 12.9474 17.3845 13.1923C17.3845 13.4373 17.2983 13.6459 17.126 13.8183C16.9535 13.9908 16.7448 14.077 16.5 14.077ZM12.5 18C12.2552 18 12.0465 17.9138 11.874 17.7413C11.7017 17.5689 11.6155 17.3603 11.6155 17.1155C11.6155 16.8705 11.7017 16.6618 11.874 16.4895C12.0465 16.317 12.2552 16.2308 12.5 16.2308C12.7448 16.2308 12.9535 16.317 13.126 16.4895C13.2983 16.6618 13.3845 16.8705 13.3845 17.1155C13.3845 17.3603 13.2983 17.5689 13.126 17.7413C12.9535 17.9138 12.7448 18 12.5 18ZM8.5 18C8.25517 18 8.0465 17.9138 7.874 17.7413C7.70167 17.5689 7.6155 17.3603 7.6155 17.1155C7.6155 16.8705 7.70167 16.6618 7.874 16.4895C8.0465 16.317 8.25517 16.2308 8.5 16.2308C8.74483 16.2308 8.9535 16.317 9.126 16.4895C9.29833 16.6618 9.3845 16.8705 9.3845 17.1155C9.3845 17.3603 9.29833 17.5689 9.126 17.7413C8.9535 17.9138 8.74483 18 8.5 18ZM16.5 18C16.2552 18 16.0465 17.9138 15.874 17.7413C15.7017 17.5689 15.6155 17.3603 15.6155 17.1155C15.6155 16.8705 15.7017 16.6618 15.874 16.4895C16.0465 16.317 16.2552 16.2308 16.5 16.2308C16.7448 16.2308 16.9535 16.317 17.126 16.4895C17.2983 16.6618 17.3845 16.8705 17.3845 17.1155C17.3845 17.3603 17.2983 17.5689 17.126 17.7413C16.9535 17.9138 16.7448 18 16.5 18ZM5.80775 21.5C5.30258 21.5 4.875 21.325 4.525 20.975C4.175 20.625 4 20.1974 4 19.6923V6.30777C4 5.8026 4.175 5.37502 4.525 5.02502C4.875 4.67502 5.30258 4.50002 5.80775 4.50002H7.19225V2.38477H8.73075V4.50002H16.3077V2.38477H17.8077V4.50002H19.1923C19.6974 4.50002 20.125 4.67502 20.475 5.02502C20.825 5.37502 21 5.8026 21 6.30777V19.6923C21 20.1974 20.825 20.625 20.475 20.975C20.125 21.325 19.6974 21.5 19.1923 21.5H5.80775ZM5.80775 20H19.1923C19.2692 20 19.3398 19.9679 19.4038 19.9038C19.4679 19.8398 19.5 19.7693 19.5 19.6923V10.3078H5.5V19.6923C5.5 19.7693 5.53208 19.8398 5.59625 19.9038C5.66025 19.9679 5.73075 20 5.80775 20Z" fill="#342B26"/>
</svg>
