<svg width="24" height="24" viewBox="0 0 24 24" fill="none" xmlns="http://www.w3.org/2000/svg">
<path d="M2.5 21.4995V19.9995C3.29867 19.9995 4.0875 19.9527 4.8665 19.859C5.64533 19.7655 6.40908 19.5759 7.15775 19.29C7.23475 19.2579 7.27 19.1985 7.2635 19.112C7.25717 19.0255 7.1995 18.9695 7.0905 18.9438C6.311 18.6373 5.68433 18.1488 5.2105 17.4783C4.73683 16.8078 4.5 16.0572 4.5 15.2265V13.3458H8.19225C8.28208 13.3458 8.35583 13.317 8.4135 13.2593C8.47117 13.2015 8.5 13.1277 8.5 13.038V10.4418H11.5288C11.6443 10.4418 11.7324 10.3954 11.7933 10.3025C11.8543 10.2095 11.8591 10.1117 11.8078 10.009L8.77325 3.84379L10.1213 3.16504L13.1655 9.34954C13.4603 9.95204 13.4353 10.5347 13.0905 11.0975C12.7455 11.6604 12.2333 11.9418 11.5538 11.9418H10V13.0958C10 13.5816 9.82983 13.9947 9.4895 14.335C9.149 14.6755 8.73583 14.8458 8.25 14.8458H6V15.2458C6 15.842 6.192 16.3609 6.576 16.8025C6.96 17.2442 7.43983 17.54 8.0155 17.69L8.3155 17.765C8.9115 17.9189 9.24 18.3099 9.301 18.938C9.36183 19.5662 9.10192 20.0213 8.52125 20.3033C7.58525 20.7636 6.60958 21.078 5.59425 21.2465C4.57892 21.4152 3.5475 21.4995 2.5 21.4995ZM16.1173 18.8708L15.048 17.8168C15.4302 17.4348 15.726 16.9986 15.9355 16.5083C16.1452 16.0178 16.25 15.4963 16.25 14.9438C16.25 14.3911 16.1452 13.8696 15.9355 13.3793C15.726 12.889 15.4302 12.4528 15.048 12.0708L16.1173 11.0015C16.6314 11.5155 17.0321 12.1107 17.3193 12.787C17.6064 13.4634 17.75 14.1823 17.75 14.9438C17.75 15.7053 17.6064 16.4216 17.3193 17.0928C17.0321 17.764 16.6314 18.3566 16.1173 18.8708ZM18.7308 21.4995L17.6615 20.4303C18.3847 19.7073 18.9456 18.8781 19.3443 17.9428C19.7429 17.0075 19.9423 16.0078 19.9423 14.9438C19.9423 13.8695 19.7429 12.8672 19.3443 11.937C18.9456 11.0069 18.3847 10.1803 17.6615 9.45729L18.7308 8.38804C19.5923 9.24954 20.2596 10.24 20.7328 11.3593C21.2058 12.4785 21.4423 13.6733 21.4423 14.9438C21.4423 16.204 21.2058 17.3963 20.7328 18.5208C20.2596 19.6451 19.5923 20.638 18.7308 21.4995Z" fill="white"/>
</svg>
