<svg width="24" height="25" viewBox="0 0 24 25" fill="none" xmlns="http://www.w3.org/2000/svg">
<path fill-rule="evenodd" clip-rule="evenodd" d="M20.25 12.5C20.25 17.0563 16.5563 20.75 12 20.75C7.44365 20.75 3.75 17.0563 3.75 12.5C3.75 7.94365 7.44365 4.25 12 4.25C16.5563 4.25 20.25 7.94365 20.25 12.5ZM22.5 12.5C22.5 18.299 17.799 23 12 23C6.20101 23 1.5 18.299 1.5 12.5C1.5 6.70101 6.20101 2 12 2C17.799 2 22.5 6.70101 22.5 12.5ZM13.9938 16.7531C14.2716 17.3088 14.9474 17.5341 15.5031 17.2562C16.0588 16.9784 16.2841 16.3026 16.0062 15.7469C15.3998 14.534 13.8263 13.625 12 13.625C10.1736 13.625 8.6002 14.534 7.99377 15.7469C7.7159 16.3026 7.94116 16.9784 8.49688 17.2562C9.05261 17.5341 9.72837 17.3088 10.0062 16.7531C10.1498 16.466 10.8263 15.875 12 15.875C13.1736 15.875 13.8502 16.466 13.9938 16.7531ZM15 12.5C14.3787 12.5 13.875 11.9963 13.875 11.375V9.875C13.875 9.25368 14.3787 8.75 15 8.75C15.6213 8.75 16.125 9.25368 16.125 9.875V11.375C16.125 11.9963 15.6213 12.5 15 12.5ZM7.875 11.375C7.875 11.9963 8.37868 12.5 9 12.5C9.62132 12.5 10.125 11.9963 10.125 11.375V9.875C10.125 9.25368 9.62132 8.75 9 8.75C8.37868 8.75 7.875 9.25368 7.875 9.875V11.375Z" fill="#BABABA"/>
</svg>
