<svg width="20" height="20" viewBox="0 0 20 20" fill="none" xmlns="http://www.w3.org/2000/svg">
<g clip-path="url(#clip0_360_23299)">
<path fill-rule="evenodd" clip-rule="evenodd" d="M15.625 5C15.625 5.21782 15.536 5.64111 14.519 6.1094C13.4986 6.57933 11.9222 6.875 10 6.875C8.07777 6.875 6.50144 6.57933 5.48097 6.1094C4.46404 5.64111 4.375 5.21782 4.375 5C4.375 4.78218 4.46404 4.35889 5.48097 3.8906C6.50144 3.42067 8.07777 3.125 10 3.125C11.9222 3.125 13.4986 3.42067 14.519 3.8906C15.536 4.35889 15.625 4.78218 15.625 5ZM13.8153 8.3258C12.6975 8.6086 11.3931 8.75 10 8.75C8.60687 8.75 7.30246 8.6086 6.18467 8.3258L8.65983 11.956C8.92218 12.3408 9.0625 12.7957 9.0625 13.2614V17.4739C9.13714 17.4886 9.23899 17.5 9.375 17.5C9.90306 17.5 10.3112 17.3241 10.5622 17.1045C10.7936 16.902 10.9375 16.6293 10.9375 16.25V13.2614C10.9375 12.7957 11.0778 12.3408 11.3402 11.956L13.8153 8.3258ZM10 1.25C14.1421 1.25 17.5 2.5 17.5 5C17.5 5.8144 17.2546 6.6099 16.7958 7.28278L12.8893 13.0123C12.8393 13.0857 12.8125 13.1725 12.8125 13.2614V16.25C12.8125 18.125 11.25 19.375 9.375 19.375C7.5 19.375 7.1875 18.125 7.1875 18.125V13.2614C7.1875 13.1725 7.16072 13.0857 7.11065 13.0123L3.20417 7.28278C2.74539 6.6099 2.5 5.8144 2.5 5C2.5 2.5 5.85786 1.25 10 1.25ZM8.90021 17.4205C8.8881 17.4135 8.88311 17.4088 8.88363 17.4082C8.88416 17.4076 8.89021 17.4111 8.90021 17.4205Z" fill="white"/>
</g>
<defs>
<clipPath id="clip0_360_23299">
<rect width="20" height="20" fill="white"/>
</clipPath>
</defs>
</svg>
