<svg width="24" height="25" viewBox="0 0 24 25" fill="none" xmlns="http://www.w3.org/2000/svg">
<path fill-rule="evenodd" clip-rule="evenodd" d="M2.44935 4.69222C3.59255 3.43736 5.2233 2.74805 7.14 2.74805C8.88584 2.74805 10.7501 3.57321 11.9986 5.18617C13.2422 3.57405 15.0993 2.74805 16.86 2.74805C18.7705 2.74805 20.4008 3.43385 21.5455 4.68671C22.6798 5.92812 23.25 7.62913 23.25 9.51827C23.25 12.7663 21.5808 15.3804 19.4677 17.4128C17.3592 19.4408 14.7118 20.9867 12.517 22.1222C12.1912 22.2908 11.8037 22.2899 11.4787 22.12C9.28382 20.9723 6.63562 19.4379 4.52864 17.4197C2.41417 15.3944 0.75 12.7877 0.75 9.51827C0.75 7.63564 1.31707 5.9351 2.44935 4.69222ZM4.11262 6.20749C3.43008 6.95669 3 8.07876 3 9.51827C3 11.9536 4.22409 14.0124 6.085 15.7948C7.80462 17.442 9.98667 18.7722 12.0023 19.8516C14.0059 18.786 16.1874 17.446 17.9079 15.7912C19.7738 13.9966 21 11.9295 21 9.51827C21 8.07378 20.5677 6.95218 19.8845 6.20439C19.2117 5.46804 18.2095 4.99805 16.86 4.99805C15.3962 4.99805 13.7202 5.9391 13.0688 7.92113C12.917 8.38282 12.486 8.69487 12 8.69487C11.514 8.69487 11.083 8.38282 10.9312 7.92113C10.2805 5.94123 8.58783 4.99805 7.14 4.99805C5.786 4.99805 4.78424 5.47027 4.11262 6.20749Z" fill="#BABABA"/>
</svg>
