<svg width="24" height="24" viewBox="0 0 24 24" fill="none" xmlns="http://www.w3.org/2000/svg">
<path d="M12.8125 24L12.6107 20.6069H11.5C8.57881 20.6069 6.09852 19.6063 4.05911 17.6051C2.0197 15.6039 1 13.17 1 10.3035C1 7.43696 2.0197 5.00309 4.05911 3.00185C6.09852 1.00062 8.57881 0 11.5 0C12.9606 0 14.3257 0.267891 15.5953 0.803671C16.865 1.33945 17.9767 2.0755 18.9307 3.01183C19.8849 3.94795 20.635 5.03893 21.181 6.28479C21.727 7.53066 22 8.87021 22 10.3035C22 11.7648 21.7678 13.1679 21.3034 14.5128C20.839 15.8576 20.2008 17.1158 19.3888 18.2874C18.577 19.459 17.609 20.5289 16.4849 21.4972C15.3609 22.4658 14.1368 23.3 12.8125 24ZM14.7812 20.4137C16.3344 19.1258 17.5977 17.6179 18.5711 15.8899C19.5445 14.1619 20.0312 12.2998 20.0312 10.3035C20.0312 7.96372 19.2055 5.98353 17.5539 4.36288C15.9023 2.74223 13.8844 1.9319 11.5 1.9319C9.11562 1.9319 7.09766 2.74223 5.44609 4.36288C3.79453 5.98353 2.96875 7.96372 2.96875 10.3035C2.96875 12.6432 3.79453 14.6234 5.44609 16.2441C7.09766 17.8647 9.11562 18.675 11.5 18.675H14.7812V20.4137ZM11.5049 17.0947C11.8265 17.0947 12.0996 16.9845 12.3242 16.7641C12.5487 16.5436 12.6609 16.2757 12.6609 15.9604C12.6609 15.6451 12.5487 15.3772 12.3242 15.1567C12.0996 14.9363 11.8265 14.826 11.5049 14.826C11.1836 14.826 10.9106 14.9363 10.6859 15.1567C10.4613 15.3772 10.3489 15.6451 10.3489 15.9604C10.3489 16.2757 10.4613 16.5436 10.6859 16.7641C10.9106 16.9845 11.1836 17.0947 11.5049 17.0947ZM10.7427 13.1665H12.3075C12.3244 12.5805 12.409 12.1463 12.5615 11.8638C12.7137 11.5815 13.1272 11.1093 13.8018 10.4471C14.1872 10.0691 14.5007 9.67109 14.7422 9.25316C14.9837 8.83544 15.1045 8.37318 15.1045 7.86638C15.1045 6.85406 14.7523 6.0784 14.0479 5.5394C13.3437 5.00019 12.5029 4.73058 11.5253 4.73058C10.6385 4.73058 9.89011 4.97089 9.28023 5.4515C8.67014 5.9319 8.23384 6.51061 7.97134 7.18764L9.43019 7.74724C9.57325 7.37417 9.80633 7.02085 10.1294 6.68727C10.4525 6.3537 10.9178 6.18691 11.5253 6.18691C12.1916 6.18691 12.6872 6.36647 13.012 6.72559C13.3366 7.08492 13.4989 7.47839 13.4989 7.90598C13.4989 8.30395 13.3875 8.64987 13.1646 8.94373C12.9417 9.2376 12.6645 9.54724 12.3331 9.87266C11.6346 10.467 11.195 10.9664 11.014 11.3708C10.8331 11.7755 10.7427 12.374 10.7427 13.1665Z" fill="#BABABA"/>
</svg>
