<svg width="30" height="30" viewBox="0 0 30 30" fill="none" xmlns="http://www.w3.org/2000/svg">
<path fill-rule="evenodd" clip-rule="evenodd" d="M26 15.5C26 21.299 21.299 26 15.5 26C9.70101 26 5 21.299 5 15.5C5 9.70101 9.70101 5 15.5 5C21.299 5 26 9.70101 26 15.5ZM17 19.25C17 20.0784 16.3284 20.75 15.5 20.75C14.6716 20.75 14 20.0784 14 19.25C14 18.4216 14.6716 17.75 15.5 17.75C16.3284 17.75 17 18.4216 17 19.25ZM16.625 11C16.625 10.3787 16.1213 9.875 15.5 9.875C14.8787 9.875 14.375 10.3787 14.375 11V14.75C14.375 15.3713 14.8787 15.875 15.5 15.875C16.1213 15.875 16.625 15.3713 16.625 14.75V11Z" fill="#FF6900"/>
</svg>
