<svg width="24" height="24" viewBox="0 0 24 24" fill="none" xmlns="http://www.w3.org/2000/svg">
<path d="M11.4648 11.0995C10.3785 11.0995 9.44849 10.703 8.67481 9.91C7.90131 9.11683 7.51456 8.1634 7.51456 7.04973C7.51456 5.93605 7.90131 4.98273 8.67481 4.18975C9.44849 3.39658 10.3785 3 11.4648 3C12.5511 3 13.481 3.39658 14.2545 4.18975C15.0282 4.98273 15.4151 5.93605 15.4151 7.04973C15.4151 8.1634 15.0282 9.11683 14.2545 9.91C13.481 10.703 12.5511 11.0995 11.4648 11.0995ZM3 19.9111V17.3386C3 16.7607 3.14719 16.2294 3.44158 15.7448C3.73616 15.2602 4.14021 14.8955 4.65374 14.6508C5.7173 14.1019 6.8212 13.6843 7.96546 13.398C9.10971 13.1118 10.2762 12.9687 11.4648 12.9687C12.0218 12.9687 12.5789 13.0099 13.136 13.0922C13.693 13.1746 14.2501 13.2743 14.8073 13.3913C14.5671 13.6412 14.3269 13.8913 14.0866 14.1414L13.366 14.8912C13.0492 14.8133 12.7324 14.7626 12.4154 14.7393C12.0984 14.716 11.7816 14.7043 11.4648 14.7043C10.4099 14.7043 9.37315 14.8281 8.35456 15.0757C7.33577 15.3235 6.36119 15.6981 5.43081 16.1995C5.21374 16.3181 5.03644 16.4734 4.89894 16.6655C4.76162 16.8578 4.69296 17.0822 4.69296 17.3386V18.1755H11.4648V19.9111H3ZM11.4648 9.36386C12.0856 9.36386 12.617 9.13727 13.059 8.68408C13.5011 8.2309 13.7221 7.68612 13.7221 7.04973C13.7221 6.41334 13.5011 5.86856 13.059 5.41537C12.617 4.96219 12.0856 4.7356 11.4648 4.7356C10.8441 4.7356 10.3127 4.96219 9.8706 5.41537C9.42855 5.86856 9.20753 6.41334 9.20753 7.04973C9.20753 7.68612 9.42855 8.2309 9.8706 8.68408C10.3127 9.13727 10.8441 9.36386 11.4648 9.36386Z" fill="white"/>
<path d="M16.1514 21V17.5751H12.8106V16.02H16.1514V12.6136H17.6683V16.02H21V17.5751H17.6683V21H16.1514Z" fill="white"/>
</svg>
