<svg width="24" height="25" viewBox="0 0 24 25" fill="none" xmlns="http://www.w3.org/2000/svg">
<path fill-rule="evenodd" clip-rule="evenodd" d="M12 20.75C13.8725 20.75 15.5994 20.1262 16.984 19.075L14.831 16.922C14.0142 17.4461 13.0426 17.75 12 17.75C10.9574 17.75 9.98582 17.4461 9.16895 16.922L7.01604 19.075C8.40065 20.1262 10.1275 20.75 12 20.75ZM7.57796 15.3311C7.0539 14.5142 6.75 13.5426 6.75 12.5C6.75 11.4574 7.0539 10.4858 7.57796 9.66895L5.42504 7.51603C4.37385 8.90065 3.75 10.6275 3.75 12.5C3.75 14.3725 4.37385 16.0994 5.42505 17.484L7.57796 15.3311ZM9.16895 8.07796L7.01603 5.92504C8.40065 4.87385 10.1275 4.25 12 4.25C13.8725 4.25 15.5994 4.87385 16.984 5.92505L14.8311 8.07796C14.0142 7.5539 13.0426 7.25 12 7.25C10.9574 7.25 9.98582 7.5539 9.16895 8.07796ZM16.422 9.66895C16.9461 10.4858 17.25 11.4574 17.25 12.5C17.25 13.5426 16.9461 14.5142 16.422 15.331L18.575 17.484C19.6262 16.0994 20.25 14.3725 20.25 12.5C20.25 10.6275 19.6262 8.90065 18.575 7.51604L16.422 9.66895ZM12 23C17.799 23 22.5 18.299 22.5 12.5C22.5 6.70101 17.799 2 12 2C6.20101 2 1.5 6.70101 1.5 12.5C1.5 18.299 6.20101 23 12 23ZM15 12.5C15 14.1569 13.6569 15.5 12 15.5C10.3431 15.5 9 14.1569 9 12.5C9 10.8431 10.3431 9.5 12 9.5C13.6569 9.5 15 10.8431 15 12.5Z" fill="#BABABA"/>
</svg>
