<svg width="197" height="41" viewBox="0 0 197 41" fill="none" xmlns="http://www.w3.org/2000/svg">
<path d="M16.8829 36.9289C17.1098 34.2799 17.3114 31.7428 17.4962 29.1834C16.7121 28.4525 13.6262 25.879 12.3913 23.2635C9.94102 18.0774 4.9005 17.7974 5.34294 16.7053C5.46616 16.4028 5.74899 15.9772 6.8607 16.1172C9.10093 16.3972 12.4277 18.4695 13.5254 20.0124C14.6231 21.5582 16.2137 23.7984 17.807 24.6217C17.8602 23.804 17.9078 23.0507 17.9526 22.3591C18.1145 19.7435 18.2222 5.82176 18.3708 1.42985C18.3878 0.926511 17.9662 0.515929 17.4646 0.561444C5.37352 1.65865 0 10.2073 0 20.5977C0 29.8738 4.63841 37.6827 13.9823 40.0326C15.1145 40.3174 16.3062 39.7561 16.5992 38.6261C16.7312 38.117 16.8286 37.5532 16.8829 36.9289ZM11.8004 11.4743C12.0384 11.3623 13.6878 11.1719 14.9115 13.7874C15.914 15.9296 14.9311 17.5482 14.6931 17.6602C14.4551 17.7722 12.8057 17.9626 11.582 15.3471C10.3583 12.7289 11.5624 11.5863 11.8004 11.4743ZM10.137 24.7729C10.0194 25.0081 8.8405 26.1786 6.26144 24.8793C3.67957 23.58 3.92041 21.9362 4.03802 21.7038C4.15563 21.4686 5.33455 20.298 7.91361 21.5974C10.025 22.6587 10.2547 24.5405 10.137 24.7729Z" fill="#FB812C"/>
<path fill-rule="evenodd" clip-rule="evenodd" d="M22.1199 0.496859C21.6464 0.469332 21.2484 0.850515 21.2504 1.32479C21.2868 10.212 21.8649 20.23 22.0439 23.5492C22.8363 22.9919 23.7324 20.8329 24.3821 19.5028C25.8999 16.3972 29.6606 15.3611 30.1339 15.952C30.9404 16.9573 28.4201 16.6773 26.7539 20.3568C26.5467 20.8161 26.4599 21.3902 26.2919 22.0034C25.9195 23.3672 25.1214 24.8009 24.3233 26.0022C24.5585 25.9014 24.7853 25.7894 24.9982 25.6886C25.5778 25.4058 27.9973 23.5044 28.3977 23.5044C28.5461 23.5044 28.6805 23.5352 28.801 23.594C29.0754 23.7312 29.2406 23.9804 29.2602 24.2773C29.3218 25.2686 25.5778 28.1501 25.5022 28.2005C24.8105 28.6625 23.1388 29.3486 22.3827 29.651C22.5283 32.1125 22.6879 34.5011 22.8615 36.9373C22.9139 37.6544 23.0249 38.2925 23.1826 38.8604C23.4799 39.9305 24.605 40.469 25.695 40.2556C36.1294 38.2126 40.3213 30.1875 40.3213 20.5977C40.3213 9.97016 35.4055 1.26926 22.1199 0.496859ZM24.5641 12.3424C24.5557 15.2295 26.1295 15.7616 26.3927 15.7616C26.6559 15.7644 28.2325 14.7171 28.2409 12.3536C28.2493 9.46653 26.6755 8.93728 26.4123 8.93448C26.1491 8.93168 24.5725 9.45253 24.5641 12.3424ZM28.8178 21.4182C28.913 21.6646 29.9687 22.9443 32.6653 21.9054C35.3592 20.8665 35.2836 19.2087 35.1884 18.9623C35.0932 18.7159 33.5474 17.6238 31.3408 18.4751C28.6469 19.514 28.7225 21.1717 28.8178 21.4182Z" fill="#FB812C"/>
<path d="M67.8306 20.8341C67.8606 23.4757 67.9206 26.3574 67.5904 28.999C67.3203 31.3405 63.598 31.3405 63.8982 28.999C64.2284 26.4775 64.0483 23.8359 64.0783 21.3144C64.0783 19.9935 64.0182 18.6427 63.9882 17.3219C63.9882 16.4214 64.2284 14.6803 64.0182 13.5096C61.8569 13.4495 59.5755 13.5096 57.4442 13.7497C57.2041 18.8228 56.994 23.9259 56.994 28.999C56.994 31.3705 53.3017 31.3705 53.3017 28.999C53.3017 23.3856 53.5719 17.7422 53.812 12.1287C53.872 11.3783 54.3523 10.4777 55.1929 10.3577C57.8645 9.9374 60.7162 9.81733 63.4179 9.81733C65.5792 9.78731 67.0801 10.0575 67.5004 12.4289C67.9807 15.1006 67.8006 18.1024 67.8306 20.8341ZM87.9089 18.4626C88.209 23.6558 85.8976 29.1792 80.3442 30.4699C74.2205 31.8808 70.4982 26.1173 70.3481 20.684C70.198 15.881 73.5001 9.84735 78.8733 9.84735C79.3236 9.84735 79.6838 9.96742 79.954 10.1775C84.2166 10.838 87.6387 13.7797 87.9089 18.4626ZM80.9446 26.2374C83.8264 24.5864 84.6068 21.3144 84.1265 18.2525C83.6463 15.1306 81.2148 13.7497 78.243 13.7497C78.0929 13.7497 77.9428 13.7497 77.8227 13.7197C75.091 14.5602 73.8303 18.6727 74.0704 21.1342C74.4006 24.7364 76.9822 28.4887 80.9446 26.2374ZM101.342 18.4626C104.674 20.4738 105.694 25.1567 102.602 28.8189C100.591 31.1904 97.5893 31.7607 94.7075 30.6501C91.7057 29.4793 90.565 27.7683 89.6344 24.8565C88.884 22.5751 92.4562 21.6145 93.2066 23.8659C93.6569 25.3068 94.0772 26.2374 95.488 26.9578C96.9589 27.7083 98.4898 27.7383 99.6606 26.5676C102.422 23.7759 99.8707 20.774 96.5086 21.2243C94.2272 21.5245 94.2873 18.2825 95.9983 17.5921C97.4392 16.9917 99.4204 15.6709 98.9101 13.9298C98.1596 11.2882 94.8276 13.0593 94.7075 15.1306C94.5875 17.502 90.8952 17.502 91.0153 15.1306C91.2554 10.4477 97.079 6.51531 100.981 10.3276C102.602 11.9186 103.143 14.5902 102.452 16.6915C102.212 17.3519 101.822 17.9223 101.342 18.4626ZM122.56 28.1285C123.701 30.1998 120.519 32.0609 119.348 29.9897C118.958 29.2692 118.718 28.4587 118.598 27.6482C116.466 29.5994 113.645 30.7701 111.033 30.2898C107.641 29.6294 107.101 26.5375 106.891 23.5957C106.59 19.7234 106.891 15.791 106.891 11.9186C106.891 9.51714 110.583 9.51714 110.583 11.9186C110.583 14.3801 110.583 16.8116 110.463 19.2431C110.403 20.8641 110.223 23.1155 110.673 24.6764C112.054 29.2692 118.147 24.1661 118.448 21.3444C118.478 21.1643 118.508 21.0142 118.568 20.8941V12.0087C118.568 9.63722 122.26 9.63722 122.26 12.0087V21.0142C122.26 22.9654 121.57 26.3574 122.56 28.1285ZM139.25 10.1475C141.621 10.1475 141.621 13.8698 139.25 13.8698C137.479 13.8698 135.737 13.8698 133.996 13.8698C133.666 16.5414 134.056 19.4232 134.086 22.0948C134.116 24.5263 134.086 26.9878 134.086 29.4193C134.086 31.7908 130.394 31.7908 130.394 29.4193C130.394 24.3762 129.764 18.9729 130.304 13.9298C128.863 13.9599 127.422 14.0199 125.981 14.0799C123.58 14.17 123.61 10.4777 125.981 10.3877C130.394 10.1775 134.807 10.1475 139.25 10.1475ZM159.583 18.4626C159.884 23.6558 157.572 29.1792 152.019 30.4699C145.895 31.8808 142.173 26.1173 142.023 20.684C141.873 15.881 145.175 9.84735 150.548 9.84735C150.998 9.84735 151.358 9.96742 151.629 10.1775C155.891 10.838 159.313 13.7797 159.583 18.4626ZM152.619 26.2374C155.501 24.5864 156.281 21.3144 155.801 18.2525C155.321 15.1306 152.889 13.7497 149.918 13.7497C149.768 13.7497 149.617 13.7497 149.497 13.7197C146.766 14.5602 145.505 18.6727 145.745 21.1342C146.075 24.7364 148.657 28.4887 152.619 26.2374ZM177.669 27.9184C178.63 30.0797 175.448 31.9408 174.487 29.7795C173.436 27.4681 172.986 24.7364 172.146 22.335C171.335 19.8735 170.735 17.3219 169.894 14.8604C168.544 16.8416 167.763 19.7534 167.073 21.5545C166.052 24.1061 165.211 26.7777 164.551 29.4493C163.981 31.7607 160.439 30.7701 161.009 28.4587C161.909 24.7665 163.2 21.1643 164.671 17.6821C165.872 14.8304 166.862 11.6484 169.654 10.0275C170.435 9.54716 171.785 9.75729 172.206 10.6879C173.406 13.4796 174.157 16.5114 175.088 19.4232C175.628 21.1342 176.288 22.8153 176.829 24.5563C177.129 25.607 177.219 26.8978 177.669 27.9184ZM194.143 26.9578C196.364 27.7983 195.404 31.3705 193.152 30.53C191.021 29.6895 189.01 28.1585 187.089 26.9278C186.128 26.2974 184.837 25.697 183.697 24.9466C183.727 26.3274 183.727 27.6782 183.727 29.0591C183.727 31.4305 180.004 31.4305 180.004 29.0591C180.004 23.2655 179.914 17.472 180.124 11.7085C180.215 9.30702 183.907 9.30702 183.817 11.7085C183.727 13.9899 183.697 16.3013 183.697 18.6127C184.507 17.7422 185.378 16.9017 186.098 16.0011C187.599 14.14 189.34 12.3989 191.051 10.7179C192.762 9.03685 195.374 11.6484 193.693 13.3295C191.982 15.0105 190.301 16.6915 188.77 18.5226C187.839 19.6633 186.638 20.744 185.678 21.9147C186.759 22.6652 188.53 23.4457 189.34 23.986C190.811 24.9166 192.522 26.3274 194.143 26.9578Z" fill="#FB812C"/>
</svg>
