<svg width="120" height="76" viewBox="0 0 120 76" fill="none" xmlns="http://www.w3.org/2000/svg">
<path d="M56.7484 36.3951C56.9734 33.7516 57.1734 31.2198 57.3568 28.6656C56.5789 27.9363 53.5176 25.3682 52.2925 22.7581C49.8618 17.5828 44.8614 17.3033 45.3004 16.2135C45.4226 15.9117 45.7032 15.4869 46.806 15.6267C49.0284 15.9061 52.3286 17.974 53.4176 19.5138C54.5066 21.0563 56.0845 23.2919 57.6651 24.1135C57.7179 23.2975 57.7651 22.5458 57.8096 21.8555C57.9756 19.1571 58.0841 4.3993 58.2395 0.558312C58.2509 0.274727 58.0111 0.0478112 57.7281 0.0694576C45.4499 1.00863 40 9.61371 40 20.0978C40 29.619 44.868 37.5912 54.6766 39.6799C55.322 39.8173 55.9879 39.5062 56.2176 38.8876C56.4772 38.1885 56.6644 37.3649 56.7484 36.3951ZM51.7064 10.9934C51.9425 10.8817 53.5787 10.6916 54.7927 13.3017C55.7872 15.4394 54.8121 17.0546 54.576 17.1664C54.3399 17.2782 52.7037 17.4682 51.4897 14.8582C50.2757 12.2454 51.4702 11.1052 51.7064 10.9934ZM50.0563 24.2644C49.9396 24.4991 48.7701 25.6672 46.2115 24.3705C43.6502 23.0739 43.8892 21.4336 44.0058 21.2016C44.1225 20.9669 45.292 19.7988 47.8505 21.0954C49.9451 22.1545 50.1729 24.0324 50.0563 24.2644Z" fill="#FB812C"/>
<path fill-rule="evenodd" clip-rule="evenodd" d="M61.5732 0.0192989C61.3062 0.00682532 61.0792 0.220319 61.0798 0.487634C61.1007 9.44826 61.6881 19.6838 61.8682 23.0432C62.6544 22.4871 63.5433 20.3325 64.1878 19.0052C65.6935 15.9061 69.4243 14.8722 69.8937 15.4618C70.6938 16.465 68.1936 16.1856 66.5407 19.8575C66.3352 20.3158 66.2491 20.8886 66.0824 21.5006C65.7129 22.8615 64.9212 24.2923 64.1295 25.4911C64.3628 25.3905 64.5878 25.2787 64.7989 25.1781C65.374 24.8959 67.7742 22.9985 68.1714 22.9985C68.3186 22.9985 68.452 23.0292 68.5714 23.0879C68.8437 23.2248 69.0076 23.4735 69.027 23.7697C69.0881 24.759 65.374 27.6345 65.299 27.6848C64.6128 28.1459 62.9544 28.8305 62.2043 29.1323C62.3488 31.5887 62.5071 33.9723 62.6794 36.4035C62.7555 37.4528 62.9569 38.3329 63.2459 39.0707C63.4749 39.6553 64.1006 39.955 64.7202 39.8536C75.6357 38.0666 80 29.9016 80 20.0978C80 9.39362 75.0321 0.648007 61.5732 0.0192989ZM64.3684 11.8597C64.36 14.7408 65.9212 15.2718 66.1824 15.2718C66.4435 15.2746 68.0075 14.2294 68.0158 11.8709C68.0242 8.9898 66.463 8.46165 66.2018 8.45885C65.9407 8.45606 64.3767 8.97583 64.3684 11.8597ZM68.5881 20.9166C68.6826 21.1625 69.7298 22.4396 72.405 21.4028C75.0774 20.3661 75.0024 18.7118 74.908 18.4658C74.8135 18.2199 73.2801 17.1301 71.0911 17.9796C68.4186 19.0163 68.4937 20.6707 68.5881 20.9166Z" fill="#FB812C"/>
<path d="M28.5337 53.2313C28.5506 54.72 28.5844 56.344 28.3984 57.8327C28.2461 59.1523 26.1484 59.1523 26.3176 57.8327C26.5036 56.4117 26.4021 54.923 26.4191 53.502C26.4191 52.7576 26.3852 51.9964 26.3683 51.252C26.3683 50.7445 26.5036 49.7633 26.3852 49.1035C25.1672 49.0697 23.8815 49.1035 22.6804 49.2389C22.5451 52.0979 22.4266 54.9737 22.4266 57.8327C22.4266 59.1692 20.3459 59.1692 20.3459 57.8327C20.3459 54.6692 20.4981 51.4888 20.6334 48.3254C20.6673 47.9024 20.9379 47.3949 21.4116 47.3273C22.9172 47.0904 24.5244 47.0227 26.0469 47.0227C27.2649 47.0058 28.1108 47.1581 28.3476 48.4945C28.6183 50.0001 28.5168 51.6918 28.5337 53.2313ZM39.8489 51.8948C40.0181 54.8215 38.7155 57.9342 35.5858 58.6617C32.1348 59.4568 30.0371 56.2087 29.9525 53.1467C29.8679 50.44 31.7288 47.0397 34.7569 47.0397C35.0107 47.0397 35.2137 47.1073 35.3659 47.2258C37.7681 47.5979 39.6967 49.2558 39.8489 51.8948ZM35.9242 56.2764C37.5482 55.3459 37.9881 53.502 37.7174 51.7764C37.4467 50.0171 36.0764 49.2389 34.4017 49.2389C34.3171 49.2389 34.2325 49.2389 34.1648 49.222C32.6254 49.6956 31.9148 52.0133 32.0502 53.4005C32.2363 55.4305 33.6911 57.5451 35.9242 56.2764ZM47.419 51.8948C49.2968 53.0283 49.872 55.6673 48.1296 57.7312C46.9961 59.0677 45.3044 59.3891 43.6804 58.7632C41.9887 58.1034 41.3458 57.1391 40.8214 55.4982C40.3985 54.2125 42.4116 53.6711 42.8345 54.9399C43.0883 55.7519 43.3251 56.2764 44.1202 56.6824C44.9492 57.1053 45.8119 57.1222 46.4717 56.4624C48.0281 54.8892 46.5901 53.1975 44.6954 53.4512C43.4097 53.6204 43.4435 51.7933 44.4078 51.4043C45.2198 51.0659 46.3363 50.3216 46.0488 49.3404C45.6258 47.8517 43.748 48.8498 43.6804 50.0171C43.6127 51.3535 41.5319 51.3535 41.5996 50.0171C41.7349 47.378 45.0168 45.1619 47.216 47.3103C48.1296 48.2069 48.4341 49.7126 48.045 50.8967C47.9096 51.2689 47.6897 51.5903 47.419 51.8948ZM59.3769 57.3421C60.0197 58.5094 58.2265 59.5583 57.5667 58.391C57.3468 57.985 57.2115 57.5282 57.1438 57.0715C55.9427 58.1711 54.3525 58.8308 52.8807 58.5602C50.9691 58.188 50.6646 56.4455 50.5462 54.7877C50.377 52.6054 50.5462 50.3892 50.5462 48.2069C50.5462 46.8536 52.627 46.8536 52.627 48.2069C52.627 49.5941 52.627 50.9644 52.5593 52.3347C52.5255 53.2482 52.424 54.517 52.6777 55.3967C53.4559 57.985 56.8901 55.1091 57.0592 53.5189C57.0761 53.4174 57.0931 53.3328 57.1269 53.2651V48.2577C57.1269 46.9212 59.2077 46.9212 59.2077 48.2577V53.3328C59.2077 54.4324 58.8186 56.344 59.3769 57.3421ZM68.7823 47.2088C70.1188 47.2088 70.1188 49.3065 68.7823 49.3065C67.7842 49.3065 66.803 49.3065 65.8219 49.3065C65.6358 50.8122 65.8557 52.4362 65.8726 53.9418C65.8895 55.3121 65.8726 56.6993 65.8726 58.0696C65.8726 59.406 63.7918 59.406 63.7918 58.0696C63.7918 55.2275 63.4366 52.1824 63.7411 49.3404C62.929 49.3573 62.117 49.3911 61.305 49.425C59.9516 49.4757 59.9686 47.3949 61.305 47.3442C63.7918 47.2258 66.2786 47.2088 68.7823 47.2088ZM29.8871 67.8948C30.0562 70.8215 28.7536 73.9342 25.624 74.6617C22.1729 75.4568 20.0752 72.2087 19.9906 69.1467C19.906 66.44 21.7669 63.0397 24.795 63.0397C25.0488 63.0397 25.2518 63.1073 25.404 63.2258C27.8063 63.5979 29.7348 65.2558 29.8871 67.8948ZM25.9623 72.2764C27.5863 71.3459 28.0262 69.502 27.7555 67.7764C27.4848 66.0171 26.1146 65.2389 24.4398 65.2389C24.3552 65.2389 24.2706 65.2389 24.2029 65.222C22.6635 65.6956 21.953 68.0133 22.0883 69.4005C22.2744 71.4305 23.7293 73.5451 25.9623 72.2764ZM40.0793 73.2237C40.6206 74.4417 38.8274 75.4906 38.2861 74.2726C37.694 72.97 37.4402 71.4305 36.9666 70.0771C36.5098 68.6899 36.1715 67.252 35.6978 65.8648C34.9365 66.9813 34.4967 68.6223 34.1076 69.6373C33.5324 71.0753 33.0587 72.5809 32.6866 74.0865C32.3651 75.3891 30.3689 74.8308 30.6903 73.5282C31.1979 71.4474 31.9253 69.4174 32.7542 67.455C33.4309 65.8479 33.9892 64.0547 35.5625 63.1412C36.0023 62.8705 36.7636 62.9889 37.0004 63.5133C37.6771 65.0866 38.1 66.7952 38.6244 68.4362C38.9289 69.4005 39.3011 70.3478 39.6056 71.329C39.7748 71.9211 39.8255 72.6485 40.0793 73.2237ZM49.3633 72.6824C50.6152 73.156 50.0738 75.1692 48.805 74.6955C47.6039 74.2218 46.4705 73.359 45.3878 72.6655C44.8465 72.3102 44.119 71.9719 43.4762 71.5489C43.4931 72.3271 43.4931 73.0884 43.4931 73.8666C43.4931 75.203 41.3954 75.203 41.3954 73.8666C41.3954 70.6016 41.3446 67.3366 41.4631 64.0885C41.5138 62.7352 43.5946 62.7352 43.5439 64.0885C43.4931 65.3742 43.4762 66.6768 43.4762 67.9794C43.9329 67.4888 44.4235 67.0152 44.8295 66.5077C45.6754 65.4588 46.6566 64.4776 47.6209 63.5303C48.5851 62.5829 50.0569 64.0547 49.1096 65.002C48.1453 65.9494 47.1979 66.8967 46.3352 67.9287C45.8107 68.5715 45.1341 69.1805 44.5927 69.8403C45.2017 70.2632 46.1998 70.7031 46.6566 71.0076C47.4855 71.532 48.4498 72.3271 49.3633 72.6824Z" fill="#FB812C"/>
</svg>
