<svg width="36" height="36" viewBox="0 0 36 36" fill="none" xmlns="http://www.w3.org/2000/svg">
<rect width="36" height="36" rx="18" fill="#F7F7F7"/>
<g clip-path="url(#clip0_415_39115)">
<path fill-rule="evenodd" clip-rule="evenodd" d="M16.9969 10.5H19.0001C19.1372 10.5 19.2485 10.6112 19.2485 10.7484C19.2485 13.009 21.6956 14.422 23.6535 13.2917C23.7723 13.2231 23.9242 13.2638 23.9927 13.3826L24.9944 15.1174C25.0629 15.2362 25.0222 15.3882 24.9034 15.4568C22.9456 16.5871 22.9456 19.4129 24.9034 20.5433C25.0222 20.6119 25.0629 20.7638 24.9944 20.8826L23.9927 22.6175C23.9242 22.7363 23.7723 22.777 23.6535 22.7084C21.6957 21.578 19.2485 22.991 19.2485 25.2516C19.2485 25.3888 19.1373 25.5 19.0001 25.5H16.9969C16.8597 25.5 16.7485 25.3888 16.7485 25.2516C16.7485 22.9908 14.3011 21.578 12.3434 22.7083C12.2245 22.7769 12.0725 22.7362 12.0039 22.6174L11.0024 20.8826C10.9338 20.7638 10.9745 20.6119 11.0933 20.5433C13.0511 19.413 13.0511 16.5871 11.0933 15.4568C10.9745 15.3882 10.9338 15.2362 11.0024 15.1174L12.0039 13.3827C12.0726 13.2638 12.2245 13.2231 12.3434 13.2917C14.3012 14.4221 16.7485 13.0092 16.7485 10.7485C16.7485 10.6112 16.8597 10.5 16.9969 10.5ZM14.8735 10.7485C14.8735 9.5757 15.8242 8.625 16.9969 8.625H19.0001C20.1728 8.625 21.1235 9.5757 21.1235 10.7484C21.1235 11.5657 22.0082 12.0765 22.716 11.6679C23.7316 11.0815 25.0302 11.4295 25.6165 12.4451L26.6181 14.1799C27.2045 15.1955 26.8565 16.4942 25.8409 17.0806C25.1331 17.4892 25.1331 18.5108 25.8409 18.9195C26.8565 19.5059 27.2045 20.8045 26.6181 21.8201L25.6165 23.555C25.0302 24.5706 23.7316 24.9185 22.716 24.3322C22.0082 23.9235 21.1235 24.4343 21.1235 25.2516C21.1235 26.4243 20.1728 27.375 19.0001 27.375H16.9969C15.8241 27.375 14.8735 26.4243 14.8735 25.2516C14.8735 24.4343 13.9887 23.9235 13.2809 24.3321C12.2652 24.9185 10.9665 24.5705 10.3801 23.5549L9.37859 21.8201C8.79222 20.8045 9.1402 19.5059 10.1558 18.9195C10.8636 18.5108 10.8636 17.4892 10.1558 17.0806C9.1402 16.4942 8.79222 15.1955 9.37859 14.1799L10.3801 12.4452C10.9665 11.4295 12.2652 11.0816 13.2809 11.6679C13.9887 12.0766 14.8735 11.5658 14.8735 10.7485ZM19.8734 18C19.8734 19.0355 19.034 19.875 17.9984 19.875C16.9629 19.875 16.1234 19.0355 16.1234 18C16.1234 16.9645 16.9629 16.125 17.9984 16.125C19.034 16.125 19.8734 16.9645 19.8734 18ZM21.7484 18C21.7484 20.0711 20.0695 21.75 17.9984 21.75C15.9274 21.75 14.2484 20.0711 14.2484 18C14.2484 15.9289 15.9274 14.25 17.9984 14.25C20.0695 14.25 21.7484 15.9289 21.7484 18Z" fill="#ADADAD"/>
</g>
<defs>
<clipPath id="clip0_415_39115">
<rect width="20" height="20" fill="white" transform="translate(8 8)"/>
</clipPath>
</defs>
</svg>
