<svg width="36" height="36" viewBox="0 0 36 36" fill="none" xmlns="http://www.w3.org/2000/svg">
<rect width="36" height="36" rx="18" fill="#F7F7F7"/>
<path fill-rule="evenodd" clip-rule="evenodd" d="M9.5625 12.0625C9.5625 11.5447 9.98223 11.125 10.5 11.125H25.5C26.0178 11.125 26.4375 11.5447 26.4375 12.0625C26.4375 12.5803 26.0178 13 25.5 13H10.5C9.98223 13 9.5625 12.5803 9.5625 12.0625ZM9.5625 18C9.5625 17.4822 9.98223 17.0625 10.5 17.0625H25.5C26.0178 17.0625 26.4375 17.4822 26.4375 18C26.4375 18.5178 26.0178 18.9375 25.5 18.9375H10.5C9.98223 18.9375 9.5625 18.5178 9.5625 18ZM10.5 23C9.98223 23 9.5625 23.4197 9.5625 23.9375C9.5625 24.4553 9.98223 24.875 10.5 24.875H25.5C26.0178 24.875 26.4375 24.4553 26.4375 23.9375C26.4375 23.4197 26.0178 23 25.5 23H10.5Z" fill="#ADADAD"/>
</svg>
