<svg width="205" height="40" viewBox="0 0 205 40" fill="none" xmlns="http://www.w3.org/2000/svg">
<rect width="40" height="40" rx="10" fill="#0259BE"/>
<path d="M54.4318 38.5455C53.9242 38.5455 53.4621 38.5038 53.0455 38.4205C52.6288 38.3447 52.3182 38.2614 52.1136 38.1705L52.9318 35.3864C53.553 35.553 54.1061 35.625 54.5909 35.6023C55.0758 35.5795 55.5038 35.3977 55.875 35.0568C56.2538 34.7159 56.5871 34.1591 56.875 33.3864L57.2955 32.2273L50.9091 14.5455H54.5455L58.9659 28.0909H59.1477L63.5682 14.5455H67.2159L60.0227 34.3295C59.6894 35.2386 59.2652 36.0076 58.75 36.6364C58.2348 37.2727 57.6212 37.75 56.9091 38.0682C56.197 38.3864 55.3712 38.5455 54.4318 38.5455ZM76.5276 32.3523C74.8913 32.3523 73.4632 31.9773 72.2435 31.2273C71.0238 30.4773 70.0769 29.428 69.4026 28.0795C68.7284 26.7311 68.3913 25.1553 68.3913 23.3523C68.3913 21.5417 68.7284 19.9583 69.4026 18.6023C70.0769 17.2462 71.0238 16.1932 72.2435 15.4432C73.4632 14.6932 74.8913 14.3182 76.5276 14.3182C78.164 14.3182 79.592 14.6932 80.8117 15.4432C82.0314 16.1932 82.9784 17.2462 83.6526 18.6023C84.3269 19.9583 84.664 21.5417 84.664 23.3523C84.664 25.1553 84.3269 26.7311 83.6526 28.0795C82.9784 29.428 82.0314 30.4773 80.8117 31.2273C79.592 31.9773 78.164 32.3523 76.5276 32.3523ZM76.539 29.5C77.5996 29.5 78.4784 29.2197 79.1753 28.6591C79.8723 28.0985 80.3875 27.3523 80.7208 26.4205C81.0617 25.4886 81.2322 24.4621 81.2322 23.3409C81.2322 22.2273 81.0617 21.2045 80.7208 20.2727C80.3875 19.3333 79.8723 18.5795 79.1753 18.0114C78.4784 17.4432 77.5996 17.1591 76.539 17.1591C75.4708 17.1591 74.5844 17.4432 73.8799 18.0114C73.1829 18.5795 72.664 19.3333 72.3231 20.2727C71.9897 21.2045 71.8231 22.2273 71.8231 23.3409C71.8231 24.4621 71.9897 25.4886 72.3231 26.4205C72.664 27.3523 73.1829 28.0985 73.8799 28.6591C74.5844 29.2197 75.4708 29.5 76.539 29.5ZM95.1689 32.3523C93.5325 32.3523 92.1045 31.9773 90.8848 31.2273C89.6651 30.4773 88.7181 29.428 88.0439 28.0795C87.3696 26.7311 87.0325 25.1553 87.0325 23.3523C87.0325 21.5417 87.3696 19.9583 88.0439 18.6023C88.7181 17.2462 89.6651 16.1932 90.8848 15.4432C92.1045 14.6932 93.5325 14.3182 95.1689 14.3182C96.8052 14.3182 98.2333 14.6932 99.453 15.4432C100.673 16.1932 101.62 17.2462 102.294 18.6023C102.968 19.9583 103.305 21.5417 103.305 23.3523C103.305 25.1553 102.968 26.7311 102.294 28.0795C101.62 29.428 100.673 30.4773 99.453 31.2273C98.2333 31.9773 96.8052 32.3523 95.1689 32.3523ZM95.1802 29.5C96.2408 29.5 97.1196 29.2197 97.8166 28.6591C98.5136 28.0985 99.0287 27.3523 99.362 26.4205C99.703 25.4886 99.8734 24.4621 99.8734 23.3409C99.8734 22.2273 99.703 21.2045 99.362 20.2727C99.0287 19.3333 98.5136 18.5795 97.8166 18.0114C97.1196 17.4432 96.2408 17.1591 95.1802 17.1591C94.112 17.1591 93.2257 17.4432 92.5211 18.0114C91.8242 18.5795 91.3052 19.3333 90.9643 20.2727C90.631 21.2045 90.4643 22.2273 90.4643 23.3409C90.4643 24.4621 90.631 25.4886 90.9643 26.4205C91.3052 27.3523 91.8242 28.0985 92.5211 28.6591C93.2257 29.2197 94.112 29.5 95.1802 29.5ZM106.458 32V14.5455H109.719V17.3864H109.935C110.299 16.4242 110.893 15.6742 111.719 15.1364C112.545 14.5909 113.534 14.3182 114.685 14.3182C115.852 14.3182 116.829 14.5909 117.617 15.1364C118.412 15.6818 119 16.4318 119.378 17.3864H119.56C119.977 16.4545 120.64 15.7121 121.549 15.1591C122.458 14.5985 123.541 14.3182 124.799 14.3182C126.382 14.3182 127.674 14.8144 128.674 15.8068C129.681 16.7992 130.185 18.2955 130.185 20.2955V32H126.787V20.6136C126.787 19.4318 126.465 18.5758 125.821 18.0455C125.178 17.5152 124.409 17.25 123.515 17.25C122.409 17.25 121.549 17.5909 120.935 18.2727C120.321 18.947 120.015 19.8144 120.015 20.875V32H116.628V20.3977C116.628 19.4508 116.333 18.6894 115.742 18.1136C115.151 17.5379 114.382 17.25 113.435 17.25C112.791 17.25 112.196 17.4205 111.651 17.7614C111.113 18.0947 110.678 18.5606 110.344 19.1591C110.018 19.7576 109.856 20.4508 109.856 21.2386V32H106.458ZM141.451 32.3523C139.815 32.3523 138.387 31.9773 137.167 31.2273C135.948 30.4773 135.001 29.428 134.326 28.0795C133.652 26.7311 133.315 25.1553 133.315 23.3523C133.315 21.5417 133.652 19.9583 134.326 18.6023C135.001 17.2462 135.948 16.1932 137.167 15.4432C138.387 14.6932 139.815 14.3182 141.451 14.3182C143.088 14.3182 144.516 14.6932 145.735 15.4432C146.955 16.1932 147.902 17.2462 148.576 18.6023C149.251 19.9583 149.588 21.5417 149.588 23.3523C149.588 25.1553 149.251 26.7311 148.576 28.0795C147.902 29.428 146.955 30.4773 145.735 31.2273C144.516 31.9773 143.088 32.3523 141.451 32.3523ZM141.463 29.5C142.523 29.5 143.402 29.2197 144.099 28.6591C144.796 28.0985 145.311 27.3523 145.645 26.4205C145.985 25.4886 146.156 24.4621 146.156 23.3409C146.156 22.2273 145.985 21.2045 145.645 20.2727C145.311 19.3333 144.796 18.5795 144.099 18.0114C143.402 17.4432 142.523 17.1591 141.463 17.1591C140.395 17.1591 139.508 17.4432 138.804 18.0114C138.107 18.5795 137.588 19.3333 137.247 20.2727C136.913 21.2045 136.747 22.2273 136.747 23.3409C136.747 24.4621 136.913 25.4886 137.247 26.4205C137.588 27.3523 138.107 28.0985 138.804 28.6591C139.508 29.2197 140.395 29.5 141.463 29.5ZM156.138 21.6364V32H152.74V14.5455H156.002V17.3864H156.218C156.619 16.4621 157.248 15.7197 158.104 15.1591C158.968 14.5985 160.055 14.3182 161.365 14.3182C162.555 14.3182 163.596 14.5682 164.49 15.0682C165.384 15.5606 166.077 16.2955 166.57 17.2727C167.062 18.25 167.309 19.4583 167.309 20.8977V32H163.911V21.3068C163.911 20.0417 163.581 19.053 162.922 18.3409C162.263 17.6212 161.358 17.2614 160.206 17.2614C159.418 17.2614 158.718 17.4318 158.104 17.7727C157.498 18.1136 157.017 18.6136 156.661 19.2727C156.312 19.9242 156.138 20.7121 156.138 21.6364ZM178.748 32.3523C177.028 32.3523 175.547 31.9848 174.305 31.25C173.07 30.5076 172.115 29.4659 171.441 28.125C170.775 26.7765 170.441 25.197 170.441 23.3864C170.441 21.5985 170.775 20.0227 171.441 18.6591C172.115 17.2955 173.055 16.2311 174.259 15.4659C175.472 14.7008 176.888 14.3182 178.509 14.3182C179.494 14.3182 180.449 14.4811 181.373 14.8068C182.297 15.1326 183.127 15.6439 183.862 16.3409C184.597 17.0379 185.176 17.9432 185.6 19.0568C186.025 20.1629 186.237 21.5076 186.237 23.0909V24.2955H172.362V21.75H182.907C182.907 20.8561 182.725 20.0644 182.362 19.375C181.998 18.678 181.487 18.1288 180.828 17.7273C180.176 17.3258 179.411 17.125 178.532 17.125C177.578 17.125 176.744 17.3598 176.032 17.8295C175.328 18.2917 174.782 18.8977 174.396 19.6477C174.017 20.3902 173.828 21.197 173.828 22.0682V24.0568C173.828 25.2235 174.032 26.2159 174.441 27.0341C174.858 27.8523 175.437 28.4773 176.18 28.9091C176.922 29.3333 177.79 29.5455 178.782 29.5455C179.426 29.5455 180.013 29.4545 180.544 29.2727C181.074 29.0833 181.532 28.803 181.919 28.4318C182.305 28.0606 182.6 27.6023 182.805 27.0568L186.021 27.6364C185.763 28.5833 185.301 29.4129 184.634 30.125C183.975 30.8295 183.146 31.3788 182.146 31.7727C181.153 32.1591 180.021 32.3523 178.748 32.3523ZM191.014 38.5455C190.507 38.5455 190.045 38.5038 189.628 38.4205C189.211 38.3447 188.901 38.2614 188.696 38.1705L189.514 35.3864C190.136 35.553 190.689 35.625 191.173 35.6023C191.658 35.5795 192.086 35.3977 192.458 35.0568C192.836 34.7159 193.17 34.1591 193.458 33.3864L193.878 32.2273L187.492 14.5455H191.128L195.548 28.0909H195.73L200.151 14.5455H203.798L196.605 34.3295C196.272 35.2386 195.848 36.0076 195.333 36.6364C194.817 37.2727 194.204 37.75 193.492 38.0682C192.779 38.3864 191.954 38.5455 191.014 38.5455Z" fill="#313333"/>
</svg>
