<svg width="24" height="24" viewBox="0 0 24 24" fill="none" xmlns="http://www.w3.org/2000/svg">
<path d="M4.5 17.5V18.5V4.5V17.5ZM4.80775 20C4.30908 20 3.88308 19.8234 3.52975 19.4703C3.17658 19.1169 3 18.6909 3 18.1923V4.80775C3 4.30908 3.17658 3.88308 3.52975 3.52975C3.88308 3.17658 4.30908 3 4.80775 3H18.1923C18.6909 3 19.1169 3.17658 19.4703 3.52975C19.8234 3.88308 20 4.30908 20 4.80775V7.529H18.5V4.80775C18.5 4.71792 18.4712 4.64417 18.4135 4.5865C18.3558 4.52883 18.2821 4.5 18.1923 4.5H4.80775C4.71792 4.5 4.64417 4.52883 4.5865 4.5865C4.52883 4.64417 4.5 4.71792 4.5 4.80775V18.1923C4.5 18.2821 4.52883 18.3558 4.5865 18.4135C4.64417 18.4712 4.71792 18.5 4.80775 18.5H18.1923C18.2821 18.5 18.3558 18.4712 18.4135 18.4135C18.4712 18.3558 18.5 18.2821 18.5 18.1923V15.471H20V18.1923C20 18.6909 19.8234 19.1169 19.4703 19.4703C19.1169 19.8234 18.6909 20 18.1923 20H4.80775ZM12.8077 16C12.3091 16 11.8831 15.8234 11.5297 15.4703C11.1766 15.1169 11 14.6909 11 14.1923V8.80775C11 8.30908 11.1766 7.88308 11.5297 7.52975C11.8831 7.17658 12.3091 7 12.8077 7H19.1923C19.6909 7 20.1169 7.17658 20.4703 7.52975C20.8234 7.88308 21 8.30908 21 8.80775V14.1923C21 14.6909 20.8234 15.1169 20.4703 15.4703C20.1169 15.8234 19.6909 16 19.1923 16H12.8077ZM19.1923 14.5C19.2821 14.5 19.3558 14.4712 19.4135 14.4135C19.4712 14.3558 19.5 14.2821 19.5 14.1923V8.80775C19.5 8.71792 19.4712 8.64417 19.4135 8.5865C19.3558 8.52883 19.2821 8.5 19.1923 8.5H12.8077C12.7179 8.5 12.6442 8.52883 12.5865 8.5865C12.5288 8.64417 12.5 8.71792 12.5 8.80775V14.1923C12.5 14.2821 12.5288 14.3558 12.5865 14.4135C12.6442 14.4712 12.7179 14.5 12.8077 14.5H19.1923ZM15.5 13C15.9167 13 16.2708 12.8542 16.5625 12.5625C16.8542 12.2708 17 11.9167 17 11.5C17 11.0833 16.8542 10.7292 16.5625 10.4375C16.2708 10.1458 15.9167 10 15.5 10C15.0833 10 14.7292 10.1458 14.4375 10.4375C14.1458 10.7292 14 11.0833 14 11.5C14 11.9167 14.1458 12.2708 14.4375 12.5625C14.7292 12.8542 15.0833 13 15.5 13Z" fill="white"/>
</svg>
