<svg width="24" height="24" viewBox="0 0 24 24" fill="none" xmlns="http://www.w3.org/2000/svg">
<path fill-rule="evenodd" clip-rule="evenodd" d="M19.591 13.227L12.2869 20.5311C11.7048 21.1132 10.7624 21.1174 10.1752 20.5406L3.50089 13.9856C2.91003 13.4053 2.90128 12.4559 3.48133 11.8648L10.783 4.42409C11.2061 3.99292 11.7848 3.75 12.3889 3.75H18.75C19.5784 3.75 20.25 4.42157 20.25 5.25V11.636C20.25 12.2328 20.0129 12.8051 19.591 13.227ZM9.17702 2.84818C10.0232 1.98584 11.1807 1.5 12.3889 1.5H18.75C20.8211 1.5 22.5 3.17893 22.5 5.25V11.636C22.5 12.8295 22.0259 13.9741 21.182 14.818L13.8779 22.1221C12.4227 23.5773 10.0668 23.5879 8.59857 22.1459L1.9243 15.5908C0.447147 14.14 0.425259 11.7666 1.87541 10.2889L9.17702 2.84818ZM15.75 9.75C14.7145 9.75 13.875 8.91053 13.875 7.875C13.875 6.83946 14.7145 6 15.75 6C16.7855 6 17.625 6.83946 17.625 7.875C17.625 8.91053 16.7855 9.75 15.75 9.75Z" fill="#939393"/>
</svg>
