<svg width="30" height="30" viewBox="0 0 30 30" fill="none" xmlns="http://www.w3.org/2000/svg">
<path d="M3.77273 21.9118V23.1471V5.85294V21.9118ZM4.13643 25C3.5471 25 3.04364 24.7819 2.62607 24.3456C2.20869 23.9091 2 23.3829 2 22.7669V6.2331C2 5.6171 2.20869 5.09087 2.62607 4.6544C3.04364 4.21813 3.5471 4 4.13643 4H24.6817C25.2711 4 25.7745 4.21813 26.1921 4.6544C26.6095 5.09087 26.8182 5.6171 26.8182 6.2331V9.59465H25.0455V6.2331C25.0455 6.12213 25.0114 6.03103 24.9432 5.95979C24.8751 5.88856 24.7879 5.85294 24.6817 5.85294H4.13643C4.03027 5.85294 3.94311 5.88856 3.87495 5.95979C3.8068 6.03103 3.77273 6.12213 3.77273 6.2331V22.7669C3.77273 22.8779 3.8068 22.969 3.87495 23.0402C3.94311 23.1114 4.03027 23.1471 4.13643 23.1471H24.6817C24.7879 23.1471 24.8751 23.1114 24.9432 23.0402C25.0114 22.969 25.0455 22.8779 25.0455 22.7669V19.4054H26.8182V22.7669C26.8182 23.3829 26.6095 23.9091 26.1921 24.3456C25.7745 24.7819 25.2711 25 24.6817 25H4.13643ZM18.3182 20.0588C17.7289 20.0588 17.2255 19.8407 16.8079 19.4044C16.3905 18.968 16.1818 18.4417 16.1818 17.8257V11.1743C16.1818 10.5583 16.3905 10.032 16.8079 9.59557C17.2255 9.15931 17.7289 8.94118 18.3182 8.94118H25.8636C26.4529 8.94118 26.9564 9.15931 27.3739 9.59557C27.7913 10.032 28 10.5583 28 11.1743V17.8257C28 18.4417 27.7913 18.968 27.3739 19.4044C26.9564 19.8407 26.4529 20.0588 25.8636 20.0588H18.3182ZM25.8636 18.2059C25.9697 18.2059 26.0569 18.1703 26.125 18.099C26.1932 18.0278 26.2273 17.9367 26.2273 17.8257V11.1743C26.2273 11.0633 26.1932 10.9722 26.125 10.901C26.0569 10.8297 25.9697 10.7941 25.8636 10.7941H18.3182C18.2121 10.7941 18.1249 10.8297 18.0568 10.901C17.9886 10.9722 17.9545 11.0633 17.9545 11.1743V17.8257C17.9545 17.9367 17.9886 18.0278 18.0568 18.099C18.1249 18.1703 18.2121 18.2059 18.3182 18.2059H25.8636ZM21.5 16.3529C21.9924 16.3529 22.411 16.1728 22.7557 15.8125C23.1004 15.4522 23.2727 15.0147 23.2727 14.5C23.2727 13.9853 23.1004 13.5478 22.7557 13.1875C22.411 12.8272 21.9924 12.6471 21.5 12.6471C21.0076 12.6471 20.589 12.8272 20.2443 13.1875C19.8996 13.5478 19.7273 13.9853 19.7273 14.5C19.7273 15.0147 19.8996 15.4522 20.2443 15.8125C20.589 16.1728 21.0076 16.3529 21.5 16.3529Z" fill="#4D4D4D"/>
</svg>
