<svg width="48" height="48" viewBox="0 0 48 48" fill="none" xmlns="http://www.w3.org/2000/svg">
<rect width="48" height="48" rx="21" transform="matrix(-1 -8.74228e-08 -8.74228e-08 1 48 0)" fill="#C25800"/>
<path d="M25.0962 31.5V28.077H26.596V30H28.702V31.5H25.0962ZM30.8943 31.5V30H33V28.077H34.5V31.5H30.8943ZM25.0962 19.923V16.5H28.702V18H26.596V19.923H25.0962ZM33 19.923V18H30.8943V16.5H34.5V19.923H33ZM28.9327 27.5577L27.8788 26.5037L29.6365 24.75H17.9905V23.25H29.6365L27.8788 21.4962L28.9327 20.4423L32.5095 24L28.9327 27.5577ZM13.5 31.5V16.5H22.9038V21.0578H15.798V26.9423H22.9038V31.5H13.5Z" fill="white"/>
</svg>
