<svg width="24" height="24" viewBox="0 0 24 24" fill="none" xmlns="http://www.w3.org/2000/svg">
<path d="M13.0962 19.5V16.077H14.596V18H16.702V19.5H13.0962ZM18.8943 19.5V18H21V16.077H22.5V19.5H18.8943ZM13.0962 7.923V4.5H16.702V6H14.596V7.923H13.0962ZM21 7.923V6H18.8943V4.5H22.5V7.923H21ZM16.9327 15.5577L15.8788 14.5037L17.6365 12.75H5.9905V11.25H17.6365L15.8788 9.49625L16.9327 8.44225L20.5095 12L16.9327 15.5577ZM1.5 19.5V4.5H10.9038V9.05775H3.798V14.9423H10.9038V19.5H1.5Z" fill="white"/>
</svg>
