<svg width="84" height="70" viewBox="0 0 84 70" fill="none" xmlns="http://www.w3.org/2000/svg">
<path d="M33.4996 21.5004C33.4996 0.499792 74.9871 -15.67 53.3119 29.5002C53.3119 29.5002 81.077 16.2836 82.9216 31.7173C84.7662 47.151 53.3119 46.0201 53.3119 46.0201C53.3119 46.0201 76.9996 58.6796 61.2242 68.6053C50.4547 75.3813 40.8524 49.7835 40.8524 49.7835C40.8524 49.7835 35.996 79.1447 16.4746 67.099C-12.0004 49.5284 23.9268 40.3234 23.9268 40.3234C23.9268 40.3234 -3.50036 29.4998 2.85903 16.2789C12.454 0.0943632 33.5033 21.4957 33.5033 21.4957L33.4996 21.5004Z" fill="#FF6900"/>
</svg>
