<svg width="94" height="60" viewBox="0 0 94 60" fill="none" xmlns="http://www.w3.org/2000/svg">
<path d="M13.7189 31.2036C13.7189 31.2036 12.3931 40.6612 14.4466 46.0806C16.5001 51.5 20.4763 59.177 41.6649 59.177C62.8535 59.177 67.5129 50.6612 69.7475 46.0806C71.982 41.5 71.982 29.2266 71.982 29.2266L13.7189 31.2036Z" fill="#B6DDA5"/>
<path d="M0.808364 24.6493C0.99977 28.5 31.4579 47.7736 39.9789 47.887C48.4998 48.0005 85.2852 27.5005 85.2852 23.4035C85.2852 19.3066 49.9998 1.5001 43.6437 0.824321C37.2876 0.14854 0.616958 20.7985 0.808364 24.6493Z" fill="#B6DDA5"/>
<path d="M43.0003 21C43.0003 21 58.5002 21 75.3459 31.3114" stroke="black" stroke-width="2" stroke-linecap="round" stroke-linejoin="round"/>
<path d="M86.3303 34.9915C89.5104 38.2771 88.2301 40.959 85.8027 43.3863C83.3753 45.8136 80.7125 47.0723 77.53 43.7808C74.3499 40.4952 71.8502 33.9084 74.2777 31.4811C76.7051 29.0538 83.1477 31.7 86.3278 34.9856L86.3303 34.9915Z" fill="#FB812C"/>
</svg>
