<svg width="73" height="55" viewBox="0 0 73 55" fill="none" xmlns="http://www.w3.org/2000/svg">
<g clip-path="url(#clip0_1_22242)">
<path d="M0.770096 50.8229L2.86053 15.7034C2.97347 13.8059 3.96757 12.0512 5.62062 11.1127C17.9816 4.0948 28.2612 5.6958 33.6014 7.31019C42.2736 1.29162 58.9122 0.461552 68.4179 1.03724C71.595 1.22966 73.6576 4.14733 73.1684 7.29246L67.5362 43.4993C67.3081 44.9661 65.5927 45.7025 64.2342 45.1042C55.4947 41.2551 43.6001 44.8512 36.661 48.7284C34.7673 49.7864 32.4198 49.7632 30.392 48.9928C22.3427 45.9344 11.1787 49.2012 3.9218 52.8118C2.46799 53.5351 0.673612 52.4439 0.770096 50.8229Z" fill="#B6DDA5"/>
<path d="M38 12.5C41.5406 10.3408 51.4294 7.61997 62.6801 8.5723" stroke="black" stroke-width="2" stroke-linecap="round"/>
<path d="M37.5002 19.5004C41.0747 17.8151 50.8837 13.9911 62.1031 14.5059" stroke="black" stroke-width="2" stroke-linecap="round"/>
<path d="M6.54004 17.6875C9.78363 15.3119 18.7247 11.1088 28.54 13.3017" stroke="black" stroke-width="2" stroke-linecap="round"/>
<path d="M6 25C9.24359 22.6244 18.1846 18.4213 28 20.6142" stroke="black" stroke-width="2" stroke-linecap="round"/>
<path d="M5.45996 32.3125C8.70355 29.9369 17.6446 25.7338 27.46 27.9267" stroke="black" stroke-width="2" stroke-linecap="round"/>
</g>
<defs>
<clipPath id="clip0_1_22242">
<rect width="73" height="55" fill="white"/>
</clipPath>
</defs>
</svg>
