<svg width="50" height="70" viewBox="0 0 50 70" fill="none" xmlns="http://www.w3.org/2000/svg">
<g clip-path="url(#clip0_1_22231)">
<path d="M23.8702 41.9367C25.4397 41.8642 27.0584 41.6435 28.6989 41.2713C35.5392 39.7231 40.761 36.9132 44.2194 32.9241C47.8934 28.6847 49.5366 23.0617 48.846 17.0863C48.2592 12.0101 45.9663 7.5401 42.3933 4.49969C38.9349 1.55809 34.3519 0 29.1438 0C27.405 0 25.5762 0.174585 23.7064 0.513873C8.06587 3.35335 2.23273 14.7212 3.38735 24.7318C3.77768 28.1214 4.94595 31.2672 6.75567 33.9091C7.61003 35.1575 8.60906 36.294 9.73638 37.2888C11.2349 38.613 10.6738 38.922 12.5217 39.6928C12.5217 39.6928 5.68136 48.4353 1.00011 59.5C-3.68115 70.5648 8.27605 72.443 11.9146 66.26M27.0003 30C20.0003 31.5914 15.2922 28 14.7725 23.5C13.9754 16.5989 18.5003 13.5891 24.5003 12.5C32.0003 11.1387 36.0003 14 37.0003 19C37.8887 23.4419 36.0003 27.9539 27.0003 30Z" fill="#B6DDA5"/>
</g>
<defs>
<clipPath id="clip0_1_22231">
<rect width="50" height="70" fill="white"/>
</clipPath>
</defs>
</svg>
