<svg width="58" height="64" viewBox="0 0 58 64" fill="none" xmlns="http://www.w3.org/2000/svg">
<g clip-path="url(#clip0_1_22251)">
<path d="M55.9187 6.77624C54.4515 3.03098 50.5157 1.19817 45.4931 3.64209C40.5029 6.07056 38.9158 10.3296 40.3862 14.0773C41.8533 17.8226 45.9887 19.8309 50.8109 17.2084C56.029 14.3722 57.3882 10.5208 55.9187 6.77624ZM51.9712 9.2985C51.7681 9.74939 51.0377 10.9352 48.6444 12.235C48.1373 12.512 47.6395 12.7166 47.1607 12.8462C45.6779 13.2475 44.5424 12.8494 44.3004 12.2361C44.08 11.6736 44.8182 10.0032 47.5223 8.6892C48.0312 8.43835 48.5332 8.24926 49.0071 8.121C50.4508 7.73028 51.7383 7.94414 52.0044 8.61741C52.1001 8.86434 52.1325 8.9454 51.9712 9.2985Z" fill="#FB812C"/>
<path d="M24.868 64C18.6871 64 13.1816 61.9185 8.94308 57.9815C4.63772 53.9817 1.87883 48.2427 1.17364 41.8223C-0.24169 28.944 6.90175 14.3137 26.0458 10.6593C28.3345 10.2229 30.5738 10 32.7018 10C39.0781 10 44.685 11.9999 48.9161 15.7862C53.2908 19.698 56.0942 25.4528 56.8118 31.983C57.6555 39.6717 55.6439 46.9084 51.148 52.3586C46.9144 57.4917 40.5232 61.1085 32.1525 63.099C29.6608 63.6923 27.2112 63.9937 24.868 63.9937V64Z" fill="#FB812C"/>
<path d="M48.8773 32.927C49.9112 42.2587 44.4568 50.1 30.8656 53.3122C18.2994 56.2817 10.1447 49.2335 9.11077 39.9018C8.07686 30.5701 14.296 21.944 27.1224 19.5165C40.0318 17.0721 47.8433 23.5953 48.8773 32.927Z" fill="white"/>
<path d="M29.4385 25L29 36.8046L35 44" stroke="black" stroke-width="2" stroke-linecap="round" stroke-linejoin="round"/>
</g>
<defs>
<clipPath id="clip0_1_22251">
<rect width="58" height="64" fill="white"/>
</clipPath>
</defs>
</svg>
