<svg width="273" height="261" viewBox="0 0 273 261" fill="none" xmlns="http://www.w3.org/2000/svg">
<path d="M129.001 85.001C114.195 88.218 82.8656 99.1218 76.001 117.001" stroke="black" stroke-width="3" stroke-linecap="round"/>
<path d="M64.5 51.5015C67.8333 59.0016 74.7999 78.3018 76 95.5015" stroke="black" stroke-width="3" stroke-linecap="round"/>
<path d="M93.5005 91.0004C85.5003 86.9997 63.0005 91.0007 60.0005 99.5004C57.0005 108 68.9525 152.816 73.5005 158.501C79.5008 166.001 98.5006 160.501 104.001 155.001C109.712 149.289 101.5 95.001 93.5005 91.0004Z" fill="#FB812C"/>
<path d="M156.852 134.879C143.662 142.335 113.025 155.056 96.0002 146.285" stroke="black" stroke-width="3" stroke-linecap="round"/>
<path d="M278.088 -1.12141C261.328 -28.7187 214.836 -62.1118 201.238 -53.8534C177.398 -32.3707 173.197 -11.6093 165.692 -7.0517C108.889 32.0322 108.116 71.877 134.89 112.91C175.374 174.954 233.846 146.658 277.021 122.602C294.656 112.776 320.88 104.72 326.243 101.463C342.269 91.7295 312.283 38.3138 302.285 21.8509C299.458 17.1966 278.983 17.2314 277.021 14C275.105 10.845 281.926 5.198 278.088 -1.12141Z" fill="#E14B4B"/>
<path d="M174.524 91.3594C181.389 85.2274 191.752 85.6032 197.669 92.1988C203.586 98.7944 202.818 109.112 195.952 115.244C189.087 121.376 178.724 121 172.807 114.405C166.89 107.809 167.658 97.4915 174.524 91.3594Z" fill="white"/>
<path d="M147.432 59.1036C154.297 52.9716 164.66 53.3473 170.577 59.9429C176.495 66.5385 175.726 76.8563 168.861 82.9883C161.995 89.1203 151.633 88.7445 145.715 82.1489C139.798 75.5534 140.566 65.2356 147.432 59.1036Z" fill="white"/>
<path d="M145.604 79.036C143.077 75.2031 144.025 70.1905 147.721 67.84C151.418 65.4895 156.464 66.6913 158.991 70.5242C161.519 74.3572 160.571 79.3698 156.874 81.7203C153.177 84.0707 148.132 82.869 145.604 79.036Z" fill="black"/>
<path d="M172.012 110.666C169.307 106.564 170.322 101.201 174.277 98.6857C178.233 96.1707 183.631 97.4566 186.336 101.558C189.04 105.659 188.026 111.023 184.07 113.538C180.115 116.053 174.716 114.767 172.012 110.666Z" fill="black"/>
<path d="M208.031 96.3062C207.912 93.0914 205.902 85.6656 198.816 81.6802" stroke="black" stroke-width="3" stroke-linecap="round"/>
<path d="M169.515 51.5679C172.709 51.9479 179.947 54.5547 183.343 61.9418" stroke="black" stroke-width="3" stroke-linecap="round"/>
<path d="M49.8689 36.9968C49.8689 36.9968 46.6815 17.6899 55.3769 16.5747C64.0722 15.4595 66.0831 31.6984 66.0831 31.6984C66.0831 31.6984 75.3311 14.0155 86.4171 19.9086C98.9478 26.5696 77.4105 38.2807 77.4105 38.2807C77.4105 38.2807 107.241 32.1836 102.546 47.2521C97.8515 62.3207 78.8588 50.2901 78.8588 50.2901C78.8588 50.2901 93.3307 61.5497 77.9169 69.2891C62.5031 77.0285 61.9851 55.793 61.9851 55.793C61.9851 55.793 57.4529 79.5063 42.8323 73.7887C28.2117 68.0711 48.6024 52.3513 48.6024 52.3513C48.6024 52.3513 27.3895 59.1732 30.1033 48.3839C32.8171 37.5945 49.8636 36.9975 49.8636 36.9975L49.8689 36.9968Z" fill="#FB812C"/>
<circle cx="63.2511" cy="44.132" r="8.38095" transform="rotate(-7.30832 63.2511 44.132)" fill="#F7F7F7"/>
<circle cx="154.027" cy="96.5835" r="4" fill="black"/>
</svg>
