<svg width="270" height="193" viewBox="0 0 270 193" fill="none" xmlns="http://www.w3.org/2000/svg">
<path d="M79.4297 -26.0345C84.2202 61.4012 77.8993 139 166.79 139C274.444 139 251.347 -8.44077 251.347 -26.0345C251.347 -43.6283 193.405 -39.6034 175.306 -39.6034C170.189 -39.6034 167.174 -10.3847 163.621 -10.3847C160.153 -10.3847 156.173 -39.6034 149.225 -39.6034C118.887 -39.6034 79.4297 -40.9626 79.4297 -26.0345Z" fill="#FB812C"/>
<path d="M42.7208 114C17.4261 114 7.99902 95.4419 7.99902 82.9884C7.99902 71.0233 15.0454 51 40.0425 51C65.0396 51 73.999 70.5349 73.999 82.9884C73.999 95.4419 68.0154 114 42.7208 114Z" fill="#B6DDA5"/>
<path d="M43 65V84.1053L30 98" stroke="black" stroke-width="3" stroke-linecap="round"/>
<path d="M161.777 82.9212C161.632 92.1252 154.333 99.49 145.473 99.3708C136.613 99.2517 129.547 91.6937 129.691 82.4896C129.835 73.2856 137.135 65.9208 145.995 66.04C154.855 66.1591 161.921 73.7171 161.777 82.9212Z" fill="white"/>
<path d="M203.857 84.8626C203.712 94.0666 196.413 101.431 187.553 101.312C178.693 101.193 171.627 93.6351 171.771 84.431C171.915 75.227 179.215 67.8622 188.075 67.9814C196.935 68.1006 204.001 75.6585 203.857 84.8626Z" fill="white"/>
<path d="M183.374 78.4513C187.906 79.1907 190.949 83.285 190.172 87.5962C189.395 91.9073 185.091 94.8028 180.56 94.0634C176.029 93.324 172.985 89.2297 173.763 84.9186C174.54 80.6074 178.843 77.7119 183.374 78.4513Z" fill="black"/>
<path d="M142.22 76.4325C147.069 77.2236 150.325 81.6046 149.493 86.2176C148.662 90.8306 144.057 93.9288 139.209 93.1376C134.36 92.3464 131.104 87.9655 131.935 83.3525C132.767 78.7395 137.372 75.6413 142.22 76.4325Z" fill="black"/>
<path d="M164.262 62.54C164.262 62.54 168.777 61.4592 174.925 62.3906" stroke="black" stroke-width="3" stroke-linecap="round" stroke-linejoin="round"/>
<path d="M135.43 104.207C137.874 106.298 144.696 109.853 152.43 107.344" stroke="black" stroke-width="3" stroke-linecap="round"/>
<path d="M194.43 106.207C191.985 108.298 185.163 111.853 177.43 109.344" stroke="black" stroke-width="3" stroke-linecap="round"/>
<path d="M247.43 116C243.379 105.161 250.975 48.2791 234.43 44.4999" stroke="black" stroke-width="3" stroke-linecap="round" stroke-linejoin="round"/>
<path d="M88.9296 115C84.8778 104.161 89.4294 58.9996 95.4293 44.4997" stroke="black" stroke-width="3" stroke-linecap="round" stroke-linejoin="round"/>
</svg>
