<svg width="297" height="242" viewBox="0 0 297 242" fill="none" xmlns="http://www.w3.org/2000/svg">
<path d="M153.55 -105.277C204.573 -25.2305 259.17 39.1305 180.869 95.2933C86.0386 163.312 13.2279 18.842 2.11184 3.34415C-9.00427 -12.1537 44.5791 -45.2178 60.5214 -56.6527C65.0286 -59.8855 62.3454 -63.6713 65.4747 -65.9158C68.5299 -68.1072 77.3756 -68.7416 83.4952 -73.131C110.22 -92.2998 144.118 -118.427 153.55 -105.277Z" fill="#A44BE1"/>
<ellipse cx="4.31658" cy="3.53175" rx="4.31658" ry="3.53175" transform="matrix(0.849291 -0.527925 -0.527925 -0.849291 80.5488 28.0811)" fill="#9A4DD4"/>
<path d="M119.816 54.9151C124.864 62.4192 123.374 72.2634 116.486 76.9026C109.599 81.5418 99.9235 79.2194 94.8751 71.7153C89.8268 64.2112 91.3176 54.3671 98.2049 49.7278C105.092 45.0886 114.768 47.411 119.816 54.9151Z" fill="white"/>
<path d="M153.395 32.3058C158.444 39.8099 156.953 49.654 150.066 54.2932C143.178 58.9324 133.503 56.61 128.454 49.1059C123.406 41.6018 124.897 31.7577 131.784 27.1185C138.671 22.4792 148.347 24.8017 153.395 32.3058Z" fill="white"/>
<path d="M137.58 31.4815C140.903 29.9271 144.853 31.3555 146.402 34.672C147.95 37.9884 146.511 41.9369 143.188 43.4913C139.864 45.0456 135.915 43.6172 134.366 40.3008C132.817 36.9843 134.256 33.0358 137.58 31.4815Z" fill="black"/>
<path d="M103.628 54.3682C106.951 52.8138 110.901 54.2423 112.45 57.5587C113.998 60.8751 112.559 64.8236 109.236 66.378C105.912 67.9323 101.962 66.5039 100.414 63.1875C98.8652 59.8711 100.304 55.9225 103.628 54.3682Z" fill="black"/>
<path d="M120.378 80.7634C120.378 80.7634 114.45 86.362 103.513 83.7521" stroke="black" stroke-width="3" stroke-linecap="round" stroke-linejoin="round"/>
<path d="M162.115 46.7056C162.115 46.7056 162.826 54.7971 151.883 60.4517" stroke="black" stroke-width="3" stroke-linecap="round" stroke-linejoin="round"/>
<path d="M122.267 59.8029C122.458 63.169 96.2631 79.9588 91.4817 79.7472C88.4114 78.076 81.6563 65.4834 82.1718 63.4457C82.6874 61.408 109.574 45.8324 111.853 44.6832C114.132 43.534 122.136 57.4813 122.267 59.8029Z" stroke="black" stroke-width="3"/>
<path d="M159.135 36.9162C159.326 40.2823 133.13 57.0721 128.349 56.8605C125.279 55.1893 118.524 42.5967 119.039 40.559C119.555 38.5213 146.441 22.9457 148.72 21.7965C150.999 20.6473 159.003 34.5946 159.135 36.9162Z" stroke="black" stroke-width="3"/>
<path d="M119.173 53.0512C120.203 53.108 122.446 52.6903 123.172 50.5652" stroke="black" stroke-width="2.17198" stroke-linecap="round"/>
<path d="M156.085 29.179C167.887 29.2283 191.449 26.6457 191.276 15.9205" stroke="black" stroke-width="3" stroke-linecap="round"/>
<path d="M63.3438 59.103C61.501 42.4995 78.0009 15.9991 96.5011 18.9991" stroke="black" stroke-width="3" stroke-linecap="round"/>
<path d="M137.35 2.0121C121 -10.5005 97.4789 7.05581 86.0002 26.9993" stroke="black" stroke-width="3" stroke-linecap="round"/>
<path d="M105.734 37.376C106.015 35.1094 108.541 30.6102 116.399 30.7466" stroke="black" stroke-width="3" stroke-linecap="round"/>
</svg>
