<svg width="708" height="456" viewBox="0 0 708 456" fill="none" xmlns="http://www.w3.org/2000/svg">
<g clip-path="url(#clip0_1_20566)">
<rect width="708" height="456" rx="30" fill="#F7F7F7"/>
<path d="M350.5 -26L-14 190.5L-41 483.5H118.5L727.5 109.5L733.5 -8L350.5 -26Z" fill="#F1F1F1"/>
<path d="M206 71.5L471 241" stroke="#DFDFDF" stroke-width="3" stroke-linecap="round"/>
<path d="M140 118L405 287.5" stroke="#DFDFDF" stroke-width="3" stroke-linecap="round"/>
<path d="M311 15L576 184.5" stroke="#DFDFDF" stroke-width="3" stroke-linecap="round"/>
<path d="M421 -53L686 116.5" stroke="#DFDFDF" stroke-width="3" stroke-linecap="round"/>
<path d="M37 178L302 347.5" stroke="#DFDFDF" stroke-width="3" stroke-linecap="round"/>
<path d="M-62 234L203 403.5" stroke="#DFDFDF" stroke-width="3" stroke-linecap="round"/>
<path d="M341.5 282C335 266 169 168.5 136.5 173.5C104 178.5 -96.0002 311.5 -95.0002 334.5C-94.0002 357.5 59.4998 454.5 88.9998 446C118.5 437.5 348 298 341.5 282Z" fill="#D9D9D9"/>
<path d="M143.544 210.241C125.544 213.841 -24.4563 309.744 -26.9563 322.742C-29.4563 335.741 76.0437 404.242 90.0437 404.242C104.044 404.242 277.044 283.741 272.544 274.741C268.044 265.741 166.044 205.741 143.544 210.241Z" fill="#F7F7F7"/>
<path d="M230.578 121.1C193.498 101.378 233.009 33.4799 270.494 46.0553C288.363 52.0502 322.987 87.2795 365.065 109.13C411.254 133.116 464.787 144.063 476.205 155.471C498.025 177.271 481.684 239.936 436.29 230.516C413.202 225.725 375.855 191.56 334.072 167.401C293.701 144.059 248.799 130.792 230.578 121.1Z" fill="#D9D9D9"/>
<path d="M331.054 166.821C325.471 166.547 318.14 164.485 314.814 158.366C313.178 155.356 314.023 136.854 322.776 123.028C331.82 108.744 350.036 100.528 352.588 100.449C357.61 100.293 365.007 102.852 368.268 108.475C370.094 111.624 351.635 116.449 341.032 132.732C331.413 147.504 336.13 167.071 331.054 166.821Z" fill="#FF6900"/>
<path d="M343.767 192.117C340.951 190.591 339.269 160.908 331.416 143.599C330.173 138.516 329.717 129.554 337.832 134.376C345.948 139.198 367.329 181.08 364.954 183.168C362.58 185.255 350.45 182.238 350.45 182.238C350.45 182.238 346.583 193.643 343.767 192.117Z" fill="#FF6900"/>
<path d="M373.556 130.791C372.309 128.063 343.509 128.399 337.554 130.205L333.487 144.159C345.129 138.837 371.445 149.621 372.555 146.642C373.665 143.663 366.311 137.542 366.311 137.542C366.311 137.542 374.804 133.52 373.556 130.791Z" fill="#FF6900"/>
<path d="M443.993 216.525C465.61 212.171 485.717 184.818 470.612 169.657C455.507 154.496 421.846 186.153 441.843 200.166C461.839 214.18 476.391 171.419 459.627 178.162" stroke="black" stroke-width="3" stroke-linecap="round"/>
<path d="M373.719 37.1003C336.639 17.3779 376.15 -50.5201 413.634 -37.9447C431.504 -31.9498 466.127 3.27955 508.206 25.1303C554.395 49.1158 607.928 60.063 619.346 71.4708C641.166 93.271 624.825 155.936 579.43 146.516C556.343 141.725 518.995 107.56 477.212 83.4007C436.842 60.0586 391.94 46.7919 373.719 37.1003Z" fill="#D9D9D9"/>
<path d="M474.195 82.8215C468.611 82.5468 461.281 80.4847 457.955 74.3658C456.319 71.3563 457.164 52.8537 465.917 39.0281C474.961 24.7436 493.176 16.5285 495.728 16.4493C500.751 16.2934 508.148 18.8519 511.408 24.4753C513.234 27.6238 494.776 32.4491 484.173 48.7319C474.553 63.5045 479.27 83.0712 474.195 82.8215Z" fill="#FF6900"/>
<path d="M486.908 108.117C484.092 106.591 482.41 76.9076 474.556 59.5994C473.314 54.5156 472.857 45.5536 480.973 50.3758C489.089 55.1979 510.47 97.0803 508.095 99.1676C505.72 101.255 493.59 98.2381 493.59 98.2381C493.59 98.2381 489.723 109.643 486.908 108.117Z" fill="#FF6900"/>
<path d="M516.697 46.791C515.45 44.0626 486.65 44.3992 480.695 46.2049L476.628 60.1587C488.269 54.8374 514.586 65.6207 515.696 62.6418C516.806 59.663 509.452 53.5421 509.452 53.5421C509.452 53.5421 517.944 49.5195 516.697 46.791Z" fill="#FF6900"/>
<path d="M587.134 132.525C608.751 128.171 628.857 100.818 613.753 85.6567C598.648 70.4959 564.987 102.153 584.983 116.166C604.98 130.18 619.532 87.4193 602.767 94.1616" stroke="black" stroke-width="3" stroke-linecap="round"/>
<path d="M497.719 -43.8997C460.639 -63.6221 500.15 -131.52 537.634 -118.945C555.504 -112.95 590.127 -77.7205 632.206 -55.8697C678.395 -31.8842 731.928 -20.937 743.346 -9.52921C765.166 12.271 748.825 74.9361 703.43 65.5158C680.343 60.7246 642.995 26.5595 601.212 2.40072C560.842 -20.9414 515.94 -34.2081 497.719 -43.8997Z" fill="#D9D9D9"/>
<path d="M598.195 1.82145C592.611 1.54676 585.281 -0.515282 581.955 -6.63422C580.319 -9.64375 581.164 -28.1463 589.917 -41.9719C598.961 -56.2564 617.176 -64.4715 619.728 -64.5507C624.751 -64.7066 632.148 -62.1481 635.408 -56.5247C637.234 -53.3762 618.776 -48.5509 608.173 -32.2681C598.553 -17.4955 603.27 2.07118 598.195 1.82145Z" fill="#FF6900"/>
<path d="M610.908 27.1168C608.092 25.591 606.41 -4.09244 598.556 -21.4006C597.314 -26.4844 596.857 -35.4464 604.973 -30.6242C613.089 -25.8021 634.47 16.0803 632.095 18.1676C629.72 20.255 617.59 17.2381 617.59 17.2381C617.59 17.2381 613.723 28.6427 610.908 27.1168Z" fill="#FF6900"/>
<path d="M711.134 51.5254C732.751 47.1712 752.857 19.8175 737.753 4.6567C722.648 -10.5041 688.987 21.1527 708.983 35.1662C728.98 49.1797 743.532 6.41934 726.767 13.1616" stroke="black" stroke-width="3" stroke-linecap="round"/>
<rect y="71" width="708" height="385" fill="url(#paint0_linear_1_20566)"/>
<path d="M154.852 433.119C154.29 433.119 153.788 433.023 153.348 432.83C152.911 432.636 152.563 432.368 152.304 432.024C152.048 431.678 151.909 431.276 151.886 430.818H152.96C152.983 431.099 153.08 431.342 153.25 431.547C153.42 431.749 153.643 431.905 153.919 432.016C154.195 432.126 154.5 432.182 154.835 432.182C155.21 432.182 155.543 432.116 155.832 431.986C156.122 431.855 156.349 431.673 156.514 431.44C156.679 431.207 156.761 430.938 156.761 430.631C156.761 430.31 156.682 430.027 156.523 429.783C156.364 429.536 156.131 429.342 155.824 429.203C155.517 429.064 155.142 428.994 154.699 428.994H154V428.057H154.699C155.045 428.057 155.349 427.994 155.611 427.869C155.875 427.744 156.081 427.568 156.229 427.341C156.379 427.114 156.455 426.847 156.455 426.54C156.455 426.244 156.389 425.987 156.259 425.768C156.128 425.55 155.943 425.379 155.705 425.257C155.469 425.135 155.19 425.074 154.869 425.074C154.568 425.074 154.284 425.129 154.017 425.24C153.753 425.348 153.537 425.506 153.369 425.713C153.202 425.918 153.111 426.165 153.097 426.455H152.074C152.091 425.997 152.229 425.597 152.487 425.253C152.746 424.906 153.084 424.636 153.501 424.443C153.922 424.25 154.384 424.153 154.886 424.153C155.426 424.153 155.889 424.263 156.276 424.482C156.662 424.697 156.959 424.983 157.166 425.338C157.374 425.693 157.477 426.077 157.477 426.489C157.477 426.98 157.348 427.399 157.089 427.746C156.834 428.092 156.486 428.332 156.045 428.466V428.534C156.597 428.625 157.027 428.859 157.337 429.237C157.646 429.612 157.801 430.077 157.801 430.631C157.801 431.105 157.672 431.531 157.413 431.909C157.158 432.284 156.808 432.58 156.365 432.795C155.922 433.011 155.418 433.119 154.852 433.119ZM161.487 433.153C161.072 433.153 160.696 433.075 160.358 432.919C160.02 432.76 159.751 432.531 159.553 432.233C159.354 431.932 159.254 431.568 159.254 431.142C159.254 430.767 159.328 430.463 159.476 430.23C159.624 429.994 159.821 429.81 160.068 429.676C160.315 429.543 160.588 429.443 160.886 429.378C161.188 429.31 161.49 429.256 161.794 429.216C162.192 429.165 162.514 429.126 162.761 429.101C163.011 429.072 163.193 429.026 163.307 428.96C163.423 428.895 163.482 428.781 163.482 428.619V428.585C163.482 428.165 163.366 427.838 163.136 427.605C162.909 427.372 162.564 427.256 162.101 427.256C161.621 427.256 161.244 427.361 160.972 427.571C160.699 427.781 160.507 428.006 160.396 428.244L159.442 427.903C159.612 427.506 159.839 427.196 160.124 426.974C160.411 426.75 160.723 426.594 161.061 426.506C161.402 426.415 161.737 426.369 162.067 426.369C162.277 426.369 162.518 426.395 162.791 426.446C163.067 426.494 163.332 426.595 163.588 426.749C163.847 426.902 164.061 427.134 164.232 427.443C164.402 427.753 164.487 428.168 164.487 428.688V433H163.482V432.114H163.43C163.362 432.256 163.249 432.408 163.089 432.57C162.93 432.732 162.719 432.869 162.455 432.983C162.19 433.097 161.868 433.153 161.487 433.153ZM161.641 432.25C162.038 432.25 162.374 432.172 162.646 432.016C162.922 431.859 163.129 431.658 163.268 431.411C163.411 431.163 163.482 430.903 163.482 430.631V429.71C163.439 429.761 163.345 429.808 163.2 429.851C163.058 429.891 162.893 429.926 162.706 429.957C162.521 429.986 162.341 430.011 162.165 430.034C161.991 430.054 161.851 430.071 161.743 430.085C161.482 430.119 161.237 430.175 161.01 430.251C160.786 430.325 160.604 430.437 160.464 430.588C160.328 430.736 160.26 430.937 160.26 431.193C160.26 431.543 160.389 431.807 160.648 431.986C160.909 432.162 161.24 432.25 161.641 432.25ZM166.323 435.455V426.455H167.294V427.494H167.414C167.488 427.381 167.59 427.236 167.721 427.06C167.854 426.881 168.044 426.722 168.292 426.582C168.542 426.44 168.88 426.369 169.306 426.369C169.857 426.369 170.343 426.507 170.763 426.783C171.184 427.058 171.512 427.449 171.748 427.955C171.983 428.46 172.101 429.057 172.101 429.744C172.101 430.438 171.983 431.038 171.748 431.547C171.512 432.053 171.185 432.445 170.767 432.723C170.35 432.999 169.868 433.136 169.323 433.136C168.902 433.136 168.566 433.067 168.313 432.928C168.06 432.786 167.865 432.625 167.729 432.446C167.593 432.264 167.488 432.114 167.414 431.994H167.328V435.455H166.323ZM167.311 429.727C167.311 430.222 167.384 430.658 167.529 431.036C167.674 431.411 167.885 431.705 168.164 431.918C168.442 432.128 168.783 432.233 169.186 432.233C169.607 432.233 169.958 432.122 170.239 431.901C170.523 431.676 170.736 431.375 170.878 430.997C171.023 430.616 171.096 430.193 171.096 429.727C171.096 429.267 171.025 428.852 170.882 428.483C170.743 428.111 170.532 427.817 170.248 427.601C169.966 427.382 169.613 427.273 169.186 427.273C168.777 427.273 168.434 427.376 168.155 427.584C167.877 427.788 167.667 428.075 167.525 428.445C167.382 428.811 167.311 429.239 167.311 429.727ZM176.38 433.136C175.749 433.136 175.205 432.997 174.748 432.719C174.293 432.438 173.942 432.045 173.695 431.543C173.451 431.037 173.328 430.449 173.328 429.778C173.328 429.108 173.451 428.517 173.695 428.006C173.942 427.491 174.286 427.091 174.726 426.804C175.169 426.514 175.686 426.369 176.277 426.369C176.618 426.369 176.955 426.426 177.287 426.54C177.62 426.653 177.922 426.838 178.195 427.094C178.468 427.347 178.685 427.682 178.847 428.099C179.009 428.517 179.09 429.031 179.09 429.642V430.068H174.044V429.199H178.067C178.067 428.83 177.993 428.5 177.846 428.21C177.701 427.92 177.493 427.692 177.223 427.524C176.956 427.357 176.641 427.273 176.277 427.273C175.877 427.273 175.53 427.372 175.238 427.571C174.948 427.767 174.725 428.023 174.569 428.338C174.412 428.653 174.334 428.991 174.334 429.352V429.932C174.334 430.426 174.419 430.845 174.59 431.189C174.763 431.53 175.003 431.79 175.31 431.969C175.617 432.145 175.973 432.233 176.38 432.233C176.644 432.233 176.882 432.196 177.096 432.122C177.311 432.045 177.498 431.932 177.654 431.781C177.81 431.628 177.931 431.437 178.016 431.21L178.988 431.483C178.885 431.812 178.713 432.102 178.472 432.352C178.23 432.599 177.932 432.793 177.577 432.932C177.222 433.068 176.823 433.136 176.38 433.136ZM184.659 426.455V427.392H181.625V433H180.62V426.455H184.659ZM187.133 431.517L190.287 426.455H191.446V433H190.44V427.938L187.304 433H186.127V426.455H187.133V431.517ZM195.947 433.136C195.333 433.136 194.805 432.991 194.362 432.702C193.918 432.412 193.577 432.013 193.339 431.504C193.1 430.996 192.981 430.415 192.981 429.761C192.981 429.097 193.103 428.51 193.347 428.001C193.594 427.49 193.938 427.091 194.379 426.804C194.822 426.514 195.339 426.369 195.93 426.369C196.39 426.369 196.805 426.455 197.174 426.625C197.543 426.795 197.846 427.034 198.082 427.341C198.317 427.648 198.464 428.006 198.521 428.415H197.515C197.438 428.116 197.268 427.852 197.004 427.622C196.742 427.389 196.39 427.273 195.947 427.273C195.555 427.273 195.211 427.375 194.915 427.58C194.623 427.781 194.394 428.067 194.229 428.436C194.067 428.803 193.987 429.233 193.987 429.727C193.987 430.233 194.066 430.673 194.225 431.048C194.387 431.423 194.614 431.714 194.907 431.922C195.202 432.129 195.549 432.233 195.947 432.233C196.208 432.233 196.445 432.188 196.658 432.097C196.871 432.006 197.052 431.875 197.2 431.705C197.347 431.534 197.452 431.33 197.515 431.091H198.521C198.464 431.477 198.323 431.825 198.099 432.135C197.877 432.442 197.583 432.686 197.217 432.868C196.853 433.047 196.43 433.136 195.947 433.136ZM199.475 427.392V426.455H204.793V427.392H202.646V433H201.64V427.392H199.475ZM206.26 435.455V426.455H207.232V427.494H207.351C207.425 427.381 207.527 427.236 207.658 427.06C207.792 426.881 207.982 426.722 208.229 426.582C208.479 426.44 208.817 426.369 209.243 426.369C209.794 426.369 210.28 426.507 210.701 426.783C211.121 427.058 211.449 427.449 211.685 427.955C211.921 428.46 212.039 429.057 212.039 429.744C212.039 430.438 211.921 431.038 211.685 431.547C211.449 432.053 211.123 432.445 210.705 432.723C210.287 432.999 209.806 433.136 209.26 433.136C208.84 433.136 208.503 433.067 208.25 432.928C207.998 432.786 207.803 432.625 207.667 432.446C207.53 432.264 207.425 432.114 207.351 431.994H207.266V435.455H206.26ZM207.249 429.727C207.249 430.222 207.321 430.658 207.466 431.036C207.611 431.411 207.823 431.705 208.101 431.918C208.38 432.128 208.721 432.233 209.124 432.233C209.544 432.233 209.895 432.122 210.176 431.901C210.461 431.676 210.674 431.375 210.816 430.997C210.961 430.616 211.033 430.193 211.033 429.727C211.033 429.267 210.962 428.852 210.82 428.483C210.681 428.111 210.469 427.817 210.185 427.601C209.904 427.382 209.55 427.273 209.124 427.273C208.715 427.273 208.371 427.376 208.093 427.584C207.814 427.788 207.604 428.075 207.462 428.445C207.32 428.811 207.249 429.239 207.249 429.727ZM214.578 431.517L217.732 426.455H218.891V433H217.885V427.938L214.749 433H213.573V426.455H214.578V431.517ZM220.733 435.455V426.455H221.705V427.494H221.824C221.898 427.381 222 427.236 222.131 427.06C222.264 426.881 222.455 426.722 222.702 426.582C222.952 426.44 223.29 426.369 223.716 426.369C224.267 426.369 224.753 426.507 225.173 426.783C225.594 427.058 225.922 427.449 226.158 427.955C226.393 428.46 226.511 429.057 226.511 429.744C226.511 430.438 226.393 431.038 226.158 431.547C225.922 432.053 225.595 432.445 225.178 432.723C224.76 432.999 224.278 433.136 223.733 433.136C223.313 433.136 222.976 433.067 222.723 432.928C222.47 432.786 222.276 432.625 222.139 432.446C222.003 432.264 221.898 432.114 221.824 431.994H221.739V435.455H220.733ZM221.722 429.727C221.722 430.222 221.794 430.658 221.939 431.036C222.084 431.411 222.295 431.705 222.574 431.918C222.852 432.128 223.193 432.233 223.597 432.233C224.017 432.233 224.368 432.122 224.649 431.901C224.933 431.676 225.146 431.375 225.288 430.997C225.433 430.616 225.506 430.193 225.506 429.727C225.506 429.267 225.435 428.852 225.293 428.483C225.153 428.111 224.942 427.817 224.658 427.601C224.376 427.382 224.023 427.273 223.597 427.273C223.188 427.273 222.844 427.376 222.565 427.584C222.287 427.788 222.077 428.075 221.935 428.445C221.793 428.811 221.722 429.239 221.722 429.727ZM230.705 433.136C230.114 433.136 229.595 432.996 229.149 432.714C228.706 432.433 228.359 432.04 228.109 431.534C227.862 431.028 227.739 430.437 227.739 429.761C227.739 429.08 227.862 428.484 228.109 427.976C228.359 427.467 228.706 427.072 229.149 426.791C229.595 426.51 230.114 426.369 230.705 426.369C231.295 426.369 231.813 426.51 232.256 426.791C232.702 427.072 233.048 427.467 233.295 427.976C233.545 428.484 233.67 429.08 233.67 429.761C233.67 430.437 233.545 431.028 233.295 431.534C233.048 432.04 232.702 432.433 232.256 432.714C231.813 432.996 231.295 433.136 230.705 433.136ZM230.705 432.233C231.153 432.233 231.523 432.118 231.812 431.888C232.102 431.658 232.317 431.355 232.456 430.98C232.595 430.605 232.665 430.199 232.665 429.761C232.665 429.324 232.595 428.916 232.456 428.538C232.317 428.161 232.102 427.855 231.812 427.622C231.523 427.389 231.153 427.273 230.705 427.273C230.256 427.273 229.886 427.389 229.597 427.622C229.307 427.855 229.092 428.161 228.953 428.538C228.814 428.916 228.744 429.324 228.744 429.761C228.744 430.199 228.814 430.605 228.953 430.98C229.092 431.355 229.307 431.658 229.597 431.888C229.886 432.118 230.256 432.233 230.705 432.233ZM235.206 433V426.455H237.882C238.586 426.455 239.146 426.614 239.561 426.932C239.975 427.25 240.183 427.67 240.183 428.193C240.183 428.591 240.065 428.899 239.829 429.118C239.593 429.334 239.291 429.48 238.922 429.557C239.163 429.591 239.397 429.676 239.625 429.812C239.855 429.949 240.045 430.136 240.196 430.375C240.346 430.611 240.422 430.901 240.422 431.244C240.422 431.58 240.336 431.879 240.166 432.143C239.995 432.408 239.751 432.616 239.433 432.77C239.115 432.923 238.734 433 238.291 433H235.206ZM236.16 432.08H238.291C238.637 432.08 238.909 431.997 239.105 431.832C239.301 431.668 239.399 431.443 239.399 431.159C239.399 430.821 239.301 430.555 239.105 430.362C238.909 430.166 238.637 430.068 238.291 430.068H236.16V432.08ZM236.16 429.199H237.882C238.152 429.199 238.383 429.162 238.576 429.088C238.77 429.011 238.917 428.903 239.02 428.764C239.125 428.622 239.177 428.455 239.177 428.261C239.177 427.986 239.062 427.77 238.832 427.614C238.602 427.455 238.285 427.375 237.882 427.375H236.16V429.199ZM243.87 433.153C243.455 433.153 243.079 433.075 242.741 432.919C242.403 432.76 242.134 432.531 241.935 432.233C241.737 431.932 241.637 431.568 241.637 431.142C241.637 430.767 241.711 430.463 241.859 430.23C242.006 429.994 242.204 429.81 242.451 429.676C242.698 429.543 242.971 429.443 243.269 429.378C243.57 429.31 243.873 429.256 244.177 429.216C244.575 429.165 244.897 429.126 245.144 429.101C245.394 429.072 245.576 429.026 245.69 428.96C245.806 428.895 245.864 428.781 245.864 428.619V428.585C245.864 428.165 245.749 427.838 245.519 427.605C245.292 427.372 244.947 427.256 244.484 427.256C244.004 427.256 243.627 427.361 243.354 427.571C243.082 427.781 242.89 428.006 242.779 428.244L241.825 427.903C241.995 427.506 242.222 427.196 242.506 426.974C242.793 426.75 243.106 426.594 243.444 426.506C243.785 426.415 244.12 426.369 244.45 426.369C244.66 426.369 244.901 426.395 245.174 426.446C245.45 426.494 245.715 426.595 245.971 426.749C246.229 426.902 246.444 427.134 246.614 427.443C246.785 427.753 246.87 428.168 246.87 428.688V433H245.864V432.114H245.813C245.745 432.256 245.631 432.408 245.472 432.57C245.313 432.732 245.102 432.869 244.837 432.983C244.573 433.097 244.251 433.153 243.87 433.153ZM244.023 432.25C244.421 432.25 244.756 432.172 245.029 432.016C245.305 431.859 245.512 431.658 245.651 431.411C245.793 431.163 245.864 430.903 245.864 430.631V429.71C245.822 429.761 245.728 429.808 245.583 429.851C245.441 429.891 245.276 429.926 245.089 429.957C244.904 429.986 244.724 430.011 244.548 430.034C244.374 430.054 244.234 430.071 244.126 430.085C243.864 430.119 243.62 430.175 243.393 430.251C243.168 430.325 242.987 430.437 242.847 430.588C242.711 430.736 242.643 430.937 242.643 431.193C242.643 431.543 242.772 431.807 243.031 431.986C243.292 432.162 243.623 432.25 244.023 432.25ZM247.815 427.392V426.455H253.133V427.392H250.985V433H249.98V427.392H247.815ZM255.469 428.824H257.344C258.112 428.824 258.698 429.018 259.104 429.408C259.511 429.797 259.714 430.29 259.714 430.886C259.714 431.278 259.623 431.635 259.441 431.956C259.259 432.274 258.992 432.528 258.64 432.719C258.288 432.906 257.856 433 257.344 433H254.6V426.455H255.606V432.062H257.344C257.742 432.062 258.069 431.957 258.325 431.747C258.58 431.537 258.708 431.267 258.708 430.938C258.708 430.591 258.58 430.308 258.325 430.089C258.069 429.871 257.742 429.761 257.344 429.761H255.469V428.824ZM263.904 433.136C263.29 433.136 262.762 432.991 262.319 432.702C261.875 432.412 261.534 432.013 261.296 431.504C261.057 430.996 260.938 430.415 260.938 429.761C260.938 429.097 261.06 428.51 261.304 428.001C261.551 427.49 261.895 427.091 262.336 426.804C262.779 426.514 263.296 426.369 263.887 426.369C264.347 426.369 264.762 426.455 265.131 426.625C265.5 426.795 265.803 427.034 266.039 427.341C266.275 427.648 266.421 428.006 266.478 428.415H265.472C265.395 428.116 265.225 427.852 264.961 427.622C264.699 427.389 264.347 427.273 263.904 427.273C263.512 427.273 263.168 427.375 262.873 427.58C262.58 427.781 262.351 428.067 262.186 428.436C262.025 428.803 261.944 429.233 261.944 429.727C261.944 430.233 262.023 430.673 262.182 431.048C262.344 431.423 262.571 431.714 262.864 431.922C263.159 432.129 263.506 432.233 263.904 432.233C264.165 432.233 264.402 432.188 264.615 432.097C264.828 432.006 265.009 431.875 265.157 431.705C265.304 431.534 265.409 431.33 265.472 431.091H266.478C266.421 431.477 266.28 431.825 266.056 432.135C265.834 432.442 265.54 432.686 265.174 432.868C264.81 433.047 264.387 433.136 263.904 433.136ZM271.885 433V427.375H270.147C269.755 427.375 269.446 427.466 269.222 427.648C268.998 427.83 268.885 428.08 268.885 428.398C268.885 428.71 268.986 428.956 269.188 429.135C269.392 429.314 269.672 429.403 270.027 429.403H272.141V430.341H270.027C269.584 430.341 269.202 430.263 268.881 430.107C268.56 429.95 268.313 429.727 268.14 429.438C267.966 429.145 267.88 428.798 267.88 428.398C267.88 427.994 267.971 427.648 268.152 427.358C268.334 427.068 268.594 426.845 268.932 426.689C269.273 426.533 269.678 426.455 270.147 426.455H272.84V433H271.885ZM267.522 433L269.38 429.744H270.471L268.613 433H267.522ZM277.362 434.875V432.062H277.908C278.041 431.923 278.156 431.773 278.253 431.611C278.349 431.449 278.433 431.257 278.504 431.036C278.578 430.811 278.641 430.538 278.692 430.217C278.743 429.893 278.788 429.503 278.828 429.045L279.05 426.455H283.209V432.062H284.214V434.875H283.209V433H278.368V434.875H277.362ZM279.05 432.062H282.203V427.392H279.987L279.817 429.045C279.746 429.73 279.658 430.328 279.553 430.839C279.447 431.351 279.28 431.759 279.05 432.062ZM288.208 433.136C287.618 433.136 287.099 432.996 286.653 432.714C286.21 432.433 285.863 432.04 285.613 431.534C285.366 431.028 285.243 430.437 285.243 429.761C285.243 429.08 285.366 428.484 285.613 427.976C285.863 427.467 286.21 427.072 286.653 426.791C287.099 426.51 287.618 426.369 288.208 426.369C288.799 426.369 289.316 426.51 289.76 426.791C290.206 427.072 290.552 427.467 290.799 427.976C291.049 428.484 291.174 429.08 291.174 429.761C291.174 430.437 291.049 431.028 290.799 431.534C290.552 432.04 290.206 432.433 289.76 432.714C289.316 432.996 288.799 433.136 288.208 433.136ZM288.208 432.233C288.657 432.233 289.027 432.118 289.316 431.888C289.606 431.658 289.821 431.355 289.96 430.98C290.099 430.605 290.169 430.199 290.169 429.761C290.169 429.324 290.099 428.916 289.96 428.538C289.821 428.161 289.606 427.855 289.316 427.622C289.027 427.389 288.657 427.273 288.208 427.273C287.76 427.273 287.39 427.389 287.1 427.622C286.811 427.855 286.596 428.161 286.457 428.538C286.318 428.916 286.248 429.324 286.248 429.761C286.248 430.199 286.318 430.605 286.457 430.98C286.596 431.355 286.811 431.658 287.1 431.888C287.39 432.118 287.76 432.233 288.208 432.233ZM296.085 433V426.455H301.232V433H300.227V427.392H297.09V433H296.085ZM302.178 427.392V426.455H307.496V427.392H305.349V433H304.343V427.392H302.178ZM316.276 433V427.375H314.537C314.145 427.375 313.837 427.466 313.613 427.648C313.388 427.83 313.276 428.08 313.276 428.398C313.276 428.71 313.377 428.956 313.578 429.135C313.783 429.314 314.063 429.403 314.418 429.403H316.532V430.341H314.418C313.975 430.341 313.593 430.263 313.272 430.107C312.951 429.95 312.703 429.727 312.53 429.438C312.357 429.145 312.27 428.798 312.27 428.398C312.27 427.994 312.361 427.648 312.543 427.358C312.725 427.068 312.985 426.845 313.323 426.689C313.664 426.533 314.069 426.455 314.537 426.455H317.23V433H316.276ZM311.912 433L313.77 429.744H314.861L313.003 433H311.912ZM323.457 429.267V430.205H319.844V429.267H323.457ZM320.082 426.455V433H319.077V426.455H320.082ZM324.224 426.455V433H323.219V426.455H324.224ZM326.061 433V426.455H328.737C329.442 426.455 330.001 426.614 330.416 426.932C330.831 427.25 331.038 427.67 331.038 428.193C331.038 428.591 330.92 428.899 330.685 429.118C330.449 429.334 330.146 429.48 329.777 429.557C330.018 429.591 330.253 429.676 330.48 429.812C330.71 429.949 330.901 430.136 331.051 430.375C331.202 430.611 331.277 430.901 331.277 431.244C331.277 431.58 331.192 431.879 331.021 432.143C330.851 432.408 330.607 432.616 330.288 432.77C329.97 432.923 329.589 433 329.146 433H326.061ZM327.016 432.08H329.146C329.493 432.08 329.764 431.997 329.96 431.832C330.156 431.668 330.254 431.443 330.254 431.159C330.254 430.821 330.156 430.555 329.96 430.362C329.764 430.166 329.493 430.068 329.146 430.068H327.016V432.08ZM327.016 429.199H328.737C329.007 429.199 329.239 429.162 329.432 429.088C329.625 429.011 329.773 428.903 329.875 428.764C329.98 428.622 330.033 428.455 330.033 428.261C330.033 427.986 329.918 427.77 329.688 427.614C329.457 427.455 329.141 427.375 328.737 427.375H327.016V429.199ZM333.532 433.068C333.322 433.068 333.142 432.993 332.991 432.842C332.841 432.692 332.765 432.511 332.765 432.301C332.765 432.091 332.841 431.911 332.991 431.76C333.142 431.609 333.322 431.534 333.532 431.534C333.743 431.534 333.923 431.609 334.074 431.76C334.224 431.911 334.299 432.091 334.299 432.301C334.299 432.44 334.264 432.568 334.193 432.685C334.125 432.801 334.032 432.895 333.916 432.966C333.802 433.034 333.674 433.068 333.532 433.068ZM339.462 433V432.233L342.343 429.08C342.681 428.71 342.959 428.389 343.178 428.116C343.397 427.841 343.559 427.582 343.664 427.341C343.772 427.097 343.826 426.841 343.826 426.574C343.826 426.267 343.752 426.001 343.604 425.777C343.459 425.553 343.26 425.379 343.007 425.257C342.755 425.135 342.471 425.074 342.155 425.074C341.82 425.074 341.527 425.143 341.277 425.283C341.03 425.419 340.838 425.611 340.702 425.858C340.569 426.105 340.502 426.395 340.502 426.727H339.496C339.496 426.216 339.614 425.767 339.85 425.381C340.086 424.994 340.407 424.693 340.813 424.477C341.222 424.261 341.681 424.153 342.189 424.153C342.701 424.153 343.154 424.261 343.549 424.477C343.944 424.693 344.253 424.984 344.478 425.351C344.702 425.717 344.814 426.125 344.814 426.574C344.814 426.895 344.756 427.209 344.64 427.516C344.526 427.82 344.327 428.159 344.043 428.534C343.762 428.906 343.371 429.361 342.871 429.898L340.911 431.994V432.062H344.968V433H339.462ZM349.574 433.119C348.932 433.119 348.385 432.945 347.934 432.595C347.482 432.243 347.137 431.733 346.898 431.065C346.659 430.395 346.54 429.585 346.54 428.636C346.54 427.693 346.659 426.888 346.898 426.22C347.14 425.55 347.486 425.038 347.938 424.686C348.392 424.331 348.938 424.153 349.574 424.153C350.211 424.153 350.755 424.331 351.206 424.686C351.661 425.038 352.007 425.55 352.246 426.22C352.488 426.888 352.608 427.693 352.608 428.636C352.608 429.585 352.489 430.395 352.25 431.065C352.012 431.733 351.667 432.243 351.215 432.595C350.763 432.945 350.216 433.119 349.574 433.119ZM349.574 432.182C350.211 432.182 350.705 431.875 351.057 431.261C351.409 430.648 351.586 429.773 351.586 428.636C351.586 427.881 351.505 427.237 351.343 426.706C351.184 426.175 350.953 425.77 350.652 425.491C350.354 425.213 349.995 425.074 349.574 425.074C348.944 425.074 348.451 425.385 348.096 426.007C347.74 426.626 347.563 427.503 347.563 428.636C347.563 429.392 347.642 430.034 347.801 430.562C347.961 431.091 348.189 431.493 348.488 431.768C348.789 432.044 349.151 432.182 349.574 432.182ZM354.228 433V432.233L357.108 429.08C357.446 428.71 357.725 428.389 357.944 428.116C358.162 427.841 358.324 427.582 358.429 427.341C358.537 427.097 358.591 426.841 358.591 426.574C358.591 426.267 358.517 426.001 358.37 425.777C358.225 425.553 358.026 425.379 357.773 425.257C357.52 425.135 357.236 425.074 356.921 425.074C356.586 425.074 356.293 425.143 356.043 425.283C355.796 425.419 355.604 425.611 355.468 425.858C355.334 426.105 355.267 426.395 355.267 426.727H354.262C354.262 426.216 354.38 425.767 354.615 425.381C354.851 424.994 355.172 424.693 355.578 424.477C355.988 424.261 356.446 424.153 356.955 424.153C357.466 424.153 357.919 424.261 358.314 424.477C358.709 424.693 359.019 424.984 359.243 425.351C359.468 425.717 359.58 426.125 359.58 426.574C359.58 426.895 359.522 427.209 359.405 427.516C359.292 427.82 359.093 428.159 358.809 428.534C358.527 428.906 358.137 429.361 357.637 429.898L355.676 431.994V432.062H359.733V433H354.228ZM364.221 433.119C363.721 433.119 363.27 433.02 362.87 432.821C362.469 432.622 362.148 432.349 361.907 432.003C361.665 431.656 361.533 431.261 361.51 430.818H362.533C362.573 431.213 362.752 431.54 363.07 431.798C363.391 432.054 363.775 432.182 364.221 432.182C364.578 432.182 364.897 432.098 365.175 431.93C365.456 431.763 365.676 431.533 365.836 431.24C365.998 430.945 366.078 430.611 366.078 430.239C366.078 429.858 365.995 429.518 365.827 429.22C365.662 428.919 365.435 428.682 365.145 428.509C364.855 428.335 364.525 428.247 364.152 428.244C363.885 428.241 363.611 428.283 363.33 428.368C363.049 428.45 362.817 428.557 362.635 428.688L361.647 428.568L362.175 424.273H366.709V425.21H363.061L362.755 427.784H362.806C362.985 427.642 363.209 427.524 363.479 427.43C363.749 427.337 364.03 427.29 364.323 427.29C364.857 427.29 365.333 427.418 365.75 427.673C366.171 427.926 366.5 428.273 366.739 428.713C366.98 429.153 367.101 429.656 367.101 430.222C367.101 430.778 366.976 431.276 366.726 431.713C366.479 432.148 366.138 432.491 365.703 432.744C365.269 432.994 364.775 433.119 364.221 433.119ZM369.983 431.807L369.915 432.267C369.866 432.591 369.793 432.938 369.693 433.307C369.597 433.676 369.496 434.024 369.391 434.351C369.286 434.678 369.199 434.938 369.131 435.131H368.364C368.401 434.949 368.449 434.709 368.509 434.411C368.568 434.112 368.628 433.778 368.688 433.409C368.75 433.043 368.801 432.668 368.841 432.284L368.892 431.807H369.983ZM376.227 431.517L379.38 426.455H380.539V433H379.534V427.938L376.397 433H375.221V426.455H376.227V431.517ZM385.04 433.136C384.427 433.136 383.898 432.991 383.455 432.702C383.012 432.412 382.671 432.013 382.433 431.504C382.194 430.996 382.075 430.415 382.075 429.761C382.075 429.097 382.197 428.51 382.441 428.001C382.688 427.49 383.032 427.091 383.472 426.804C383.915 426.514 384.433 426.369 385.023 426.369C385.484 426.369 385.898 426.455 386.268 426.625C386.637 426.795 386.94 427.034 387.175 427.341C387.411 427.648 387.558 428.006 387.614 428.415H386.609C386.532 428.116 386.362 427.852 386.097 427.622C385.836 427.389 385.484 427.273 385.04 427.273C384.648 427.273 384.305 427.375 384.009 427.58C383.717 427.781 383.488 428.067 383.323 428.436C383.161 428.803 383.08 429.233 383.08 429.727C383.08 430.233 383.16 430.673 383.319 431.048C383.481 431.423 383.708 431.714 384.001 431.922C384.296 432.129 384.643 432.233 385.04 432.233C385.302 432.233 385.539 432.188 385.752 432.097C385.965 432.006 386.146 431.875 386.293 431.705C386.441 431.534 386.546 431.33 386.609 431.091H387.614C387.558 431.477 387.417 431.825 387.192 432.135C386.971 432.442 386.677 432.686 386.31 432.868C385.947 433.047 385.523 433.136 385.04 433.136ZM389.085 433V426.455H394.232V433H393.227V427.392H390.09V433H389.085ZM398.728 433.136C398.137 433.136 397.619 432.996 397.173 432.714C396.729 432.433 396.383 432.04 396.133 431.534C395.886 431.028 395.762 430.437 395.762 429.761C395.762 429.08 395.886 428.484 396.133 427.976C396.383 427.467 396.729 427.072 397.173 426.791C397.619 426.51 398.137 426.369 398.728 426.369C399.319 426.369 399.836 426.51 400.279 426.791C400.725 427.072 401.072 427.467 401.319 427.976C401.569 428.484 401.694 429.08 401.694 429.761C401.694 430.437 401.569 431.028 401.319 431.534C401.072 432.04 400.725 432.433 400.279 432.714C399.836 432.996 399.319 433.136 398.728 433.136ZM398.728 432.233C399.177 432.233 399.546 432.118 399.836 431.888C400.126 431.658 400.34 431.355 400.479 430.98C400.619 430.605 400.688 430.199 400.688 429.761C400.688 429.324 400.619 428.916 400.479 428.538C400.34 428.161 400.126 427.855 399.836 427.622C399.546 427.389 399.177 427.273 398.728 427.273C398.279 427.273 397.91 427.389 397.62 427.622C397.33 427.855 397.116 428.161 396.977 428.538C396.837 428.916 396.768 429.324 396.768 429.761C396.768 430.199 396.837 430.605 396.977 430.98C397.116 431.355 397.33 431.658 397.62 431.888C397.91 432.118 398.279 432.233 398.728 432.233ZM402.65 433V432.062H402.888C403.084 432.062 403.248 432.024 403.378 431.947C403.509 431.868 403.614 431.73 403.694 431.534C403.776 431.335 403.838 431.06 403.881 430.707C403.926 430.352 403.959 429.901 403.979 429.352L404.098 426.455H408.462V433H407.456V427.392H405.053L404.951 429.727C404.928 430.264 404.88 430.737 404.806 431.146C404.735 431.553 404.625 431.893 404.478 432.169C404.333 432.445 404.14 432.652 403.898 432.791C403.657 432.93 403.354 433 402.99 433H402.65ZM411.176 428.824H413.051C413.819 428.824 414.405 429.018 414.811 429.408C415.218 429.797 415.421 430.29 415.421 430.886C415.421 431.278 415.33 431.635 415.148 431.956C414.966 432.274 414.699 432.528 414.347 432.719C413.995 432.906 413.563 433 413.051 433H410.307V426.455H411.313V432.062H413.051C413.449 432.062 413.776 431.957 414.032 431.747C414.287 431.537 414.415 431.267 414.415 430.938C414.415 430.591 414.287 430.308 414.032 430.089C413.776 429.871 413.449 429.761 413.051 429.761H411.176V428.824ZM416.543 431.33H417.616C417.639 431.625 417.773 431.849 418.017 432.003C418.264 432.156 418.585 432.233 418.98 432.233C419.384 432.233 419.729 432.151 420.016 431.986C420.303 431.818 420.446 431.548 420.446 431.176C420.446 430.957 420.392 430.767 420.284 430.605C420.176 430.44 420.024 430.312 419.828 430.222C419.632 430.131 419.401 430.085 419.134 430.085H418.009V429.182H419.134C419.534 429.182 419.83 429.091 420.02 428.909C420.213 428.727 420.31 428.5 420.31 428.227C420.31 427.935 420.206 427.7 419.999 427.524C419.791 427.345 419.497 427.256 419.116 427.256C418.733 427.256 418.413 427.342 418.158 427.516C417.902 427.686 417.767 427.906 417.753 428.176H416.696C416.707 427.824 416.815 427.513 417.02 427.243C417.224 426.97 417.503 426.757 417.855 426.604C418.207 426.447 418.611 426.369 419.065 426.369C419.526 426.369 419.925 426.45 420.263 426.612C420.604 426.771 420.866 426.989 421.051 427.264C421.239 427.537 421.332 427.847 421.332 428.193C421.332 428.562 421.229 428.861 421.021 429.088C420.814 429.315 420.554 429.477 420.241 429.574V429.642C420.489 429.659 420.703 429.739 420.885 429.881C421.07 430.02 421.213 430.203 421.315 430.43C421.418 430.655 421.469 430.903 421.469 431.176C421.469 431.574 421.362 431.92 421.149 432.216C420.936 432.509 420.643 432.736 420.271 432.898C419.899 433.057 419.474 433.136 418.997 433.136C418.534 433.136 418.119 433.061 417.753 432.911C417.386 432.757 417.095 432.545 416.879 432.276C416.666 432.003 416.554 431.688 416.543 431.33ZM425.54 433.136C424.95 433.136 424.431 432.996 423.985 432.714C423.542 432.433 423.195 432.04 422.945 431.534C422.698 431.028 422.575 430.437 422.575 429.761C422.575 429.08 422.698 428.484 422.945 427.976C423.195 427.467 423.542 427.072 423.985 426.791C424.431 426.51 424.95 426.369 425.54 426.369C426.131 426.369 426.648 426.51 427.092 426.791C427.538 427.072 427.884 427.467 428.131 427.976C428.381 428.484 428.506 429.08 428.506 429.761C428.506 430.437 428.381 431.028 428.131 431.534C427.884 432.04 427.538 432.433 427.092 432.714C426.648 432.996 426.131 433.136 425.54 433.136ZM425.54 432.233C425.989 432.233 426.359 432.118 426.648 431.888C426.938 431.658 427.153 431.355 427.292 430.98C427.431 430.605 427.501 430.199 427.501 429.761C427.501 429.324 427.431 428.916 427.292 428.538C427.153 428.161 426.938 427.855 426.648 427.622C426.359 427.389 425.989 427.273 425.54 427.273C425.092 427.273 424.722 427.389 424.433 427.622C424.143 427.855 423.928 428.161 423.789 428.538C423.65 428.916 423.58 429.324 423.58 429.761C423.58 430.199 423.65 430.605 423.789 430.98C423.928 431.355 424.143 431.658 424.433 431.888C424.722 432.118 425.092 432.233 425.54 432.233ZM430.042 433V426.455H432.718C433.422 426.455 433.982 426.614 434.397 426.932C434.811 427.25 435.019 427.67 435.019 428.193C435.019 428.591 434.901 428.899 434.665 429.118C434.429 429.334 434.127 429.48 433.757 429.557C433.999 429.591 434.233 429.676 434.461 429.812C434.691 429.949 434.881 430.136 435.032 430.375C435.182 430.611 435.257 430.901 435.257 431.244C435.257 431.58 435.172 431.879 435.002 432.143C434.831 432.408 434.587 432.616 434.269 432.77C433.951 432.923 433.57 433 433.127 433H430.042ZM430.996 432.08H433.127C433.473 432.08 433.745 431.997 433.941 431.832C434.137 431.668 434.235 431.443 434.235 431.159C434.235 430.821 434.137 430.555 433.941 430.362C433.745 430.166 433.473 430.068 433.127 430.068H430.996V432.08ZM430.996 429.199H432.718C432.988 429.199 433.219 429.162 433.412 429.088C433.605 429.011 433.753 428.903 433.855 428.764C433.961 428.622 434.013 428.455 434.013 428.261C434.013 427.986 433.898 427.77 433.668 427.614C433.438 427.455 433.121 427.375 432.718 427.375H430.996V429.199ZM438.706 433.153C438.291 433.153 437.915 433.075 437.577 432.919C437.239 432.76 436.97 432.531 436.771 432.233C436.572 431.932 436.473 431.568 436.473 431.142C436.473 430.767 436.547 430.463 436.695 430.23C436.842 429.994 437.04 429.81 437.287 429.676C437.534 429.543 437.807 429.443 438.105 429.378C438.406 429.31 438.709 429.256 439.013 429.216C439.411 429.165 439.733 429.126 439.98 429.101C440.23 429.072 440.412 429.026 440.526 428.96C440.642 428.895 440.7 428.781 440.7 428.619V428.585C440.7 428.165 440.585 427.838 440.355 427.605C440.128 427.372 439.783 427.256 439.32 427.256C438.839 427.256 438.463 427.361 438.19 427.571C437.918 427.781 437.726 428.006 437.615 428.244L436.661 427.903C436.831 427.506 437.058 427.196 437.342 426.974C437.629 426.75 437.942 426.594 438.28 426.506C438.621 426.415 438.956 426.369 439.286 426.369C439.496 426.369 439.737 426.395 440.01 426.446C440.286 426.494 440.551 426.595 440.807 426.749C441.065 426.902 441.28 427.134 441.45 427.443C441.621 427.753 441.706 428.168 441.706 428.688V433H440.7V432.114H440.649C440.581 432.256 440.467 432.408 440.308 432.57C440.149 432.732 439.938 432.869 439.673 432.983C439.409 433.097 439.087 433.153 438.706 433.153ZM438.859 432.25C439.257 432.25 439.592 432.172 439.865 432.016C440.141 431.859 440.348 431.658 440.487 431.411C440.629 431.163 440.7 430.903 440.7 430.631V429.71C440.658 429.761 440.564 429.808 440.419 429.851C440.277 429.891 440.112 429.926 439.925 429.957C439.74 429.986 439.56 430.011 439.384 430.034C439.21 430.054 439.07 430.071 438.962 430.085C438.7 430.119 438.456 430.175 438.229 430.251C438.004 430.325 437.822 430.437 437.683 430.588C437.547 430.736 437.479 430.937 437.479 431.193C437.479 431.543 437.608 431.807 437.866 431.986C438.128 432.162 438.459 432.25 438.859 432.25ZM442.651 427.392V426.455H447.969V427.392H445.821V433H444.816V427.392H442.651ZM450.305 428.824H452.18C452.947 428.824 453.534 429.018 453.94 429.408C454.347 429.797 454.55 430.29 454.55 430.886C454.55 431.278 454.459 431.635 454.277 431.956C454.095 432.274 453.828 432.528 453.476 432.719C453.124 432.906 452.692 433 452.18 433H449.436V426.455H450.442V432.062H452.18C452.578 432.062 452.905 431.957 453.161 431.747C453.416 431.537 453.544 431.267 453.544 430.938C453.544 430.591 453.416 430.308 453.161 430.089C452.905 429.871 452.578 429.761 452.18 429.761H450.305V428.824ZM458.757 434.875V432.062H459.302C459.436 431.923 459.551 431.773 459.647 431.611C459.744 431.449 459.828 431.257 459.899 431.036C459.973 430.811 460.035 430.538 460.086 430.217C460.137 429.893 460.183 429.503 460.223 429.045L460.444 426.455H464.603V432.062H465.609V434.875H464.603V433H459.762V434.875H458.757ZM460.444 432.062H463.598V427.392H461.382L461.211 429.045C461.14 429.73 461.052 430.328 460.947 430.839C460.842 431.351 460.674 431.759 460.444 432.062ZM469.603 433.136C469.012 433.136 468.494 432.996 468.048 432.714C467.604 432.433 467.258 432.04 467.008 431.534C466.761 431.028 466.637 430.437 466.637 429.761C466.637 429.08 466.761 428.484 467.008 427.976C467.258 427.467 467.604 427.072 468.048 426.791C468.494 426.51 469.012 426.369 469.603 426.369C470.194 426.369 470.711 426.51 471.154 426.791C471.6 427.072 471.947 427.467 472.194 427.976C472.444 428.484 472.569 429.08 472.569 429.761C472.569 430.437 472.444 431.028 472.194 431.534C471.947 432.04 471.6 432.433 471.154 432.714C470.711 432.996 470.194 433.136 469.603 433.136ZM469.603 432.233C470.052 432.233 470.421 432.118 470.711 431.888C471.001 431.658 471.215 431.355 471.354 430.98C471.494 430.605 471.563 430.199 471.563 429.761C471.563 429.324 471.494 428.916 471.354 428.538C471.215 428.161 471.001 427.855 470.711 427.622C470.421 427.389 470.052 427.273 469.603 427.273C469.154 427.273 468.785 427.389 468.495 427.622C468.205 427.855 467.991 428.161 467.852 428.538C467.712 428.916 467.643 429.324 467.643 429.761C467.643 430.199 467.712 430.605 467.852 430.98C467.991 431.355 468.205 431.658 468.495 431.888C468.785 432.118 469.154 432.233 469.603 432.233ZM482.525 426.455V433H481.519V426.455H482.525ZM482.132 429.574V430.511C481.905 430.597 481.679 430.672 481.455 430.737C481.23 430.8 480.995 430.849 480.748 430.886C480.5 430.92 480.229 430.938 479.934 430.938C479.192 430.938 478.597 430.737 478.148 430.337C477.702 429.936 477.479 429.335 477.479 428.534V426.438H478.485V428.534C478.485 428.869 478.549 429.145 478.676 429.361C478.804 429.577 478.978 429.737 479.196 429.842C479.415 429.947 479.661 430 479.934 430C480.36 430 480.745 429.962 481.088 429.885C481.435 429.805 481.783 429.702 482.132 429.574ZM483.479 427.392V426.455H488.797V427.392H486.65V433H485.644V427.392H483.479ZM494.645 431.517L497.798 426.455H498.957V433H497.952V427.938L494.815 433H493.639V426.455H494.645V431.517ZM503.936 429.318V430.256H500.475V429.318H503.936ZM501.328 426.455V433H500.322V426.455H501.328ZM505.947 433.136C505.356 433.136 504.838 432.996 504.392 432.714C503.949 432.433 503.602 432.04 503.352 431.534C503.105 431.028 502.981 430.437 502.981 429.761C502.981 429.08 503.105 428.484 503.352 427.976C503.602 427.467 503.949 427.072 504.392 426.791C504.838 426.51 505.356 426.369 505.947 426.369C506.538 426.369 507.055 426.51 507.498 426.791C507.944 427.072 508.291 427.467 508.538 427.976C508.788 428.484 508.913 429.08 508.913 429.761C508.913 430.437 508.788 431.028 508.538 431.534C508.291 432.04 507.944 432.433 507.498 432.714C507.055 432.996 506.538 433.136 505.947 433.136ZM505.947 432.233C506.396 432.233 506.765 432.118 507.055 431.888C507.345 431.658 507.559 431.355 507.699 430.98C507.838 430.605 507.907 430.199 507.907 429.761C507.907 429.324 507.838 428.916 507.699 428.538C507.559 428.161 507.345 427.855 507.055 427.622C506.765 427.389 506.396 427.273 505.947 427.273C505.498 427.273 505.129 427.389 504.839 427.622C504.549 427.855 504.335 428.161 504.196 428.538C504.056 428.916 503.987 429.324 503.987 429.761C503.987 430.199 504.056 430.605 504.196 430.98C504.335 431.355 504.549 431.658 504.839 431.888C505.129 432.118 505.498 432.233 505.947 432.233ZM509.97 433V432.062H510.208C510.404 432.062 510.568 432.024 510.699 431.947C510.829 431.868 510.934 431.73 511.014 431.534C511.096 431.335 511.159 431.06 511.201 430.707C511.247 430.352 511.279 429.901 511.299 429.352L511.419 426.455H515.782V433H514.777V427.392H512.373L512.271 429.727C512.248 430.264 512.2 430.737 512.126 431.146C512.055 431.553 511.946 431.893 511.798 432.169C511.653 432.445 511.46 432.652 511.218 432.791C510.977 432.93 510.674 433 510.311 433H509.97ZM518.497 428.824H520.372C521.139 428.824 521.725 429.018 522.132 429.408C522.538 429.797 522.741 430.29 522.741 430.886C522.741 431.278 522.65 431.635 522.468 431.956C522.287 432.274 522.02 432.528 521.667 432.719C521.315 432.906 520.883 433 520.372 433H517.627V426.455H518.633V432.062H520.372C520.77 432.062 521.096 431.957 521.352 431.747C521.608 431.537 521.735 431.267 521.735 430.938C521.735 430.591 521.608 430.308 521.352 430.089C521.096 429.871 520.77 429.761 520.372 429.761H518.497V428.824ZM527.63 433V432.233L530.511 429.08C530.849 428.71 531.127 428.389 531.346 428.116C531.565 427.841 531.727 427.582 531.832 427.341C531.94 427.097 531.994 426.841 531.994 426.574C531.994 426.267 531.92 426.001 531.772 425.777C531.627 425.553 531.428 425.379 531.175 425.257C530.923 425.135 530.638 425.074 530.323 425.074C529.988 425.074 529.695 425.143 529.445 425.283C529.198 425.419 529.006 425.611 528.87 425.858C528.737 426.105 528.67 426.395 528.67 426.727H527.664C527.664 426.216 527.782 425.767 528.018 425.381C528.254 424.994 528.575 424.693 528.981 424.477C529.39 424.261 529.849 424.153 530.357 424.153C530.869 424.153 531.322 424.261 531.717 424.477C532.112 424.693 532.421 424.984 532.646 425.351C532.87 425.717 532.982 426.125 532.982 426.574C532.982 426.895 532.924 427.209 532.808 427.516C532.694 427.82 532.495 428.159 532.211 428.534C531.93 428.906 531.539 429.361 531.039 429.898L529.079 431.994V432.062H533.136V433H527.63ZM537.742 433.119C537.1 433.119 536.553 432.945 536.102 432.595C535.65 432.243 535.305 431.733 535.066 431.065C534.827 430.395 534.708 429.585 534.708 428.636C534.708 427.693 534.827 426.888 535.066 426.22C535.308 425.55 535.654 425.038 536.106 424.686C536.56 424.331 537.106 424.153 537.742 424.153C538.379 424.153 538.923 424.331 539.374 424.686C539.829 425.038 540.175 425.55 540.414 426.22C540.656 426.888 540.776 427.693 540.776 428.636C540.776 429.585 540.657 430.395 540.418 431.065C540.18 431.733 539.835 432.243 539.383 432.595C538.931 432.945 538.384 433.119 537.742 433.119ZM537.742 432.182C538.379 432.182 538.873 431.875 539.225 431.261C539.577 430.648 539.754 429.773 539.754 428.636C539.754 427.881 539.673 427.237 539.511 426.706C539.352 426.175 539.121 425.77 538.82 425.491C538.522 425.213 538.163 425.074 537.742 425.074C537.112 425.074 536.619 425.385 536.263 426.007C535.908 426.626 535.731 427.503 535.731 428.636C535.731 429.392 535.81 430.034 535.969 430.562C536.129 431.091 536.357 431.493 536.656 431.768C536.957 432.044 537.319 432.182 537.742 432.182ZM542.396 433V432.233L545.276 429.08C545.614 428.71 545.893 428.389 546.112 428.116C546.33 427.841 546.492 427.582 546.597 427.341C546.705 427.097 546.759 426.841 546.759 426.574C546.759 426.267 546.685 426.001 546.538 425.777C546.393 425.553 546.194 425.379 545.941 425.257C545.688 425.135 545.404 425.074 545.089 425.074C544.754 425.074 544.461 425.143 544.211 425.283C543.964 425.419 543.772 425.611 543.636 425.858C543.502 426.105 543.435 426.395 543.435 426.727H542.43C542.43 426.216 542.548 425.767 542.783 425.381C543.019 424.994 543.34 424.693 543.746 424.477C544.156 424.261 544.614 424.153 545.123 424.153C545.634 424.153 546.087 424.261 546.482 424.477C546.877 424.693 547.187 424.984 547.411 425.351C547.636 425.717 547.748 426.125 547.748 426.574C547.748 426.895 547.69 427.209 547.573 427.516C547.46 427.82 547.261 428.159 546.977 428.534C546.695 428.906 546.305 429.361 545.805 429.898L543.844 431.994V432.062H547.901V433H542.396ZM552.388 433.119C551.888 433.119 551.438 433.02 551.038 432.821C550.637 432.622 550.316 432.349 550.075 432.003C549.833 431.656 549.701 431.261 549.678 430.818H550.701C550.741 431.213 550.92 431.54 551.238 431.798C551.559 432.054 551.942 432.182 552.388 432.182C552.746 432.182 553.065 432.098 553.343 431.93C553.624 431.763 553.844 431.533 554.004 431.24C554.165 430.945 554.246 430.611 554.246 430.239C554.246 429.858 554.163 429.518 553.995 429.22C553.83 428.919 553.603 428.682 553.313 428.509C553.023 428.335 552.692 428.247 552.32 428.244C552.053 428.241 551.779 428.283 551.498 428.368C551.217 428.45 550.985 428.557 550.803 428.688L549.815 428.568L550.343 424.273H554.877V425.21H551.229L550.923 427.784H550.974C551.153 427.642 551.377 427.524 551.647 427.43C551.917 427.337 552.198 427.29 552.491 427.29C553.025 427.29 553.501 427.418 553.918 427.673C554.339 427.926 554.668 428.273 554.907 428.713C555.148 429.153 555.269 429.656 555.269 430.222C555.269 430.778 555.144 431.276 554.894 431.713C554.647 432.148 554.306 432.491 553.871 432.744C553.437 432.994 552.942 433.119 552.388 433.119Z" fill="#CDCDCD"/>
<path d="M207.562 304.545V322H204.938V306.795H196.722V322H194.097V304.545H207.562ZM210.905 326.909V308.909H213.394V311.031H213.607C213.754 310.759 213.967 310.443 214.246 310.085C214.524 309.727 214.911 309.415 215.405 309.148C215.899 308.875 216.553 308.739 217.365 308.739C218.422 308.739 219.365 309.006 220.195 309.54C221.024 310.074 221.675 310.844 222.146 311.849C222.624 312.855 222.862 314.065 222.862 315.48C222.862 316.895 222.627 318.108 222.155 319.119C221.683 320.125 221.036 320.901 220.212 321.446C219.388 321.986 218.448 322.256 217.391 322.256C216.595 322.256 215.945 322.122 215.439 321.855C214.939 321.588 214.547 321.276 214.263 320.918C213.979 320.56 213.76 320.241 213.607 319.963H213.453V326.909H210.905ZM213.402 315.455C213.402 316.375 213.536 317.182 213.803 317.875C214.07 318.568 214.456 319.111 214.962 319.503C215.467 319.889 216.087 320.082 216.82 320.082C217.581 320.082 218.217 319.881 218.729 319.477C219.24 319.068 219.627 318.514 219.888 317.815C220.155 317.116 220.288 316.33 220.288 315.455C220.288 314.591 220.158 313.815 219.896 313.128C219.641 312.44 219.254 311.898 218.737 311.5C218.226 311.102 217.587 310.903 216.82 310.903C216.081 310.903 215.456 311.094 214.945 311.474C214.439 311.855 214.056 312.386 213.794 313.068C213.533 313.75 213.402 314.545 213.402 315.455ZM230.752 322.264C229.524 322.264 228.453 321.983 227.539 321.42C226.624 320.858 225.914 320.071 225.408 319.06C224.902 318.048 224.649 316.866 224.649 315.514C224.649 314.156 224.902 312.969 225.408 311.952C225.914 310.935 226.624 310.145 227.539 309.582C228.453 309.02 229.524 308.739 230.752 308.739C231.979 308.739 233.05 309.02 233.965 309.582C234.879 310.145 235.59 310.935 236.095 311.952C236.601 312.969 236.854 314.156 236.854 315.514C236.854 316.866 236.601 318.048 236.095 319.06C235.59 320.071 234.879 320.858 233.965 321.42C233.05 321.983 231.979 322.264 230.752 322.264ZM230.76 320.125C231.556 320.125 232.215 319.915 232.737 319.494C233.26 319.074 233.647 318.514 233.897 317.815C234.152 317.116 234.28 316.347 234.28 315.506C234.28 314.67 234.152 313.903 233.897 313.205C233.647 312.5 233.26 311.935 232.737 311.509C232.215 311.082 231.556 310.869 230.76 310.869C229.959 310.869 229.294 311.082 228.766 311.509C228.243 311.935 227.854 312.5 227.598 313.205C227.348 313.903 227.223 314.67 227.223 315.506C227.223 316.347 227.348 317.116 227.598 317.815C227.854 318.514 228.243 319.074 228.766 319.494C229.294 319.915 229.959 320.125 230.76 320.125ZM246.565 318.847L250.792 308.909H252.991L247.511 322H245.619L240.25 308.909H242.423L246.565 318.847ZM241.716 308.909V322H239.218V308.909H241.716ZM251.483 322V308.909H253.963V322H251.483ZM262.393 322.264C261.166 322.264 260.095 321.983 259.18 321.42C258.265 320.858 257.555 320.071 257.049 319.06C256.544 318.048 256.291 316.866 256.291 315.514C256.291 314.156 256.544 312.969 257.049 311.952C257.555 310.935 258.265 310.145 259.18 309.582C260.095 309.02 261.166 308.739 262.393 308.739C263.62 308.739 264.692 309.02 265.606 309.582C266.521 310.145 267.231 310.935 267.737 311.952C268.243 312.969 268.495 314.156 268.495 315.514C268.495 316.866 268.243 318.048 267.737 319.06C267.231 320.071 266.521 320.858 265.606 321.42C264.692 321.983 263.62 322.264 262.393 322.264ZM262.402 320.125C263.197 320.125 263.856 319.915 264.379 319.494C264.902 319.074 265.288 318.514 265.538 317.815C265.794 317.116 265.922 316.347 265.922 315.506C265.922 314.67 265.794 313.903 265.538 313.205C265.288 312.5 264.902 311.935 264.379 311.509C263.856 311.082 263.197 310.869 262.402 310.869C261.601 310.869 260.936 311.082 260.407 311.509C259.885 311.935 259.495 312.5 259.24 313.205C258.99 313.903 258.865 314.67 258.865 315.506C258.865 316.347 258.99 317.116 259.24 317.815C259.495 318.514 259.885 319.074 260.407 319.494C260.936 319.915 261.601 320.125 262.402 320.125ZM270.86 322V308.909H273.408V314.398H274.636L278.957 308.909H282.11L277.039 315.276L282.17 322H279.008L275.062 316.767H273.408V322H270.86ZM288.644 322.264C287.417 322.264 286.346 321.983 285.431 321.42C284.516 320.858 283.806 320.071 283.3 319.06C282.795 318.048 282.542 316.866 282.542 315.514C282.542 314.156 282.795 312.969 283.3 311.952C283.806 310.935 284.516 310.145 285.431 309.582C286.346 309.02 287.417 308.739 288.644 308.739C289.871 308.739 290.942 309.02 291.857 309.582C292.772 310.145 293.482 310.935 293.988 311.952C294.494 312.969 294.746 314.156 294.746 315.514C294.746 316.866 294.494 318.048 293.988 319.06C293.482 320.071 292.772 320.858 291.857 321.42C290.942 321.983 289.871 322.264 288.644 322.264ZM288.653 320.125C289.448 320.125 290.107 319.915 290.63 319.494C291.153 319.074 291.539 318.514 291.789 317.815C292.045 317.116 292.173 316.347 292.173 315.506C292.173 314.67 292.045 313.903 291.789 313.205C291.539 312.5 291.153 311.935 290.63 311.509C290.107 311.082 289.448 310.869 288.653 310.869C287.852 310.869 287.187 311.082 286.658 311.509C286.136 311.935 285.746 312.5 285.491 313.205C285.241 313.903 285.116 314.67 285.116 315.506C285.116 316.347 285.241 317.116 285.491 317.815C285.746 318.514 286.136 319.074 286.658 319.494C287.187 319.915 287.852 320.125 288.653 320.125ZM295.832 325.776V319.793H296.898C297.171 319.543 297.401 319.244 297.588 318.898C297.781 318.551 297.943 318.139 298.074 317.662C298.21 317.185 298.324 316.628 298.415 315.991C298.506 315.349 298.585 314.616 298.653 313.793L299.063 308.909H307.96V319.793H309.972V325.776H307.483V322H298.355V325.776H295.832ZM299.625 319.793H305.472V311.091H301.347L301.074 313.793C300.943 315.168 300.778 316.361 300.58 317.372C300.381 318.378 300.063 319.185 299.625 319.793ZM329.871 310.06C329.706 309.543 329.485 309.08 329.206 308.67C328.934 308.256 328.607 307.903 328.226 307.614C327.845 307.318 327.411 307.094 326.922 306.94C326.439 306.787 325.908 306.71 325.328 306.71C324.345 306.71 323.459 306.963 322.669 307.469C321.88 307.974 321.255 308.716 320.794 309.693C320.34 310.665 320.113 311.855 320.113 313.264C320.113 314.679 320.343 315.875 320.803 316.852C321.263 317.83 321.894 318.571 322.695 319.077C323.496 319.582 324.408 319.835 325.431 319.835C326.38 319.835 327.206 319.642 327.911 319.256C328.621 318.869 329.169 318.324 329.556 317.619C329.948 316.909 330.144 316.074 330.144 315.114L330.826 315.241H325.831V313.068H332.692V315.054C332.692 316.52 332.38 317.793 331.755 318.872C331.135 319.946 330.277 320.776 329.181 321.361C328.09 321.946 326.84 322.239 325.431 322.239C323.851 322.239 322.465 321.875 321.272 321.148C320.084 320.42 319.158 319.389 318.493 318.054C317.828 316.713 317.496 315.122 317.496 313.281C317.496 311.889 317.689 310.639 318.076 309.531C318.462 308.423 319.005 307.483 319.703 306.71C320.408 305.932 321.235 305.338 322.184 304.929C323.138 304.514 324.181 304.307 325.311 304.307C326.255 304.307 327.132 304.446 327.945 304.724C328.763 305.003 329.49 305.398 330.127 305.909C330.769 306.42 331.3 307.028 331.72 307.733C332.141 308.432 332.425 309.207 332.573 310.06H329.871ZM338.189 304.545V322H335.555V304.545H338.189ZM341.544 322V304.545H352.368V306.812H344.177V312.131H351.592V314.389H344.177V322H341.544ZM354.266 306.812V304.545H367.774V306.812H362.328V322H359.703V306.812H354.266ZM376.358 312.165V314.381H368.619V312.165H376.358ZM379.882 304.545L384.058 311.372H384.194L388.37 304.545H391.421L385.984 313.273L391.455 322H388.387L384.194 315.267H384.058L379.865 322H376.796L382.362 313.273L376.83 304.545H379.882ZM395.386 304.545L399.562 311.372H399.698L403.875 304.545H406.926L401.488 313.273L406.96 322H403.892L399.698 315.267H399.562L395.369 322H392.301L397.866 313.273L392.335 304.545H395.386ZM410.89 304.545L415.066 311.372H415.203L419.379 304.545H422.43L416.993 313.273L422.464 322H419.396L415.203 315.267H415.066L410.873 322H407.805L413.37 313.273L407.839 304.545H410.89ZM426.395 304.545L430.571 311.372H430.707L434.883 304.545H437.934L432.497 313.273L437.969 322H434.9L430.707 315.267H430.571L426.378 322H423.309L428.875 313.273L423.344 304.545H426.395ZM441.899 304.545L446.075 311.372H446.212L450.388 304.545H453.439L448.001 313.273L453.473 322H450.405L446.212 315.267H446.075L441.882 322H438.814L444.379 313.273L438.848 304.545H441.899ZM457.403 304.545L461.58 311.372H461.716L465.892 304.545H468.943L463.506 313.273L468.977 322H465.909L461.716 315.267H461.58L457.386 322H454.318L459.884 313.273L454.352 304.545H457.403ZM472.908 304.545L477.084 311.372H477.22L481.396 304.545H484.448L479.01 313.273L484.482 322H481.413L477.22 315.267H477.084L472.891 322H469.823L475.388 313.273L469.857 304.545H472.908ZM488.412 304.545L492.588 311.372H492.725L496.901 304.545H499.952L494.514 313.273L499.986 322H496.918L492.725 315.267H492.588L488.395 322H485.327L490.892 313.273L485.361 304.545H488.412ZM503.917 304.545L508.093 311.372H508.229L512.405 304.545H515.456L510.019 313.273L515.49 322H512.422L508.229 315.267H508.093L503.9 322H500.831L506.397 313.273L500.865 304.545H503.917Z" fill="#191919"/>
<path d="M310.906 336.364L313.69 340.915H313.781L316.565 336.364H318.599L314.974 342.182L318.622 348H316.577L313.781 343.511H313.69L310.895 348H308.849L312.56 342.182L308.872 336.364H310.906ZM328.115 348.176C327.27 348.176 326.543 347.985 325.933 347.602C325.327 347.216 324.861 346.684 324.536 346.006C324.21 345.328 324.047 344.551 324.047 343.676C324.047 342.79 324.214 342.008 324.547 341.33C324.88 340.648 325.35 340.116 325.956 339.733C326.562 339.35 327.276 339.159 328.098 339.159C328.761 339.159 329.352 339.282 329.871 339.528C330.39 339.771 330.808 340.112 331.126 340.551C331.448 340.991 331.64 341.504 331.7 342.091H330.047C329.956 341.682 329.748 341.33 329.422 341.034C329.1 340.739 328.668 340.591 328.126 340.591C327.653 340.591 327.238 340.716 326.882 340.966C326.53 341.212 326.255 341.564 326.058 342.023C325.861 342.477 325.763 343.015 325.763 343.636C325.763 344.273 325.859 344.822 326.053 345.284C326.246 345.746 326.518 346.104 326.871 346.358C327.227 346.612 327.645 346.739 328.126 346.739C328.448 346.739 328.74 346.68 329.001 346.562C329.267 346.441 329.488 346.269 329.666 346.045C329.848 345.822 329.975 345.553 330.047 345.239H331.7C331.64 345.803 331.456 346.307 331.149 346.75C330.842 347.193 330.431 347.542 329.916 347.795C329.405 348.049 328.804 348.176 328.115 348.176ZM337.278 348.176C336.419 348.176 335.678 347.992 335.057 347.625C334.439 347.254 333.962 346.733 333.625 346.062C333.292 345.388 333.125 344.598 333.125 343.693C333.125 342.799 333.292 342.011 333.625 341.33C333.962 340.648 334.432 340.116 335.034 339.733C335.64 339.35 336.348 339.159 337.159 339.159C337.652 339.159 338.129 339.241 338.591 339.403C339.053 339.566 339.468 339.822 339.835 340.17C340.203 340.519 340.492 340.972 340.705 341.528C340.917 342.081 341.023 342.754 341.023 343.545V344.148H334.085V342.875H339.358C339.358 342.428 339.267 342.032 339.085 341.688C338.903 341.339 338.648 341.064 338.318 340.864C337.992 340.663 337.61 340.562 337.17 340.562C336.693 340.562 336.277 340.68 335.92 340.915C335.568 341.146 335.295 341.449 335.102 341.824C334.913 342.195 334.818 342.598 334.818 343.034V344.028C334.818 344.612 334.92 345.108 335.125 345.517C335.333 345.926 335.623 346.239 335.994 346.455C336.366 346.667 336.799 346.773 337.295 346.773C337.617 346.773 337.911 346.727 338.176 346.636C338.441 346.542 338.67 346.402 338.864 346.216C339.057 346.03 339.205 345.801 339.307 345.528L340.915 345.818C340.786 346.292 340.555 346.706 340.222 347.062C339.892 347.415 339.477 347.689 338.977 347.886C338.481 348.08 337.915 348.176 337.278 348.176ZM346.584 348.176C345.739 348.176 345.012 347.985 344.402 347.602C343.796 347.216 343.33 346.684 343.004 346.006C342.679 345.328 342.516 344.551 342.516 343.676C342.516 342.79 342.682 342.008 343.016 341.33C343.349 340.648 343.819 340.116 344.425 339.733C345.031 339.35 345.745 339.159 346.567 339.159C347.23 339.159 347.821 339.282 348.339 339.528C348.858 339.771 349.277 340.112 349.595 340.551C349.917 340.991 350.108 341.504 350.169 342.091H348.516C348.425 341.682 348.216 341.33 347.891 341.034C347.569 340.739 347.137 340.591 346.595 340.591C346.122 340.591 345.707 340.716 345.351 340.966C344.999 341.212 344.724 341.564 344.527 342.023C344.33 342.477 344.232 343.015 344.232 343.636C344.232 344.273 344.328 344.822 344.521 345.284C344.714 345.746 344.987 346.104 345.339 346.358C345.696 346.612 346.114 346.739 346.595 346.739C346.917 346.739 347.209 346.68 347.47 346.562C347.735 346.441 347.957 346.269 348.135 346.045C348.317 345.822 348.444 345.553 348.516 345.239H350.169C350.108 345.803 349.925 346.307 349.618 346.75C349.311 347.193 348.9 347.542 348.385 347.795C347.874 348.049 347.273 348.176 346.584 348.176ZM355.662 348.176C354.817 348.176 354.09 347.985 353.48 347.602C352.874 347.216 352.408 346.684 352.082 346.006C351.757 345.328 351.594 344.551 351.594 343.676C351.594 342.79 351.76 342.008 352.094 341.33C352.427 340.648 352.897 340.116 353.503 339.733C354.109 339.35 354.823 339.159 355.645 339.159C356.308 339.159 356.899 339.282 357.418 339.528C357.937 339.771 358.355 340.112 358.673 340.551C358.995 340.991 359.187 341.504 359.247 342.091H357.594C357.503 341.682 357.295 341.33 356.969 341.034C356.647 340.739 356.215 340.591 355.673 340.591C355.2 340.591 354.785 340.716 354.429 340.966C354.077 341.212 353.802 341.564 353.605 342.023C353.408 342.477 353.31 343.015 353.31 343.636C353.31 344.273 353.406 344.822 353.599 345.284C353.793 345.746 354.065 346.104 354.418 346.358C354.774 346.612 355.192 346.739 355.673 346.739C355.995 346.739 356.287 346.68 356.548 346.562C356.813 346.441 357.035 346.269 357.213 346.045C357.395 345.822 357.522 345.553 357.594 345.239H359.247C359.187 345.803 359.003 346.307 358.696 346.75C358.389 347.193 357.978 347.542 357.463 347.795C356.952 348.049 356.351 348.176 355.662 348.176ZM362.729 345.619L366.575 339.273H368.405V348H366.74V341.648L362.911 348H361.064V339.273H362.729V345.619ZM372.354 345.619L376.2 339.273H378.03V348H376.365V341.648L372.536 348H370.689V339.273H372.354V345.619ZM375.473 336.318H376.871C376.871 336.958 376.643 337.479 376.189 337.881C375.738 338.278 375.128 338.477 374.359 338.477C373.594 338.477 372.986 338.278 372.536 337.881C372.085 337.479 371.859 336.958 371.859 336.318H373.251C373.251 336.602 373.335 336.854 373.501 337.074C373.668 337.29 373.954 337.398 374.359 337.398C374.757 337.398 375.041 337.29 375.212 337.074C375.386 336.858 375.473 336.606 375.473 336.318ZM384.031 345.693H385.77C385.793 346.049 385.954 346.324 386.253 346.517C386.556 346.71 386.948 346.807 387.429 346.807C387.918 346.807 388.334 346.703 388.679 346.494C389.024 346.282 389.196 345.955 389.196 345.511C389.196 345.246 389.13 345.015 388.997 344.818C388.868 344.617 388.685 344.462 388.446 344.352C388.211 344.242 387.933 344.188 387.611 344.188H386.19V342.852H387.611C388.092 342.852 388.452 342.742 388.69 342.523C388.929 342.303 389.048 342.028 389.048 341.699C389.048 341.343 388.92 341.057 388.662 340.841C388.408 340.621 388.054 340.511 387.599 340.511C387.137 340.511 386.753 340.616 386.446 340.824C386.139 341.028 385.978 341.294 385.963 341.619H384.247C384.259 341.131 384.406 340.703 384.69 340.335C384.978 339.964 385.365 339.676 385.849 339.472C386.338 339.263 386.893 339.159 387.514 339.159C388.162 339.159 388.723 339.263 389.196 339.472C389.67 339.68 390.035 339.968 390.293 340.335C390.554 340.703 390.685 341.125 390.685 341.602C390.685 342.083 390.541 342.477 390.253 342.784C389.969 343.087 389.598 343.305 389.139 343.438V343.528C389.476 343.551 389.776 343.653 390.037 343.835C390.298 344.017 390.503 344.258 390.651 344.557C390.798 344.856 390.872 345.195 390.872 345.574C390.872 346.108 390.724 346.57 390.429 346.96C390.137 347.35 389.732 347.652 389.213 347.864C388.698 348.072 388.109 348.176 387.446 348.176C386.802 348.176 386.224 348.076 385.713 347.875C385.205 347.67 384.802 347.383 384.503 347.011C384.207 346.64 384.05 346.201 384.031 345.693ZM395.166 348.193C394.613 348.193 394.113 348.091 393.666 347.886C393.219 347.678 392.865 347.377 392.604 346.983C392.346 346.589 392.217 346.106 392.217 345.534C392.217 345.042 392.312 344.636 392.501 344.318C392.691 344 392.946 343.748 393.268 343.562C393.59 343.377 393.95 343.237 394.348 343.142C394.746 343.047 395.151 342.975 395.564 342.926C396.087 342.866 396.511 342.816 396.837 342.778C397.162 342.737 397.399 342.67 397.547 342.58C397.695 342.489 397.768 342.341 397.768 342.136V342.097C397.768 341.6 397.628 341.216 397.348 340.943C397.071 340.67 396.659 340.534 396.109 340.534C395.537 340.534 395.087 340.661 394.757 340.915C394.431 341.165 394.206 341.443 394.081 341.75L392.484 341.386C392.674 340.856 392.95 340.428 393.314 340.102C393.681 339.773 394.104 339.534 394.581 339.386C395.058 339.235 395.56 339.159 396.087 339.159C396.435 339.159 396.804 339.201 397.195 339.284C397.589 339.364 397.956 339.511 398.297 339.727C398.642 339.943 398.924 340.252 399.143 340.653C399.363 341.051 399.473 341.568 399.473 342.205V348H397.814V346.807H397.746C397.636 347.027 397.471 347.242 397.251 347.455C397.032 347.667 396.75 347.843 396.405 347.983C396.06 348.123 395.647 348.193 395.166 348.193ZM395.536 346.83C396.005 346.83 396.407 346.737 396.74 346.551C397.077 346.366 397.333 346.123 397.507 345.824C397.685 345.521 397.774 345.197 397.774 344.852V343.727C397.714 343.788 397.596 343.845 397.422 343.898C397.251 343.947 397.056 343.991 396.837 344.028C396.617 344.062 396.403 344.095 396.195 344.125C395.986 344.152 395.812 344.174 395.672 344.193C395.342 344.235 395.041 344.305 394.768 344.403C394.5 344.502 394.284 344.644 394.121 344.83C393.962 345.011 393.882 345.254 393.882 345.557C393.882 345.977 394.037 346.295 394.348 346.511C394.659 346.723 395.054 346.83 395.536 346.83Z" fill="black"/>
<path d="M225.233 376.727C225.233 378.28 224.949 379.616 224.381 380.733C223.813 381.846 223.034 382.703 222.044 383.304C221.059 383.901 219.939 384.199 218.685 384.199C217.425 384.199 216.301 383.901 215.311 383.304C214.326 382.703 213.55 381.843 212.982 380.726C212.413 379.608 212.129 378.276 212.129 376.727C212.129 375.174 212.413 373.841 212.982 372.729C213.55 371.611 214.326 370.754 215.311 370.158C216.301 369.556 217.425 369.256 218.685 369.256C219.939 369.256 221.059 369.556 222.044 370.158C223.034 370.754 223.813 371.611 224.381 372.729C224.949 373.841 225.233 375.174 225.233 376.727ZM223.06 376.727C223.06 375.544 222.868 374.547 222.484 373.737C222.106 372.923 221.585 372.307 220.922 371.891C220.264 371.469 219.518 371.259 218.685 371.259C217.847 371.259 217.098 371.469 216.44 371.891C215.782 372.307 215.261 372.923 214.878 373.737C214.499 374.547 214.31 375.544 214.31 376.727C214.31 377.911 214.499 378.91 214.878 379.724C215.261 380.534 215.782 381.15 216.44 381.571C217.098 381.988 217.847 382.196 218.685 382.196C219.518 382.196 220.264 381.988 220.922 381.571C221.585 381.15 222.106 380.534 222.484 379.724C222.868 378.91 223.06 377.911 223.06 376.727ZM227.188 374.923V373.091H236.392V374.923H232.834V384H230.76V374.923H227.188ZM238.638 384V373.091H247.538V384H245.457V374.923H240.705V384H238.638ZM250.377 388.091V373.091H252.451V374.859H252.628C252.751 374.632 252.929 374.369 253.161 374.071C253.393 373.773 253.715 373.512 254.127 373.29C254.539 373.062 255.083 372.949 255.76 372.949C256.641 372.949 257.427 373.171 258.118 373.616C258.81 374.062 259.352 374.703 259.745 375.541C260.142 376.379 260.341 377.388 260.341 378.567C260.341 379.746 260.145 380.757 259.752 381.599C259.359 382.437 258.819 383.084 258.132 383.538C257.446 383.988 256.662 384.213 255.782 384.213C255.119 384.213 254.577 384.102 254.155 383.879C253.739 383.657 253.412 383.396 253.175 383.098C252.938 382.8 252.756 382.535 252.628 382.303H252.5V388.091H250.377ZM252.458 378.545C252.458 379.312 252.569 379.985 252.792 380.562C253.014 381.14 253.336 381.592 253.757 381.919C254.179 382.241 254.695 382.402 255.306 382.402C255.94 382.402 256.471 382.234 256.897 381.898C257.323 381.557 257.645 381.095 257.863 380.513C258.085 379.93 258.196 379.275 258.196 378.545C258.196 377.826 258.087 377.179 257.87 376.607C257.657 376.034 257.335 375.581 256.904 375.25C256.478 374.919 255.945 374.753 255.306 374.753C254.69 374.753 254.169 374.911 253.743 375.229C253.322 375.546 253.002 375.989 252.784 376.557C252.567 377.125 252.458 377.788 252.458 378.545ZM265.895 384.241C265.204 384.241 264.579 384.114 264.02 383.858C263.462 383.598 263.019 383.221 262.692 382.729C262.37 382.236 262.209 381.633 262.209 380.918C262.209 380.302 262.328 379.795 262.564 379.398C262.801 379 263.121 378.685 263.523 378.453C263.926 378.221 264.375 378.046 264.873 377.928C265.37 377.809 265.876 377.719 266.392 377.658C267.046 377.582 267.576 377.52 267.983 377.473C268.391 377.421 268.686 377.338 268.871 377.224C269.056 377.111 269.148 376.926 269.148 376.67V376.621C269.148 376 268.973 375.52 268.623 375.179C268.277 374.838 267.761 374.668 267.074 374.668C266.359 374.668 265.796 374.826 265.384 375.143C264.977 375.456 264.695 375.804 264.539 376.188L262.543 375.733C262.78 375.07 263.125 374.535 263.58 374.128C264.039 373.716 264.567 373.418 265.164 373.233C265.76 373.044 266.388 372.949 267.046 372.949C267.481 372.949 267.943 373.001 268.431 373.105C268.923 373.205 269.382 373.389 269.809 373.659C270.239 373.929 270.592 374.315 270.867 374.817C271.141 375.314 271.279 375.96 271.279 376.756V384H269.205V382.509H269.12C268.982 382.783 268.776 383.053 268.502 383.318C268.227 383.583 267.874 383.804 267.444 383.979C267.013 384.154 266.497 384.241 265.895 384.241ZM266.357 382.537C266.944 382.537 267.446 382.421 267.863 382.189C268.284 381.957 268.604 381.654 268.821 381.28C269.044 380.901 269.155 380.496 269.155 380.065V378.659C269.079 378.735 268.933 378.806 268.715 378.872C268.502 378.934 268.258 378.988 267.983 379.036C267.709 379.078 267.441 379.118 267.181 379.156C266.92 379.189 266.703 379.218 266.527 379.241C266.115 379.294 265.739 379.381 265.398 379.504C265.062 379.627 264.792 379.805 264.588 380.037C264.39 380.264 264.29 380.567 264.29 380.946C264.29 381.472 264.484 381.869 264.873 382.139C265.261 382.404 265.756 382.537 266.357 382.537ZM274.107 384V373.091H278.631C279.862 373.091 280.838 373.354 281.558 373.879C282.277 374.4 282.637 375.108 282.637 376.003C282.637 376.642 282.433 377.149 282.026 377.523C281.619 377.897 281.079 378.148 280.407 378.276C280.895 378.332 281.342 378.479 281.749 378.716C282.156 378.948 282.483 379.26 282.729 379.653C282.98 380.046 283.106 380.515 283.106 381.06C283.106 381.637 282.957 382.149 282.658 382.594C282.36 383.034 281.927 383.38 281.359 383.631C280.795 383.877 280.116 384 279.32 384H274.107ZM276.103 382.224H279.32C279.846 382.224 280.258 382.099 280.556 381.848C280.854 381.597 281.004 381.256 281.004 380.825C281.004 380.319 280.854 379.921 280.556 379.632C280.258 379.339 279.846 379.192 279.32 379.192H276.103V382.224ZM276.103 377.636H278.653C279.05 377.636 279.391 377.58 279.675 377.466C279.964 377.352 280.184 377.191 280.336 376.983C280.492 376.77 280.57 376.519 280.57 376.23C280.57 375.809 280.397 375.48 280.052 375.243C279.706 375.006 279.233 374.888 278.631 374.888H276.103V377.636ZM287.516 381.024L292.325 373.091H294.612V384H292.531V376.06L287.744 384H285.435V373.091H287.516V381.024ZM296.114 374.923V373.091H305.318V374.923H301.76V384H299.686V374.923H296.114ZM311.758 384.22C310.683 384.22 309.758 383.991 308.981 383.531C308.209 383.067 307.613 382.416 307.191 381.578C306.775 380.735 306.566 379.748 306.566 378.616C306.566 377.499 306.775 376.514 307.191 375.662C307.613 374.81 308.2 374.144 308.953 373.666C309.71 373.188 310.596 372.949 311.609 372.949C312.225 372.949 312.821 373.051 313.399 373.254C313.976 373.458 314.495 373.777 314.954 374.213C315.413 374.649 315.776 375.214 316.041 375.911C316.306 376.602 316.439 377.442 316.439 378.432V379.185H307.767V377.594H314.358C314.358 377.035 314.244 376.54 314.017 376.109C313.789 375.674 313.47 375.33 313.058 375.08C312.651 374.829 312.172 374.703 311.623 374.703C311.027 374.703 310.506 374.85 310.061 375.143C309.62 375.432 309.279 375.811 309.038 376.28C308.801 376.744 308.683 377.248 308.683 377.793V379.036C308.683 379.765 308.811 380.385 309.066 380.896C309.327 381.408 309.689 381.798 310.153 382.068C310.617 382.333 311.159 382.466 311.779 382.466C312.182 382.466 312.549 382.409 312.88 382.295C313.212 382.177 313.498 382.002 313.74 381.77C313.981 381.538 314.166 381.251 314.294 380.911L316.304 381.273C316.143 381.865 315.854 382.383 315.437 382.828C315.025 383.268 314.507 383.612 313.882 383.858C313.261 384.099 312.554 384.22 311.758 384.22ZM317.935 384L317.928 382.161H318.319C318.622 382.161 318.875 382.097 319.079 381.969C319.287 381.836 319.458 381.614 319.59 381.301C319.723 380.989 319.825 380.558 319.896 380.009C319.967 379.455 320.019 378.759 320.052 377.92L320.244 373.091H327.857V384H325.776V374.923H322.211L322.04 378.631C321.998 379.53 321.906 380.316 321.763 380.989C321.626 381.661 321.425 382.222 321.16 382.672C320.895 383.117 320.554 383.451 320.137 383.673C319.72 383.891 319.214 384 318.617 384H317.935ZM332.287 376.841H335.455C336.79 376.841 337.818 377.172 338.537 377.835C339.257 378.498 339.617 379.353 339.617 380.399C339.617 381.081 339.456 381.694 339.134 382.239C338.812 382.783 338.341 383.214 337.721 383.531C337.1 383.844 336.345 384 335.455 384H330.689V373.091H332.77V382.168H335.455C336.066 382.168 336.568 382.009 336.961 381.692C337.354 381.37 337.55 380.96 337.55 380.463C337.55 379.937 337.354 379.509 336.961 379.178C336.568 378.841 336.066 378.673 335.455 378.673H332.287V376.841Z" fill="black"/>
<path fill-rule="evenodd" clip-rule="evenodd" d="M365.074 382.111C364.962 382.349 364.723 382.5 364.46 382.5L362.494 382.5C362.264 382.5 362.112 382.261 362.21 382.053L364.14 377.947C364.237 377.739 364.086 377.5 363.856 377.5H354.679C354.304 377.5 354 377.196 354 376.821V375.179C354 374.804 354.304 374.5 354.679 374.5H363.856C364.086 374.5 364.237 374.261 364.14 374.053L362.21 369.947C362.112 369.739 362.264 369.5 362.494 369.5H364.465C364.725 369.5 364.963 369.649 365.076 369.883L367.859 375.635C367.948 375.82 367.949 376.036 367.861 376.221L365.074 382.111Z" fill="black"/>
<path d="M393.969 369.455V384H391.781V371.33H384.935V384H382.747V369.455H393.969ZM401.749 384.22C400.727 384.22 399.834 383.986 399.072 383.517C398.309 383.048 397.718 382.393 397.296 381.55C396.875 380.707 396.664 379.722 396.664 378.595C396.664 377.464 396.875 376.474 397.296 375.626C397.718 374.779 398.309 374.121 399.072 373.652C399.834 373.183 400.727 372.949 401.749 372.949C402.772 372.949 403.665 373.183 404.427 373.652C405.189 374.121 405.781 374.779 406.202 375.626C406.624 376.474 406.835 377.464 406.835 378.595C406.835 379.722 406.624 380.707 406.202 381.55C405.781 382.393 405.189 383.048 404.427 383.517C403.665 383.986 402.772 384.22 401.749 384.22ZM401.756 382.438C402.419 382.438 402.969 382.262 403.404 381.912C403.84 381.562 404.162 381.095 404.37 380.513C404.583 379.93 404.69 379.289 404.69 378.588C404.69 377.892 404.583 377.253 404.37 376.67C404.162 376.083 403.84 375.612 403.404 375.257C402.969 374.902 402.419 374.724 401.756 374.724C401.089 374.724 400.535 374.902 400.094 375.257C399.659 375.612 399.335 376.083 399.121 376.67C398.913 377.253 398.809 377.892 398.809 378.588C398.809 379.289 398.913 379.93 399.121 380.513C399.335 381.095 399.659 381.562 400.094 381.912C400.535 382.262 401.089 382.438 401.756 382.438ZM408.346 384L408.338 382.161H408.729C409.032 382.161 409.285 382.097 409.489 381.969C409.697 381.836 409.868 381.614 410 381.301C410.133 380.989 410.235 380.558 410.306 380.009C410.377 379.455 410.429 378.759 410.462 377.92L410.654 373.091H418.267V384H416.186V374.923H412.621L412.451 378.631C412.408 379.53 412.316 380.316 412.174 380.989C412.036 381.661 411.835 382.222 411.57 382.672C411.305 383.117 410.964 383.451 410.547 383.673C410.131 383.891 409.624 384 409.027 384H408.346ZM422.051 388.091C421.734 388.091 421.445 388.065 421.185 388.013C420.924 387.965 420.73 387.913 420.602 387.857L421.114 386.116C421.502 386.221 421.848 386.266 422.151 386.251C422.454 386.237 422.721 386.124 422.953 385.911C423.19 385.697 423.398 385.349 423.578 384.866L423.841 384.142L419.849 373.091H422.122L424.885 381.557H424.999L427.761 373.091H430.041L425.545 385.456C425.337 386.024 425.072 386.505 424.75 386.898C424.428 387.295 424.045 387.594 423.599 387.793C423.154 387.991 422.638 388.091 422.051 388.091ZM440.482 373.091V384H438.408V373.091H440.482ZM439.58 378.155V379.987C439.253 380.12 438.907 380.238 438.543 380.342C438.178 380.442 437.795 380.52 437.392 380.577C436.99 380.634 436.571 380.662 436.135 380.662C434.786 380.662 433.713 380.333 432.918 379.675C432.122 379.012 431.724 377.999 431.724 376.635V373.07H433.791V376.635C433.791 377.151 433.886 377.57 434.075 377.892C434.265 378.214 434.535 378.451 434.885 378.602C435.235 378.754 435.652 378.83 436.135 378.83C436.774 378.83 437.364 378.77 437.903 378.652C438.448 378.529 439.007 378.363 439.58 378.155ZM446.481 384.241C445.79 384.241 445.165 384.114 444.606 383.858C444.047 383.598 443.605 383.221 443.278 382.729C442.956 382.236 442.795 381.633 442.795 380.918C442.795 380.302 442.913 379.795 443.15 379.398C443.387 379 443.707 378.685 444.109 378.453C444.511 378.221 444.961 378.046 445.458 377.928C445.956 377.809 446.462 377.719 446.978 377.658C447.632 377.582 448.162 377.52 448.569 377.473C448.976 377.421 449.272 377.338 449.457 377.224C449.642 377.111 449.734 376.926 449.734 376.67V376.621C449.734 376 449.559 375.52 449.208 375.179C448.863 374.838 448.347 374.668 447.66 374.668C446.945 374.668 446.382 374.826 445.97 375.143C445.563 375.456 445.281 375.804 445.125 376.188L443.129 375.733C443.366 375.07 443.711 374.535 444.166 374.128C444.625 373.716 445.153 373.418 445.75 373.233C446.346 373.044 446.974 372.949 447.632 372.949C448.067 372.949 448.529 373.001 449.017 373.105C449.509 373.205 449.968 373.389 450.395 373.659C450.825 373.929 451.178 374.315 451.453 374.817C451.727 375.314 451.865 375.96 451.865 376.756V384H449.791V382.509H449.706C449.568 382.783 449.362 383.053 449.088 383.318C448.813 383.583 448.46 383.804 448.029 383.979C447.599 384.154 447.083 384.241 446.481 384.241ZM446.943 382.537C447.53 382.537 448.032 382.421 448.449 382.189C448.87 381.957 449.19 381.654 449.407 381.28C449.63 380.901 449.741 380.496 449.741 380.065V378.659C449.665 378.735 449.519 378.806 449.301 378.872C449.088 378.934 448.844 378.988 448.569 379.036C448.295 379.078 448.027 379.118 447.767 379.156C447.506 379.189 447.288 379.218 447.113 379.241C446.701 379.294 446.325 379.381 445.984 379.504C445.648 379.627 445.378 379.805 445.174 380.037C444.975 380.264 444.876 380.567 444.876 380.946C444.876 381.472 445.07 381.869 445.458 382.139C445.847 382.404 446.342 382.537 446.943 382.537ZM453.34 374.923V373.091H462.545V374.923H458.987V384H456.913V374.923H453.34ZM468.985 384.22C467.91 384.22 466.984 383.991 466.208 383.531C465.436 383.067 464.839 382.416 464.418 381.578C464.001 380.735 463.793 379.748 463.793 378.616C463.793 377.499 464.001 376.514 464.418 375.662C464.839 374.81 465.426 374.144 466.179 373.666C466.937 373.188 467.822 372.949 468.836 372.949C469.451 372.949 470.048 373.051 470.625 373.254C471.203 373.458 471.721 373.777 472.181 374.213C472.64 374.649 473.002 375.214 473.267 375.911C473.533 376.602 473.665 377.442 473.665 378.432V379.185H464.993V377.594H471.584C471.584 377.035 471.471 376.54 471.243 376.109C471.016 375.674 470.696 375.33 470.284 375.08C469.877 374.829 469.399 374.703 468.85 374.703C468.253 374.703 467.732 374.85 467.287 375.143C466.847 375.432 466.506 375.811 466.265 376.28C466.028 376.744 465.909 377.248 465.909 377.793V379.036C465.909 379.765 466.037 380.385 466.293 380.896C466.553 381.408 466.916 381.798 467.38 382.068C467.844 382.333 468.386 382.466 469.006 382.466C469.408 382.466 469.775 382.409 470.107 382.295C470.438 382.177 470.725 382.002 470.966 381.77C471.208 381.538 471.392 381.251 471.52 380.911L473.53 381.273C473.369 381.865 473.08 382.383 472.664 382.828C472.252 383.268 471.733 383.612 471.108 383.858C470.488 384.099 469.78 384.22 468.985 384.22ZM475.162 384L475.155 382.161H475.545C475.848 382.161 476.102 382.097 476.305 381.969C476.514 381.836 476.684 381.614 476.817 381.301C476.949 380.989 477.051 380.558 477.122 380.009C477.193 379.455 477.245 378.759 477.278 377.92L477.47 373.091H485.084V384H483.003V374.923H479.438L479.267 378.631C479.224 379.53 479.132 380.316 478.99 380.989C478.853 381.661 478.652 382.222 478.386 382.672C478.121 383.117 477.78 383.451 477.364 383.673C476.947 383.891 476.44 384 475.844 384H475.162ZM489.514 376.841H492.681C494.017 376.841 495.044 377.172 495.764 377.835C496.484 378.498 496.843 379.353 496.843 380.399C496.843 381.081 496.682 381.694 496.36 382.239C496.038 382.783 495.567 383.214 494.947 383.531C494.327 383.844 493.572 384 492.681 384H487.916V373.091H489.997V382.168H492.681C493.292 382.168 493.794 382.009 494.187 381.692C494.58 381.37 494.777 380.96 494.777 380.463C494.777 379.937 494.58 379.509 494.187 379.178C493.794 378.841 493.292 378.673 492.681 378.673H489.514V376.841Z" fill="black"/>
</g>
<defs>
<linearGradient id="paint0_linear_1_20566" x1="354" y1="71" x2="354" y2="456" gradientUnits="userSpaceOnUse">
<stop stop-color="#F7F7F7" stop-opacity="0"/>
<stop offset="0.604575" stop-color="#F7F7F7"/>
</linearGradient>
<clipPath id="clip0_1_20566">
<rect width="708" height="456" rx="30" fill="white"/>
</clipPath>
</defs>
</svg>
