<svg width="20" height="20" viewBox="0 0 20 20" fill="none" xmlns="http://www.w3.org/2000/svg">
<path fill-rule="evenodd" clip-rule="evenodd" d="M10 16.875C13.797 16.875 16.875 13.797 16.875 10C16.875 6.20304 13.797 3.125 10 3.125C6.20304 3.125 3.125 6.20304 3.125 10C3.125 13.797 6.20304 16.875 10 16.875ZM10 18.75C14.8325 18.75 18.75 14.8325 18.75 10C18.75 5.16751 14.8325 1.25 10 1.25C5.16751 1.25 1.25 5.16751 1.25 10C1.25 14.8325 5.16751 18.75 10 18.75ZM8.05025 5.67429C8.58768 5.23283 9.29292 4.96861 10 4.96861C11.5215 4.96861 12.9243 5.99397 12.9243 7.64455C12.9243 8.11477 12.8268 8.57515 12.5526 9.01987C12.2921 9.44231 11.9112 9.78604 11.4589 10.1029C11.187 10.2934 11.0518 10.4239 10.9854 10.5129C10.9375 10.5771 10.9375 10.6009 10.9375 10.6237L10.9375 10.6247C10.9375 11.1425 10.5178 11.5622 10 11.5622C9.48224 11.5622 9.06251 11.1425 9.06251 10.6247C9.06251 9.63134 9.74209 9.01628 10.3831 8.56725C10.7327 8.32228 10.8847 8.15228 10.9567 8.03567C11.0148 7.94135 11.0493 7.83738 11.0493 7.64455C11.0493 7.27055 10.7447 6.84361 10 6.84361C9.74366 6.84361 9.45549 6.94646 9.24039 7.12315C9.03109 7.29507 8.95072 7.48162 8.95072 7.64455C8.95072 8.16231 8.53098 8.58205 8.01322 8.58205C7.49545 8.58205 7.07572 8.16231 7.07572 7.64455C7.07572 6.80319 7.50701 6.12052 8.05025 5.67429ZM10 15C10.6904 15 11.25 14.4404 11.25 13.75C11.25 13.0596 10.6904 12.5 10 12.5C9.30964 12.5 8.75 13.0596 8.75 13.75C8.75 14.4404 9.30964 15 10 15Z" fill="#BABABA"/>
</svg>
