<svg width="20" height="20" viewBox="0 0 20 20" fill="none" xmlns="http://www.w3.org/2000/svg">
<path fill-rule="evenodd" clip-rule="evenodd" d="M16.875 10C16.875 13.797 13.797 16.875 10 16.875C6.20304 16.875 3.125 13.797 3.125 10C3.125 6.20304 6.20304 3.125 10 3.125C13.797 3.125 16.875 6.20304 16.875 10ZM18.75 10C18.75 14.8325 14.8325 18.75 10 18.75C5.16751 18.75 1.25 14.8325 1.25 10C1.25 5.16751 5.16751 1.25 10 1.25C14.8325 1.25 18.75 5.16751 18.75 10ZM10.9375 5.625C10.9375 5.10723 10.5178 4.6875 10 4.6875C9.48223 4.6875 9.0625 5.10723 9.0625 5.625V10C9.0625 10.2951 9.20143 10.5729 9.4375 10.75L11.9375 12.625C12.3517 12.9357 12.9393 12.8517 13.25 12.4375C13.5607 12.0233 13.4767 11.4357 13.0625 11.125L10.9375 9.53125V5.625Z" fill="#BABABA"/>
</svg>
