<svg width="376" height="244" viewBox="0 0 376 244" fill="none" xmlns="http://www.w3.org/2000/svg">
<path d="M375.111 199.14C377.654 183.318 335.539 180.855 294.405 182.193C273.833 181.718 235.682 165.466 197.601 165.081C145.172 164.551 84.741 163.831 50.7597 165.077C-10.6823 167.33 -9.91167 208.853 24.5353 212.619C69.9743 217.587 162.626 199.97 203.77 199.135C244.914 198.3 308.765 213.715 328.337 212.313C356.655 210.284 373.259 210.665 375.111 199.14Z" fill="#B6DDA5"/>
<path d="M176.932 206.348C172.338 122.665 177.84 55.6582 92.6129 55.6582C-10.6047 55.6582 11.1912 158.191 11.1912 175.03C11.1912 184.362 29.7033 188.647 53.3156 188.647C57.4023 188.647 49.6829 222.234 60.3547 223.874C76.7932 225.834 91.9127 228.135 114.617 226.773L127.331 225.689C157.301 222.234 176.932 220.636 176.932 206.348Z" fill="#FB812C"/>
<path d="M257.438 225.69C227.469 222.235 197.794 220.636 197.794 206.349C197.794 186.607 202.043 159.192 208.716 149.92C211.866 89.8543 226.281 46.001 292.157 46.001C395.374 46.001 373.578 158.192 373.578 175.031C373.578 184.362 361.253 188.647 337.641 188.647C333.554 188.647 335.087 222.235 324.415 223.874C307.976 225.835 292.857 228.135 270.153 226.774L257.438 225.69Z" fill="#A44BE1"/>
<path d="M271.079 101.337C271.441 95.7388 275.891 91.4659 281.018 91.7934C286.146 92.121 290.009 96.9249 289.648 102.523C289.286 108.122 284.835 112.395 279.708 112.067C274.58 111.74 270.717 106.936 271.079 101.337Z" fill="white"/>
<path d="M236.223 98.4212C236.585 92.8228 241.035 88.5499 246.163 88.8774C251.291 89.205 255.154 94.0089 254.792 99.6073C254.43 105.206 249.98 109.479 244.852 109.151C239.725 108.824 235.861 104.02 236.223 98.4212Z" fill="white"/>
<path d="M243.144 105.839C240.542 105.258 238.903 102.679 239.484 100.077C240.064 97.4749 242.644 95.8362 245.246 96.4167C247.848 96.9972 249.486 99.577 248.906 102.179C248.325 104.781 245.746 106.419 243.144 105.839Z" fill="black"/>
<path d="M278.616 108.835C275.832 108.214 274.079 105.454 274.7 102.67C275.321 99.8855 278.081 98.1321 280.865 98.7533C283.649 99.3744 285.403 102.135 284.782 104.919C284.16 107.703 281.4 109.456 278.616 108.835Z" fill="black"/>
<path d="M254.195 115.991C254.66 116.512 255.741 118.443 254.66 120.604" stroke="black" stroke-width="2.31791" stroke-linecap="round"/>
<path d="M255.666 118.162C255.666 118.162 259.201 117.645 263.848 118.783" stroke="black" stroke-width="2.31791" stroke-linecap="round" stroke-linejoin="round"/>
<path d="M150.663 128.547C153.008 132.394 164.628 143.726 179.517 137.064" stroke="black" stroke-width="2.31791" stroke-linecap="round" stroke-linejoin="round"/>
<path d="M233.496 120.935C232.614 125.353 234.917 135.541 251.185 140.948" stroke="black" stroke-width="2.31791" stroke-linecap="round" stroke-linejoin="round"/>
<path d="M78.5195 125.968C81.9434 132.299 89.6376 143.474 111.646 141.807" stroke="black" stroke-width="2.31791" stroke-linecap="round" stroke-linejoin="round"/>
<path d="M309.824 126.741C304.938 132.131 287.743 142.406 258.058 140.39" stroke="black" stroke-width="2.31791" stroke-linecap="round" stroke-linejoin="round"/>
<path d="M81.125 155.577C97.3504 153.015 129.801 151.236 129.801 164.622C129.801 178.008 128.891 191.304 128.436 196.278" stroke="black" stroke-width="2.31791" stroke-linecap="round" stroke-linejoin="round"/>
<path d="M309.438 155.717C293.212 153.154 268.857 153.833 264.625 166.532C260.375 179.282 255.877 191.305 256.331 196.279" stroke="black" stroke-width="2.31791" stroke-linecap="round" stroke-linejoin="round"/>
<circle cx="280.432" cy="102.051" r="14.9397" transform="rotate(5.00009 280.432 102.051)" stroke="black" stroke-width="2.31791" stroke-linejoin="round"/>
<ellipse cx="245.3" cy="98.9291" rx="14.5742" ry="15.0158" transform="rotate(5.00009 245.3 98.9291)" stroke="black" stroke-width="2.31791" stroke-linejoin="round"/>
<path d="M265.598 99.9784C265.054 99.3456 263.293 98.3721 260.601 99.5412" stroke="black" stroke-width="2.31791" stroke-linecap="round"/>
<path d="M293.601 100.445C298.355 96.7579 310.363 91.2006 320.363 98.4674" stroke="black" stroke-width="2.31791" stroke-linecap="round"/>
<path d="M109.559 101.685C109.799 94.9995 105.03 89.3972 98.907 89.1722C92.7838 88.9473 87.6251 94.1849 87.3846 100.871C87.1441 107.557 91.9131 113.159 98.0363 113.384C104.159 113.609 109.318 108.371 109.559 101.685Z" fill="white"/>
<path d="M139.406 102.775C139.647 96.0893 134.878 90.487 128.755 90.2621C122.631 90.0371 117.473 95.2747 117.232 101.961C116.992 108.646 121.761 114.249 127.884 114.474C134.007 114.699 139.166 109.461 139.406 102.775Z" fill="white"/>
<path d="M132.032 109.59C134.72 109.268 136.639 106.828 136.317 104.14C135.996 101.452 133.556 99.5331 130.868 99.8545C128.179 100.176 126.261 102.616 126.582 105.304C126.903 107.992 129.343 109.911 132.032 109.59Z" fill="black"/>
<path d="M101.836 108.47C104.524 108.148 106.443 105.708 106.122 103.02C105.8 100.332 103.361 98.413 100.672 98.7344C97.984 99.0558 96.0653 101.496 96.3867 104.184C96.7081 106.872 99.1479 108.791 101.836 108.47Z" fill="black"/>
<path d="M100.918 83.7575C100.918 83.7575 93.8042 81.7712 86.383 88.7974" stroke="black" stroke-width="2.31791" stroke-linecap="round" stroke-linejoin="round"/>
<path d="M139.826 89.851C139.826 89.851 136.556 84.329 125.672 85.1079" stroke="black" stroke-width="2.31791" stroke-linecap="round" stroke-linejoin="round"/>
<path d="M118.211 116.696C118.211 119.683 115.79 122.105 112.803 122.105C109.816 122.105 107.395 119.683 107.395 116.696C107.395 113.709 109.816 112.833 112.803 112.833C115.79 112.833 118.211 113.709 118.211 116.696Z" fill="black"/>
<path d="M114.621 130.906C118.116 128.321 127.291 127.459 130.786 129.183C134.281 130.906 136.028 143.4 132.533 147.277C129.038 151.155 119.864 149.862 116.805 149.001C115.777 148.811 114.987 147.63 114.421 145.95C112.15 145.722 108.941 144.685 108.941 141.677C108.941 137.935 111.121 137.147 113.328 136.77C113.415 134.004 113.858 131.658 114.621 130.906Z" fill="black"/>
</svg>
