<svg width="534" height="495" viewBox="0 0 534 495" fill="none" xmlns="http://www.w3.org/2000/svg">
<g clip-path="url(#clip0_1_24338)">
<path d="M203.768 169.235C118.201 169.235 5.48304 183.496 5.48304 248.558C5.48304 313.609 -29.3887 494.207 76.7219 494.207C248.716 494.207 360.235 505.939 360.235 439.237C360.235 273.726 382.624 169.235 203.779 169.235H203.768Z" fill="#FB812C"/>
<path d="M354.105 0.529163C421.208 0.529163 523.182 -9.32006 523.182 55.7313C523.182 120.783 565.605 266.469 482.403 266.469C347.53 266.469 247.188 275.799 247.188 209.098C247.199 43.5864 213.876 0.529163 354.105 0.529163Z" fill="#FB812C"/>
<path d="M277.192 251.171C268.071 251.678 259.088 252.154 250.253 252.588C234.016 253.382 218.786 244.294 212.221 229.462C202.442 207.373 180.287 191.948 154.526 191.948C130.79 191.948 110.109 205.035 99.3545 224.363C90.3396 240.581 71.4401 248.663 53.6649 243.226C22.7491 233.768 4.98442 217.645 4.98442 191.61C4.98442 26.0879 -31.457 2.21067 141.078 2.21067C223.633 2.21067 304.534 -9.32064 304.534 55.7413V56.0587C304.534 67.2092 296.675 76.7516 285.729 79.1742C262.757 84.2628 248.323 106.141 250.349 133.096C252.311 159.195 269.397 181.105 293.694 186.278C300.97 187.833 306.294 194.075 306.909 201.48C308.436 219.74 306.389 249.52 277.192 251.171Z" fill="#0075E2"/>
<path d="M160.666 88.3041C160.666 88.3041 154.326 80.7648 137.014 88.4601" stroke="black" stroke-width="3" stroke-linecap="round" stroke-linejoin="round"/>
<path d="M221.308 90.0717C221.308 90.0717 214.967 82.5323 197.655 90.2276" stroke="black" stroke-width="3" stroke-linecap="round" stroke-linejoin="round"/>
<path d="M361 159.375C361.945 160.332 364.207 163.945 362.336 168.204" stroke="black" stroke-width="3" stroke-linecap="round"/>
<path d="M364.027 163.412C364.027 163.412 370.777 162.081 379.826 163.826" stroke="black" stroke-width="3" stroke-linecap="round" stroke-linejoin="round"/>
<path d="M281.944 417.535C271.487 420.54 264.423 430.336 265.166 441.159C266.672 463.079 276.8 494.044 322.045 494.129C490.994 494.425 530.755 488.501 530.755 423.47C530.755 284.363 548.502 246.179 456.036 238.65C450.993 238.24 447.141 234.053 446.375 229.064C442.617 204.594 423.256 192.962 400.962 187.421C371.928 182.985 350.634 201.304 347.969 227.711C347.41 233.246 343.083 237.997 337.506 238.084C291.916 238.796 263.023 246.655 263.023 290.998V291.209C263.002 304.423 272.611 315.679 285.709 317.615C288.339 318.006 290.45 318.334 291.511 318.493C320.379 322.915 327.199 338.244 327.199 366.417C327.199 389.522 305.775 410.669 281.944 417.535Z" fill="#0075E2"/>
<path d="M182.535 310.626C183.008 297.489 173.615 286.482 161.554 286.04C149.493 285.598 139.331 295.889 138.858 309.025C138.384 322.161 147.777 333.169 159.839 333.611C171.9 334.053 182.061 323.762 182.535 310.626Z" fill="white"/>
<path d="M398.657 311.683C398.183 298.547 407.577 287.539 419.638 287.098C431.699 286.656 441.86 296.946 442.334 310.083C442.807 323.219 433.414 334.226 421.353 334.668C409.292 335.11 399.13 324.82 398.657 311.683Z" fill="white"/>
<path d="M364.829 132.895C365.302 119.759 355.909 108.751 343.848 108.309C331.787 107.867 321.625 118.158 321.152 131.295C320.678 144.431 330.071 155.438 342.132 155.88C354.194 156.322 364.355 146.032 364.829 132.895Z" fill="white"/>
<path d="M339.858 313.827C339.384 300.69 348.778 289.683 360.839 289.241C372.9 288.799 383.061 299.09 383.535 312.226C384.009 325.363 374.615 336.37 362.554 336.812C350.493 337.254 340.332 326.963 339.858 313.827Z" fill="white"/>
<path d="M241.335 312.768C241.809 299.632 232.416 288.624 220.354 288.182C208.293 287.741 198.132 298.031 197.658 311.168C197.185 324.304 206.578 335.311 218.639 335.753C230.7 336.195 240.862 325.905 241.335 312.768Z" fill="white"/>
<path d="M352.749 323.978C347.454 323.347 343.675 318.553 344.308 313.271C344.941 307.989 349.747 304.219 355.042 304.851C360.337 305.482 364.117 310.276 363.484 315.558C362.85 320.84 358.045 324.61 352.749 323.978Z" fill="black"/>
<path d="M423.628 135.038C424.102 121.901 414.709 110.894 402.647 110.452C390.586 110.01 380.425 120.301 379.951 133.437C379.478 146.574 388.871 157.581 400.932 158.023C412.993 158.465 423.155 148.174 423.628 135.038Z" fill="white"/>
<path d="M219.671 332.678C224.967 332.047 228.746 327.253 228.113 321.971C227.48 316.689 222.674 312.919 217.379 313.551C212.084 314.182 208.304 318.976 208.937 324.258C209.57 329.54 214.376 333.31 219.671 332.678Z" fill="black"/>
<path d="M412.221 321.778C406.926 321.146 403.147 316.353 403.78 311.071C404.413 305.789 409.219 302.019 414.514 302.65C419.809 303.282 423.588 308.076 422.955 313.358C422.322 318.64 417.516 322.409 412.221 321.778Z" fill="black"/>
<path d="M408.351 153.472C413.646 152.841 417.426 148.047 416.793 142.765C416.159 137.483 411.354 133.713 406.058 134.345C400.763 134.976 396.984 139.77 397.617 145.052C398.25 150.334 403.056 154.104 408.351 153.472Z" fill="black"/>
<path d="M160.201 330.478C165.496 329.847 169.275 325.053 168.642 319.771C168.009 314.489 163.203 310.719 157.908 311.351C152.613 311.982 148.834 316.776 149.467 322.058C150.1 327.34 154.906 331.11 160.201 330.478Z" fill="black"/>
<path d="M348.88 151.271C354.176 150.64 357.955 145.846 357.322 140.564C356.689 135.282 351.883 131.512 346.588 132.144C341.293 132.775 337.513 137.569 338.146 142.851C338.779 148.133 343.585 151.903 348.88 151.271Z" fill="black"/>
<path d="M139.619 290.111C139.619 290.111 151.043 293.263 163.309 282.464" stroke="black" stroke-width="3" stroke-linecap="round" stroke-linejoin="round"/>
<path d="M385.806 341.789C385.806 341.789 393.335 347.066 403.849 339.114" stroke="black" stroke-width="3" stroke-linecap="round" stroke-linejoin="round"/>
<path d="M217.854 284.111C217.854 284.111 223.233 294.62 241.073 293.123" stroke="black" stroke-width="3" stroke-linecap="round" stroke-linejoin="round"/>
<path d="M390 105.495C390 105.495 396.34 109.759 413.652 105.407" stroke="black" stroke-width="3" stroke-linecap="round" stroke-linejoin="round"/>
<path d="M329.358 104.495C329.358 104.495 335.699 108.759 353.011 104.407" stroke="black" stroke-width="3" stroke-linecap="round" stroke-linejoin="round"/>
<path d="M179.363 340.725C179.363 340.725 187.429 341.675 196.243 344.532" stroke="black" stroke-width="3" stroke-linecap="round" stroke-linejoin="round"/>
<path d="M99 254.738C118.863 244.368 154.272 249.985 140.454 238.318C126.636 226.651 101.591 247.824 129.659 251.281C157.726 254.738 166.794 221.879 148.226 228.379C129.659 234.879 108.068 256.899 143.045 257.763C178.021 258.627 194.43 238.318 173.703 238.318C152.976 238.318 119.727 227.515 143.045 219.737C166.362 211.959 175.862 266.405 137.431 262.084C99 257.763 108.5 236.049 124.477 228.379C140.454 220.71 168.09 216.28 184.067 228.379C200.044 240.479 200.475 258.347 182.339 256.899C164.203 255.452 133.977 259.923 126.204 233.133C118.431 206.342 169.491 202.944 178.021 217.577C187.089 233.132 178.453 253.874 168.09 264.245C154.775 270.744 149.07 233.549 191.912 219.737" stroke="black" stroke-width="3" stroke-linecap="round"/>
<path d="M222 366.04C248.338 381.556 318.512 406.241 388.51 380.851" stroke="black" stroke-width="3" stroke-linecap="round"/>
<path d="M169.535 122.386C170.008 109.25 160.615 98.2426 148.554 97.8006C136.493 97.3587 126.331 107.649 125.858 120.786C125.384 133.922 134.777 144.93 146.839 145.372C158.9 145.814 169.061 135.523 169.535 122.386Z" fill="white"/>
<path d="M232.535 124.53C233.008 111.394 223.615 100.386 211.554 99.9442C199.493 99.5022 189.331 109.793 188.858 122.929C188.384 136.066 197.777 147.073 209.839 147.515C221.9 147.957 232.061 137.666 232.535 124.53Z" fill="white"/>
<path d="M219.642 134.681C224.937 134.05 228.717 129.256 228.084 123.974C227.451 118.692 222.645 114.922 217.349 115.554C212.054 116.185 208.275 120.979 208.908 126.261C209.541 131.543 214.347 135.313 219.642 134.681Z" fill="black"/>
<path d="M155.97 132.481C161.266 131.85 165.045 127.056 164.412 121.774C163.779 116.492 158.973 112.722 153.678 113.354C148.382 113.985 144.603 118.779 145.236 124.061C145.869 129.343 150.675 133.113 155.97 132.481Z" fill="black"/>
<ellipse cx="181" cy="156" rx="9" ry="7" fill="black"/>
<circle cx="211.89" cy="122.882" r="29.8819" stroke="black" stroke-width="2.71654" stroke-linejoin="round"/>
<circle cx="144.882" cy="122.882" r="29.8819" stroke="black" stroke-width="2.71654" stroke-linejoin="round"/>
<path d="M181.553 121.524C180.799 120.619 178.475 119.351 175.215 121.524" stroke="black" stroke-width="2.71654" stroke-linecap="round"/>
<path d="M225 180.42C233.647 188.169 257.071 202.283 281.596 196.743C312.252 189.818 310.366 178.441 307.536 173" stroke="black" stroke-width="3" stroke-linecap="round"/>
<path d="M350.5 182.5C340.333 189.833 317.8 199.1 309 177.5" stroke="black" stroke-width="3" stroke-linecap="round"/>
<path d="M379.709 298.563C377.651 293.844 338.011 293.158 332.979 297.47C330.781 302.317 331.941 325.058 333.87 327.384C335.798 329.71 375.37 328.17 378.609 327.807C381.848 327.445 381.128 301.818 379.709 298.563Z" stroke="black" stroke-width="3"/>
<path d="M435.002 298.524C432.944 293.805 393.304 293.119 388.272 297.43C386.074 302.278 387.234 325.019 389.163 327.345C391.091 329.67 430.663 328.131 433.902 327.768C437.141 327.406 436.421 301.779 435.002 298.524Z" stroke="black" stroke-width="3"/>
<path d="M381 310.798C382.077 309.289 384.785 307.176 387 310.798" stroke="black" stroke-width="3" stroke-linecap="round"/>
<path d="M436 308.5C444.333 304.167 463.1 295.6 471.5 296C479.9 296.4 483 301.5 483.5 304" stroke="black" stroke-width="3" stroke-linecap="round"/>
<path d="M115.5 116.5C105.333 112.167 83.4 103.8 77 105C70.6 106.2 68.3333 111.5 68 114" stroke="black" stroke-width="3" stroke-linecap="round"/>
</g>
<defs>
<clipPath id="clip0_1_24338">
<rect width="534" height="495" fill="white"/>
</clipPath>
</defs>
</svg>
