<svg width="308" height="282" viewBox="0 0 308 282" fill="none" xmlns="http://www.w3.org/2000/svg">
<path d="M0 33.7534C0 15.1119 15.1119 0 33.7534 0H274.247C292.888 0 308 15.1119 308 33.7534V248.247C308 266.888 292.888 282 274.247 282H33.7534C15.1119 282 0 266.888 0 248.247V33.7534Z" fill="url(#paint0_linear_1_22156)"/>
<path d="M91.6776 123.997C57.2483 130.652 54.4412 223.835 60.5692 231.841C66.6972 239.847 245.064 237.492 257.318 231.841C265.292 228.164 265.269 104.555 238 59.2622C223.36 34.9457 188.78 26.7683 153.423 35.2437C116.901 43.9983 118.074 107.828 119.96 123.997C111.952 123.997 106.296 121.171 91.6776 123.997Z" fill="#FB812C"/>
<path d="M171.813 114.275C170.635 104.949 162.755 98.2577 154.212 99.3302C145.67 100.403 139.7 108.833 140.878 118.159C142.057 127.485 149.937 134.176 158.479 133.104C167.022 132.031 172.992 123.601 171.813 114.275Z" fill="white"/>
<path d="M206.626 110.987C205.448 101.661 197.567 94.9696 189.025 96.0422C180.482 97.1147 174.512 105.545 175.691 114.871C176.869 124.197 184.749 130.888 193.292 129.816C201.834 128.743 207.804 120.313 206.626 110.987Z" fill="white"/>
<path d="M189.52 122.918C193.176 121.864 195.285 118.047 194.231 114.391C193.178 110.736 189.36 108.627 185.705 109.68C182.049 110.734 179.94 114.551 180.994 118.207C182.047 121.862 185.865 123.971 189.52 122.918Z" fill="black"/>
<path d="M154.229 126.24C157.884 125.186 159.994 121.369 158.94 117.713C157.886 114.058 154.069 111.949 150.414 113.002C146.758 114.056 144.649 117.873 145.703 121.529C146.756 125.184 150.574 127.294 154.229 126.24Z" fill="black"/>
<path d="M137.155 106.462C137.155 106.462 145.589 105.864 151.258 95.6629" stroke="black" stroke-width="3" stroke-linecap="round" stroke-linejoin="round"/>
<path d="M190.336 91.0004C190.336 91.0004 193.597 98.7831 206.368 98.6721" stroke="black" stroke-width="3" stroke-linecap="round" stroke-linejoin="round"/>
<path d="M112.126 236C111.177 206 115.162 146 138.691 146C162.22 146 169.368 176.471 170 191.707" stroke="black" stroke-width="3"/>
<path d="M61 169C68.4083 175.974 90.9798 189.73 122 188.97" stroke="black" stroke-width="3"/>
<path d="M182 164C175.882 175.612 151.318 198.454 102 196.927" stroke="black" stroke-width="3"/>
<path d="M147 76.1493C159.287 69.7668 181.189 73.224 172.642 66.0436C164.094 58.8633 148.603 71.8943 165.964 74.0218C183.325 76.1493 188.935 55.9265 177.449 59.9269C165.964 63.9273 152.609 77.4791 174.244 78.0109C195.879 78.5428 206.029 66.0436 193.208 66.0436C180.387 66.0436 159.821 59.3952 174.244 54.6083C188.667 49.8214 194.544 83.3297 170.772 80.6703C147 78.0109 152.876 64.647 162.759 59.9269C172.642 55.2068 189.736 52.4802 199.619 59.9269C209.501 67.3736 209.768 78.3701 198.55 77.4792C187.332 76.5884 168.635 79.3403 163.827 62.8523C159.019 46.3643 190.603 44.2731 195.879 53.2788C201.488 62.8521 196.146 75.6175 189.736 82C181.5 86 185 58.5 211.5 50" stroke="black" stroke-width="3" stroke-linecap="round"/>
<defs>
<linearGradient id="paint0_linear_1_22156" x1="154" y1="0" x2="154" y2="282" gradientUnits="userSpaceOnUse">
<stop stop-color="#FDFBFB"/>
<stop offset="1" stop-color="#F7F7F7"/>
</linearGradient>
</defs>
</svg>
