<svg width="308" height="282" viewBox="0 0 308 282" fill="none" xmlns="http://www.w3.org/2000/svg">
<path d="M0 33.7534C0 15.1119 15.1119 0 33.7534 0H274.247C292.888 0 308 15.1119 308 33.7534V248.247C308 266.888 292.888 282 274.247 282H33.7534C15.1119 282 0 266.888 0 248.247V33.7534Z" fill="url(#paint0_linear_1_22196)"/>
<path d="M255 215.973C251.566 247.493 200.684 230.186 150.208 230.186C131.554 229.511 64.1382 246.624 57.9997 224.5C47.4988 186.654 55.0002 146.5 73.9462 149.828C85.8345 151.916 70.3293 77.3909 102.5 60.5007C142.5 39.5 167 43.0008 203 55.5005C237.984 67.6474 219.887 150.375 235.249 149.828C250.611 149.281 260.5 165.5 255 215.973Z" fill="#8FD86F"/>
<path d="M149 229.5C158.5 184 142.5 152.5 118 151C102 151 84.8333 151.5 76.5 151" stroke="black" stroke-width="3" stroke-linecap="round"/>
<path d="M150.107 102.818C150.406 94.5064 144.477 87.542 136.865 87.2623C129.253 86.9827 122.84 93.4938 122.541 101.805C122.242 110.117 128.171 117.081 135.783 117.361C143.395 117.64 149.808 111.129 150.107 102.818Z" fill="white"/>
<path d="M187.216 104.173C187.515 95.8619 181.587 88.8974 173.975 88.6178C166.363 88.3381 159.95 94.8492 159.651 103.161C159.352 111.472 165.28 118.437 172.892 118.716C180.504 118.996 186.917 112.485 187.216 104.173Z" fill="white"/>
<path d="M173.031 112.218C176.373 111.819 178.758 108.786 178.359 105.444C177.959 102.102 174.926 99.7168 171.584 100.116C168.242 100.516 165.857 103.549 166.257 106.891C166.656 110.233 169.689 112.618 173.031 112.218Z" fill="black"/>
<path d="M135.498 110.826C138.84 110.426 141.225 107.393 140.826 104.051C140.426 100.709 137.393 98.3242 134.051 98.7238C130.709 99.1233 128.324 102.156 128.723 105.498C129.123 108.84 132.156 111.225 135.498 110.826Z" fill="black"/>
<path d="M122.12 90.3364C122.12 90.3364 130.925 92.9419 140.284 84.3507" stroke="black" stroke-width="3" stroke-linecap="round" stroke-linejoin="round"/>
<path d="M169.397 85.0412C169.397 85.0412 173.47 91.9005 187 90.9144" stroke="black" stroke-width="3" stroke-linecap="round" stroke-linejoin="round"/>
<path d="M148 122.999C148 122.999 152.636 122.994 158.609 125.623" stroke="black" stroke-width="3" stroke-linecap="round" stroke-linejoin="round"/>
<path d="M164.748 230C158.582 202.166 155.548 146.9 192.748 148.5C208.95 148.5 224.5 148.5 229.5 148.5" stroke="black" stroke-width="3" stroke-linecap="round"/>
<path d="M135 141.5C100.5 145 107.1 131.4 101.5 119" stroke="black" stroke-width="3" stroke-linecap="round"/>
<path d="M209 118.5C210.5 136 204 144.5 180.5 137.5" stroke="black" stroke-width="3" stroke-linecap="round"/>
<defs>
<linearGradient id="paint0_linear_1_22196" x1="154" y1="0" x2="154" y2="282" gradientUnits="userSpaceOnUse">
<stop stop-color="#FDFBFB"/>
<stop offset="1" stop-color="#F7F7F7"/>
</linearGradient>
</defs>
</svg>
