<svg width="308" height="282" viewBox="0 0 308 282" fill="none" xmlns="http://www.w3.org/2000/svg">
<path d="M0 33.7534C0 15.1119 15.1119 0 33.7534 0H274.247C292.888 0 308 15.1119 308 33.7534V248.247C308 266.888 292.888 282 274.247 282H33.7534C15.1119 282 0 266.888 0 248.247V33.7534Z" fill="url(#paint0_linear_1_22212)"/>
<path d="M36.5129 107.963C34.5375 115.407 38.433 200.015 45.3593 213.549C48.9827 220.629 80.8549 233.929 134.984 234C170.636 234 163.762 216.48 169.15 216.201C212.725 228.067 243.148 221.954 259.766 202.852C276.385 183.75 289.973 69.6481 202.139 58.5888C144.756 51.3635 106.72 69.6144 103.259 96.4561C87.4384 91.4937 39.5655 96.4595 36.5129 107.963Z" fill="#5E5BD4"/>
<path d="M223.028 149.016C223.028 149.016 218.685 155.94 224.464 160.215" stroke="black" stroke-width="3" stroke-linecap="round" stroke-linejoin="round"/>
<path d="M226.217 177.566C226.217 177.566 221.321 182.421 226.786 187.126C227.663 190.078 229.109 190.572 227.663 196.014C226.217 201.456 224.771 202.445 226.217 208.382C227.663 214.319 222.717 218.771 229.148 223.223C235.58 227.676 241.515 229.655 231.126 230.15C220.737 230.644 217.769 238.56 234.589 240.539" stroke="black" stroke-width="3" stroke-linecap="round" stroke-linejoin="round"/>
<path fill-rule="evenodd" clip-rule="evenodd" d="M216.768 176.271C216.768 176.272 216.767 176.272 215.641 175.306L216.767 176.272C216.305 176.811 215.527 176.947 214.909 176.598C214.296 176.251 214.013 175.521 214.228 174.852C214.228 174.849 214.23 174.843 214.233 174.834C214.24 174.809 214.254 174.757 214.272 174.679C214.308 174.521 214.362 174.253 214.419 173.859C214.531 173.072 214.651 171.782 214.651 169.864C214.651 168.076 214.317 166.915 214.029 166.244C213.885 165.905 213.748 165.683 213.663 165.561C213.621 165.499 213.591 165.462 213.579 165.448C213.578 165.447 213.577 165.446 213.577 165.445C213.075 164.918 213.029 164.102 213.473 163.522C213.924 162.931 214.743 162.765 215.389 163.134C217.375 164.269 218.577 165.705 219.131 167.308C219.677 168.884 219.536 170.444 219.174 171.746C218.813 173.046 218.209 174.171 217.716 174.954C217.466 175.35 217.236 175.67 217.067 175.895C216.982 176.008 216.911 176.097 216.86 176.161C216.834 176.192 216.813 176.218 216.797 176.236L216.778 176.259L216.772 176.267L216.769 176.27L216.768 176.271Z" fill="black"/>
<path d="M78 176.283C105.286 179.173 153.033 180.222 160.351 164.323C166.268 151.465 154.598 141.897 151.475 141" stroke="black" stroke-width="3" stroke-linecap="round" stroke-linejoin="round"/>
<path d="M101.86 130.715C113.336 120.381 143.61 100.474 172.903 103.515" stroke="black" stroke-width="3" stroke-linecap="round" stroke-linejoin="round"/>
<defs>
<linearGradient id="paint0_linear_1_22212" x1="154" y1="0" x2="154" y2="282" gradientUnits="userSpaceOnUse">
<stop stop-color="#FDFBFB"/>
<stop offset="1" stop-color="#F7F7F7"/>
</linearGradient>
</defs>
</svg>
