<svg width="565" height="551" viewBox="0 0 565 551" fill="none" xmlns="http://www.w3.org/2000/svg">
<path d="M253.231 503.315C204.997 503.315 163.372 496.703 129.514 483.652C98.0849 471.541 72.2873 453.464 52.8282 429.942C19.3011 389.381 3 331.489 3 252.963C3 174.437 19.8124 117.252 54.4072 75.9923C74.1069 52.4924 99.9721 34.4237 131.281 22.2826C164.944 9.23882 205.975 2.61914 253.231 2.61914C300.488 2.61914 341.527 9.23882 375.181 22.2826C406.49 34.4237 432.356 52.4924 452.055 75.9923C486.65 117.252 503.463 175.144 503.463 252.963C503.463 292.501 500.763 323.425 494.981 350.273C488.019 382.566 476.56 408.616 459.935 429.912C421.393 479.296 353.782 503.307 253.231 503.307V503.315Z" stroke="black" stroke-width="4.78977"/>
<path d="M79.9143 493.88C79.9143 493.88 58.2826 472.441 74.0742 433.461C74.0742 433.461 94.0298 402.145 127.236 397.997C160.443 393.85 192.447 381.903 263.19 308.784C333.925 235.666 340.442 221.89 384.306 227.325C428.171 232.76 417.896 247.455 440.806 240.77C463.715 234.078 488.85 193.939 518.125 204.546C582.817 227.987 565.312 324.45 553.985 366.704C542.658 408.951 538.066 411.39 538.066 411.39C538.066 411.39 570.573 445.468 530.309 472.275C490.045 499.082 461.964 479.088 446.608 493.918C431.253 508.748 437.739 527.891 413.702 539.514C375.527 557.973 349.875 529.849 313.12 535.999C276.366 542.149 252.013 555.85 197.438 549.24C103.26 537.843 79.9218 493.895 79.9218 493.895L79.9143 493.88Z" fill="#9FD67B"/>
<path d="M308.804 222.222L336.433 402.297" stroke="black" stroke-width="4.78977" stroke-linecap="round" stroke-linejoin="round"/>
<path d="M162.495 468.805L205.195 222.222" stroke="black" stroke-width="4.78977" stroke-linecap="round" stroke-linejoin="round"/>
<path d="M197.031 272.417C197.031 272.417 242.965 221.178 315.083 265.125" stroke="black" stroke-width="4.78977" stroke-linecap="round" stroke-linejoin="round"/>
<path d="M185.101 338.926C185.101 338.926 231.938 275.253 324.502 324.12" stroke="black" stroke-width="4.78977" stroke-linecap="round" stroke-linejoin="round"/>
<path d="M169.402 426.139C169.402 426.139 218.443 363.076 335.805 397.538" stroke="black" stroke-width="4.78977" stroke-linecap="round" stroke-linejoin="round"/>
<path d="M140.518 479.472C159.511 467.693 189.8 458.063 236.591 463.425" stroke="black" stroke-width="4.78977" stroke-linecap="round" stroke-linejoin="round"/>
<path d="M232.195 484.491C232.195 484.491 239.7 415.237 340.055 402.947C382.909 397.697 374.492 375.903 412.655 377.963C450.81 380.023 471.928 402.865 515.393 387.864" stroke="black" stroke-width="4.78977" stroke-linecap="round" stroke-linejoin="round"/>
<path d="M380.388 340.808C380.388 340.808 414.237 302.456 450.465 309.148C486.693 315.84 449.414 349.588 437.341 333.769C425.267 317.951 444.169 278.4 491.945 286.305C539.721 294.211 544.906 276.81 544.906 276.81" stroke="black" stroke-width="4.78977" stroke-linecap="round" stroke-linejoin="round"/>
<path d="M333.293 491.802C333.293 491.802 357.398 474.334 375.625 488.892C393.853 503.45 328.587 506.944 357.398 474.334C386.209 441.725 449.715 444.635 443.83 466.18C437.953 487.725 381.502 453.949 462.647 424.257" stroke="black" stroke-width="4.78977" stroke-linecap="round" stroke-linejoin="round"/>
<path d="M384.155 227.922C428.111 233.304 417.815 247.853 440.773 241.234C451.867 238.037 463.481 227.095 475.833 217.83" stroke="black" stroke-width="4.78977" stroke-linecap="round" stroke-linejoin="round"/>
<path d="M297.86 215.55C260.124 194.957 229.162 207.233 214.516 215.963L225.854 158.047C226.974 152.323 230.974 147.612 236.425 145.524C245.733 141.955 261.289 138.507 278.326 145.313C283.868 147.53 287.86 152.473 288.792 158.363L297.86 215.55Z" fill="#EB8742"/>
<path d="M230.687 154.187L106.374 137.448" stroke="#EB8742" stroke-width="4.78977" stroke-linecap="round" stroke-linejoin="round"/>
<path d="M218.364 200.502L119.186 265.209" stroke="#EB8742" stroke-width="4.78977" stroke-linecap="round" stroke-linejoin="round"/>
<path d="M184.583 193.891L146.509 200.502" stroke="#EB8742" stroke-width="4.78977" stroke-linecap="round" stroke-linejoin="round"/>
<path d="M237.403 175.357H191.705" stroke="#EB8742" stroke-width="4.78977" stroke-linecap="round" stroke-linejoin="round"/>
<path d="M246.175 144.593L150.951 84.04" stroke="#EB8742" stroke-width="4.78977" stroke-linecap="round" stroke-linejoin="round"/>
<path d="M159.412 175.357H79.624" stroke="#EB8742" stroke-width="4.78977" stroke-linecap="round" stroke-linejoin="round"/>
<path d="M114.389 206.972L61.2393 217.55" stroke="#EB8742" stroke-width="4.78977" stroke-linecap="round" stroke-linejoin="round"/>
<path d="M146.509 116.3L102.961 99.4268" stroke="#EB8742" stroke-width="4.78977" stroke-linecap="round" stroke-linejoin="round"/>
</svg>
