<svg width="308" height="282" viewBox="0 0 308 282" fill="none" xmlns="http://www.w3.org/2000/svg">
<path d="M0 33.7534C0 15.1119 15.1119 0 33.7534 0H274.247C292.888 0 308 15.1119 308 33.7534V248.247C308 266.888 292.888 282 274.247 282H33.7534C15.1119 282 0 266.888 0 248.247V33.7534Z" fill="url(#paint0_linear_1_22107)"/>
<path d="M266.399 220.027C259.406 233.714 49.7308 237.136 39.7483 220.027C29.7658 202.918 29.4859 66.4463 99.1573 63.3159C157.5 60.6946 195.507 74.4662 199.002 101.611C214.977 96.5927 263.317 101.615 266.399 113.248C268.394 120.776 273.393 206.34 266.399 220.027Z" fill="#E14B4B"/>
<path d="M155.001 102.111C143.167 125.278 128.801 172.511 166.001 176.111C203.201 179.711 231.167 173.611 240.5 170.111" stroke="black" stroke-width="3" stroke-linecap="round" stroke-linejoin="round"/>
<path d="M122.5 94.1113C147.667 111.278 194.4 155.411 180 194.611" stroke="black" stroke-width="3" stroke-linecap="round" stroke-linejoin="round"/>
<path d="M142 230.111C167 227 214 215.5 199 151.611" stroke="black" stroke-width="3" stroke-linecap="round" stroke-linejoin="round"/>
<path d="M84.1351 175.934C75.6855 174.776 67.9716 180.111 66.9057 187.849C65.8397 195.587 71.8253 202.798 80.2749 203.955C88.7245 205.113 96.4384 199.778 97.5043 192.04C98.5703 184.302 92.5847 177.091 84.1351 175.934Z" fill="white"/>
<path d="M89.3246 138.208C80.875 137.051 73.1611 142.385 72.0951 150.123C71.0292 157.861 77.0148 165.072 85.4644 166.23C93.9139 167.387 101.628 162.052 102.694 154.314C103.76 146.577 97.7741 139.366 89.3246 138.208Z" fill="white"/>
<path d="M69.1511 204.471C69.1511 204.471 70.6082 196.939 62.9993 189.577" stroke="black" stroke-width="3" stroke-linecap="round" stroke-linejoin="round"/>
<path d="M67.9831 147.79C67.9831 147.79 75.5689 146.76 78.4704 135.543" stroke="black" stroke-width="3" stroke-linecap="round" stroke-linejoin="round"/>
<path d="M108.716 171.158C108.716 171.158 103.88 173.536 103.055 183.667" stroke="black" stroke-width="3" stroke-linecap="round" stroke-linejoin="round"/>
<path d="M88.9217 193.669C88.8416 189.413 85.3269 186.028 81.0714 186.109C76.8159 186.189 73.4311 189.703 73.5112 193.959C73.5913 198.214 77.106 201.599 81.3615 201.519C85.617 201.439 89.0018 197.924 88.9217 193.669Z" fill="black"/>
<path d="M94.5564 155.316C94.4763 151.061 90.9616 147.676 86.7061 147.756C82.4507 147.836 79.0658 151.351 79.146 155.606C79.2261 159.862 82.7408 163.247 86.9963 163.166C91.2517 163.086 94.6365 159.572 94.5564 155.316Z" fill="black"/>
<defs>
<linearGradient id="paint0_linear_1_22107" x1="154" y1="0" x2="154" y2="282" gradientUnits="userSpaceOnUse">
<stop stop-color="#FDFBFB"/>
<stop offset="1" stop-color="#F7F7F7"/>
</linearGradient>
</defs>
</svg>
