<svg width="308" height="282" viewBox="0 0 308 282" fill="none" xmlns="http://www.w3.org/2000/svg">
<path d="M0 33.7534C0 15.1119 15.1119 0 33.7534 0H274.247C292.888 0 308 15.1119 308 33.7534V248.247C308 266.888 292.888 282 274.247 282H33.7534C15.1119 282 0 266.888 0 248.247V33.7534Z" fill="url(#paint0_linear_1_22136)"/>
<path d="M52.2212 26.2949C21.4696 49.8868 64.9811 112.743 89.7728 136.281C113.351 125.238 156.091 96.1024 138.422 67.9036C116.336 32.655 90.6608 -3.19495 52.2212 26.2949Z" fill="#2C1F41"/>
<path d="M89.7652 58.5754C90.0778 58.3724 91.3314 57.2919 93.845 54.5935C92.7887 53.0697 89.8027 50.9826 84.9774 51.8086C82.6158 52.2843 80.4606 53.2852 79.6531 53.6769C72.3124 57.2381 74.202 65.0763 75.4755 65.7205C77.2602 66.6232 79.5413 64.5914 80.332 64.1669L80.9338 60.5769L85.0766 61.6195L86.1193 57.4767L89.7652 58.5754Z" fill="white"/>
<path d="M73.2826 49.3349C72.4797 45.626 58.253 44.1766 56.8797 47.5472C55.5063 50.9187 57.7846 57.7046 59.6103 59.4125C61.436 61.1203 74.2862 53.9709 73.2826 49.3349Z" fill="white"/>
<path d="M81.3616 46.3346C78.0527 44.4768 80.8502 30.4527 84.4756 30.1311C88.1018 29.8097 93.918 33.9824 95.0136 36.2295C96.1092 38.4767 85.4976 48.6569 81.3616 46.3346Z" fill="white"/>
<path d="M249 225.874C243.942 133.689 249 46 155.155 46C31.5271 46 62.4341 205.076 62.4341 223.626C62.4341 242.175 127.057 234.306 146.164 234.306H173.698C205.728 234.306 249 241.613 249 225.874Z" fill="#A44BE1"/>
<path d="M139.12 99.7495C140.645 89.9914 134.636 80.9435 125.7 79.5406C116.764 78.1377 108.284 84.911 106.76 94.6692C105.236 104.427 111.244 113.475 120.18 114.878C129.116 116.281 137.596 109.508 139.12 99.7495Z" fill="white"/>
<path d="M182.689 106.581C184.213 96.8224 178.205 87.7746 169.268 86.3717C160.332 84.9688 151.852 91.7421 150.328 101.5C148.804 111.258 154.813 120.306 163.749 121.709C172.685 123.112 181.165 116.339 182.689 106.581Z" fill="white"/>
<path d="M116.5 92C118.433 92 120 90.433 120 88.5C120 86.567 118.433 85 116.5 85C114.567 85 113 86.567 113 88.5C113 90.433 114.567 92 116.5 92Z" fill="black"/>
<path d="M161 100C163.209 100 165 98.2091 165 96C165 93.7909 163.209 92 161 92C158.791 92 157 93.7909 157 96C157 98.2091 158.791 100 161 100Z" fill="black"/>
<path d="M129.222 120.688C130.5 119.317 131.247 118.963 132.448 118.732L134.449 118.466C135.518 118.37 137.012 118.299 138.737 118.4C142.156 118.6 146.713 119.495 150.565 122.427C151.486 123.128 153.028 124.706 153.028 125.976C153.028 127.246 154.568 135.347 150.565 137C146.563 138.653 129.278 136.347 126.5 132.5C123.722 128.653 128 122 129.222 120.688Z" fill="black"/>
<path d="M112.641 72.8771C112.641 72.8771 119.873 75.4338 128.282 68.9995" stroke="black" stroke-width="3" stroke-linecap="round" stroke-linejoin="round"/>
<path d="M172.074 74.9999C172.074 74.9999 172.95 82.6052 184.106 85.7347" stroke="black" stroke-width="3" stroke-linecap="round" stroke-linejoin="round"/>
<path d="M155.5 233.5V188" stroke="black" stroke-width="3" stroke-linecap="round" stroke-linejoin="round"/>
<path d="M95.7794 109.139C96.6945 117.094 107.224 141.324 85.9634 164.436" stroke="black" stroke-width="3" stroke-linecap="round" stroke-linejoin="round"/>
<path d="M190.871 172.428C179.785 146.025 181.973 137.796 191.074 115" stroke="black" stroke-width="3" stroke-linecap="round"/>
<path d="M256.501 161C262.901 182.2 271.002 217.883 248.501 222.383C226.501 226.784 191.648 164.79 207.501 152.383C219.001 143.383 248.501 134.5 256.501 161Z" fill="#2C1F41"/>
<defs>
<linearGradient id="paint0_linear_1_22136" x1="154" y1="0" x2="154" y2="282" gradientUnits="userSpaceOnUse">
<stop stop-color="#FDFBFB"/>
<stop offset="1" stop-color="#F7F7F7"/>
</linearGradient>
</defs>
</svg>
