<svg width="308" height="282" viewBox="0 0 308 282" fill="none" xmlns="http://www.w3.org/2000/svg">
<path d="M0 33.7534C0 15.1119 15.1119 0 33.7534 0H274.247C292.888 0 308 15.1119 308 33.7534V248.247C308 266.888 292.888 282 274.247 282H33.7534C15.1119 282 0 266.888 0 248.247V33.7534Z" fill="url(#paint0_linear_1_22122)"/>
<path d="M153.996 55C244.157 55 237.844 151.278 237.844 153.138C237.844 154.998 262.873 150.347 269.961 156.394C277.049 162.44 272.379 199.57 273.635 222.322C273.635 236.963 201.323 230.166 171.349 230.166H145.582L103.785 231.742C89.7481 231.742 42.8635 234.067 38.7459 224.765C33.5989 213.138 28.9199 151.845 38.7459 150.45C43.0134 149.844 53.3577 149.759 64.0444 149.882C64.7798 101.441 79.0176 55 153.996 55Z" fill="#0075E2"/>
<path d="M147.3 113.776C147.599 105.464 141.671 98.5 134.059 98.2203C126.447 97.9407 120.034 104.452 119.735 112.763C119.436 121.075 125.364 128.039 132.976 128.319C140.588 128.598 147.001 122.087 147.3 113.776Z" fill="white"/>
<path d="M184.41 115.131C184.708 106.82 178.78 99.8554 171.168 99.5758C163.556 99.2962 157.143 105.807 156.844 114.119C156.545 122.43 162.473 129.395 170.086 129.674C177.698 129.954 184.111 123.443 184.41 115.131Z" fill="white"/>
<path d="M170.738 127.729C174.08 127.33 176.465 124.297 176.066 120.955C175.666 117.613 172.633 115.228 169.291 115.627C165.949 116.027 163.564 119.06 163.964 122.402C164.363 125.744 167.396 128.129 170.738 127.729Z" fill="black"/>
<path d="M133.205 126.337C136.547 125.937 138.932 122.904 138.533 119.562C138.133 116.22 135.1 113.835 131.758 114.235C128.416 114.634 126.031 117.667 126.431 121.009C126.83 124.351 129.863 126.736 133.205 126.337Z" fill="black"/>
<path d="M120.216 100.797C120.216 100.797 127.426 102.791 135.167 95.9583" stroke="black" stroke-width="3" stroke-linecap="round" stroke-linejoin="round"/>
<path d="M169.59 96.9992C169.59 96.9992 172.985 103.648 184.244 102.701" stroke="black" stroke-width="3" stroke-linecap="round" stroke-linejoin="round"/>
<path d="M139.999 135.049C139.999 135.049 145.254 136.126 151 139.33" stroke="black" stroke-width="3" stroke-linecap="round" stroke-linejoin="round"/>
<path d="M91.4183 143C83.2101 162.063 77.899 178.682 91.4183 196.278C104.938 213.874 101.558 222.184 80.3137 226.094C59.069 230.004 62.4488 238.314 96.2472 236.848C130.046 235.381 129.563 250.045 83.2108 252" stroke="black" stroke-width="3" stroke-linecap="round"/>
<path d="M199.047 145C198.397 148.726 198.657 159.288 204.896 171.729C212.694 187.28 220.978 190.682 204.896 201.86C188.813 213.037 178.089 222.757 204.896 225.673C231.702 228.589 253.148 237.822 220.493 238.794C187.839 239.766 155.672 246.57 186.377 249" stroke="black" stroke-width="3" stroke-linecap="round"/>
<defs>
<linearGradient id="paint0_linear_1_22122" x1="154" y1="0" x2="154" y2="282" gradientUnits="userSpaceOnUse">
<stop stop-color="#FDFBFB"/>
<stop offset="1" stop-color="#F7F7F7"/>
</linearGradient>
</defs>
</svg>
