<svg width="1280" height="520" viewBox="0 0 1280 520" fill="none" xmlns="http://www.w3.org/2000/svg">
<path d="M1220.65 93.7497C1220.65 93.7497 1211.54 48 1232.79 48C1254.04 48 1254.04 88.4081 1254.04 88.4081C1254.04 88.4081 1278.32 45.7145 1306.39 65.5398C1334.47 85.3651 1279.07 106.823 1279.07 106.823C1279.07 106.823 1352.68 101.377 1336.74 136.065C1320.81 170.752 1278.85 136.065 1278.85 136.065C1278.85 136.065 1310.18 167.513 1270.73 181.331C1231.28 195.149 1236.59 144.07 1236.59 144.07C1236.59 144.07 1218.38 199.537 1184.99 181.331C1151.6 163.125 1205.47 131.702 1205.47 131.702C1205.47 131.702 1152.37 141.537 1162.22 116.5C1172.07 91.4641 1220.64 93.7497 1220.64 93.7497H1220.65Z" fill="#FB812C"/>
<path d="M59.3299 58.313C59.3299 58.313 89.4188 79.9988 64.4997 88.4995C39.5806 97.0003 33.6389 55.6271 33.6389 55.6271C33.6389 55.6271 10.323 96.5887 -6.50019 76.5001C-23.3234 56.4116 18.783 37.1742 18.783 37.1742C18.783 37.1742 -39.5749 35.2841 -21 13C-2.42507 -9.28406 24.6914 15.7763 24.6914 15.7763C24.6914 15.7763 7.75392 -13.4778 39.5801 -15.8094C71.4062 -18.1409 57.4571 18.264 57.4571 18.264C57.4571 18.264 81.7931 -18.8064 102.858 1.14579C123.922 21.098 77.99 33.4858 77.99 33.4858C77.99 33.4858 119.115 36.7763 106.925 53.1861C94.7353 69.596 59.3395 58.3156 59.3395 58.3156L59.3299 58.313Z" fill="#FB812C"/>
<path d="M1233.58 330.73C1233.58 330.73 1226.62 296 1242.85 296C1259.09 296 1259.09 326.675 1259.09 326.675C1259.09 326.675 1277.64 294.265 1299.09 309.315C1320.54 324.365 1278.21 340.654 1278.21 340.654C1278.21 340.654 1334.45 336.52 1322.27 362.852C1310.1 389.184 1278.05 362.852 1278.05 362.852C1278.05 362.852 1301.98 386.725 1271.84 397.215C1241.7 407.704 1245.75 368.929 1245.75 368.929C1245.75 368.929 1231.84 411.035 1206.33 397.215C1180.82 383.394 1221.98 359.541 1221.98 359.541C1221.98 359.541 1181.4 367.006 1188.93 348C1196.46 328.995 1233.57 330.73 1233.57 330.73H1233.58Z" fill="#FB812C"/>
<path d="M463.496 508.571C460.135 539.356 410.331 522.453 360.925 522.453C342.666 521.793 276.678 538.508 270.67 516.899C260.392 479.934 267.734 440.715 286.279 443.966C297.915 446.005 282.738 373.215 314.227 356.718C353.38 336.206 377.361 339.626 412.598 351.834C446.84 363.698 429.127 444.5 444.163 443.966C459.2 443.432 468.879 459.273 463.496 508.571Z" fill="#8FD86F"/>
<path d="M342 395C342 395 350.322 401.435 357.824 395" stroke="black" stroke-width="3" stroke-linecap="round" stroke-linejoin="round"/>
<path d="M373.324 395C373.324 395 379.322 401.435 389.325 395" stroke="black" stroke-width="3" stroke-linecap="round" stroke-linejoin="round"/>
<path d="M352.362 407.114C352.362 407.114 359.405 412.906 376.298 407.346" stroke="black" stroke-width="3" stroke-linecap="round" stroke-linejoin="round"/>
<path d="M579.186 15.2509C581.839 -8.91406 621.131 4.35417 660.11 4.35417C674.515 4.87187 726.575 -8.24811 731.316 8.7135C739.425 37.729 733.632 68.5137 719.001 65.9624C709.821 64.3616 721.794 121.498 696.951 134.447C666.062 150.548 647.143 147.864 619.342 138.281C592.327 128.968 606.302 65.5433 594.439 65.9624C582.576 66.3815 574.939 53.947 579.186 15.2509Z" fill="#8FD86F"/>
<path d="M660.64 102.39C660.357 110.257 665.968 116.849 673.173 117.114C680.379 117.379 686.449 111.216 686.732 103.348C687.015 95.4812 681.403 88.8889 674.198 88.6242C666.993 88.3595 660.923 94.5226 660.64 102.39Z" fill="white"/>
<path d="M625.513 101.107C625.23 108.974 630.841 115.566 638.046 115.831C645.252 116.096 651.322 109.932 651.605 102.065C651.888 94.198 646.276 87.6057 639.071 87.341C631.866 87.0763 625.796 93.2394 625.513 101.107Z" fill="white"/>
<path d="M636.727 102.685C633.564 103.063 631.306 105.934 631.684 109.097C632.062 112.26 634.933 114.518 638.097 114.14C641.26 113.762 643.518 110.891 643.139 107.727C642.761 104.564 639.89 102.306 636.727 102.685Z" fill="black"/>
<path d="M672.254 104.001C669.091 104.379 666.833 107.25 667.211 110.413C667.59 113.577 670.461 115.835 673.624 115.456C676.787 115.078 679.045 112.207 678.667 109.044C678.289 105.881 675.418 103.623 672.254 104.001Z" fill="black"/>
<path d="M628.713 120.898C628.713 120.898 634.245 125.316 643.525 122.251" stroke="black" stroke-width="3" stroke-linecap="round" stroke-linejoin="round"/>
<path d="M667.344 123.228C667.344 123.228 673.104 127.321 682.137 121.595" stroke="black" stroke-width="3" stroke-linecap="round" stroke-linejoin="round"/>
<circle cx="659" cy="86" r="4" transform="rotate(-180 659 86)" fill="black"/>
<path d="M360.271 522C369.61 477.369 353.881 446.471 329.797 445C314.068 445 297.192 445.49 289 445" stroke="black" stroke-width="3" stroke-linecap="round"/>
<path d="M660.176 5C652.73 39.7771 665.27 63.8535 684.473 65C697.014 65 710.468 64.6178 717 65" stroke="black" stroke-width="3" stroke-linecap="round"/>
<path d="M375.666 523C369.635 495.69 366.668 441.463 403.053 443.033C418.9 443.033 434.109 443.033 439 443.033" stroke="black" stroke-width="3" stroke-linecap="round"/>
<path d="M648.155 4C652.836 25.5064 655.139 68.21 626.899 66.9737C614.6 66.9737 602.796 66.9737 599 66.9737" stroke="black" stroke-width="3" stroke-linecap="round"/>
<path d="M179.254 539.404C193.228 441.576 217.428 357.11 118.235 337.304C-1.8976 313.318 -8.70215 481.629 -12.5897 501.099C-16.4772 520.569 49.0709 529.025 69.267 533.058C74.9767 534.198 84.798 502.535 88.7622 503.326C92.6327 504.099 90.6181 537.321 98.3706 538.869C132.226 545.628 175.956 555.924 179.254 539.404Z" fill="#A44BE1"/>
<path d="M109.071 389.044C113.15 378.282 108.468 366.523 98.6143 362.779C88.7603 359.035 77.4651 364.725 73.386 375.488C69.3068 386.25 73.9883 398.009 83.8424 401.753C93.6964 405.497 104.992 399.807 109.071 389.044Z" fill="white"/>
<path d="M157.114 407.287C161.193 396.524 156.511 384.765 146.657 381.021C136.803 377.278 125.508 382.967 121.429 393.73C117.35 404.492 122.031 416.252 131.885 419.995C141.739 423.739 153.034 418.049 157.114 407.287Z" fill="white"/>
<path d="M136.835 402.719C141.393 403.677 145.866 400.76 146.824 396.202C147.783 391.644 144.866 387.172 140.308 386.213C135.75 385.254 131.277 388.172 130.319 392.729C129.36 397.287 132.277 401.76 136.835 402.719Z" fill="black"/>
<path d="M88.2533 384.242C92.8113 385.201 97.2836 382.283 98.2424 377.725C99.2012 373.167 96.2836 368.695 91.7256 367.736C87.1676 366.777 82.6954 369.695 81.7365 374.253C80.7777 378.811 83.6954 383.283 88.2533 384.242Z" fill="black"/>
<path d="M-9.43411 315.661C88.2701 300.847 176.127 299.675 166.503 198.983C154.848 77.0351 -8.28241 119.029 -28.0468 120.918C-47.8111 122.807 -37.0164 188.011 -35.057 208.512C-34.5031 214.308 -1.35313 214.587 -0.968527 218.611C-0.593011 222.54 -32.9855 230.186 -32.2334 238.055C-28.9488 272.422 -26.2039 317.264 -9.43411 315.661Z" fill="#A44BE1"/>
<path d="M101.018 215.475C89.5087 215.522 80.2068 224.105 80.2418 234.647C80.2768 245.188 89.6354 253.695 101.145 253.648C112.654 253.601 121.956 245.017 121.921 234.476C121.886 223.935 112.527 215.428 101.018 215.475Z" fill="white"/>
<path d="M180.517 -79.0429C139.508 10.8672 92.4583 85.0734 182.033 132.062C290.516 188.97 344.534 29.4174 353.758 11.8353C362.981 -5.7468 302.482 -32.354 284.244 -41.9211C279.088 -44.6258 260.732 -17.0206 257.152 -18.8985C253.657 -20.7319 264.963 -52.0353 257.963 -55.7077C227.39 -71.7453 188.342 -93.9611 180.517 -79.0429Z" fill="#A44BE1"/>
<path d="M219.393 87.2858C214.625 97.7611 218.534 109.799 228.125 114.174C237.716 118.548 249.356 113.603 254.124 103.127C258.892 92.6521 254.983 80.6139 245.392 76.2394C235.802 71.8648 224.162 76.8105 219.393 87.2858Z" fill="white"/>
<path d="M100.838 164.084C89.329 164.131 80.0271 172.715 80.0621 183.256C80.0971 193.797 89.4557 202.304 100.965 202.257C112.474 202.21 121.776 193.627 121.741 183.085C121.706 172.544 112.348 164.037 100.838 164.084Z" fill="white"/>
<path d="M1344.61 514.32C1334.13 529.302 1020.06 533.048 1005.11 514.32C990.159 495.591 990.043 349.515 1094.1 342.772C1222.45 334.454 1238.42 395.456 1243.65 425.171C1267.58 419.677 1339.99 425.175 1344.61 437.909C1347.59 446.15 1355.08 499.337 1344.61 514.32Z" fill="#8FD86F"/>
<path d="M1042 494C1010.5 473.501 1035.5 418.001 1042 443.001" stroke="black" stroke-width="3" stroke-linecap="round"/>
<path d="M1146 491C1174 466.999 1139.8 418.59 1134.19 434.475" stroke="black" stroke-width="3" stroke-linecap="round"/>
<path d="M1050 420.475C1050 420.475 1063.47 430.89 1075.61 420.475" stroke="black" stroke-width="3" stroke-linecap="round" stroke-linejoin="round"/>
<path d="M1100.7 420.474C1100.7 420.474 1110.41 430.889 1126.6 420.474" stroke="black" stroke-width="3" stroke-linecap="round" stroke-linejoin="round"/>
<path d="M1076.17 440.207C1076.17 440.207 1083.5 446.5 1094.5 440.207" stroke="black" stroke-width="3" stroke-linecap="round" stroke-linejoin="round"/>
<path d="M172.634 65.9674C167.865 76.4427 171.775 88.4809 181.365 92.8554C190.956 97.2299 202.596 92.2843 207.364 81.809C212.133 71.3337 208.223 59.2955 198.633 54.921C189.042 50.5465 177.402 55.4921 172.634 65.9674Z" fill="white"/>
<path d="M108.991 187.328C108.253 182.729 103.927 179.599 99.3278 180.336C94.7288 181.074 91.5986 185.4 92.3363 189.999C93.0739 194.598 97.4001 197.728 101.999 196.991C106.598 196.253 109.728 191.927 108.991 187.328Z" fill="black"/>
<path d="M872.49 3.48712C881.21 -8.9041 1142.63 -12.0018 1155.08 3.48709C1167.53 18.976 1167.62 139.785 1081.01 145.362C974.173 152.24 960.878 101.79 956.521 77.2153C936.603 81.7586 876.333 77.2122 872.49 66.6804C870.003 59.865 863.769 15.8783 872.49 3.48712Z" fill="#FB812C"/>
<path d="M1066.3 79.489C1065.76 90.9862 1073.87 100.708 1084.4 101.203C1094.93 101.698 1103.9 92.7795 1104.43 81.2824C1104.96 69.7852 1096.85 60.0634 1086.33 59.5682C1075.8 59.073 1066.83 67.9918 1066.3 79.489Z" fill="white"/>
<path d="M1014.96 77.0847C1014.43 88.5819 1022.54 98.3037 1033.07 98.7989C1043.59 99.2941 1052.56 90.3752 1053.09 78.878C1053.63 67.3809 1045.52 57.6591 1034.99 57.1639C1024.46 56.6687 1015.49 65.5875 1014.96 77.0847Z" fill="white"/>
<path d="M1027.26 69.8253C1022.63 70.3307 1019.28 74.494 1019.79 79.1242C1020.3 83.7544 1024.46 87.0983 1029.09 86.5929C1033.72 86.0874 1037.06 81.9242 1036.56 77.294C1036.05 72.6637 1031.89 69.3199 1027.26 69.8253Z" fill="black"/>
<path d="M1079.18 72.2863C1074.55 72.7917 1071.2 76.9549 1071.71 81.5852C1072.21 86.2154 1076.38 89.5592 1081.01 89.0538C1085.64 88.5484 1088.98 84.3851 1088.48 79.7549C1087.97 75.1247 1083.81 71.7809 1079.18 72.2863Z" fill="black"/>
<path d="M1068.09 55.8027C1066.37 54.5893 1061.43 52.9137 1055.51 55.919" stroke="black" stroke-width="3" stroke-linecap="round"/>
<path d="M1017.25 99C1018.73 101.988 1024.31 108.047 1034.83 108.379" stroke="black" stroke-width="3" stroke-linecap="round"/>
<path d="M1080.62 110.379C1083.75 111.512 1091.98 112.017 1099.8 104.975" stroke="black" stroke-width="3" stroke-linecap="round"/>
<path d="M186.658 72.2677C182.172 71.0154 177.52 73.637 176.268 78.1232C175.015 82.6095 177.637 87.2615 182.123 88.5138C186.609 89.7661 191.261 87.1444 192.514 82.6582C193.766 78.172 191.144 73.52 186.658 72.2677Z" fill="black"/>
<path d="M109.143 239.304C108.405 234.705 104.079 231.575 99.4801 232.313C94.8812 233.05 91.7509 237.377 92.4886 241.976C93.2262 246.575 97.5524 249.705 102.151 248.967C106.75 248.229 109.881 243.903 109.143 239.304Z" fill="black"/>
<path d="M654.658 515.17C663.706 527.966 934.944 531.165 947.858 515.17C960.771 499.175 960.872 374.418 871.005 368.659C760.159 361.556 746.365 413.654 741.845 439.033C721.179 434.341 658.645 439.036 654.658 449.912C652.078 456.95 645.611 502.374 654.658 515.17Z" fill="#8FD86F"/>
<path d="M862.094 439.48C862.626 427.983 854.521 418.261 843.991 417.766C833.462 417.27 824.495 426.189 823.963 437.686C823.431 449.184 831.536 458.905 842.065 459.401C852.595 459.896 861.562 450.977 862.094 439.48Z" fill="white"/>
<path d="M913.428 441.884C913.96 430.387 905.855 420.665 895.325 420.17C884.796 419.675 875.829 428.594 875.297 440.091C874.765 451.588 882.87 461.31 893.399 461.805C903.929 462.3 912.896 453.381 913.428 441.884Z" fill="white"/>
<path d="M901.132 449.143C905.762 448.638 909.106 444.475 908.601 439.845C908.095 435.214 903.932 431.87 899.302 432.376C894.672 432.881 891.328 437.045 891.833 441.675C892.339 446.305 896.502 449.649 901.132 449.143Z" fill="black"/>
<path d="M849.214 446.682C853.844 446.177 857.188 442.014 856.683 437.384C856.177 432.753 852.014 429.41 847.384 429.915C842.754 430.42 839.41 434.584 839.915 439.214C840.421 443.844 844.584 447.188 849.214 446.682Z" fill="black"/>
<path d="M860.297 463.166C862.023 464.379 866.956 466.055 872.884 463.05" stroke="black" stroke-width="3" stroke-linecap="round"/>
<path d="M911.141 428.658C909.663 425.67 904.078 419.611 893.561 419.279" stroke="black" stroke-width="3" stroke-linecap="round"/>
<path d="M847.771 417.279C844.637 416.146 836.412 415.641 828.593 422.683" stroke="black" stroke-width="3" stroke-linecap="round"/>
<path d="M233.939 93.8556C229.453 92.6033 224.801 95.2249 223.549 99.7111C222.296 104.197 224.918 108.849 229.404 110.102C233.891 111.354 238.543 108.732 239.795 104.246C241.047 99.7599 238.426 95.1079 233.939 93.8556Z" fill="black"/>
<ellipse cx="1242" cy="116.5" rx="20" ry="20.5" fill="#F7F7F7"/>
<ellipse cx="48.0658" cy="36.8978" rx="15" ry="15.5" transform="rotate(-165 48.0658 36.8978)" fill="#F7F7F7"/>
<ellipse cx="1250" cy="348.5" rx="15" ry="15.5" fill="#F7F7F7"/>
<path d="M719.95 444.381C719.95 444.381 697.141 447.275 697.754 437.296C698.367 427.318 718.28 428.54 718.28 428.54C718.28 428.54 705.091 418.383 713.003 408.962C719.93 401.682 728.077 417.343 728.077 417.343C728.077 417.343 722.751 398.763 736.542 396.464C749.411 394.319 742.482 418.331 742.482 418.331C742.482 418.331 757.77 408.087 764.686 421.612C770.577 433.134 745.209 438.421 745.209 438.421C745.209 438.421 772.314 443.831 762.379 458.96C752.445 474.088 738.216 452.658 738.216 452.658C738.216 452.658 730.644 471.929 718.589 466.545C706.535 461.161 719.95 444.387 719.95 444.387L719.95 444.381Z" fill="#FB812C"/>
<circle cx="731.312" cy="434.471" r="9.5" transform="rotate(-86.4866 731.312 434.471)" fill="#F7F7F7"/>
<path d="M306 400C304.166 410.333 307.7 431.7 336.5 434.5" stroke="black" stroke-width="3" stroke-linecap="round"/>
<path d="M422.1 400C423.933 410.333 420.4 431.7 391.6 434.5" stroke="black" stroke-width="3" stroke-linecap="round"/>
<path d="M149.5 50.5C127.667 57 77.7 84.2 52.5 141" stroke="black" stroke-width="3" stroke-linecap="round"/>
<path d="M29.5005 292.5C21.5005 315.833 12.3005 373.6 39.5005 418M164.001 452.5C177.834 451.333 209.301 446.3 224.501 435.5" stroke="black" stroke-width="3" stroke-linecap="round"/>
<path d="M282 82C290.833 91.6667 309.8 119.1 315 151.5" stroke="black" stroke-width="3" stroke-linecap="round"/>
<path d="M695.5 79C711.5 86.8333 750.5 73.5 732.5 47" stroke="black" stroke-width="3" stroke-linecap="round"/>
<path d="M616.5 79C600.5 86.8333 572 78 579 51.5" stroke="black" stroke-width="3" stroke-linecap="round"/>
<path d="M100 411C101.263 412.69 105.432 415.816 112 414.802" stroke="black" stroke-width="3" stroke-linecap="round"/>
<path d="M165.322 384.482C164.846 381.183 161.422 373.689 151.529 370.104" stroke="black" stroke-width="3" stroke-linecap="round"/>
<path d="M104.846 355.889C102.218 353.837 94.5582 350.801 84.9379 355.063" stroke="black" stroke-width="3" stroke-linecap="round"/>
<path d="M78.7891 199.4C77.5943 201.139 75.9722 206.091 79.0414 211.986" stroke="black" stroke-width="3" stroke-linecap="round"/>
<path d="M230.631 65.498C229.439 63.7569 225.405 60.4593 218.8 61.1976" stroke="black" stroke-width="3" stroke-linecap="round"/>
<path d="M124.875 252.75C127.847 251.24 133.845 245.59 134.063 235.07" stroke="black" stroke-width="3" stroke-linecap="round"/>
<path d="M164.258 89.2617C164.595 92.5779 167.704 100.209 177.438 104.204" stroke="black" stroke-width="3" stroke-linecap="round"/>
<path d="M132.535 186.293C133.634 183.146 134.051 174.917 126.925 167.174" stroke="black" stroke-width="3" stroke-linecap="round"/>
<path d="M223.488 120.357C226.028 122.517 233.554 125.871 243.344 122.014" stroke="black" stroke-width="3" stroke-linecap="round"/>
<path d="M910.385 461.309C922.824 447.271 931.446 452.875 941 471.999C946.599 483.6 933.332 491.167 925.999 493.5" stroke="black" stroke-width="3" stroke-linecap="round"/>
<path d="M827.425 460.036C816.374 450.621 810.061 466.338 802.013 483.549C796.803 492.71 808.167 501.333 814.5 504.5" stroke="black" stroke-width="3" stroke-linecap="round"/>
<g filter="url(#filter0_f_1_22685)">
<ellipse cx="650" cy="260" rx="553" ry="177" fill="#F7F7F7"/>
</g>
<defs>
<filter id="filter0_f_1_22685" x="22.4" y="8.4" width="1255.2" height="503.2" filterUnits="userSpaceOnUse" color-interpolation-filters="sRGB">
<feFlood flood-opacity="0" result="BackgroundImageFix"/>
<feBlend mode="normal" in="SourceGraphic" in2="BackgroundImageFix" result="shape"/>
<feGaussianBlur stdDeviation="37.3" result="effect1_foregroundBlur_1_22685"/>
</filter>
</defs>
</svg>
