<svg width="320" height="520" viewBox="0 0 320 520" fill="none" xmlns="http://www.w3.org/2000/svg">
<path d="M-30.3419 515.17C-21.2945 527.966 249.944 531.165 262.858 515.17C275.771 499.175 275.872 374.418 186.005 368.659C75.1587 361.556 61.3652 413.654 56.8445 439.033C36.1788 434.341 -26.3545 439.036 -30.3419 449.912C-32.9223 456.95 -39.3894 502.374 -30.3419 515.17Z" fill="#8FD86F"/>
<path d="M177.094 439.48C177.626 427.983 169.521 418.261 158.991 417.766C148.462 417.27 139.495 426.189 138.963 437.686C138.431 449.184 146.536 458.905 157.065 459.401C167.595 459.896 176.562 450.977 177.094 439.48Z" fill="white"/>
<path d="M228.426 441.884C228.958 430.387 220.853 420.665 210.323 420.17C199.794 419.675 190.827 428.594 190.295 440.091C189.763 451.588 197.868 461.31 208.397 461.805C218.927 462.3 227.894 453.381 228.426 441.884Z" fill="white"/>
<path d="M216.132 449.143C220.762 448.638 224.106 444.475 223.601 439.845C223.095 435.214 218.932 431.87 214.302 432.376C209.672 432.881 206.328 437.045 206.833 441.675C207.339 446.305 211.502 449.649 216.132 449.143Z" fill="black"/>
<path d="M164.214 446.682C168.844 446.177 172.188 442.014 171.683 437.384C171.177 432.753 167.014 429.41 162.384 429.915C157.754 430.42 154.41 434.584 154.915 439.214C155.421 443.844 159.584 447.188 164.214 446.682Z" fill="black"/>
<path d="M175.297 463.166C177.023 464.379 181.956 466.055 187.884 463.05" stroke="black" stroke-width="3" stroke-linecap="round"/>
<path d="M226.141 428.658C224.663 425.67 219.078 419.611 208.561 419.279" stroke="black" stroke-width="3" stroke-linecap="round"/>
<path d="M162.77 417.279C159.635 416.146 151.41 415.641 143.591 422.683" stroke="black" stroke-width="3" stroke-linecap="round"/>
<path d="M34.9503 444.381C34.9503 444.381 12.1414 447.275 12.754 437.296C13.3667 427.317 33.2805 428.54 33.2805 428.54C33.2805 428.54 20.0908 418.383 28.0027 408.961C34.9295 401.681 43.0773 417.342 43.0773 417.342C43.0773 417.342 37.7511 398.763 51.5423 396.464C64.4111 394.318 57.4817 418.331 57.4817 418.331C57.4817 418.331 72.7704 408.086 79.686 421.612C85.5771 433.134 60.2086 438.421 60.2086 438.421C60.2086 438.421 87.3142 443.831 77.3794 458.959C67.4446 474.088 53.2163 452.658 53.2163 452.658C53.2163 452.658 45.6437 471.928 33.5895 466.545C21.5352 461.161 34.9499 444.387 34.9499 444.387L34.9503 444.381Z" fill="#FB812C"/>
<circle cx="46.3143" cy="434.471" r="9.5" transform="rotate(-86.4866 46.3143 434.471)" fill="#F7F7F7"/>
<path d="M225.385 461.309C237.824 447.271 246.446 452.875 256 471.999C261.599 483.6 248.332 491.167 240.999 493.5" stroke="black" stroke-width="3" stroke-linecap="round"/>
<path d="M142.423 460.036C131.372 450.621 125.059 466.338 117.011 483.549C111.801 492.71 123.165 501.333 129.498 504.5" stroke="black" stroke-width="3" stroke-linecap="round"/>
<path d="M615.606 514.32C605.13 529.302 291.064 533.048 276.112 514.32C261.159 495.591 261.043 349.515 365.099 342.772C493.448 334.454 509.419 395.456 514.654 425.171C538.582 419.677 610.989 425.175 615.606 437.909C618.594 446.15 626.082 499.337 615.606 514.32Z" fill="#8FD86F"/>
<path d="M312.998 494C281.497 473.501 306.498 418.001 312.998 443.001" stroke="black" stroke-width="3" stroke-linecap="round"/>
<path d="M321 420.475C321 420.475 334.47 430.89 346.612 420.475" stroke="black" stroke-width="3" stroke-linecap="round" stroke-linejoin="round"/>
<path d="M64.5776 347.73C64.5776 347.73 57.6165 313 73.8524 313C90.0883 313 90.0883 343.675 90.0883 343.675C90.0883 343.675 108.638 311.265 130.087 326.315C151.537 341.365 109.214 357.654 109.214 357.654C109.214 357.654 165.449 353.52 153.274 379.852C141.1 406.184 109.045 379.852 109.045 379.852C109.045 379.852 132.977 403.725 102.839 414.215C72.7005 424.704 76.752 385.929 76.752 385.929C76.752 385.929 62.8398 428.035 37.329 414.215C11.8183 400.394 52.9791 376.541 52.9791 376.541C52.9791 376.541 12.4041 384.006 19.9313 365C27.4584 345.995 64.5676 347.73 64.5676 347.73H64.5776Z" fill="#FB812C"/>
<ellipse cx="81" cy="365.5" rx="15" ry="15.5" fill="#F7F7F7"/>
<path d="M106.213 539.404C120.187 441.576 144.387 357.11 45.1937 337.304C-74.9386 313.318 -81.7432 481.629 -85.6307 501.099C-89.5182 520.569 -23.9701 529.025 -3.77403 533.058C1.93567 534.198 11.757 502.535 15.7212 503.326C19.5917 504.099 17.5771 537.321 25.3295 538.869C59.1849 545.628 102.915 555.924 106.213 539.404Z" fill="#A44BE1"/>
<path d="M36.0316 389.044C40.1108 378.282 35.4293 366.523 25.5752 362.779C15.7212 359.035 4.42608 364.725 0.346914 375.488C-3.73225 386.25 0.949231 398.009 10.8033 401.753C20.6574 405.497 31.9525 399.807 36.0316 389.044Z" fill="white"/>
<path d="M84.0746 407.287C88.1537 396.524 83.4723 384.765 73.6182 381.021C63.7642 377.278 52.469 382.967 48.3899 393.73C44.3107 404.492 48.9922 416.252 58.8463 419.995C68.7003 423.739 79.9954 418.049 84.0746 407.287Z" fill="white"/>
<path d="M63.7963 402.719C68.3543 403.677 72.8265 400.76 73.7854 396.202C74.7442 391.644 71.8265 387.172 67.2685 386.213C62.7106 385.254 58.2383 388.172 57.2795 392.729C56.3207 397.287 59.2383 401.76 63.7963 402.719Z" fill="black"/>
<path d="M15.2143 384.242C19.7722 385.201 24.2445 382.283 25.2033 377.725C26.1622 373.167 23.2445 368.695 18.6865 367.736C14.1285 366.777 9.6563 369.695 8.69747 374.253C7.73863 378.811 10.6563 383.283 15.2143 384.242Z" fill="black"/>
<path d="M-82.4751 315.661C15.2291 300.847 103.086 299.675 93.4621 198.983C81.8069 77.0351 -81.3234 119.029 -101.088 120.918C-120.852 122.807 -110.057 188.011 -108.098 208.512C-107.544 214.308 -74.3941 214.587 -74.0095 218.611C-73.634 222.54 -106.027 230.186 -105.274 238.055C-101.99 272.422 -99.2449 317.264 -82.4751 315.661Z" fill="#A44BE1"/>
<path d="M27.979 215.475C16.4696 215.522 7.16776 224.105 7.20275 234.647C7.23774 245.188 16.5963 253.695 28.1057 253.648C39.6151 253.601 48.9169 245.017 48.882 234.476C48.847 223.935 39.4884 215.428 27.979 215.475Z" fill="white"/>
<path d="M107.477 -79.0429C66.4685 10.8672 19.4193 85.0734 108.994 132.062C217.477 188.97 271.495 29.4174 280.718 11.8353C289.942 -5.7468 229.443 -32.354 211.205 -41.9211C206.049 -44.6258 187.693 -17.0206 184.113 -18.8985C180.618 -20.7319 191.924 -52.0353 184.924 -55.7077C154.351 -71.7453 115.303 -93.9611 107.477 -79.0429Z" fill="#A44BE1"/>
<path d="M146.354 87.2858C141.586 97.7611 145.495 109.799 155.086 114.174C164.677 118.548 176.317 113.603 181.085 103.127C185.853 92.6521 181.944 80.6139 172.353 76.2394C162.763 71.8648 151.123 76.8105 146.354 87.2858Z" fill="white"/>
<path d="M27.7993 164.084C16.2899 164.131 6.98808 172.715 7.02307 183.256C7.05806 193.797 16.4166 202.304 27.926 202.257C39.4354 202.21 48.7373 193.627 48.7023 183.085C48.6673 172.544 39.3087 164.037 27.7993 164.084Z" fill="white"/>
<path d="M99.5925 65.9674C94.8242 76.4427 98.7335 88.4809 108.324 92.8554C117.915 97.2299 129.555 92.2843 134.323 81.809C139.092 71.3337 135.182 59.2955 125.592 54.921C116.001 50.5465 104.361 55.4921 99.5925 65.9674Z" fill="white"/>
<path d="M35.9515 187.328C35.2138 182.729 30.8876 179.599 26.2887 180.336C21.6897 181.074 18.5595 185.4 19.2972 189.999C20.0348 194.598 24.361 197.728 28.9599 196.991C33.5589 196.253 36.6891 191.927 35.9515 187.328Z" fill="black"/>
<path d="M113.619 72.2677C109.133 71.0154 104.481 73.637 103.228 78.1232C101.976 82.6095 104.598 87.2615 109.084 88.5138C113.57 89.7661 118.222 87.1444 119.475 82.6582C120.727 78.172 118.105 73.52 113.619 72.2677Z" fill="black"/>
<path d="M36.1038 239.304C35.3662 234.705 31.04 231.575 26.441 232.313C21.8421 233.05 18.7119 237.377 19.4495 241.976C20.1872 246.575 24.5133 249.705 29.1123 248.967C33.7112 248.229 36.8414 243.903 36.1038 239.304Z" fill="black"/>
<path d="M160.9 93.8556C156.414 92.6033 151.762 95.2249 150.51 99.7111C149.257 104.197 151.879 108.849 156.365 110.102C160.851 111.354 165.503 108.732 166.756 104.246C168.008 99.7599 165.386 95.1079 160.9 93.8556Z" fill="black"/>
<path d="M76.4609 50.5C54.6276 57 4.66094 84.2 -20.5391 141" stroke="black" stroke-width="3" stroke-linecap="round"/>
<path d="M-43.5405 292.5C-51.5405 315.833 -60.7405 373.6 -33.5405 418M90.96 452.5C104.793 451.333 136.26 446.3 151.46 435.5" stroke="black" stroke-width="3" stroke-linecap="round"/>
<path d="M208.961 82C217.794 91.6667 236.761 119.1 241.961 151.5" stroke="black" stroke-width="3" stroke-linecap="round"/>
<path d="M26.9609 411C28.2241 412.69 32.3925 415.816 38.9609 414.802" stroke="black" stroke-width="3" stroke-linecap="round"/>
<path d="M92.2812 384.482C91.8055 381.183 88.3807 373.689 78.4878 370.104" stroke="black" stroke-width="3" stroke-linecap="round"/>
<path d="M31.8047 355.889C29.1772 353.837 21.5172 350.801 11.8969 355.063" stroke="black" stroke-width="3" stroke-linecap="round"/>
<path d="M5.75 199.4C4.55527 201.139 2.93311 206.091 6.00232 211.986" stroke="black" stroke-width="3" stroke-linecap="round"/>
<path d="M157.59 65.498C156.398 63.7569 152.364 60.4593 145.759 61.1976" stroke="black" stroke-width="3" stroke-linecap="round"/>
<path d="M51.8359 252.75C54.8077 251.24 60.8058 245.59 61.0242 235.07" stroke="black" stroke-width="3" stroke-linecap="round"/>
<path d="M91.2188 89.2617C91.5562 92.5779 94.6646 100.209 104.399 104.204" stroke="black" stroke-width="3" stroke-linecap="round"/>
<path d="M59.4961 186.293C60.5951 183.146 61.0115 174.917 53.8856 167.174" stroke="black" stroke-width="3" stroke-linecap="round"/>
<path d="M150.449 120.357C152.989 122.517 160.515 125.871 170.305 122.014" stroke="black" stroke-width="3" stroke-linecap="round"/>
<path d="M355.513 -124.51C367.904 -115.79 371.002 145.634 355.513 158.08C340.024 170.526 219.215 170.623 213.638 84.0085C206.76 -22.8273 257.21 -36.1217 281.785 -40.4788C277.241 -60.3968 281.788 -120.667 292.32 -124.51C299.135 -126.997 343.122 -133.231 355.513 -124.51Z" fill="#FB812C"/>
<path d="M279.511 69.2967C268.014 68.7649 258.292 76.8696 257.797 87.3992C257.302 97.9288 266.22 106.896 277.718 107.428C289.215 107.959 298.937 99.8547 299.432 89.3252C299.927 78.7956 291.008 69.8286 279.511 69.2967Z" fill="white"/>
<path d="M281.913 17.9608C270.416 17.429 260.694 25.5337 260.199 36.0633C259.704 46.5928 268.623 55.5599 280.12 56.0917C291.617 56.6235 301.339 48.5188 301.834 37.9892C302.329 27.4597 293.411 18.4926 281.913 17.9608Z" fill="white"/>
<path d="M289.173 30.2586C288.667 25.6284 284.504 22.2846 279.874 22.79C275.244 23.2954 271.9 27.4587 272.405 32.0889C272.911 36.7191 277.074 40.0629 281.704 39.5575C286.334 39.0521 289.678 34.8889 289.173 30.2586Z" fill="black"/>
<path d="M286.712 82.1766C286.206 77.5464 282.043 74.2026 277.413 74.708C272.783 75.2134 269.439 79.3766 269.944 84.0069C270.45 88.6371 274.613 91.9809 279.243 91.4755C283.873 90.9701 287.217 86.8068 286.712 82.1766Z" fill="black"/>
<path d="M303.195 71.0938C304.409 69.3679 306.084 64.4343 303.079 58.5064" stroke="black" stroke-width="3" stroke-linecap="round"/>
<path d="M260 20.25C257.012 21.7277 250.953 27.3124 250.621 37.8295" stroke="black" stroke-width="3" stroke-linecap="round"/>
<path d="M248.621 83.6172C247.488 86.7521 246.983 94.9766 254.025 102.795" stroke="black" stroke-width="3" stroke-linecap="round"/>
<path d="M366.653 168.75C366.653 168.75 357.542 123 378.792 123C400.042 123 400.042 163.408 400.042 163.408C400.042 163.408 424.32 120.714 452.394 140.54C480.467 160.365 425.074 181.823 425.074 181.823C425.074 181.823 498.676 176.377 482.741 211.065C466.807 245.752 424.853 211.065 424.853 211.065C424.853 211.065 456.176 242.513 416.73 256.331C377.284 270.149 382.587 219.07 382.587 219.07C382.587 219.07 364.379 274.537 330.989 256.331C297.6 238.125 351.473 206.702 351.473 206.702C351.473 206.702 298.367 216.537 308.219 191.5C318.071 166.464 366.64 168.75 366.64 168.75H366.653Z" fill="#FB812C"/>
<path d="M59.3299 58.3149C59.3299 58.3149 89.4188 80.0007 64.4997 88.5015C39.5806 97.0023 33.6389 55.629 33.6389 55.629C33.6389 55.629 10.323 96.5906 -6.50019 76.5021C-23.3234 56.4136 18.783 37.1762 18.783 37.1762C18.783 37.1762 -39.5749 35.286 -21 13.002C-2.42507 -9.2821 24.6914 15.7782 24.6914 15.7782C24.6914 15.7782 7.75392 -13.4759 39.5801 -15.8074C71.4062 -18.139 57.4571 18.2659 57.4571 18.2659C57.4571 18.2659 81.7931 -18.8045 102.858 1.14774C123.922 21.1 77.99 33.4877 77.99 33.4877C77.99 33.4877 119.115 36.7782 106.925 53.1881C94.7353 69.598 59.3395 58.3175 59.3395 58.3175L59.3299 58.3149Z" fill="#FB812C"/>
<ellipse cx="48.0658" cy="36.8978" rx="15" ry="15.5" transform="rotate(-165 48.0658 36.8978)" fill="#F7F7F7"/>
<g filter="url(#filter0_f_1_23453)">
<ellipse cx="159.5" cy="242" rx="180.5" ry="177" fill="#F7F7F7"/>
</g>
<defs>
<filter id="filter0_f_1_23453" x="-95.6" y="-9.6" width="510.2" height="503.2" filterUnits="userSpaceOnUse" color-interpolation-filters="sRGB">
<feFlood flood-opacity="0" result="BackgroundImageFix"/>
<feBlend mode="normal" in="SourceGraphic" in2="BackgroundImageFix" result="shape"/>
<feGaussianBlur stdDeviation="37.3" result="effect1_foregroundBlur_1_23453"/>
</filter>
</defs>
</svg>
