<svg width="688" height="520" viewBox="0 0 688 520" fill="none" xmlns="http://www.w3.org/2000/svg">
<path d="M188.658 515.17C197.706 527.966 468.944 531.165 481.858 515.17C494.771 499.175 494.872 374.418 405.005 368.659C294.159 361.556 280.365 413.654 275.845 439.033C255.179 434.341 192.645 439.036 188.658 449.912C186.078 456.95 179.611 502.374 188.658 515.17Z" fill="#8FD86F"/>
<path d="M396.094 439.48C396.626 427.983 388.521 418.261 377.991 417.766C367.462 417.27 358.495 426.189 357.963 437.686C357.431 449.184 365.536 458.905 376.065 459.401C386.595 459.896 395.562 450.977 396.094 439.48Z" fill="white"/>
<path d="M447.426 441.884C447.958 430.387 439.853 420.665 429.323 420.17C418.794 419.675 409.827 428.594 409.295 440.091C408.763 451.588 416.868 461.31 427.397 461.805C437.927 462.3 446.894 453.381 447.426 441.884Z" fill="white"/>
<path d="M435.132 449.143C439.762 448.638 443.106 444.475 442.601 439.845C442.095 435.214 437.932 431.87 433.302 432.376C428.672 432.881 425.328 437.045 425.833 441.675C426.339 446.305 430.502 449.649 435.132 449.143Z" fill="black"/>
<path d="M383.214 446.682C387.844 446.177 391.188 442.014 390.683 437.384C390.177 432.753 386.014 429.41 381.384 429.915C376.754 430.42 373.41 434.584 373.915 439.214C374.421 443.844 378.584 447.188 383.214 446.682Z" fill="black"/>
<path d="M394.297 463.166C396.023 464.379 400.956 466.055 406.884 463.05" stroke="black" stroke-width="3" stroke-linecap="round"/>
<path d="M445.141 428.658C443.663 425.67 438.078 419.611 427.561 419.279" stroke="black" stroke-width="3" stroke-linecap="round"/>
<path d="M381.77 417.279C378.635 416.146 370.41 415.641 362.591 422.683" stroke="black" stroke-width="3" stroke-linecap="round"/>
<path d="M253.95 444.381C253.95 444.381 231.141 447.275 231.754 437.296C232.367 427.317 252.28 428.54 252.28 428.54C252.28 428.54 239.091 418.383 247.003 408.961C253.93 401.681 262.077 417.342 262.077 417.342C262.077 417.342 256.751 398.763 270.542 396.464C283.411 394.318 276.482 418.331 276.482 418.331C276.482 418.331 291.77 408.086 298.686 421.612C304.577 433.134 279.209 438.421 279.209 438.421C279.209 438.421 306.314 443.831 296.379 458.959C286.445 474.088 272.216 452.658 272.216 452.658C272.216 452.658 264.644 471.928 252.589 466.545C240.535 461.161 253.95 444.387 253.95 444.387L253.95 444.381Z" fill="#FB812C"/>
<circle cx="265.314" cy="434.471" r="9.5" transform="rotate(-86.4866 265.314 434.471)" fill="#F7F7F7"/>
<path d="M444.385 461.309C456.824 447.271 465.446 452.875 475 471.999C480.599 483.6 467.332 491.167 459.999 493.5" stroke="black" stroke-width="3" stroke-linecap="round"/>
<path d="M361.423 460.036C350.372 450.621 344.059 466.338 336.011 483.549C330.801 492.71 342.165 501.333 348.498 504.5" stroke="black" stroke-width="3" stroke-linecap="round"/>
<path d="M855.606 514.32C845.13 529.302 531.064 533.048 516.112 514.32C501.159 495.591 501.043 349.515 605.099 342.772C733.448 334.454 749.419 395.456 754.654 425.171C778.582 419.677 850.989 425.175 855.606 437.909C858.594 446.15 866.082 499.337 855.606 514.32Z" fill="#8FD86F"/>
<path d="M552.998 494C521.497 473.501 546.498 418.001 552.998 443.001" stroke="black" stroke-width="3" stroke-linecap="round"/>
<path d="M656.998 491C684.998 466.999 650.798 418.59 645.188 434.475" stroke="black" stroke-width="3" stroke-linecap="round"/>
<path d="M561 420.475C561 420.475 574.47 430.89 586.612 420.475" stroke="black" stroke-width="3" stroke-linecap="round" stroke-linejoin="round"/>
<path d="M611.699 420.474C611.699 420.474 621.407 430.889 637.596 420.474" stroke="black" stroke-width="3" stroke-linecap="round" stroke-linejoin="round"/>
<path d="M587.17 440.207C587.17 440.207 594.5 446.5 605.5 440.207" stroke="black" stroke-width="3" stroke-linecap="round" stroke-linejoin="round"/>
<path d="M64.5776 347.73C64.5776 347.73 57.6165 313 73.8524 313C90.0883 313 90.0883 343.675 90.0883 343.675C90.0883 343.675 108.638 311.265 130.087 326.315C151.537 341.365 109.214 357.654 109.214 357.654C109.214 357.654 165.449 353.52 153.274 379.852C141.1 406.184 109.045 379.852 109.045 379.852C109.045 379.852 132.977 403.725 102.839 414.215C72.7005 424.704 76.752 385.929 76.752 385.929C76.752 385.929 62.8398 428.035 37.329 414.215C11.8183 400.394 52.9791 376.541 52.9791 376.541C52.9791 376.541 12.4041 384.006 19.9313 365C27.4584 345.995 64.5676 347.73 64.5676 347.73H64.5776Z" fill="#FB812C"/>
<ellipse cx="81" cy="365.5" rx="15" ry="15.5" fill="#F7F7F7"/>
<path d="M106.213 539.404C120.187 441.576 144.387 357.11 45.1937 337.304C-74.9386 313.318 -81.7432 481.629 -85.6307 501.099C-89.5182 520.569 -23.9701 529.025 -3.77403 533.058C1.93567 534.198 11.757 502.535 15.7212 503.326C19.5917 504.099 17.5771 537.321 25.3295 538.869C59.1849 545.628 102.915 555.924 106.213 539.404Z" fill="#A44BE1"/>
<path d="M36.0316 389.044C40.1108 378.282 35.4293 366.523 25.5752 362.779C15.7212 359.035 4.42608 364.725 0.346914 375.488C-3.73225 386.25 0.949231 398.009 10.8033 401.753C20.6574 405.497 31.9525 399.807 36.0316 389.044Z" fill="white"/>
<path d="M84.0746 407.287C88.1537 396.524 83.4723 384.765 73.6182 381.021C63.7642 377.278 52.469 382.967 48.3899 393.73C44.3107 404.492 48.9922 416.252 58.8463 419.995C68.7003 423.739 79.9954 418.049 84.0746 407.287Z" fill="white"/>
<path d="M63.7963 402.719C68.3543 403.677 72.8265 400.76 73.7854 396.202C74.7442 391.644 71.8265 387.172 67.2685 386.213C62.7106 385.254 58.2383 388.172 57.2795 392.729C56.3207 397.287 59.2383 401.76 63.7963 402.719Z" fill="black"/>
<path d="M15.2143 384.242C19.7722 385.201 24.2445 382.283 25.2033 377.725C26.1622 373.167 23.2445 368.695 18.6865 367.736C14.1285 366.777 9.6563 369.695 8.69747 374.253C7.73863 378.811 10.6563 383.283 15.2143 384.242Z" fill="black"/>
<path d="M-82.4751 315.661C15.2291 300.847 103.086 299.675 93.4621 198.983C81.8069 77.0351 -81.3234 119.029 -101.088 120.918C-120.852 122.807 -110.057 188.011 -108.098 208.512C-107.544 214.308 -74.3941 214.587 -74.0095 218.611C-73.634 222.54 -106.027 230.186 -105.274 238.055C-101.99 272.422 -99.2449 317.264 -82.4751 315.661Z" fill="#A44BE1"/>
<path d="M27.979 215.475C16.4696 215.522 7.16776 224.105 7.20275 234.647C7.23774 245.188 16.5963 253.695 28.1057 253.648C39.6151 253.601 48.9169 245.017 48.882 234.476C48.847 223.935 39.4884 215.428 27.979 215.475Z" fill="white"/>
<path d="M107.477 -79.0429C66.4685 10.8672 19.4193 85.0734 108.994 132.062C217.477 188.97 271.495 29.4174 280.718 11.8353C289.942 -5.7468 229.443 -32.354 211.205 -41.9211C206.049 -44.6258 187.693 -17.0206 184.113 -18.8985C180.618 -20.7319 191.924 -52.0353 184.924 -55.7077C154.351 -71.7453 115.303 -93.9611 107.477 -79.0429Z" fill="#A44BE1"/>
<path d="M146.354 87.2858C141.586 97.7611 145.495 109.799 155.086 114.174C164.677 118.548 176.317 113.603 181.085 103.127C185.853 92.6521 181.944 80.6139 172.353 76.2394C162.763 71.8648 151.123 76.8105 146.354 87.2858Z" fill="white"/>
<path d="M27.7993 164.084C16.2899 164.131 6.98808 172.715 7.02307 183.256C7.05806 193.797 16.4166 202.304 27.926 202.257C39.4354 202.21 48.7373 193.627 48.7023 183.085C48.6673 172.544 39.3087 164.037 27.7993 164.084Z" fill="white"/>
<path d="M99.5925 65.9674C94.8242 76.4427 98.7335 88.4809 108.324 92.8554C117.915 97.2299 129.555 92.2843 134.323 81.809C139.092 71.3337 135.182 59.2955 125.592 54.921C116.001 50.5465 104.361 55.4921 99.5925 65.9674Z" fill="white"/>
<path d="M35.9515 187.328C35.2138 182.729 30.8876 179.599 26.2887 180.336C21.6897 181.074 18.5595 185.4 19.2972 189.999C20.0348 194.598 24.361 197.728 28.9599 196.991C33.5589 196.253 36.6891 191.927 35.9515 187.328Z" fill="black"/>
<path d="M113.619 72.2677C109.133 71.0154 104.481 73.637 103.228 78.1232C101.976 82.6095 104.598 87.2615 109.084 88.5138C113.57 89.7661 118.222 87.1444 119.475 82.6582C120.727 78.172 118.105 73.52 113.619 72.2677Z" fill="black"/>
<path d="M36.1038 239.304C35.3662 234.705 31.04 231.575 26.441 232.313C21.8421 233.05 18.7119 237.377 19.4495 241.976C20.1872 246.575 24.5133 249.705 29.1123 248.967C33.7112 248.229 36.8414 243.903 36.1038 239.304Z" fill="black"/>
<path d="M160.9 93.8556C156.414 92.6033 151.762 95.2249 150.51 99.7111C149.257 104.197 151.879 108.849 156.365 110.102C160.851 111.354 165.503 108.732 166.756 104.246C168.008 99.7599 165.386 95.1079 160.9 93.8556Z" fill="black"/>
<path d="M76.4609 50.5C54.6276 57 4.66094 84.2 -20.5391 141" stroke="black" stroke-width="3" stroke-linecap="round"/>
<path d="M-43.5405 292.5C-51.5405 315.833 -60.7405 373.6 -33.5405 418M90.96 452.5C104.793 451.333 136.26 446.3 151.46 435.5" stroke="black" stroke-width="3" stroke-linecap="round"/>
<path d="M208.961 82C217.794 91.6667 236.761 119.1 241.961 151.5" stroke="black" stroke-width="3" stroke-linecap="round"/>
<path d="M26.9609 411C28.2241 412.69 32.3925 415.816 38.9609 414.802" stroke="black" stroke-width="3" stroke-linecap="round"/>
<path d="M92.2812 384.482C91.8055 381.183 88.3807 373.689 78.4878 370.104" stroke="black" stroke-width="3" stroke-linecap="round"/>
<path d="M31.8047 355.889C29.1772 353.837 21.5172 350.801 11.8969 355.063" stroke="black" stroke-width="3" stroke-linecap="round"/>
<path d="M5.75 199.4C4.55527 201.139 2.93311 206.091 6.00232 211.986" stroke="black" stroke-width="3" stroke-linecap="round"/>
<path d="M157.59 65.498C156.398 63.7569 152.364 60.4593 145.759 61.1976" stroke="black" stroke-width="3" stroke-linecap="round"/>
<path d="M51.8359 252.75C54.8077 251.24 60.8058 245.59 61.0242 235.07" stroke="black" stroke-width="3" stroke-linecap="round"/>
<path d="M91.2188 89.2617C91.5562 92.5779 94.6646 100.209 104.399 104.204" stroke="black" stroke-width="3" stroke-linecap="round"/>
<path d="M59.4961 186.293C60.5951 183.146 61.0115 174.917 53.8856 167.174" stroke="black" stroke-width="3" stroke-linecap="round"/>
<path d="M150.449 120.357C152.989 122.517 160.515 125.871 170.305 122.014" stroke="black" stroke-width="3" stroke-linecap="round"/>
<path d="M366.49 3.48712C375.21 -8.9041 636.634 -12.0018 649.08 3.48709C661.526 18.976 661.623 139.785 575.008 145.362C468.173 152.24 454.878 101.79 450.521 77.2153C430.603 81.7586 370.333 77.2122 366.49 66.6804C364.003 59.865 357.769 15.8783 366.49 3.48712Z" fill="#FB812C"/>
<path d="M560.297 79.489C559.765 90.9862 567.87 100.708 578.399 101.203C588.929 101.698 597.896 92.7795 598.428 81.2824C598.959 69.7852 590.855 60.0634 580.325 59.5682C569.796 59.073 560.829 67.9918 560.297 79.489Z" fill="white"/>
<path d="M508.961 77.0847C508.429 88.5819 516.534 98.3037 527.063 98.7989C537.593 99.2941 546.56 90.3752 547.092 78.878C547.624 67.3809 539.519 57.6591 528.989 57.1639C518.46 56.6687 509.493 65.5875 508.961 77.0847Z" fill="white"/>
<path d="M521.259 69.8253C516.628 70.3307 513.285 74.494 513.79 79.1242C514.295 83.7544 518.459 87.0983 523.089 86.5929C527.719 86.0874 531.063 81.9242 530.558 77.294C530.052 72.6637 525.889 69.3199 521.259 69.8253Z" fill="black"/>
<path d="M573.177 72.2863C568.546 72.7917 565.203 76.9549 565.708 81.5852C566.213 86.2154 570.377 89.5592 575.007 89.0538C579.637 88.5484 582.981 84.3851 582.475 79.7549C581.97 75.1247 577.807 71.7809 573.177 72.2863Z" fill="black"/>
<path d="M562.094 55.8027C560.368 54.5893 555.434 52.9137 549.506 55.919" stroke="black" stroke-width="3" stroke-linecap="round"/>
<path d="M511.25 99C512.728 101.988 518.312 108.047 528.829 108.379" stroke="black" stroke-width="3" stroke-linecap="round"/>
<path d="M574.617 110.379C577.752 111.512 585.977 112.017 593.795 104.975" stroke="black" stroke-width="3" stroke-linecap="round"/>
<path d="M619.653 207.75C619.653 207.75 610.542 162 631.792 162C653.042 162 653.042 202.408 653.042 202.408C653.042 202.408 677.32 159.714 705.394 179.54C733.467 199.365 678.074 220.823 678.074 220.823C678.074 220.823 751.676 215.377 735.741 250.065C719.807 284.752 677.853 250.065 677.853 250.065C677.853 250.065 709.176 281.513 669.73 295.331C630.284 309.149 635.587 258.07 635.587 258.07C635.587 258.07 617.379 313.537 583.989 295.331C550.6 277.125 604.473 245.702 604.473 245.702C604.473 245.702 551.367 255.537 561.219 230.5C571.071 205.464 619.64 207.75 619.64 207.75H619.653Z" fill="#FB812C"/>
<ellipse cx="641" cy="230.5" rx="20" ry="20.5" fill="#F7F7F7"/>
<path d="M59.3299 58.3149C59.3299 58.3149 89.4188 80.0007 64.4997 88.5015C39.5806 97.0023 33.6389 55.629 33.6389 55.629C33.6389 55.629 10.323 96.5906 -6.50019 76.5021C-23.3234 56.4136 18.783 37.1762 18.783 37.1762C18.783 37.1762 -39.5749 35.286 -21 13.002C-2.42507 -9.2821 24.6914 15.7782 24.6914 15.7782C24.6914 15.7782 7.75392 -13.4759 39.5801 -15.8074C71.4062 -18.139 57.4571 18.2659 57.4571 18.2659C57.4571 18.2659 81.7931 -18.8045 102.858 1.14774C123.922 21.1 77.99 33.4877 77.99 33.4877C77.99 33.4877 119.115 36.7782 106.925 53.1881C94.7353 69.598 59.3395 58.3175 59.3395 58.3175L59.3299 58.3149Z" fill="#FB812C"/>
<ellipse cx="48.0658" cy="36.8978" rx="15" ry="15.5" transform="rotate(-165 48.0658 36.8978)" fill="#F7F7F7"/>
<g filter="url(#filter0_f_1_24205)">
<ellipse cx="344" cy="251" rx="344" ry="177" fill="#F7F7F7"/>
</g>
<defs>
<filter id="filter0_f_1_24205" x="-74.6" y="-0.599998" width="837.2" height="503.2" filterUnits="userSpaceOnUse" color-interpolation-filters="sRGB">
<feFlood flood-opacity="0" result="BackgroundImageFix"/>
<feBlend mode="normal" in="SourceGraphic" in2="BackgroundImageFix" result="shape"/>
<feGaussianBlur stdDeviation="37.3" result="effect1_foregroundBlur_1_24205"/>
</filter>
</defs>
</svg>
