<svg width="416" height="530" viewBox="0 0 416 530" fill="none" xmlns="http://www.w3.org/2000/svg">
<path fill-rule="evenodd" clip-rule="evenodd" d="M-1.31192e-06 500C-5.87368e-07 516.569 13.4314 530 30 530L386 530C402.569 530 416 516.569 416 500L416 69.4431C416 52.8746 402.569 39.4431 386 39.4431L163.284 39.4431C158.068 39.4431 153.84 35.2153 153.84 30C153.84 13.4315 140.409 -6.13475e-06 123.84 -5.41083e-06L30.6194 -1.33782e-06C14.0508 -6.1391e-07 0.619385 13.4315 0.619385 30L0.619385 48.798C0.619385 55.0232 0.420475 61.4302 0.0530152 67.6446C0.0178305 68.2396 -1.10286e-05 68.8393 -1.1015e-05 69.4431L-1.31192e-06 500Z" fill="#F7F7F7"/>
</svg>
