<svg width="416" height="235" viewBox="0 0 416 235" fill="none" xmlns="http://www.w3.org/2000/svg">
<path d="M440.695 199.192C444.003 178.646 389.229 175.45 335.731 177.189C308.976 176.573 259.358 155.471 209.83 154.973C141.643 154.286 63.0467 153.353 18.8512 154.973C-61.0592 157.901 -60.0586 211.821 -15.2578 216.71C43.8391 223.159 164.341 200.279 217.852 199.193C271.364 198.106 354.406 218.121 379.861 216.299C416.691 213.664 438.285 214.159 440.695 199.192Z" fill="#B6DDA5"/>
<path d="M184.352 207.534C178.407 99.2246 185.527 12.5 75.2204 12.5C-58.3711 12.5 -30.1613 145.206 -30.1613 166.999C-30.1613 179.077 -6.20167 184.623 24.3591 184.623C29.6484 184.623 19.6575 228.094 33.4695 230.216C54.7454 232.754 74.3142 235.731 103.7 233.969L120.155 232.566C158.944 228.094 184.352 226.025 184.352 207.534Z" fill="#FB812C"/>
<path d="M288.548 232.566C249.759 228.094 211.352 226.025 211.352 207.534C211.352 181.983 216.852 146.5 225.488 134.5C229.565 56.7581 248.221 0 333.483 0C467.074 0 438.864 145.206 438.864 166.999C438.864 179.077 422.912 184.623 392.352 184.623C387.062 184.623 389.046 228.094 375.234 230.216C353.958 232.754 334.389 235.731 305.004 233.969L288.548 232.566Z" fill="#A44BE1"/>
<path d="M306.2 71.6204C306.668 64.3746 312.428 58.8443 319.065 59.2682C325.701 59.6921 330.701 65.9097 330.233 73.1556C329.765 80.4015 324.005 85.9317 317.368 85.5078C310.732 85.0839 305.731 78.8663 306.2 71.6204Z" fill="#F7F7F7"/>
<path d="M261.088 67.847C261.557 60.6011 267.317 55.0708 273.953 55.4948C280.59 55.9187 285.59 62.1363 285.122 69.3822C284.653 76.628 278.893 82.1583 272.257 81.7344C265.62 81.3104 260.62 75.0929 261.088 67.847Z" fill="#F7F7F7"/>
<path d="M270.045 77.4478C266.678 76.6965 264.557 73.3575 265.308 69.99C266.059 66.6225 269.398 64.5016 272.766 65.2529C276.133 66.0042 278.254 69.3432 277.503 72.7107C276.752 76.0782 273.413 78.1991 270.045 77.4478Z" fill="black"/>
<path d="M315.955 81.3255C312.352 80.5215 310.082 76.9488 310.886 73.3455C311.69 69.7422 315.263 67.4729 318.866 68.2768C322.47 69.0807 324.739 72.6535 323.935 76.2567C323.131 79.86 319.558 82.1294 315.955 81.3255Z" fill="black"/>
<path d="M284.352 90.5879C284.954 91.2617 286.352 93.7617 284.954 96.5576" stroke="black" stroke-width="3" stroke-linecap="round"/>
<path d="M286.251 93.3966C286.251 93.3966 290.825 92.728 296.84 94.2012" stroke="black" stroke-width="3" stroke-linecap="round" stroke-linejoin="round"/>
<path d="M150.351 106.838C153.387 111.817 168.426 126.485 187.696 117.862" stroke="black" stroke-width="3" stroke-linecap="round" stroke-linejoin="round"/>
<path d="M257.559 96.9858C256.417 102.704 259.397 115.891 280.453 122.888" stroke="black" stroke-width="3" stroke-linecap="round" stroke-linejoin="round"/>
<path d="M56.9766 103.5C61.408 111.694 71.3664 126.157 99.8506 124" stroke="black" stroke-width="3" stroke-linecap="round" stroke-linejoin="round"/>
<path d="M356.352 104.5C350.027 111.476 327.773 124.775 289.352 122.166" stroke="black" stroke-width="3" stroke-linecap="round" stroke-linejoin="round"/>
<path d="M60.3516 141.822C81.3516 138.505 123.352 136.203 123.352 153.528C123.352 170.854 122.174 188.062 121.585 194.5" stroke="black" stroke-width="3" stroke-linecap="round" stroke-linejoin="round"/>
<path d="M355.852 142.002C334.852 138.685 303.33 139.564 297.852 156C292.352 172.501 286.529 188.063 287.118 194.501" stroke="black" stroke-width="3" stroke-linecap="round" stroke-linejoin="round"/>
<circle cx="318.308" cy="72.5453" r="19.336" transform="rotate(5.00009 318.308 72.5453)" stroke="black" stroke-width="3" stroke-linejoin="round"/>
<ellipse cx="272.836" cy="68.5046" rx="18.8629" ry="19.4345" transform="rotate(5.00009 272.836 68.5046)" stroke="black" stroke-width="3" stroke-linejoin="round"/>
<path d="M299.108 69.8629C298.404 69.0438 296.124 67.7838 292.639 69.297" stroke="black" stroke-width="3" stroke-linecap="round"/>
<path d="M335.352 70.4658C341.505 65.6938 357.047 58.5012 369.99 67.9064" stroke="black" stroke-width="3" stroke-linecap="round"/>
<path d="M97.1534 72.0717C97.4646 63.4183 91.2924 56.1674 83.3673 55.8763C75.4422 55.5851 68.7653 62.364 68.4541 71.0173C68.1429 79.6706 74.3152 86.9216 82.2403 87.2127C90.1654 87.5038 96.8422 80.725 97.1534 72.0717Z" fill="#F7F7F7"/>
<path d="M135.788 73.4818C136.099 64.8285 129.927 57.5776 122.002 57.2864C114.077 56.9953 107.4 63.7742 107.089 72.4275C106.778 81.0808 112.95 88.3317 120.875 88.6229C128.8 88.914 135.477 82.1351 135.788 73.4818Z" fill="#F7F7F7"/>
<path d="M126.236 82.3017C129.715 81.8857 132.199 78.7279 131.783 75.2485C131.367 71.7692 128.209 69.2858 124.73 69.7018C121.25 70.1178 118.767 73.2757 119.183 76.755C119.599 80.2344 122.757 82.7177 126.236 82.3017Z" fill="black"/>
<path d="M87.158 80.8525C90.6374 80.4365 93.1207 77.2787 92.7047 73.7993C92.2887 70.3199 89.1308 67.8366 85.6515 68.2526C82.1721 68.6686 79.6888 71.8264 80.1048 75.3058C80.5208 78.7852 83.6786 81.2685 87.158 80.8525Z" fill="black"/>
<path d="M85.9679 48.868C85.9679 48.868 76.7608 46.2971 67.1557 55.3909" stroke="black" stroke-width="3" stroke-linecap="round" stroke-linejoin="round"/>
<path d="M136.323 56.7553C136.323 56.7553 132.091 49.6083 118.004 50.6164" stroke="black" stroke-width="3" stroke-linecap="round" stroke-linejoin="round"/>
<path d="M108.352 91.5C108.352 95.366 105.218 98.5 101.352 98.5C97.4856 98.5 94.3516 95.366 94.3516 91.5C94.3516 87.634 97.4856 86.5 101.352 86.5C105.218 86.5 108.352 87.634 108.352 91.5Z" fill="black"/>
<path d="M103.702 109.891C108.226 106.545 120.101 105.43 124.624 107.66C129.148 109.891 131.409 126.062 126.886 131.08C122.362 136.098 110.488 134.425 106.53 133.31C105.198 133.065 104.176 131.537 103.444 129.362C100.504 129.067 96.3516 127.724 96.3516 123.831C96.3516 118.988 99.1723 117.969 102.03 117.48C102.141 113.901 102.715 110.865 103.702 109.891Z" fill="black"/>
</svg>
