<svg width="614" height="354" viewBox="0 0 614 354" fill="none" xmlns="http://www.w3.org/2000/svg">
<path d="M484.789 309.522C489.991 266.593 435.636 255.658 382.098 255.192C318.788 247.219 149.383 229 72.9999 229C-7.00075 229 -16.0004 297.499 28.2467 311.226C86.3192 329.241 209.842 333.485 263.771 335.338L264.585 335.366C318.075 337.204 396.944 342.661 422.51 340.793C459.5 338.091 481 340.793 484.789 309.522Z" fill="#B6DDA5"/>
<path d="M65.0879 313.064C74.1282 148.65 63.3004 17 231.048 17C434.205 17 391.306 218.449 391.306 251.533C391.306 269.867 354.869 278.286 308.394 278.286C300.351 278.286 315.544 344.276 294.54 347.497C262.185 351.349 232.426 355.869 187.738 353.194L162.714 351.064C103.726 344.276 65.0879 341.135 65.0879 313.064Z" fill="#FB812C"/>
<path d="M117.136 160.231C112.533 167.782 89.7247 190.027 60.4986 176.95" stroke="black" stroke-width="3" stroke-linecap="round" stroke-linejoin="round"/>
<path d="M239 229C193.5 270 158.5 255.901 158.5 266.926C158.5 277.952 160.276 288.902 161.164 292.999" stroke="black" stroke-width="3" stroke-linecap="round" stroke-linejoin="round"/>
<path d="M242.95 97.2642C242.478 84.1406 251.839 73.1438 263.858 72.7023C275.877 72.2607 286.003 82.5416 286.475 95.6653C286.947 108.789 277.587 119.786 265.567 120.227C253.548 120.669 243.422 110.388 242.95 97.2642Z" fill="white"/>
<path d="M184.354 99.4029C183.882 86.2793 193.243 75.2825 205.262 74.8409C217.282 74.3994 227.408 84.6803 227.88 97.8039C228.352 110.928 218.991 121.924 206.972 122.366C194.952 122.807 184.826 112.527 184.354 99.4029Z" fill="white"/>
<path d="M209.184 107.213C203.907 106.582 200.141 101.793 200.772 96.5158C201.403 91.239 206.192 87.4728 211.469 88.1037C216.746 88.7346 220.512 93.5238 219.881 98.8006C219.25 104.077 214.461 107.844 209.184 107.213Z" fill="black"/>
<path d="M268.448 105.014C263.171 104.383 259.405 99.5934 260.036 94.3166C260.667 89.0398 265.456 85.2736 270.733 85.9045C276.009 86.5354 279.776 91.3246 279.145 96.6014C278.514 101.878 273.725 105.644 268.448 105.014Z" fill="black"/>
<path d="M259.912 62.074C259.912 62.074 273.875 58.175 288.443 71.9667" stroke="black" stroke-width="3" stroke-linecap="round" stroke-linejoin="round"/>
<path d="M183.543 74.0371C183.543 74.0371 189.961 63.198 211.326 64.7269" stroke="black" stroke-width="3" stroke-linecap="round" stroke-linejoin="round"/>
<path d="M201.342 129.687C185.342 116.687 49.8415 109.688 37.3415 123.688C19.3415 139.688 15.8415 244.188 37.3415 248.188C58.8415 252.188 189.841 260.188 212.841 256.688C229.618 254.135 268.982 229.493 282.842 212.688C287.984 206.453 284.842 200.688 282.842 200.688H212.841C212.841 200.688 214.142 140.087 201.342 129.687Z" fill="#D9D9D9"/>
<path d="M269.102 161C268.396 175.11 264.228 201.414 223.841 217.09" stroke="black" stroke-width="3" stroke-linecap="round" stroke-linejoin="round"/>
<path d="M22 183.5C22.1667 189 28.1 201.9 50.5 209.5" stroke="black" stroke-width="3" stroke-linecap="round"/>
<path d="M548.6 129C495.711 129 476 91 476 65.5C476 41 490.733 0 543 0C595.267 0 614 40 614 65.5C614 91 601.489 129 548.6 129Z" fill="#B6DDA5"/>
<path d="M520 31L545 71L579.5 63" stroke="black" stroke-width="3" stroke-linecap="round"/>
</svg>
