<svg width="559" height="281" viewBox="0 0 559 281" fill="none" xmlns="http://www.w3.org/2000/svg">
<path d="M372.5 160.5C389.667 161.333 428.8 171.4 448 205" stroke="black" stroke-width="3" stroke-linecap="round"/>
<path d="M446.798 191.216C431.327 187.161 357 241.56 357 249.331C357 257.103 476.394 287.511 491.865 279.74C507.336 271.969 569.555 227.031 557.448 217.908C545.34 208.785 462.269 195.27 446.798 191.216Z" fill="#B6DDA5"/>
<path d="M17.001 210.265C36.2682 224.528 275.613 252.538 348.113 224.038C420.613 195.538 391.358 9.77161 270.452 1.93502C121.32 -7.73111 88.583 55.468 82.501 90.0015C54.6974 83.6171 29.9793 81.0925 17.001 90.0015C-7.2662 106.66 -2.2662 196.002 17.001 210.265Z" fill="#FB812C"/>
<path d="M223.5 202.5C240.5 222.333 372 280.5 454.5 226" stroke="black" stroke-width="3" stroke-linecap="round"/>
<path d="M266.881 130.387C267.405 115.812 257.009 103.598 243.66 103.108C230.311 102.618 219.065 114.036 218.541 128.611C218.017 143.186 228.413 155.399 241.762 155.89C255.11 156.38 266.357 144.962 266.881 130.387Z" fill="white"/>
<path d="M331.957 132.764C332.481 118.189 322.085 105.975 308.736 105.485C295.388 104.995 284.141 116.413 283.617 130.988C283.093 145.563 293.489 157.776 306.838 158.267C320.187 158.757 331.433 147.339 331.957 132.764Z" fill="white"/>
<path d="M313.969 149.932C319.83 149.232 324.012 143.913 323.312 138.052C322.611 132.192 317.292 128.009 311.432 128.71C305.571 129.41 301.388 134.729 302.089 140.59C302.79 146.45 308.109 150.633 313.969 149.932Z" fill="black"/>
<path d="M248.149 147.491C254.009 146.79 258.192 141.471 257.491 135.611C256.791 129.75 251.472 125.568 245.611 126.268C239.751 126.969 235.568 132.288 236.269 138.148C236.969 144.009 242.288 148.192 248.149 147.491Z" fill="black"/>
<path d="M266 159C267 160.833 268.4 165.8 266 171" stroke="black" stroke-width="3" stroke-linecap="round"/>
<path d="M248.041 91.3045C248.041 91.3045 232.533 86.9743 216.354 102.292" stroke="black" stroke-width="3" stroke-linecap="round" stroke-linejoin="round"/>
<path d="M332.856 104.59C332.856 104.59 325.728 92.5516 302 94.2497" stroke="black" stroke-width="3" stroke-linecap="round" stroke-linejoin="round"/>
<path d="M268 164.258C268 164.258 277.277 163.844 289 168" stroke="black" stroke-width="3" stroke-linecap="round" stroke-linejoin="round"/>
<path d="M464 202.545C462.5 199.045 452 202.045 447 206.045C447 209.545 458 233.045 460 237.045C461.6 240.245 471 245.712 475.5 248.045C476 247.045 477.2 243.445 478 237.045C479 229.045 465.5 206.045 464 202.545Z" fill="black"/>
<path d="M527.5 222C524.167 223.333 515.7 228.3 508.5 237.5C499.5 249 489.5 263.5 477 266" stroke="black" stroke-width="3" stroke-linecap="round"/>
<path d="M508.5 216C505.166 217.333 496.7 222.3 489.5 231.5C485.445 236.682 481.186 242.472 476.588 247.5" stroke="black" stroke-width="3" stroke-linecap="round"/>
</svg>
