<svg width="416" height="255" viewBox="0 0 416 255" fill="none" xmlns="http://www.w3.org/2000/svg">
<path d="M332 235.15C325.172 111.079 334.181 0.966797 207.487 0.966797C54.0481 0.966797 86.9678 210.184 86.9678 235.15C86.9678 260.115 169.553 254.404 195.348 254.404C202.641 254.404 206.939 212.943 212.003 212.943C216.946 212.943 222.619 254.404 232.521 254.404C275.763 254.404 332 256.333 332 235.15Z" fill="#A44BE1"/>
<path d="M295 154.967C303.374 161.19 316.241 180.903 300.724 209.967" stroke="black" stroke-width="3" stroke-linecap="round"/>
<path d="M129 147.967C118.435 158.055 103.645 184.978 129 211.967" stroke="black" stroke-width="3" stroke-linecap="round"/>
<path d="M621 235.15C614.172 111.079 623.181 0.966797 496.487 0.966797C343.048 0.966797 375.968 210.184 375.968 235.15C375.968 260.115 458.553 254.404 484.348 254.404C491.641 254.404 495.939 212.943 501.003 212.943C505.946 212.943 511.619 254.404 521.521 254.404C564.763 254.404 621 256.333 621 235.15Z" fill="#FB812C"/>
<path d="M49 235.15C42.1721 111.079 51.1813 0.966797 -75.5131 0.966797C-228.952 0.966797 -196.032 210.184 -196.032 235.15C-196.032 260.115 -113.447 254.404 -87.6515 254.404C-80.3588 254.404 -76.0607 212.943 -70.9974 212.943C-66.0538 212.943 -60.3808 254.404 -50.479 254.404C-7.23735 254.404 49 256.333 49 235.15Z" fill="#8FD86F"/>
<path d="M193.282 106.088C193.676 95.1399 185.864 85.9659 175.832 85.5976C165.801 85.2292 157.349 93.806 156.955 104.754C156.562 115.703 164.374 124.876 174.406 125.245C184.437 125.613 192.888 117.036 193.282 106.088Z" fill="#F7F7F7"/>
<path d="M268.478 106.287C268.898 94.6186 260.571 84.8408 249.879 84.4482C239.188 84.0556 230.18 93.1969 229.76 104.866C229.34 116.535 237.667 126.312 248.359 126.705C259.051 127.098 268.058 117.956 268.478 106.287Z" fill="#F7F7F7"/>
<path d="M250.539 115.405C255.233 114.844 258.584 110.585 258.022 105.894C257.461 101.202 253.201 97.853 248.507 98.4139C243.813 98.9749 240.463 103.233 241.024 107.925C241.585 112.617 245.845 115.966 250.539 115.405Z" fill="black"/>
<path d="M175.893 114.596C180.297 114.07 183.44 110.074 182.914 105.672C182.387 101.27 178.39 98.1281 173.986 98.6544C169.582 99.1807 166.439 103.176 166.965 107.578C167.492 111.98 171.489 115.122 175.893 114.596Z" fill="black"/>
<path d="M222.5 138.369C222.5 138.369 214 151.4 203 138.369" stroke="black" stroke-width="3" stroke-linecap="round" stroke-linejoin="round"/>
<circle cx="249" cy="104.967" r="33" stroke="black" stroke-width="3" stroke-linejoin="round"/>
<circle cx="175" cy="104.967" r="33" stroke="black" stroke-width="3" stroke-linejoin="round"/>
<path d="M215.5 103.468C214.667 102.468 212.1 101.068 208.5 103.468" stroke="black" stroke-width="3" stroke-linecap="round"/>
<path d="M281 95.967C285.333 86.467 296.6 71.167 307 85.967" stroke="black" stroke-width="3" stroke-linecap="round"/>
<path d="M144.5 91.4668C139 82.3001 125.6 67.4668 116 81.4668" stroke="black" stroke-width="3" stroke-linecap="round"/>
</svg>
