<svg width="632" height="615" viewBox="0 0 632 615" fill="none" xmlns="http://www.w3.org/2000/svg">
<path fill-rule="evenodd" clip-rule="evenodd" d="M29.6191 -1.31076e-06C13.0506 -5.86847e-07 -0.380886 13.4315 -0.380885 30L-0.380884 48.798C-0.380884 49.1765 -0.373877 49.5533 -0.359986 49.9283C-0.126922 56.2205 -0.00027786 62.7035 -0.000277763 69L-0.000269354 585C-0.000269076 601.569 13.4312 615 29.9997 615L602 615C618.568 615 632 601.569 632 585L632 69C632 52.4314 618.568 39 602 39L161.84 39C156.87 39 152.84 34.9706 152.84 30C152.84 13.4315 139.409 -6.10768e-06 122.84 -5.38377e-06L29.6191 -1.31076e-06Z" fill="#F7F7F7"/>
</svg>
