<svg width="154" height="33" viewBox="0 0 154 33" fill="none" xmlns="http://www.w3.org/2000/svg">
<path d="M13.1769 29.3225C13.354 27.255 13.5113 25.2748 13.6556 23.2772C13.0436 22.7068 10.6351 20.6982 9.67124 18.6569C7.75884 14.6092 3.82478 14.3906 4.1701 13.5382C4.26627 13.3022 4.48702 12.97 5.3547 13.0792C7.10317 13.2978 9.69965 14.9151 10.5564 16.1194C11.4131 17.3258 12.6546 19.0743 13.8982 19.7169C13.9397 19.0787 13.9768 18.4908 14.0118 17.9509C14.1381 15.9095 14.2222 5.04376 14.3381 1.61593C14.3514 1.22308 14.0224 0.902629 13.6309 0.938153C4.19397 1.79451 0 8.46662 0 16.5762C0 23.8161 3.62023 29.9108 10.9131 31.7449C11.7967 31.9672 12.7268 31.5291 12.9555 30.6472C13.0585 30.2498 13.1345 29.8097 13.1769 29.3225ZM9.21008 9.45553C9.39585 9.36811 10.6832 9.21949 11.6383 11.2608C12.4207 12.9328 11.6536 14.1961 11.4678 14.2835C11.282 14.3709 9.9947 14.5195 9.0396 12.4782C8.08449 10.4347 9.0243 9.54296 9.21008 9.45553ZM7.91184 19.8349C7.82004 20.0185 6.8999 20.9321 4.88698 19.918C2.87186 18.9038 3.05983 17.6209 3.15162 17.4395C3.24342 17.2559 4.16355 16.3423 6.17648 17.3564C7.82441 18.1848 8.00363 19.6535 7.91184 19.8349Z" fill="#FB812C"/>
<path fill-rule="evenodd" clip-rule="evenodd" d="M17.2643 0.887745C16.8948 0.866261 16.5841 1.16377 16.5857 1.53393C16.6141 8.47028 17.0653 16.2892 17.205 18.8798C17.8235 18.4449 18.5229 16.7598 19.0299 15.7216C20.2145 13.2978 23.1498 12.4891 23.5191 12.9503C24.1486 13.7349 22.1816 13.5164 20.8811 16.3882C20.7194 16.7467 20.6516 17.1947 20.5205 17.6734C20.2298 18.7377 19.6069 19.8568 18.984 20.7944C19.1676 20.7157 19.3447 20.6283 19.5108 20.5496C19.9632 20.3288 21.8515 18.8448 22.1641 18.8448C22.2799 18.8448 22.3848 18.8689 22.4788 18.9148C22.693 19.0219 22.8219 19.2164 22.8372 19.4481C22.8853 20.2218 19.9632 22.4707 19.9042 22.5101C19.3643 22.8707 18.0595 23.4062 17.4694 23.6422C17.5831 25.5633 17.7077 27.4276 17.8432 29.3291C17.884 29.8887 17.9707 30.3868 18.0938 30.83C18.3257 31.6652 19.2039 32.0855 20.0546 31.9189C28.1985 30.3244 31.4703 24.0609 31.4703 16.5762C31.4703 8.28154 27.6336 1.4906 17.2643 0.887745ZM19.172 10.1331C19.1654 12.3864 20.3937 12.8017 20.5992 12.8017C20.8046 12.8039 22.0351 11.9864 22.0417 10.1418C22.0482 7.88846 20.8199 7.47539 20.6145 7.4732C20.409 7.47102 19.1786 7.87754 19.172 10.1331ZM22.4919 17.2166C22.5662 17.4089 23.3902 18.4077 25.4949 17.5969C27.5974 16.786 27.5384 15.4921 27.4641 15.2998C27.3898 15.1075 26.1834 14.2551 24.4611 14.9195C22.3586 15.7304 22.4176 17.0242 22.4919 17.2166Z" fill="#FB812C"/>
<path d="M52.9427 16.8096C52.9661 18.8713 53.013 21.1205 52.7553 23.1822C52.5444 25.0097 49.6392 25.0097 49.8735 23.1822C50.1312 21.2142 49.9907 19.1525 50.0141 17.1844C50.0141 16.1535 49.9672 15.0992 49.9438 14.0684C49.9438 13.3655 50.1312 12.0066 49.9672 11.0929C48.2803 11.046 46.4997 11.0929 44.8363 11.2803C44.6489 15.2398 44.4848 19.2227 44.4848 23.1822C44.4848 25.0331 41.6031 25.0331 41.6031 23.1822C41.6031 18.801 41.8139 14.3964 42.0014 10.0152C42.0482 9.42944 42.4231 8.72657 43.0791 8.63285C45.1643 8.30485 47.39 8.21113 49.4986 8.21113C51.1855 8.1877 52.357 8.39856 52.685 10.2495C53.0598 12.3346 52.9193 14.6775 52.9427 16.8096ZM68.6136 14.9587C68.8478 19.0119 67.0438 23.3228 62.7095 24.3302C57.93 25.4314 55.0248 20.9331 54.9076 16.6924C54.7905 12.9438 57.3677 8.23456 61.5614 8.23456C61.9129 8.23456 62.194 8.32828 62.4049 8.49228C65.7318 9.00772 68.4027 11.3038 68.6136 14.9587ZM63.178 21.0268C65.4272 19.7382 66.0364 17.1844 65.6615 14.7947C65.2866 12.3581 63.3889 11.2803 61.0694 11.2803C60.9523 11.2803 60.8351 11.2803 60.7414 11.2569C58.6094 11.9129 57.6254 15.1227 57.8128 17.0438C58.0705 19.8553 60.0854 22.7839 63.178 21.0268ZM79.0976 14.9587C81.6983 16.5284 82.4948 20.1833 80.0817 23.0417C78.5119 24.8925 76.169 25.3377 73.9198 24.4708C71.5769 23.5571 70.6866 22.2216 69.9603 19.949C69.3746 18.1684 72.1627 17.4187 72.7484 19.1759C73.0998 20.3005 73.4278 21.0268 74.529 21.5891C75.677 22.1748 76.8719 22.1982 77.7856 21.2845C79.9411 19.1056 77.9496 16.7627 75.3256 17.1141C73.545 17.3484 73.5918 14.8181 74.9273 14.2792C76.0519 13.8107 77.5982 12.7798 77.1999 11.4209C76.6142 9.35915 74.0136 10.7415 73.9198 12.3581C73.8261 14.2089 70.9444 14.2089 71.0381 12.3581C71.2255 8.70314 75.7707 5.63395 78.8165 8.60942C80.0817 9.85116 80.5034 11.9363 79.9645 13.5764C79.7771 14.0918 79.4725 14.5369 79.0976 14.9587ZM95.6584 22.5028C96.5487 24.1194 94.0653 25.572 93.1515 23.9554C92.847 23.3931 92.6595 22.7605 92.5658 22.1279C90.9024 23.6508 88.7 24.5645 86.6617 24.1897C84.0142 23.6742 83.5925 21.2611 83.4285 18.965C83.1942 15.9427 83.4285 12.8735 83.4285 9.85116C83.4285 7.97684 86.3103 7.97684 86.3103 9.85116C86.3103 11.7723 86.3103 13.6701 86.2166 15.5678C86.1697 16.833 86.0291 18.5902 86.3806 19.8085C87.4583 23.3931 92.2144 19.4102 92.4487 17.2078C92.4721 17.0673 92.4955 16.9501 92.5424 16.8564V9.92145C92.5424 8.07056 95.4241 8.07056 95.4241 9.92145V16.9501C95.4241 18.473 94.8853 21.1205 95.6584 22.5028ZM108.684 8.46885C110.535 8.46885 110.535 11.374 108.684 11.374C107.302 11.374 105.943 11.374 104.584 11.374C104.327 13.4592 104.631 15.7084 104.655 17.7936C104.678 19.6913 104.655 21.6125 104.655 23.5102C104.655 25.3611 101.773 25.3611 101.773 23.5102C101.773 19.5742 101.281 15.357 101.703 11.4209C100.578 11.4443 99.4534 11.4912 98.3288 11.538C96.4545 11.6083 96.4779 8.72657 98.3288 8.65628C101.773 8.49228 105.217 8.46885 108.684 8.46885ZM124.555 14.9587C124.789 19.0119 122.985 23.3228 118.651 24.3302C113.871 25.4314 110.966 20.9331 110.849 16.6924C110.732 12.9438 113.309 8.23456 117.503 8.23456C117.854 8.23456 118.135 8.32828 118.346 8.49228C121.673 9.00772 124.344 11.3038 124.555 14.9587ZM119.119 21.0268C121.368 19.7382 121.978 17.1844 121.603 14.7947C121.228 12.3581 119.33 11.2803 117.011 11.2803C116.893 11.2803 116.776 11.2803 116.683 11.2569C114.551 11.9129 113.567 15.1227 113.754 17.0438C114.012 19.8553 116.027 22.7839 119.119 21.0268ZM138.67 22.3388C139.42 24.0257 136.937 25.4783 136.187 23.7914C135.367 21.9874 135.015 19.8553 134.359 17.981C133.727 16.0598 133.258 14.0684 132.602 12.1472C131.548 13.6935 130.939 15.9661 130.4 17.3719C129.603 19.3633 128.947 21.4485 128.432 23.5337C127.987 25.3377 125.222 24.5645 125.667 22.7605C126.37 19.8787 127.378 17.0673 128.526 14.3495C129.463 12.1238 130.236 9.6403 132.415 8.37514C133.024 8.00027 134.078 8.16427 134.406 8.89057C135.343 11.0695 135.929 13.4358 136.655 15.7084C137.077 17.0438 137.593 18.3559 138.014 19.7147C138.249 20.5348 138.319 21.5422 138.67 22.3388ZM151.528 21.5891C153.262 22.2451 152.512 25.0331 150.755 24.3771C149.091 23.7211 147.522 22.5262 146.022 21.5656C145.273 21.0736 144.265 20.605 143.375 20.0193C143.398 21.0971 143.398 22.1514 143.398 23.2291C143.398 25.08 140.493 25.08 140.493 23.2291C140.493 18.7073 140.423 14.1855 140.587 9.68716C140.657 7.81284 143.539 7.81284 143.468 9.68716C143.398 11.4678 143.375 13.2718 143.375 15.0758C144.007 14.3964 144.687 13.7404 145.249 13.0375C146.421 11.5849 147.779 10.226 149.115 8.914C150.45 7.60198 152.489 9.6403 151.177 10.9523C149.841 12.2643 148.529 13.5764 147.334 15.0055C146.608 15.8958 145.671 16.7393 144.921 17.653C145.765 18.2387 147.147 18.8479 147.779 19.2696C148.927 19.9959 150.263 21.0971 151.528 21.5891Z" fill="#FB812C"/>
</svg>
