<svg width="267" height="21" viewBox="0 0 267 21" fill="none" xmlns="http://www.w3.org/2000/svg">
<path d="M1 3.0026H6.5275C7.03 3.0026 8.5375 2.83594 9.2075 5.16927C9.71 6.66927 10.38 9.0026 11.385 12.5026H11.72C12.725 8.83594 13.5625 6.33594 13.8975 5.16927C14.5675 2.83594 16.2425 3.0026 16.9125 3.0026H22.105V19.0026H16.745V9.5026H16.41L13.5625 19.0026H9.5425L6.695 9.5026H6.1925V19.0026H1M24.2825 3.0026H29.6425V12.5026H30.145L33.6625 4.66927C34.3325 3.16927 35.84 3.0026 35.84 3.0026H40.865V19.0026H35.505V9.5026H35.17L31.6525 17.3359C30.9825 18.8359 29.3075 19.0026 29.3075 19.0026H24.2825M48.0675 14.1693V19.0026H43.0425V10.6693H59.4575C58.7875 12.6693 56.4425 14.1693 53.7625 14.1693" fill="#06764D"/>
<path d="M59.792 9.66862C60.462 6.66862 58.452 3.00195 54.097 3.00195H42.707C43.042 6.50195 46.057 9.66862 49.2395 9.66862" fill="#06764D"/>
<g clip-path="url(#clip0_1_22342)">
<path d="M93.3012 2.63916H84.6484V18.3608H93.3012V2.63916Z" fill="#FF5A00"/>
<path d="M85.224 10.5C85.224 7.30583 86.7088 4.47087 88.9872 2.63916C87.3104 1.30583 85.1952 0.5 82.888 0.5C77.4224 0.5 73 4.97249 73 10.5C73 16.0275 77.4224 20.5 82.888 20.5C85.1952 20.5 87.3104 19.6942 88.9872 18.3608C86.7056 16.555 85.224 13.6942 85.224 10.5Z" fill="#EB001B"/>
<path d="M104.975 10.5C104.975 16.0275 100.552 20.5 95.0865 20.5C92.7793 20.5 90.6641 19.6942 88.9873 18.3608C91.2945 16.5259 92.7505 13.6942 92.7505 10.5C92.7505 7.30583 91.2657 4.47087 88.9873 2.63916C90.6609 1.30583 92.7761 0.5 95.0833 0.5C100.552 0.5 104.975 5.00162 104.975 10.5Z" fill="#F79E1B"/>
</g>
<g clip-path="url(#clip1_1_22342)">
<path d="M142.262 4.19946C142.099 4.19946 141.961 4.31781 141.935 4.47896L140.053 16.446C140.047 16.4897 140.049 16.5344 140.061 16.577C140.073 16.6196 140.094 16.659 140.123 16.6927C140.152 16.7263 140.187 16.7533 140.228 16.7718C140.268 16.7903 140.311 16.7999 140.355 16.7999H142.587C142.75 16.7999 142.888 16.6813 142.913 16.5204L143.466 13.0062C143.491 12.8453 143.63 12.7267 143.792 12.7267H145.821C148.192 12.7267 150.205 10.9921 150.573 8.64177C150.943 6.27151 149.097 4.20461 146.479 4.19946H142.262ZM144.431 6.87097H146.055C147.391 6.87097 147.827 7.66176 147.689 8.53628C147.551 9.41268 146.875 10.0582 145.582 10.0582H143.93L144.431 6.87097ZM155.112 7.68445C154.549 7.68655 153.9 7.80233 153.172 8.10639C151.502 8.80432 150.7 10.2467 150.359 11.2983C150.359 11.2983 149.275 14.5066 151.725 16.2692C151.725 16.2692 153.996 17.9661 156.553 16.1647L156.509 16.446C156.502 16.4897 156.504 16.5344 156.516 16.5769C156.528 16.6194 156.55 16.6589 156.578 16.6925C156.607 16.7261 156.642 16.7531 156.682 16.7717C156.722 16.7902 156.766 16.7998 156.81 16.7999H158.929C159.091 16.7999 159.229 16.6813 159.255 16.5204L160.544 8.32531C160.551 8.2816 160.548 8.23691 160.536 8.19431C160.524 8.15171 160.503 8.11222 160.474 8.07855C160.446 8.04487 160.41 8.01782 160.37 7.99925C160.33 7.98068 160.286 7.97103 160.242 7.97097H158.124C157.961 7.97097 157.823 8.08955 157.797 8.25047L157.728 8.69159C157.728 8.69159 156.803 7.67813 155.112 7.68445ZM155.181 10.2729C155.425 10.2729 155.647 10.3066 155.847 10.3709C156.761 10.6652 157.279 11.5458 157.129 12.5003C156.944 13.6756 155.983 14.541 154.75 14.541C154.507 14.541 154.285 14.5075 154.085 14.4432C153.171 14.149 152.649 13.2684 152.799 12.3139C152.984 11.1386 153.949 10.2729 155.181 10.2729Z" fill="#003087"/>
<path d="M172.773 4.19946C172.611 4.19946 172.473 4.31781 172.447 4.47896L170.565 16.446C170.558 16.4897 170.561 16.5344 170.573 16.577C170.585 16.6196 170.606 16.659 170.635 16.6927C170.664 16.7263 170.699 16.7533 170.739 16.7718C170.779 16.7903 170.823 16.7999 170.867 16.7999H173.099C173.261 16.7999 173.4 16.6813 173.425 16.5204L173.978 13.0062C174.003 12.8453 174.141 12.7267 174.304 12.7267H176.333C178.704 12.7267 180.717 10.9921 181.084 8.64177C181.455 6.27151 179.608 4.20461 176.991 4.19946H172.773ZM174.943 6.87097H176.566C177.903 6.87097 178.338 7.66176 178.201 8.53628C178.063 9.41268 177.387 10.0582 176.094 10.0582H174.442L174.943 6.87097ZM185.624 7.68445C185.06 7.68655 184.412 7.80233 183.683 8.10639C182.014 8.80432 181.212 10.2467 180.871 11.2983C180.871 11.2983 179.787 14.5066 182.237 16.2692C182.237 16.2692 184.507 17.9661 187.064 16.1647L187.02 16.446C187.014 16.4897 187.016 16.5344 187.028 16.577C187.04 16.6196 187.061 16.659 187.09 16.6927C187.119 16.7263 187.154 16.7533 187.194 16.7718C187.234 16.7903 187.278 16.7999 187.322 16.7999H189.441C189.603 16.7999 189.741 16.6813 189.767 16.5204L191.056 8.32531C191.063 8.28156 191.06 8.23683 191.048 8.1942C191.036 8.15157 191.015 8.11205 190.987 8.07837C190.958 8.04469 190.922 8.01765 190.882 7.9991C190.842 7.98056 190.798 7.97096 190.754 7.97097H188.636C188.473 7.97097 188.335 8.08955 188.309 8.25047L188.24 8.69159C188.24 8.69159 187.315 7.67813 185.624 7.68445ZM185.693 10.2729C185.936 10.2729 186.159 10.3066 186.358 10.3709C187.273 10.6652 187.791 11.5458 187.641 12.5003C187.456 13.6756 186.495 14.541 185.262 14.541C185.019 14.541 184.796 14.5075 184.596 14.4432C183.682 14.149 183.161 13.2684 183.311 12.3139C183.496 11.1386 184.46 10.2729 185.693 10.2729Z" fill="#0070E0"/>
<path d="M161.549 7.97118C161.381 7.97118 161.261 8.13561 161.313 8.29582L163.636 15.5233L161.535 18.9292C161.433 19.0946 161.552 19.3081 161.746 19.3081H164.228C164.299 19.3081 164.369 19.2897 164.431 19.2547C164.493 19.2197 164.544 19.1693 164.581 19.1084L171.069 8.34775C171.168 8.18239 171.049 7.97095 170.856 7.97095H168.374C168.303 7.97101 168.232 7.98978 168.17 8.02542C168.108 8.06106 168.056 8.11233 168.019 8.1742L165.466 12.497L164.169 8.20624C164.127 8.06661 163.999 7.97095 163.853 7.97095L161.549 7.97118Z" fill="#003087"/>
<path d="M193.463 4.19946C193.301 4.19946 193.163 4.31805 193.137 4.47896L191.255 16.4456C191.248 16.4893 191.25 16.534 191.262 16.5767C191.274 16.6193 191.296 16.6588 191.324 16.6925C191.353 16.7262 191.389 16.7532 191.429 16.7718C191.469 16.7903 191.512 16.7999 191.557 16.7999H193.788C193.951 16.7999 194.089 16.6813 194.115 16.5204L195.997 4.55334C196.003 4.50967 196.001 4.46503 195.989 4.42248C195.977 4.37994 195.956 4.34051 195.927 4.30689C195.898 4.27327 195.863 4.24626 195.823 4.22772C195.783 4.20918 195.739 4.19954 195.695 4.19946H193.463Z" fill="#0070E0"/>
<path d="M123.655 4.19946C123.511 4.19958 123.372 4.25111 123.263 4.34478C123.154 4.43845 123.082 4.56813 123.059 4.71052L122.068 11.0106C122.115 10.7164 122.367 10.4996 122.665 10.4996H125.568C128.489 10.4996 130.968 8.3625 131.421 5.46645C131.455 5.25024 131.474 5.03199 131.479 4.81319C130.736 4.42283 129.864 4.19946 128.908 4.19946H123.655Z" fill="#001C64"/>
<path d="M131.478 4.81348C131.474 5.03227 131.454 5.25052 131.421 5.46674C130.968 8.36278 128.488 10.4999 125.567 10.4999H122.664C122.367 10.4999 122.114 10.7164 122.068 11.0109L121.157 16.8002L120.586 20.4321C120.575 20.5022 120.579 20.574 120.598 20.6424C120.618 20.7108 120.651 20.7742 120.697 20.8282C120.743 20.8822 120.801 20.9256 120.865 20.9553C120.929 20.9851 120.999 21.0005 121.07 21.0004H124.221C124.365 21.0003 124.504 20.9488 124.613 20.8551C124.723 20.7614 124.795 20.6318 124.817 20.4894L125.647 15.2111C125.67 15.0687 125.742 14.9389 125.852 14.8452C125.961 14.7516 126.1 14.7001 126.244 14.7001H128.099C131.021 14.7001 133.5 12.563 133.953 9.66696C134.275 7.61152 133.242 5.74109 131.478 4.81348Z" fill="#0070E0"/>
<path d="M120.075 0.000244141C119.778 0.000244141 119.525 0.216828 119.479 0.51083L117.006 16.2321C116.959 16.5305 117.189 16.8005 117.491 16.8005H121.157L122.068 11.0112L123.058 4.71106C123.081 4.56867 123.153 4.43899 123.263 4.34532C123.372 4.25165 123.511 4.20012 123.655 4.20001H128.908C129.864 4.20001 130.736 4.42361 131.478 4.81374C131.529 2.17708 129.359 0.000244141 126.376 0.000244141H120.075Z" fill="#003087"/>
</g>
<g clip-path="url(#clip2_1_22342)">
<path d="M233.567 20.2116H228.787L231.776 0.851074H236.556L233.567 20.2116Z" fill="#00579F"/>
<path d="M250.893 1.32425C249.95 0.932522 248.455 0.5 246.606 0.5C241.886 0.5 238.562 3.13619 238.542 6.90515C238.503 9.68588 240.922 11.2304 242.731 12.1575C244.58 13.105 245.208 13.7234 245.208 14.5679C245.19 15.8649 243.714 16.4628 242.338 16.4628C240.43 16.4628 239.408 16.1545 237.854 15.4329L237.224 15.1236L236.556 19.4696C237.677 20.0045 239.742 20.4792 241.886 20.5C246.901 20.5 250.166 17.9046 250.204 13.8882C250.224 11.6842 248.946 9.99549 246.193 8.61552C244.521 7.72968 243.497 7.13236 243.497 6.22598C243.517 5.402 244.363 4.55804 246.25 4.55804C247.804 4.5167 248.945 4.90789 249.81 5.29934L250.243 5.50493L250.893 1.32425Z" fill="#00579F"/>
<path d="M257.245 13.3529C257.639 12.2406 259.153 7.93594 259.153 7.93594C259.133 7.97727 259.546 6.80317 259.782 6.08239L260.116 7.75061C260.116 7.75061 261.021 12.3849 261.218 13.3529C260.471 13.3529 258.189 13.3529 257.245 13.3529ZM263.145 0.851074H259.448C258.308 0.851074 257.442 1.20092 256.95 2.45743L249.851 20.2113H254.865C254.865 20.2113 255.691 17.8218 255.869 17.3071C256.419 17.3071 261.297 17.3071 262.005 17.3071C262.142 17.9869 262.575 20.2113 262.575 20.2113H267L263.145 0.851074Z" fill="#00579F"/>
<path d="M224.795 0.851074L220.114 14.0531L219.603 11.3756C218.738 8.28606 216.024 4.92937 212.995 3.26033L217.282 20.1911H222.336L229.849 0.851074H224.795Z" fill="#00579F"/>
<path d="M215.768 0.851074H208.079L208 1.24226C213.998 2.84888 217.971 6.72159 219.603 11.3764L217.932 2.4785C217.656 1.24199 216.811 0.891863 215.768 0.851074Z" fill="#FAA61A"/>
</g>
<defs>
<clipPath id="clip0_1_22342">
<rect width="32" height="20" fill="white" transform="translate(73 0.5)"/>
</clipPath>
<clipPath id="clip1_1_22342">
<rect width="79" height="21" fill="white" transform="translate(117)"/>
</clipPath>
<clipPath id="clip2_1_22342">
<rect width="59" height="20" fill="white" transform="translate(208 0.5)"/>
</clipPath>
</defs>
</svg>
