<svg width="32" height="32" viewBox="0 0 32 32" fill="none" xmlns="http://www.w3.org/2000/svg">
<g clip-path="url(#clip0_44_4795)">
<path d="M23 15C25.7614 15 28 12.7614 28 10C28 7.23857 25.7614 5 23 5C20.2386 5 18 7.23857 18 10C18 12.7614 20.2386 15 23 15Z" fill="#DDDDDD"/>
<path fill-rule="evenodd" clip-rule="evenodd" d="M23 16C18.05 16 14 19.0769 14 22.1538C14 24.278 15.722 26 17.8461 26H28.1538C30.278 26 32 24.278 32 22.1538C32 19.0769 27.95 16 23 16ZM17 22.1538C17 21.9486 17.1923 21.2097 18.3762 20.3723C19.4851 19.5879 21.126 19 23 19C24.874 19 26.5149 19.5879 27.6238 20.3723C28.8077 21.2097 29 21.9486 29 22.1538C29 22.6212 28.6212 23 28.1538 23H17.8461C17.3788 23 17 22.6212 17 22.1538Z" fill="#DDDDDD"/>
<path d="M11 16C4.95 16 0 19.6923 0 23.3846C0 25.9336 2.06638 28 4.61539 28H17.3846C19.9336 28 22 25.9336 22 23.3846C22 19.6923 17.05 16 11 16Z" fill="#DDDDDD"/>
<path d="M17 9C17 12.3137 14.3137 15 11 15C7.68629 15 5 12.3137 5 9C5 5.68629 7.68629 3 11 3C14.3137 3 17 5.68629 17 9Z" fill="#DDDDDD"/>
</g>
<defs>
<clipPath id="clip0_44_4795">
<rect width="32" height="32" fill="white"/>
</clipPath>
</defs>
</svg>
