<svg width="241" height="199" viewBox="0 0 241 199" fill="none" xmlns="http://www.w3.org/2000/svg">
<path d="M120.996 0C211.157 0 204.844 96.2776 204.844 98.138C204.844 99.9985 229.873 95.3474 236.961 101.394C244.049 107.44 239.379 144.57 240.635 167.322C240.635 181.963 168.323 175.166 138.349 175.166H112.582L70.7853 176.742C56.7481 176.742 9.86346 179.067 5.74589 169.765C0.598936 158.138 -4.08012 96.8455 5.74589 95.4501C10.0134 94.8441 20.3577 94.759 31.0444 94.8823C31.7798 46.4409 46.0176 0 120.996 0Z" fill="#C4C4C4"/>
<path d="M114.3 58.7759C114.599 50.4644 108.671 43.5 101.059 43.2203C93.4466 42.9407 87.0335 49.4518 86.7346 57.7632C86.4357 66.0747 92.3641 73.0392 99.9761 73.3188C107.588 73.5985 114.001 67.0874 114.3 58.7759Z" fill="white"/>
<path d="M151.41 60.1314C151.708 51.8199 145.78 44.8554 138.168 44.5758C130.556 44.2962 124.143 50.8072 123.844 59.1187C123.545 67.4302 129.473 74.3947 137.086 74.6743C144.698 74.9539 151.111 68.4429 151.41 60.1314Z" fill="white"/>
<path d="M137.738 72.7292C141.08 72.3296 143.465 69.2966 143.066 65.9547C142.666 62.6128 139.633 60.2275 136.291 60.6271C132.949 61.0267 130.564 64.0597 130.964 67.4016C131.363 70.7436 134.396 73.1288 137.738 72.7292Z" fill="#3F3F3F"/>
<path d="M100.205 71.3366C103.547 70.9371 105.932 67.904 105.533 64.5621C105.133 61.2202 102.1 58.8349 98.7581 59.2345C95.4162 59.6341 93.031 62.6672 93.4305 66.0091C93.8301 69.351 96.8632 71.7362 100.205 71.3366Z" fill="#3F3F3F"/>
<path d="M87.2161 45.7971C87.2161 45.7971 94.4261 47.791 102.167 40.9583" stroke="#565656" stroke-width="3" stroke-linecap="round" stroke-linejoin="round"/>
<path d="M136.59 41.9992C136.59 41.9992 139.985 48.6484 151.244 47.7013" stroke="#565656" stroke-width="3" stroke-linecap="round" stroke-linejoin="round"/>
<path d="M106.999 80.0494C106.999 80.0494 112.254 81.1255 118 84.3301" stroke="#565656" stroke-width="3" stroke-linecap="round" stroke-linejoin="round"/>
<path d="M58.4183 88C50.2101 107.063 44.899 123.682 58.4183 141.278C71.9376 158.874 68.5583 167.184 47.3137 171.094C26.069 175.004 29.4488 183.314 63.2472 181.848C97.0455 180.381 96.5628 195.045 50.2108 197" stroke="#565656" stroke-width="3" stroke-linecap="round"/>
<path d="M166.047 90C165.397 93.7259 165.657 104.288 171.896 116.729C179.694 132.28 187.978 135.682 171.896 146.86C155.813 158.037 145.089 167.757 171.896 170.673C198.702 173.589 220.148 182.822 187.493 183.794C154.839 184.766 122.672 191.57 153.377 194" stroke="#565656" stroke-width="3" stroke-linecap="round"/>
</svg>
