<svg width="376" height="376" viewBox="0 0 376 376" fill="none" xmlns="http://www.w3.org/2000/svg">
<path d="M157.823 83.1526C146.017 85.9401 139.12 99.5274 142.419 113.501C145.718 127.474 157.963 136.541 169.77 133.754L339.091 100.703L326.976 49.8016L157.823 83.1526Z" fill="#BFBAAA"/>
<rect x="309.143" y="53.1934" width="18.1536" height="13.8822" transform="rotate(-10.7729 309.143 53.1934)" fill="#E6E3DA"/>
<ellipse cx="332.558" cy="75.3604" rx="21.8911" ry="26.1647" transform="rotate(166.716 332.558 75.3604)" fill="#BFBAAA"/>
<path d="M261.361 292.732L69.417 324.36L132.583 100.192C134.833 92.2086 141.381 86.1691 149.52 84.5709L314.388 52.1953L261.361 292.732Z" fill="#E6E3DA"/>
<path d="M52.8439 271.533C39.5184 274.068 31.1288 288.805 34.1052 304.448C37.0815 320.09 50.2968 330.716 63.6223 328.181L254.371 299.496L243.593 242.848L52.8439 271.533Z" fill="#F6F3EB"/>
<ellipse cx="163.234" cy="120.264" rx="20" ry="14" transform="rotate(-29.0394 163.234 120.264)" fill="#E14B4B"/>
<ellipse cx="248.457" cy="271.275" rx="24.5608" ry="28.8322" transform="rotate(169.227 248.457 271.275)" fill="#BFBAAA"/>
<path d="M161.581 120.441C160.632 118.651 157.913 118.344 155.508 119.755C153.104 121.167 151.924 123.762 152.873 125.552C153.822 127.342 156.54 127.649 158.945 126.238C161.35 124.826 162.53 122.231 161.581 120.441Z" fill="white"/>
<path d="M173.304 113.558C172.355 111.768 169.637 111.461 167.232 112.873C164.827 114.284 163.647 116.88 164.596 118.67C165.545 120.46 168.264 120.766 170.669 119.355C173.073 117.943 174.253 115.348 173.304 113.558Z" fill="white"/>
<path d="M170.526 117.918C171.511 117.18 171.844 116.032 171.268 115.354C170.693 114.675 169.428 114.723 168.442 115.46C167.457 116.198 167.124 117.346 167.7 118.025C168.275 118.703 169.541 118.656 170.526 117.918Z" fill="black"/>
<path d="M158.665 124.872C159.65 124.134 159.982 122.986 159.407 122.307C158.832 121.629 157.566 121.676 156.581 122.414C155.596 123.151 155.263 124.3 155.839 124.978C156.414 125.657 157.679 125.609 158.665 124.872Z" fill="black"/>
<path fill-rule="evenodd" clip-rule="evenodd" d="M162.981 124.815C163.049 124.651 163.246 124.529 163.42 124.542C163.848 124.573 165.309 124.298 166.611 122.61C166.728 122.457 166.941 122.384 167.087 122.445C167.232 122.506 167.255 122.68 167.137 122.832C165.647 124.767 163.87 125.187 163.172 125.135C162.998 125.122 162.912 124.979 162.981 124.815Z" fill="black"/>
<path d="M110.277 244.314C118.277 248.814 248.777 227.814 258.277 218.314C268.054 208.628 276.5 134.999 269.5 128.999C262.5 122.999 145 144.999 139.277 149.814C134.277 156.314 102.277 239.814 110.277 244.314Z" fill="#BFBAAA"/>
<path d="M90.5 266.5L198.5 249" stroke="black" stroke-width="3" stroke-linecap="round"/>
<path d="M190.5 109.5L276.5 94" stroke="black" stroke-width="3" stroke-linecap="round"/>
<path d="M189 120L248 110" stroke="black" stroke-width="3" stroke-linecap="round"/>
</svg>
