<svg width="376" height="376" viewBox="0 0 376 376" fill="none" xmlns="http://www.w3.org/2000/svg">
<path d="M231.702 292.239C271.758 286.589 333.184 249.578 330.4 229.841C317.456 191.776 295.633 176.676 294.097 165.784C277.188 81.0707 231.702 60.4818 171.23 71.0167C79.7918 86.9462 83.4565 168.248 89.8037 229.842C92.3963 255 88.7056 289.172 89.8036 296.956C93.0848 320.217 169.4 312.106 193.295 308.736C200.05 307.783 201.614 261.116 206.304 260.455C210.883 259.809 222.53 293.533 231.702 292.239Z" fill="#A44BE1"/>
<path d="M202.007 70.5C202.007 70.5 201.123 46 212.106 46C223.089 46 223 66.5 223 66.5C223 66.5 237.31 46 250.147 55.09C264.657 65.3644 236.027 76.4848 236.027 76.4848C236.027 76.4848 274.068 73.6624 265.833 91.6393C257.597 109.616 235.913 91.6393 235.913 91.6393C235.913 91.6393 252.102 107.938 231.714 115.099C211.327 122.259 214.068 95.7883 214.068 95.7883C214.068 95.7883 204.656 124.534 187.399 115.099C170.142 105.663 197.986 89.3786 197.986 89.3786C197.986 89.3786 170.538 94.4752 175.63 81.5002C180.722 68.5252 202 70.5 202 70.5H202.007Z" fill="#FB812C"/>
<circle cx="217.5" cy="81.5" r="10.5" fill="#F7F7F7"/>
<path d="M149 155.584C149 155.584 160.821 161.672 168.67 151.953" stroke="black" stroke-width="3" stroke-linecap="round" stroke-linejoin="round"/>
<path d="M187.934 148.397C187.934 148.397 196.866 155.019 207.823 144.725" stroke="black" stroke-width="3" stroke-linecap="round" stroke-linejoin="round"/>
<path d="M164.658 168.261C164.658 168.261 174.741 173.843 194.464 163.057" stroke="black" stroke-width="3" stroke-linecap="round" stroke-linejoin="round"/>
<path d="M210 228.802C186.889 230.295 139.333 224.024 134 187" stroke="black" stroke-width="3" stroke-linecap="round"/>
<path d="M218 223.5C228.667 219.167 249.4 201.6 247 166" stroke="black" stroke-width="3" stroke-linecap="round"/>
</svg>
