<svg width="376" height="376" viewBox="0 0 376 376" fill="none" xmlns="http://www.w3.org/2000/svg">
<path d="M76 91.3794C76 103.512 175.126 148 187.007 148C198.887 148 299 99.0637 299 91.3794C299 83.6952 199.362 39.5615 187.007 39.0054C174.652 38.4493 76 79.2465 76 91.3794Z" fill="#333333"/>
<path d="M324.73 143.285C321.703 133.971 305.212 122.691 300.671 124.124C299.41 129.139 297.644 147.871 300.671 151.882C304.455 156.896 327.757 152.599 324.73 143.285Z" fill="#333333"/>
<path d="M310 316.495C303.31 194.378 312.137 86 187.997 86C37.652 86 69.908 291.923 69.908 316.495C69.908 341.067 157.529 335.446 182.805 335.446C189.95 335.446 182.805 294.638 192.422 294.638C206.535 294.638 196.833 335.446 206.535 335.446C248.905 335.446 310 337.344 310 316.495Z" fill="#FB812C"/>
<path d="M181.307 176.798C181.366 165.285 172.132 155.906 160.681 155.849C149.231 155.793 139.901 165.081 139.842 176.594C139.783 188.108 149.017 197.487 160.467 197.543C171.918 197.6 181.248 188.312 181.307 176.798Z" fill="white"/>
<path d="M237.128 177.066C237.187 165.553 227.953 156.173 216.503 156.117C205.053 156.061 195.723 165.349 195.664 176.862C195.605 188.375 204.839 197.755 216.289 197.811C227.739 197.867 237.069 188.579 237.128 177.066Z" fill="white"/>
<path d="M218.576 190.363C223.578 189.607 227.02 184.949 226.263 179.959C225.506 174.969 220.836 171.537 215.834 172.293C210.832 173.049 207.39 177.707 208.147 182.697C208.905 187.687 213.574 191.119 218.576 190.363Z" fill="black"/>
<path d="M162.117 190.042C167.119 189.286 170.561 184.628 169.804 179.639C169.047 174.649 164.377 171.217 159.375 171.973C154.373 172.729 150.931 177.387 151.688 182.377C152.446 187.366 157.115 190.798 162.117 190.042Z" fill="black"/>
<path d="M166.318 149.727C166.318 149.727 155.656 146.16 143.487 155.766" stroke="black" stroke-width="3" stroke-linecap="round" stroke-linejoin="round"/>
<path d="M233.629 157.284C233.629 157.284 227.752 147.75 210.993 150.507" stroke="black" stroke-width="3" stroke-linecap="round" stroke-linejoin="round"/>
<path d="M178.931 203.297C180.887 205.134 187.419 208.122 196 203.297" stroke="black" stroke-width="3" stroke-linecap="round"/>
<path d="M263.359 92.5645C271.45 94.4081 290.81 103.843 303.527 126.833" stroke="#333333" stroke-width="3" stroke-linecap="round" stroke-linejoin="round"/>
<path d="M117 210C110.495 214.741 97.3895 236.5 97.0087 245.603C96.6279 254.707 108.908 257.414 109.86 260.259C110.812 263.103 109.86 264.684 109.86 265" stroke="black" stroke-width="3" stroke-linecap="round"/>
<path d="M258 210C264.505 214.741 277.611 236.5 277.991 245.603C278.372 254.707 266.092 257.414 265.14 260.259C264.188 263.103 265.14 264.684 265.14 265" stroke="black" stroke-width="3" stroke-linecap="round"/>
</svg>
