<svg width="90" height="90" viewBox="0 0 90 90" fill="none" xmlns="http://www.w3.org/2000/svg">
<rect width="90" height="90" rx="16" fill="url(#paint0_linear_1_22668)"/>
<path d="M66.0307 44.0262C66.0345 44.0262 66.0374 44.0262 66.0412 44.0262C66.3092 44.0262 66.5648 43.9138 66.7463 43.7169C66.9307 43.5171 67.022 43.2491 66.998 42.9782C66.0336 32.3706 57.6353 23.9694 47.0267 23.0031C46.7577 22.982 46.4869 23.0694 46.2871 23.2548C46.0873 23.4392 45.9758 23.6995 45.9787 23.9714C46.1459 38.0687 48.0055 43.8293 66.0307 44.0262ZM66.0307 45.9742C48.0055 46.1711 46.1468 51.9317 45.9797 66.0291C45.9768 66.3009 46.0882 66.5612 46.288 66.7457C46.4667 66.9099 46.7001 67.0012 46.9403 67.0012C46.9691 67.0012 46.9988 67.0002 47.0277 66.9973C57.6362 66.031 66.0345 57.6308 66.998 47.0222C67.022 46.7513 66.9317 46.4833 66.7463 46.2835C66.5609 46.0837 66.3025 45.9848 66.0307 45.9742ZM42.9087 23.0079C32.3338 24.0021 23.9624 32.4013 23.0028 42.9801C22.9788 43.251 23.0691 43.519 23.2545 43.7188C23.436 43.9157 23.6925 44.0271 23.9595 44.0271C23.9634 44.0271 23.9672 44.0271 23.971 44.0271C41.9366 43.8206 43.7915 38.063 43.9606 23.9752C43.9634 23.7034 43.8511 23.4421 43.6513 23.2576C43.4495 23.0732 43.1796 22.9829 42.9087 23.0079ZM23.9701 45.9733C23.6713 45.9396 23.437 46.0818 23.2535 46.2816C23.0691 46.4814 22.9778 46.7494 23.0018 47.0203C23.9614 57.5991 32.3338 65.9983 42.9087 66.9925C42.9385 66.9954 42.9692 66.9964 42.999 66.9964C43.2392 66.9964 43.4716 66.9061 43.6503 66.7418C43.8501 66.5574 43.9625 66.2961 43.9596 66.0243C43.7905 51.9375 41.9366 46.1798 23.9701 45.9733Z" fill="black"/>
<defs>
<linearGradient id="paint0_linear_1_22668" x1="45" y1="0" x2="45" y2="90" gradientUnits="userSpaceOnUse">
<stop stop-color="#FDFBFB"/>
<stop offset="1" stop-color="#F7F7F7"/>
</linearGradient>
</defs>
</svg>
