<svg width="90" height="90" viewBox="0 0 90 90" fill="none" xmlns="http://www.w3.org/2000/svg">
<rect width="90" height="90" rx="16" fill="url(#paint0_linear_1_22640)"/>
<g clip-path="url(#clip0_1_22640)">
<path d="M56.9844 21H32.0156C25.9319 21 21 25.9319 21 32.0156V56.9844C21 63.0681 25.9319 68 32.0156 68H56.9844C63.0681 68 68 63.0681 68 56.9844V32.0156C68 25.9319 63.0681 21 56.9844 21Z" fill="url(#paint1_radial_1_22640)"/>
<path d="M56.9844 21H32.0156C25.9319 21 21 25.9319 21 32.0156V56.9844C21 63.0681 25.9319 68 32.0156 68H56.9844C63.0681 68 68 63.0681 68 56.9844V32.0156C68 25.9319 63.0681 21 56.9844 21Z" fill="url(#paint2_radial_1_22640)"/>
<path d="M44.5017 26.1406C39.5156 26.1406 38.8897 26.1625 36.9315 26.2515C34.977 26.3411 33.6428 26.6505 32.4755 27.1045C31.2678 27.5734 30.2436 28.2007 29.2232 29.2215C28.2018 30.2421 27.5745 31.2664 27.1041 32.4735C26.6488 33.6412 26.3391 34.9759 26.2511 36.9295C26.1636 38.8879 26.1406 39.514 26.1406 44.5002C26.1406 49.4864 26.1627 50.1103 26.2515 52.0685C26.3415 54.023 26.6508 55.3572 27.1045 56.5245C27.5738 57.7322 28.2011 58.7564 29.2219 59.7768C30.2421 60.7982 31.2664 61.427 32.4731 61.8959C33.6413 62.3499 34.9757 62.6593 36.9299 62.7489C38.8883 62.8379 39.5136 62.8597 44.4994 62.8597C49.486 62.8597 50.1099 62.8379 52.0681 62.7489C54.0226 62.6593 55.3583 62.3499 56.5265 61.8959C57.7336 61.427 58.7564 60.7982 59.7765 59.7768C60.7978 58.7564 61.425 57.7322 61.8955 56.525C62.3468 55.3572 62.6567 54.0226 62.7485 52.0688C62.8364 50.1106 62.8594 49.4864 62.8594 44.5002C62.8594 39.514 62.8364 38.8883 62.7485 36.9299C62.6567 34.9753 62.3468 33.6413 61.8955 32.4741C61.425 31.2664 60.7978 30.2421 59.7765 29.2215C58.7553 28.2004 57.734 27.573 56.5254 27.1047C55.355 26.6505 54.0201 26.3409 52.0655 26.2515C50.1071 26.1625 49.4837 26.1406 44.496 26.1406H44.5017ZM42.8546 29.4492C43.3435 29.4484 43.889 29.4492 44.5017 29.4492C49.4038 29.4492 49.9847 29.4668 51.9205 29.5547C53.7105 29.6366 54.6821 29.9357 55.3293 30.187C56.1861 30.5197 56.7969 30.9176 57.4391 31.5603C58.0817 32.2029 58.4794 32.8148 58.813 33.6716C59.0643 34.3179 59.3638 35.2895 59.4453 37.0795C59.5332 39.015 59.5523 39.5962 59.5523 44.496C59.5523 49.3957 59.5332 49.9772 59.4453 51.9124C59.3634 53.7025 59.0643 54.674 58.813 55.3205C58.4803 56.1773 58.0817 56.7874 57.4391 57.4296C56.7966 58.0722 56.1865 58.4698 55.3293 58.8027C54.6828 59.0551 53.7105 59.3535 51.9205 59.4354C49.985 59.5233 49.4038 59.5424 44.5017 59.5424C39.5993 59.5424 39.0183 59.5233 37.083 59.4354C35.293 59.3527 34.3214 59.0537 33.6737 58.8023C32.817 58.4695 32.2049 58.0718 31.5623 57.4292C30.9198 56.7866 30.5221 56.1762 30.1885 55.319C29.9372 54.6726 29.6377 53.701 29.5562 51.9109C29.4683 49.9755 29.4506 49.3942 29.4506 44.4914C29.4506 39.5885 29.4683 39.0104 29.5562 37.0749C29.6381 35.2849 29.9372 34.3133 30.1885 33.6661C30.5214 32.8093 30.9198 32.1974 31.5625 31.5548C32.2053 30.9122 32.817 30.5144 33.6738 30.181C34.321 29.9285 35.293 29.6302 37.083 29.5479C38.7766 29.4714 39.433 29.4484 42.8546 29.4446V29.4492ZM54.3019 32.4976C53.0856 32.4976 52.0988 33.4835 52.0988 34.7C52.0988 35.9163 53.0856 36.9031 54.3019 36.9031C55.5182 36.9031 56.505 35.9163 56.505 34.7C56.505 33.4836 55.5182 32.4968 54.3019 32.4968V32.4976ZM44.5017 35.0717C39.2949 35.0717 35.0734 39.2933 35.0734 44.5002C35.0734 49.7071 39.2949 53.9266 44.5017 53.9266C49.7086 53.9266 53.9286 49.7071 53.9286 44.5002C53.9286 39.2935 49.7082 35.0717 44.5013 35.0717H44.5017ZM44.5017 38.3803C47.8814 38.3803 50.6216 41.12 50.6216 44.5002C50.6216 47.88 47.8814 50.6201 44.5017 50.6201C41.1219 50.6201 38.3819 47.88 38.3819 44.5002C38.3819 41.12 41.1217 38.3803 44.5017 38.3803Z" fill="white"/>
</g>
<defs>
<linearGradient id="paint0_linear_1_22640" x1="45" y1="0" x2="45" y2="90" gradientUnits="userSpaceOnUse">
<stop stop-color="#FDFBFB"/>
<stop offset="1" stop-color="#F7F7F7"/>
</linearGradient>
<radialGradient id="paint1_radial_1_22640" cx="0" cy="0" r="1" gradientUnits="userSpaceOnUse" gradientTransform="translate(33.4844 71.6199) rotate(-90) scale(46.5805 43.3235)">
<stop stop-color="#FFDD55"/>
<stop offset="0.1" stop-color="#FFDD55"/>
<stop offset="0.5" stop-color="#FF543E"/>
<stop offset="1" stop-color="#C837AB"/>
</radialGradient>
<radialGradient id="paint2_radial_1_22640" cx="0" cy="0" r="1" gradientUnits="userSpaceOnUse" gradientTransform="translate(13.1273 24.3857) rotate(78.681) scale(20.8217 85.8279)">
<stop stop-color="#3771C8"/>
<stop offset="0.128" stop-color="#3771C8"/>
<stop offset="1" stop-color="#6600FF" stop-opacity="0"/>
</radialGradient>
<clipPath id="clip0_1_22640">
<rect width="47" height="47" fill="white" transform="translate(21 21)"/>
</clipPath>
</defs>
</svg>
