<svg width="90" height="90" viewBox="0 0 90 90" fill="none" xmlns="http://www.w3.org/2000/svg">
<rect width="90" height="90" rx="16" fill="url(#paint0_linear_1_22660)"/>
<path fill-rule="evenodd" clip-rule="evenodd" d="M51.7951 64.0834V48.9161H56.8868L57.6486 43.0058H51.7932V39.2321C51.7932 37.5205 52.269 36.3534 54.7248 36.3534H57.8542V31.0659C56.3388 30.903 54.8154 30.8246 53.2913 30.8309C48.7793 30.8309 45.691 33.5862 45.691 38.6446V43.0058H40.5837V48.9161H45.689V64.0834H27.079C25.8844 64.0834 24.917 63.1159 24.917 61.9214V27.0787C24.917 25.8841 25.8844 24.9167 27.079 24.9167H61.9217C63.1162 24.9167 64.0837 25.8841 64.0837 27.0787V61.9214C64.0837 63.1159 63.1162 64.0834 61.9217 64.0834H51.7951Z" fill="#415794"/>
<defs>
<linearGradient id="paint0_linear_1_22660" x1="45" y1="0" x2="45" y2="90" gradientUnits="userSpaceOnUse">
<stop stop-color="#FDFBFB"/>
<stop offset="1" stop-color="#F7F7F7"/>
</linearGradient>
</defs>
</svg>
