<svg width="90" height="90" viewBox="0 0 90 90" fill="none" xmlns="http://www.w3.org/2000/svg">
<rect width="90" height="90" rx="16" fill="url(#paint0_linear_1_22631)"/>
<path d="M66.5 52C66.5 53.2377 66.0083 54.4247 65.1332 55.2998C64.258 56.175 63.071 56.6667 61.8333 56.6667H33.8333L24.5 66V28.6667C24.5 27.429 24.9917 26.242 25.8668 25.3668C26.742 24.4917 27.929 24 29.1667 24H61.8333C63.071 24 64.258 24.4917 65.1332 25.3668C66.0083 26.242 66.5 27.429 66.5 28.6667V52Z" fill="#FB812C"/>
<path d="M52.0331 34.4991C51.2281 33.6955 50.1372 33.2441 48.9997 33.2441C47.8623 33.2441 46.7713 33.6955 45.9664 34.4991L45.4997 35.1991L44.7997 34.4991C44.3707 34.1314 43.8735 33.8518 43.3365 33.6763C42.7994 33.5007 42.2331 33.4327 41.6697 33.476C41.1064 33.5193 40.5571 33.6732 40.0532 33.9288C39.5494 34.1844 39.1008 34.5368 38.7331 34.9658C38.3654 35.3948 38.0857 35.892 37.9102 36.429C37.7347 36.9661 37.6666 37.5324 37.7099 38.0958C37.7533 38.6591 37.9071 39.2084 38.1628 39.7123C38.4184 40.2162 38.7707 40.6648 39.1997 41.0325L45.4997 47.3325L51.7997 41.0325C53.8997 38.9325 53.6664 36.1325 52.0331 34.4991Z" fill="#F7F7F7"/>
<defs>
<linearGradient id="paint0_linear_1_22631" x1="45" y1="0" x2="45" y2="90" gradientUnits="userSpaceOnUse">
<stop stop-color="#FDFBFB"/>
<stop offset="1" stop-color="#F7F7F7"/>
</linearGradient>
</defs>
</svg>
