<svg width="90" height="90" viewBox="0 0 90 90" fill="none" xmlns="http://www.w3.org/2000/svg">
<rect width="90" height="90" rx="16" fill="url(#paint0_linear_1_22652)"/>
<path d="M46.8757 58C32.5259 58 24.341 48.2402 24 32H31.188C31.4241 43.9199 36.7233 48.969 40.9207 50.01V32H47.6889V42.2803C51.8339 41.8378 56.1886 37.1532 57.6577 32H64.426C63.8724 34.6726 62.7689 37.2031 61.1845 39.4332C59.6001 41.6634 57.5689 43.5452 55.218 44.961C57.8422 46.2546 60.1601 48.0856 62.0186 50.3332C63.8772 52.5808 65.2341 55.1939 66 58H58.5497C57.8622 55.5627 56.4648 53.3809 54.5328 51.7281C52.6008 50.0753 50.2201 49.0249 47.6889 48.7087V58H46.8757Z" fill="#0077FF"/>
<defs>
<linearGradient id="paint0_linear_1_22652" x1="45" y1="0" x2="45" y2="90" gradientUnits="userSpaceOnUse">
<stop stop-color="#FDFBFB"/>
<stop offset="1" stop-color="#F7F7F7"/>
</linearGradient>
</defs>
</svg>
