<svg width="268" height="252" viewBox="0 0 268 252" fill="none" xmlns="http://www.w3.org/2000/svg">
<path d="M268 351.545C260.622 217.216 270.357 98 133.445 98C-32.3674 98 3.20716 324.515 3.20716 351.545C3.20716 378.574 92.4525 372.391 120.328 372.391C128.209 372.391 132.854 327.502 138.325 327.502C143.668 327.502 149.798 372.391 160.498 372.391C207.227 372.391 268 374.479 268 351.545Z" fill="#0075E2"/>
<path d="M141.062 194.576C141.276 180.935 152.094 170.021 165.225 170.197C178.356 170.374 188.827 181.575 188.614 195.216C188.4 208.856 177.582 219.771 164.451 219.594C151.32 219.418 140.848 208.217 141.062 194.576Z" fill="white"/>
<path d="M78.6987 191.699C78.9125 178.058 89.7305 167.144 102.861 167.32C115.992 167.497 126.464 178.698 126.25 192.339C126.037 205.979 115.219 216.894 102.088 216.717C88.9565 216.541 78.485 205.34 78.6987 191.699Z" fill="white"/>
<path d="M99.16 198.122C92.4446 197.026 87.9343 190.958 89.0861 184.569C90.2378 178.18 96.6155 173.889 103.331 174.985C110.046 176.08 114.557 182.148 113.405 188.537C112.253 194.927 105.875 199.218 99.16 198.122Z" fill="black"/>
<path d="M163.114 201.115C155.929 199.942 151.103 193.45 152.335 186.613C153.568 179.777 160.392 175.185 167.577 176.357C174.763 177.53 179.589 184.023 178.356 190.859C177.124 197.696 170.3 202.287 163.114 201.115Z" fill="black"/>
<path d="M118.551 220.648C119.495 221.606 121.758 225.218 119.887 229.477" stroke="black" stroke-width="3" stroke-linecap="round"/>
<path d="M121.578 224.686C121.578 224.686 128.328 223.354 137.377 225.1" stroke="black" stroke-width="3" stroke-linecap="round" stroke-linejoin="round"/>
<path d="M92 162C95.6667 165 105.9 170.1 117.5 166.5" stroke="black" stroke-width="3" stroke-linecap="round"/>
<path d="M180.5 165C176.833 168 166.6 173.1 155 169.5" stroke="black" stroke-width="3" stroke-linecap="round"/>
<path d="M25.9991 234C26.0004 198.5 18.9985 172.5 65.9985 140.5" stroke="black" stroke-width="3" stroke-linecap="round"/>
<path d="M240.5 226.5C240.5 175 224 150.5 181 129.5" stroke="black" stroke-width="3" stroke-linecap="round"/>
<path d="M252 -12.5C247 -6 203.844 43 159 12.5006C114.155 -17.9989 72.4996 -3 75.4996 31.5002C78.4996 66.0003 120.3 47.9864 142 5.00009C163.7 -37.9862 250 -2.9999 230 31.5002C210 66.0002 180.097 46.5006 165.5 12.5006C150.902 -21.4994 247.5 -12.4994 203.844 29.0002C160.189 70.4997 88.5555 29.0002 101.5 9.0001C114.444 -11 140.5 5.0001 136 36.0001C131.5 67.0001 85.4996 74.0001 72.4996 60.2435C59.4996 46.4869 88.5555 16.0001 106.5 49.5001C124.444 83.0001 172.714 52.9567 180.097 31.5002C187.479 10.0436 163.117 12.0002 155.373 29.0002C149.499 41.5 148.194 85.5 180.097 80C211.999 74.5 156 30 142 86C127.999 142 208.999 113 190.499 99.5C171.999 86 45.9995 84.5 95.4995 126C144.999 167.5 147.999 65.5 95.4995 80C42.9995 94.5 137.499 149 174.999 131C212.499 113 96.4995 11 62.9995 116.5C53.4995 144 84.9995 161.5 126.499 145C167.999 128.5 173.5 95 212 118" stroke="black" stroke-width="3" stroke-linecap="round"/>
</svg>
