<svg width="237" height="288" viewBox="0 0 237 288" fill="none" xmlns="http://www.w3.org/2000/svg">
<path d="M240.495 330.688C233.877 210.201 242.609 103.269 119.805 103.269C-28.9229 103.269 2.98607 306.444 2.98607 330.688C2.98607 354.932 83.0356 349.386 108.039 349.386C115.108 349.386 119.274 309.122 124.182 309.122C128.974 309.122 134.472 349.386 144.07 349.386C185.984 349.386 240.495 351.259 240.495 330.688Z" fill="#0075E2"/>
<path d="M126.375 189.895C126.566 177.66 136.25 167.869 148.004 168.028C159.757 168.186 169.13 178.233 168.939 190.468C168.748 202.703 159.064 212.493 147.311 212.335C135.557 212.177 126.184 202.13 126.375 189.895Z" fill="white"/>
<path d="M70.5548 187.314C70.7461 175.079 80.4295 165.289 92.1832 165.447C103.937 165.606 113.31 175.653 113.119 187.888C112.928 200.123 103.244 209.913 91.4904 209.754C79.7367 209.596 70.3635 199.549 70.5548 187.314Z" fill="white"/>
<path d="M88.8709 193.075C82.8598 192.092 78.8226 186.65 79.8536 180.919C80.8845 175.188 86.5932 171.339 92.6043 172.322C98.6154 173.305 102.653 178.747 101.622 184.478C100.591 190.209 94.882 194.058 88.8709 193.075Z" fill="black"/>
<path d="M146.114 195.759C139.682 194.707 135.362 188.884 136.465 182.752C137.569 176.62 143.677 172.501 150.109 173.553C156.541 174.604 160.861 180.428 159.757 186.56C158.654 192.692 152.546 196.811 146.114 195.759Z" fill="black"/>
<path d="M106.445 213.28C107.293 214.138 109.322 217.379 107.644 221.199" stroke="black" stroke-width="2.69088" stroke-linecap="round"/>
<path d="M108.935 216.902C108.935 216.902 114.977 215.708 123.077 217.273" stroke="black" stroke-width="2.69088" stroke-linecap="round" stroke-linejoin="round"/>
<path d="M82.6289 160.675C85.9178 163.366 95.0967 167.94 105.501 164.711" stroke="black" stroke-width="2.69088" stroke-linecap="round"/>
<path d="M162.012 163.366C158.723 166.057 149.544 170.632 139.139 167.403" stroke="black" stroke-width="2.69088" stroke-linecap="round"/>
<path d="M23.4338 225.256C23.435 193.414 17.1546 170.093 59.3117 141.39" stroke="black" stroke-width="2.69088" stroke-linecap="round"/>
<path d="M215.828 218.529C215.828 172.336 201.028 150.36 162.459 131.524" stroke="black" stroke-width="2.69088" stroke-linecap="round"/>
<path d="M225.675 4.15505C221.2 9.98529 182.571 53.9363 142.43 26.5796C102.289 -0.777228 65.0024 12.6762 67.6877 43.6214C70.373 74.5667 107.789 58.4089 127.213 19.8519C146.637 -18.7051 223.885 12.6763 205.983 43.6214C188.081 74.5666 161.314 57.0762 148.248 26.5796C135.182 -3.91709 221.647 4.15555 182.571 41.379C143.494 78.6025 79.3742 41.379 90.9607 23.4398C102.547 5.50053 125.87 19.8519 121.842 47.6577C117.814 75.4635 76.6388 81.7422 65.0024 69.4031C53.3659 57.064 79.3742 29.7185 95.4362 59.7667C111.498 89.8148 154.706 62.8671 161.314 43.6214C167.922 24.3758 146.116 26.1307 139.183 41.379C133.926 52.5909 132.758 92.0572 161.314 87.1239C189.871 82.1906 139.745 42.2759 127.213 92.5056C114.681 142.735 187.185 116.724 170.626 104.615C154.066 92.5056 41.2817 91.1602 85.5898 128.384C129.898 165.608 132.583 74.1179 85.5898 87.1239C38.5963 100.13 123.185 149.014 156.751 132.869C190.318 116.724 86.485 25.2336 56.4986 119.863C47.995 144.529 76.1911 160.226 113.338 145.426C150.486 130.626 155.41 100.578 189.871 121.208" stroke="black" stroke-width="2.69088" stroke-linecap="round"/>
</svg>
