<svg width="200" height="199" viewBox="0 0 200 199" fill="none" xmlns="http://www.w3.org/2000/svg">
<path d="M40.7227 48.3625C40.7227 54.7839 93.1854 78.3291 99.4732 78.3291C105.761 78.3291 158.746 52.4294 158.746 48.3625C158.746 44.2956 106.012 20.9377 99.4732 20.6434C92.9343 20.3491 40.7227 41.9411 40.7227 48.3625Z" fill="#333333"/>
<path d="M172.364 75.8337C170.761 70.9043 162.034 64.9342 159.631 65.6925C158.963 68.3468 158.029 78.2607 159.631 80.3836C161.633 83.0373 173.966 80.763 172.364 75.8337Z" fill="#333333"/>
<path d="M164.569 167.505C161.029 102.874 165.701 45.5146 99.999 45.5146C20.4284 45.5146 37.5 154.5 37.5 167.505C37.5 180.51 83.8739 177.535 97.2509 177.535C101.033 177.535 97.2509 155.937 102.341 155.937C109.81 155.937 104.675 177.535 109.81 177.535C132.235 177.535 164.569 178.539 164.569 167.505Z" fill="#FB812C"/>
<path d="M96.4548 93.5717C96.4861 87.4782 91.5989 82.5142 85.5389 82.4844C79.479 82.4546 74.541 87.3702 74.5098 93.4638C74.4785 99.5573 79.3657 104.521 85.4257 104.551C91.4856 104.581 96.4236 99.6652 96.4548 93.5717Z" fill="white"/>
<path d="M126.002 93.7123C126.033 87.6188 121.146 82.6548 115.086 82.625C109.026 82.5952 104.088 87.5109 104.057 93.6044C104.025 99.6979 108.913 104.662 114.973 104.692C121.033 104.721 125.97 99.8059 126.002 93.7123Z" fill="white"/>
<path d="M116.186 100.75C118.834 100.35 120.655 97.8846 120.255 95.2437C119.854 92.6029 117.383 90.7864 114.735 91.1866C112.088 91.5867 110.266 94.052 110.667 96.6928C111.068 99.3337 113.539 101.15 116.186 100.75Z" fill="#191919"/>
<path d="M86.2997 100.581C88.9472 100.181 90.7686 97.7157 90.3679 95.0748C89.9671 92.4339 87.496 90.6175 84.8485 91.0177C82.2009 91.4178 80.3796 93.883 80.7803 96.5239C81.181 99.1647 83.6521 100.981 86.2997 100.581Z" fill="#191919"/>
<path d="M88.5262 79.2436C88.5262 79.2436 82.8832 77.3556 76.4425 82.4396" stroke="#191919" stroke-width="1.58776" stroke-linecap="round" stroke-linejoin="round"/>
<path d="M124.15 83.2433C124.15 83.2433 121.039 78.1972 112.17 79.6564" stroke="#191919" stroke-width="1.58776" stroke-linecap="round" stroke-linejoin="round"/>
<path d="M95.1992 107.596C96.2344 108.568 99.6916 110.149 104.233 107.596" stroke="#191919" stroke-width="1.58776" stroke-linecap="round"/>
<path d="M139.883 48.9902C144.165 49.966 154.411 54.9594 161.141 67.1267" stroke="#333333" stroke-width="1.58776" stroke-linecap="round" stroke-linejoin="round"/>
<path d="M62.421 111.143C58.9781 113.652 52.0421 125.168 51.8405 129.986C51.639 134.804 58.1384 136.236 58.6423 137.742C59.1461 139.248 58.6423 140.084 58.6423 140.251" stroke="#191919" stroke-width="1.58776" stroke-linecap="round"/>
<path d="M137.048 111.143C140.491 113.652 147.427 125.168 147.628 129.986C147.83 134.804 141.33 136.236 140.826 137.742C140.323 139.248 140.826 140.084 140.826 140.251" stroke="#191919" stroke-width="1.58776" stroke-linecap="round"/>
</svg>
