<svg width="48" height="48" viewBox="0 0 48 48" fill="none" xmlns="http://www.w3.org/2000/svg">
<path fill-rule="evenodd" clip-rule="evenodd" d="M3.14722e-06 24C1.40906e-06 37.2548 10.7452 48 24 48C37.2548 48 48 37.2548 48 24C48 10.7452 37.2548 1.25148e-05 24 1.45913e-05C10.7452 1.28531e-05 4.88538e-06 10.7452 3.14722e-06 24Z" fill="white"/>
<path d="M13.7532 34.2381C12.7489 33.2339 12.7489 31.6058 13.7532 30.6016L20.5063 23.8484L13.7532 17.0953C12.749 16.0911 12.749 14.4629 13.7532 13.4587C14.7574 12.4545 16.3855 12.4545 17.3897 13.4587L25.9611 22.0302C26.4434 22.5124 26.7143 23.1664 26.7143 23.8484C26.7143 24.5304 26.4434 25.1845 25.9611 25.6667L17.3897 34.2381C16.3855 35.2423 14.7574 35.2423 13.7532 34.2381Z" fill="#A8A8A8"/>
<path d="M33.4674 30.6103C34.4716 31.6145 34.4716 33.2426 33.4674 34.2468C32.4632 35.2511 30.8351 35.2511 29.8309 34.2468L21.2595 25.6754C20.7772 25.1932 20.5063 24.5391 20.5063 23.8572C20.5063 23.1752 20.7772 22.5211 21.2595 22.0389L29.8309 13.4674C30.8351 12.4632 32.4632 12.4632 33.4674 13.4674C34.4716 14.4717 34.4716 16.0998 33.4674 17.104L26.7143 23.8571L33.4674 30.6103Z" fill="#A8A8A8"/>
</svg>
