<svg width="24" height="25" viewBox="0 0 24 25" fill="none" xmlns="http://www.w3.org/2000/svg">
<path fill-rule="evenodd" clip-rule="evenodd" d="M7.875 8.74584C7.25368 8.74584 6.75 8.24216 6.75 7.62084V6.50075C5.50736 6.50075 4.5 7.50811 4.5 8.75075V10.2508H19.5V8.75075C19.5 7.50811 18.4926 6.50075 17.25 6.50075V7.62578C17.25 8.2471 16.7463 8.75078 16.125 8.75078C15.5037 8.75078 15 8.2471 15 7.62578V6.50075H9V7.62084C9 8.24216 8.49632 8.74584 7.875 8.74584ZM15 4.25075H9V3.12207C9 2.50075 8.49632 1.99707 7.875 1.99707C7.25368 1.99707 6.75 2.50075 6.75 3.12207V4.25075C4.26472 4.25075 2.25 6.26547 2.25 8.75075V17.7507C2.25 20.236 4.26472 22.2507 6.75 22.2507H17.25C19.7353 22.2507 21.75 20.236 21.75 17.7507V8.75075C21.75 6.26547 19.7353 4.25075 17.25 4.25075V3.12575C17.25 2.50443 16.7463 2.00075 16.125 2.00075C15.5037 2.00075 15 2.50443 15 3.12575V4.25075ZM4.5 12.5008V17.7507C4.5 18.9934 5.50736 20.0007 6.75 20.0007H17.25C18.4926 20.0007 19.5 18.9934 19.5 17.7507V12.5008H4.5Z" fill="#BABABA"/>
</svg>
