<svg width="24" height="24" viewBox="0 0 24 24" fill="none" xmlns="http://www.w3.org/2000/svg">
<g clip-path="url(#clip0_1_38405)">
<path fill-rule="evenodd" clip-rule="evenodd" d="M18.7509 8.27299C18.7509 -11.4954 18.7509 43.6956 18.7509 8.27299V8.27299ZM14.1222 1.3943C12.9507 0.222732 11.0512 0.222732 9.87959 1.3943L8.27297 3.00092H6.00091C4.34405 3.00092 3.00091 4.34407 3.00091 6.00092V8.27298L1.3943 9.87959C0.222732 11.0512 0.222732 12.9507 1.3943 14.1222L3.00091 15.7288V18.0009C3.00091 19.6578 4.34405 21.0009 6.00091 21.0009H8.273L9.87959 22.6075C11.0512 23.7791 12.9507 23.7791 14.1222 22.6075L15.7288 21.0009H18.0009C19.6578 21.0009 21.0009 19.6578 21.0009 18.0009V15.7288L22.6075 14.1222C23.7791 12.9507 23.7791 11.0512 22.6075 9.87959L21.0009 8.27299V6.00092C21.0009 4.34407 19.6578 3.00092 18.0009 3.00092H15.7288L14.1222 1.3943ZM16.651 9.67592C17.0238 9.17886 16.923 8.47371 16.426 8.10092C15.9289 7.72812 15.2238 7.82886 14.851 8.32592L11.1292 13.2882L9.04646 11.2054C8.60712 10.7661 7.89481 10.7661 7.45547 11.2054C7.01613 11.6448 7.01613 12.3571 7.45547 12.7964L10.4555 15.7964C10.6861 16.027 11.0054 16.1462 11.3307 16.1231C11.656 16.1 11.9553 15.9368 12.151 15.6759L16.651 9.67592Z" fill="#FF6900"/>
</g>
<defs>
<clipPath id="clip0_1_38405">
<rect width="24" height="24" fill="white"/>
</clipPath>
</defs>
</svg>
