<svg width="24" height="25" viewBox="0 0 24 25" fill="none" xmlns="http://www.w3.org/2000/svg">
<path fill-rule="evenodd" clip-rule="evenodd" d="M22.5 12.5C22.5 18.299 17.799 23 12 23C6.20101 23 1.5 18.299 1.5 12.5C1.5 6.70101 6.20101 2 12 2C17.799 2 22.5 6.70101 22.5 12.5ZM13.5 16.25C13.5 17.0784 12.8284 17.75 12 17.75C11.1716 17.75 10.5 17.0784 10.5 16.25C10.5 15.4216 11.1716 14.75 12 14.75C12.8284 14.75 13.5 15.4216 13.5 16.25ZM13.125 8C13.125 7.37868 12.6213 6.875 12 6.875C11.3787 6.875 10.875 7.37868 10.875 8V11.75C10.875 12.3713 11.3787 12.875 12 12.875C12.6213 12.875 13.125 12.3713 13.125 11.75V8Z" fill="#FF5858"/>
</svg>
