<svg width="21" height="20" viewBox="0 0 21 20" fill="none" xmlns="http://www.w3.org/2000/svg">
<path fill-rule="evenodd" clip-rule="evenodd" d="M4.875 3.75V16.25C4.875 16.5952 5.15482 16.875 5.5 16.875H14.25C15.2855 16.875 16.125 16.0355 16.125 15V5C16.125 3.96447 15.2855 3.125 14.25 3.125L5.5 3.125C5.15482 3.125 4.875 3.40482 4.875 3.75ZM3 16.25C3 17.6307 4.11929 18.75 5.5 18.75H14.25C16.3211 18.75 18 17.0711 18 15V5C18 2.92893 16.3211 1.25 14.25 1.25H5.5C4.11929 1.25 3 2.36929 3 3.75V16.25ZM7.375 13.4375C7.375 12.9197 7.79473 12.5 8.3125 12.5H12.6875C13.2053 12.5 13.625 12.9197 13.625 13.4375C13.625 13.9553 13.2053 14.375 12.6875 14.375H8.3125C7.79473 14.375 7.375 13.9553 7.375 13.4375ZM11.75 8.125C11.75 8.81536 11.1904 9.375 10.5 9.375C9.80964 9.375 9.25 8.81536 9.25 8.125C9.25 7.43464 9.80964 6.875 10.5 6.875C11.1904 6.875 11.75 7.43464 11.75 8.125ZM13.625 8.125C13.625 9.85089 12.2259 11.25 10.5 11.25C8.77411 11.25 7.375 9.85089 7.375 8.125C7.375 6.39911 8.77411 5 10.5 5C12.2259 5 13.625 6.39911 13.625 8.125Z" fill="#363636"/>
</svg>
