<svg width="24" height="24" viewBox="0 0 24 24" fill="none" xmlns="http://www.w3.org/2000/svg">
<path d="M4.80775 21.1152C4.30258 21.1152 3.875 20.9403 3.525 20.5903C3.175 20.2402 3 19.8127 3 19.3075V5.923C3 5.41783 3.175 4.99025 3.525 4.64025C3.875 4.29025 4.30258 4.11525 4.80775 4.11525H6.19225V2H7.73075V4.11525H15.3077V2H16.8077V4.11525H18.1923C18.6974 4.11525 19.125 4.29025 19.475 4.64025C19.825 4.99025 20 5.41783 20 5.923V19.3075C20 19.8127 19.825 20.2402 19.475 20.5903C19.125 20.9403 18.6974 21.1152 18.1923 21.1152H4.80775ZM4.80775 19.6152H18.1923C18.2692 19.6152 18.3398 19.5832 18.4038 19.519C18.4679 19.455 18.5 19.3845 18.5 19.3075V9.923H4.5V19.3075C4.5 19.3845 4.53208 19.455 4.59625 19.519C4.66025 19.5832 4.73075 19.6152 4.80775 19.6152ZM4.5 8.423H18.5V5.923C18.5 5.846 18.4679 5.7755 18.4038 5.7115C18.3398 5.64733 18.2692 5.61525 18.1923 5.61525H4.80775C4.73075 5.61525 4.66025 5.64733 4.59625 5.7115C4.53208 5.7755 4.5 5.846 4.5 5.923V8.423Z" fill="#313333"/>
</svg>
